<svg width="898" height="144" viewBox="0 0 898 144" fill="none" xmlns="http://www.w3.org/2000/svg">
<path d="M0 63C0 28.2061 28.2061 0 63 0H835C869.794 0 898 28.2061 898 63V81C898 115.794 869.794 144 835 144H63C28.2061 144 0 115.794 0 81V63Z" fill="#FFF6F1" fill-opacity="0.2"/>
<path d="M80.5585 95V46.1875H97.1548C103.486 46.1875 107.864 47.5187 110.29 50.1813C112.775 52.7846 114.017 55.6838 114.017 58.8788C114.017 63.4938 111.887 67.1029 107.627 69.7063C110.881 70.3571 113.396 71.8363 115.171 74.1438C117.005 76.4513 117.922 78.9658 117.922 81.6875C117.922 85.2967 116.295 88.4325 113.041 91.095C109.846 93.6983 104.166 95 96.001 95H80.5585ZM103.367 55.3288C101.888 54.2637 99.2848 53.7313 95.5573 53.7313H89.256V66.245H95.5573C99.1073 66.245 101.651 65.7421 103.19 64.7363C104.787 63.7304 105.586 62.1625 105.586 60.0325C105.586 57.9617 104.846 56.3937 103.367 55.3288ZM105.852 75.3863C103.604 74.1438 99.9652 73.5225 94.936 73.5225L89.256 73.6113V87.3675H94.936C99.8469 87.3675 103.456 86.8942 105.764 85.9475C108.13 85.0008 109.314 83.2554 109.314 80.7113C109.314 78.3446 108.16 76.5696 105.852 75.3863Z" fill="#FFF6F1"/>
<path d="M134.505 87.8112C135.096 88.6987 136.132 89.1425 137.611 89.1425C138.794 89.1425 140.155 88.9354 141.693 88.5212V94.1125C139.268 95.2367 136.723 95.7988 134.061 95.7988C128.263 95.7988 125.363 92.6038 125.363 86.2138V46.1875H133.706V83.7288C133.706 85.5038 133.972 86.8646 134.505 87.8112Z" fill="#FFF6F1"/>
<path d="M146.641 95V60.92H155.161V95H146.641ZM147.085 53.5537C148.15 54.6188 149.422 55.1513 150.901 55.1513C152.44 55.1513 153.712 54.6188 154.717 53.5537C155.782 52.4888 156.315 51.2167 156.315 49.7375C156.315 48.1992 155.782 46.9271 154.717 45.9213C153.712 44.8563 152.44 44.3237 150.901 44.3237C149.422 44.3237 148.15 44.8563 147.085 45.9213C146.02 46.9271 145.487 48.1992 145.487 49.7375C145.487 51.2167 146.02 52.4888 147.085 53.5537Z" fill="#FFF6F1"/>
<path d="M186.024 60.92H194.899L182.208 95H173.599L160.464 60.92H169.96L178.037 86.0362L186.024 60.92Z" fill="#FFF6F1"/>
<path d="M226.419 62.6063C228.845 61.1271 231.448 60.3875 234.229 60.3875C239.377 60.3875 243.311 61.985 246.033 65.18C248.814 68.3158 250.204 72.635 250.204 78.1375V81.4212H227.04C227.277 84.3204 228.283 86.3321 230.058 87.4563C231.833 88.5804 234.347 89.1425 237.602 89.1425C241.033 89.1425 244.169 88.7875 247.009 88.0775L248.518 93.8463C244.672 95.2071 240.649 95.8875 236.448 95.8875C230.59 95.8875 226.123 94.2604 223.047 91.0062C219.97 87.7521 218.432 83.4625 218.432 78.1375C218.432 74.5875 219.171 71.4812 220.65 68.8187C222.13 66.0971 224.052 64.0263 226.419 62.6063ZM239.732 69.2625C238.371 67.7833 236.596 67.0438 234.407 67.0438C232.632 67.0438 231.005 67.7833 229.525 69.2625C228.105 70.7417 227.336 72.8125 227.218 75.475H241.773C241.773 72.7533 241.092 70.6825 239.732 69.2625Z" fill="#FFF6F1"/>
<path d="M256.916 60.92H262.951L264.016 63.405C268.039 61.4525 271.974 60.4762 275.82 60.4762C279.429 60.4762 282.121 61.275 283.896 62.8725C285.73 64.47 286.884 66.3338 287.357 68.4638C287.89 70.5938 288.156 72.99 288.156 75.6525V95H279.725V74.5875C279.725 72.8125 279.281 71.215 278.393 69.795C277.506 68.375 275.908 67.665 273.601 67.665C271.53 67.665 268.779 68.2862 265.347 69.5287V95H256.916V60.92Z" fill="#FFF6F1"/>
<path d="M339.154 61.8075V46.1875H347.674V95H341.55L340.929 93.1363C337.911 94.9113 334.864 95.7988 331.788 95.7988C326.403 95.7988 322.143 94.2012 319.008 91.0062C315.931 87.8112 314.393 83.4921 314.393 78.0488C314.393 73.9663 315.251 70.5938 316.966 67.9313C318.741 65.2688 320.901 63.3458 323.445 62.1625C325.989 60.9792 328.533 60.3875 331.078 60.3875C334.332 60.3875 337.024 60.8608 339.154 61.8075ZM339.154 68.1975C337.379 67.4283 335.338 67.0438 333.03 67.0438C326.463 67.0438 323.179 70.86 323.179 78.4925C323.179 82.2792 324.096 85.0008 325.93 86.6575C327.764 88.3142 330.22 89.1425 333.296 89.1425C335.486 89.1425 337.438 88.5804 339.154 87.4563V68.1975Z" fill="#FFF6F1"/>
<path d="M362.942 62.6063C365.367 61.1271 367.971 60.3875 370.752 60.3875C375.899 60.3875 379.834 61.985 382.555 65.18C385.336 68.3158 386.727 72.635 386.727 78.1375V81.4212H363.563C363.8 84.3204 364.805 86.3321 366.58 87.4563C368.355 88.5804 370.87 89.1425 374.124 89.1425C377.556 89.1425 380.692 88.7875 383.532 88.0775L385.04 93.8463C381.195 95.2071 377.171 95.8875 372.97 95.8875C367.113 95.8875 362.646 94.2604 359.569 91.0062C356.492 87.7521 354.954 83.4625 354.954 78.1375C354.954 74.5875 355.694 71.4812 357.173 68.8187C358.652 66.0971 360.575 64.0263 362.942 62.6063ZM376.254 69.2625C374.893 67.7833 373.118 67.0438 370.929 67.0438C369.154 67.0438 367.527 67.7833 366.048 69.2625C364.628 70.7417 363.859 72.8125 363.74 75.475H378.295C378.295 72.7533 377.615 70.6825 376.254 69.2625Z" fill="#FFF6F1"/>
<path d="M403.112 87.8112C403.704 88.6987 404.739 89.1425 406.218 89.1425C407.402 89.1425 408.763 88.9354 410.301 88.5212V94.1125C407.875 95.2367 405.331 95.7988 402.668 95.7988C396.87 95.7988 393.971 92.6038 393.971 86.2138V46.1875H402.313V83.7288C402.313 85.5038 402.58 86.8646 403.112 87.8112Z" fill="#FFF6F1"/>
<path d="M435.955 62.695C440.57 61.1567 444.357 60.3875 447.315 60.3875C453.054 60.3875 457.048 61.5708 459.296 63.9375C461.604 66.3042 462.758 69.6767 462.758 74.055V95H456.013L455.036 92.6038C452.374 94.7338 449.061 95.7988 445.096 95.7988C441.428 95.7988 438.499 94.8521 436.31 92.9587C434.121 91.0654 433.026 88.6396 433.026 85.6813C433.026 82.3679 434.239 79.7942 436.665 77.96C439.15 76.0667 442.671 75.0017 447.226 74.765L453.883 74.41C453.883 71.4517 453.35 69.44 452.285 68.375C451.22 67.31 449.12 66.7775 445.984 66.7775C443.321 66.7775 440.422 67.3692 437.286 68.5525L435.955 62.695ZM452.64 88.3438C453.409 87.9296 453.942 87.6338 454.238 87.4563V80.1787L448.203 80.6225C443.765 80.8592 441.546 82.3383 441.546 85.06C441.546 86.4208 442.049 87.4858 443.055 88.255C444.061 89.0242 445.451 89.4088 447.226 89.4088C448.41 89.4088 449.416 89.32 450.244 89.1425C451.072 88.965 451.871 88.6988 452.64 88.3438Z" fill="#FFF6F1"/>
<path d="M468.066 60.92H473.746V58.2575C473.746 55.2992 474.693 52.4888 476.586 49.8263C478.538 47.1638 482.236 45.8325 487.68 45.8325C490.401 45.8325 493.301 46.2762 496.377 47.1637L497.62 47.6075L496.288 53.7313L494.868 53.2875C493.153 52.8142 491.407 52.5775 489.632 52.5775C487.325 52.5775 485.491 53.0508 484.13 53.9975C482.828 54.9442 482.177 56.2754 482.177 57.9912V60.92H494.868V67.5762H482.177V95H473.746V67.5762H468.066V60.92Z" fill="#FFF6F1"/>
<path d="M528.055 87.8112C528.647 88.6987 529.683 89.1425 531.162 89.1425C532.345 89.1425 533.706 88.9354 535.244 88.5212V94.1125C532.818 95.2367 530.274 95.7988 527.612 95.7988C521.813 95.7988 518.914 92.6038 518.914 86.2138V46.1875H527.257V83.7288C527.257 85.5038 527.523 86.8646 528.055 87.8112Z" fill="#FFF6F1"/>
<path d="M570.9 67.8425C572.675 70.6233 573.562 74.0254 573.562 78.0488C573.562 81.5396 572.822 84.6162 571.343 87.2787C569.923 89.9412 567.882 92.0417 565.219 93.58C562.557 95.0592 559.48 95.7988 555.99 95.7988C552.321 95.7988 549.037 94.9113 546.138 93.1363L542.5 96.8637L537.796 92.4262L541.523 88.61C539.512 85.7108 538.506 82.22 538.506 78.1375C538.506 72.635 540.103 68.3158 543.298 65.18C546.493 61.985 550.753 60.3875 556.078 60.3875C560.042 60.3875 563.444 61.3046 566.284 63.1388L569.835 59.4113L574.538 64.2038L570.9 67.8425ZM547.292 78.1375C547.292 79.4983 547.44 80.8296 547.736 82.1312L560.871 68.6413C559.451 67.5763 557.824 67.0438 555.99 67.0438C553.564 67.0438 551.493 68.02 549.777 69.9725C548.12 71.925 547.292 74.6467 547.292 78.1375ZM564.776 78.1375C564.776 77.25 564.657 76.0371 564.421 74.4987L551.463 87.7225C552.824 88.61 554.333 89.0537 555.99 89.0537C558.593 89.0537 560.693 88.1071 562.291 86.2138C563.947 84.3204 564.776 81.6283 564.776 78.1375Z" fill="#FFF6F1"/>
<path d="M592.172 95.7988C587.793 95.7988 583.385 94.7633 578.948 92.6925L581.344 86.0362C583.356 86.7462 585.397 87.3379 587.468 87.8112C589.539 88.2846 591.255 88.5212 592.616 88.5212C595.101 88.5212 596.846 88.255 597.852 87.7225C598.858 87.19 599.361 86.3617 599.361 85.2375C599.361 84.4683 598.887 83.8471 597.941 83.3737C596.994 82.9004 595.426 82.3087 593.237 81.5987C590.633 80.8296 588.444 80.0604 586.669 79.2913C584.894 78.4629 583.356 77.2796 582.054 75.7412C580.753 74.1437 580.102 72.1321 580.102 69.7063C580.102 67.3396 581.078 65.2096 583.031 63.3162C584.983 61.3638 588.829 60.3875 594.568 60.3875C596.402 60.3875 598.355 60.5946 600.426 61.0088C602.556 61.4229 604.36 61.8667 605.839 62.34L603.709 68.9075C600.041 67.8425 597.023 67.31 594.657 67.31C592.053 67.31 590.308 67.5467 589.421 68.02C588.533 68.4933 588.089 69.1737 588.089 70.0612C588.089 71.0079 588.622 71.7771 589.687 72.3688C590.811 72.9604 592.556 73.6113 594.923 74.3213C597.526 75.0904 599.656 75.8596 601.313 76.6288C603.029 77.3979 604.478 78.4925 605.662 79.9125C606.904 81.3325 607.526 83.1371 607.526 85.3262C607.526 87.9887 606.372 90.4146 604.064 92.6038C601.816 94.7338 597.852 95.7988 592.172 95.7988Z" fill="#FFF6F1"/>
<path d="M614.204 60.92H620.239L621.304 63.405C625.327 61.4525 629.262 60.4762 633.108 60.4762C636.717 60.4762 639.409 61.275 641.184 62.8725C643.018 64.47 644.172 66.3338 644.645 68.4638C645.178 70.5938 645.444 72.99 645.444 75.6525V95H637.013V74.5875C637.013 72.8125 636.569 71.215 635.681 69.795C634.794 68.375 633.196 67.665 630.889 67.665C628.818 67.665 626.067 68.2862 622.635 69.5287V95H614.204V60.92Z" fill="#FFF6F1"/>
<path d="M653.903 95V60.92H662.423V95H653.903ZM654.347 53.5537C655.412 54.6188 656.684 55.1513 658.163 55.1513C659.701 55.1513 660.973 54.6188 661.979 53.5537C663.044 52.4888 663.577 51.2167 663.577 49.7375C663.577 48.1992 663.044 46.9271 661.979 45.9213C660.973 44.8563 659.701 44.3237 658.163 44.3237C656.684 44.3237 655.412 44.8563 654.347 45.9213C653.282 46.9271 652.749 48.1992 652.749 49.7375C652.749 51.2167 653.282 52.4888 654.347 53.5537Z" fill="#FFF6F1"/>
<path d="M670.921 60.92H676.956L678.021 63.405C682.044 61.4525 685.979 60.4762 689.825 60.4762C693.434 60.4762 696.126 61.275 697.901 62.8725C699.735 64.47 700.889 66.3338 701.362 68.4638C701.895 70.5938 702.161 72.99 702.161 75.6525V95H693.729V74.5875C693.729 72.8125 693.286 71.215 692.398 69.795C691.511 68.375 689.913 67.665 687.606 67.665C685.535 67.665 682.784 68.2862 679.352 69.5287V95H670.921V60.92Z" fill="#FFF6F1"/>
<path d="M732.807 101.124C733.399 99.3487 733.695 97.0412 733.695 94.2012V94.0238C732.334 94.6154 731.091 95.0592 729.967 95.355C728.902 95.6508 727.66 95.7988 726.24 95.7988C720.856 95.7988 716.596 94.2012 713.46 91.0062C710.383 87.8112 708.845 83.4921 708.845 78.0488C708.845 73.7888 709.703 70.3571 711.419 67.7538C713.134 65.0913 715.205 63.1979 717.631 62.0738C720.116 60.9496 722.601 60.3875 725.086 60.3875C728.636 60.3875 732.068 61.3046 735.381 63.1388L736.18 60.92H742.126V95.7988C742.126 100.591 740.706 104.733 737.866 108.224C735.026 111.774 730.293 113.549 723.666 113.549C719.584 113.549 715.649 112.809 711.862 111.33L710.531 110.798L712.839 104.585L714.258 105.029C717.572 106.212 720.412 106.804 722.779 106.804C725.796 106.804 728.074 106.301 729.612 105.295C731.21 104.289 732.275 102.899 732.807 101.124ZM733.606 68.375C731.713 67.5467 729.671 67.1325 727.482 67.1325C720.915 67.1325 717.631 70.9192 717.631 78.4925C717.631 82.2792 718.548 85.0008 720.382 86.6575C722.216 88.3142 724.672 89.1425 727.748 89.1425C729.938 89.1425 731.89 88.5804 733.606 87.4563V68.375Z" fill="#FFF6F1"/>
<path d="M757.186 62.6063C759.612 61.1271 762.215 60.3875 764.996 60.3875C770.143 60.3875 774.078 61.985 776.799 65.18C779.58 68.3158 780.971 72.635 780.971 78.1375V81.4212H757.807C758.044 84.3204 759.05 86.3321 760.825 87.4563C762.6 88.5804 765.114 89.1425 768.368 89.1425C771.8 89.1425 774.936 88.7875 777.776 88.0775L779.284 93.8463C775.439 95.2071 771.415 95.8875 767.215 95.8875C761.357 95.8875 756.89 94.2604 753.813 91.0062C750.737 87.7521 749.198 83.4625 749.198 78.1375C749.198 74.5875 749.938 71.4812 751.417 68.8187C752.896 66.0971 754.819 64.0263 757.186 62.6063ZM770.498 69.2625C769.137 67.7833 767.362 67.0438 765.173 67.0438C763.398 67.0438 761.771 67.7833 760.292 69.2625C758.872 70.7417 758.103 72.8125 757.984 75.475H772.539C772.539 72.7533 771.859 70.6825 770.498 69.2625Z" fill="#FFF6F1"/>
<path d="M787.682 60.92H793.717L794.782 63.405C798.806 61.4525 802.74 60.4762 806.586 60.4762C810.195 60.4762 812.887 61.275 814.662 62.8725C816.497 64.47 817.65 66.3338 818.124 68.4638C818.656 70.5938 818.922 72.99 818.922 75.6525V95H810.491V74.5875C810.491 72.8125 810.047 71.215 809.16 69.795C808.272 68.375 806.675 67.665 804.367 67.665C802.297 67.665 799.545 68.2862 796.114 69.5287V95H787.682V60.92Z" fill="#FFF6F1"/>
</svg>
