<svg width="65" height="65" viewBox="0 0 65 65" fill="none" xmlns="http://www.w3.org/2000/svg">
<path d="M32.5 0C14.5509 0 0 14.5509 0 32.5C0 47.7412 10.4936 60.5306 24.6493 64.0432V42.432H17.9478V32.5H24.6493V28.2204C24.6493 17.1587 29.6556 12.0315 40.5158 12.0315C42.575 12.0315 46.1279 12.4358 47.5813 12.8388V21.8413C46.8143 21.7607 45.4818 21.7204 43.8269 21.7204C38.4982 21.7204 36.439 23.7393 36.439 28.9874V32.5H47.0548L45.2309 42.432H36.439V64.7621C52.5317 62.8186 65.0013 49.1166 65.0013 32.5C65 14.5509 50.4491 0 32.5 0Z" fill="#FFF6F1"/>
</svg>
