<svg width="65" height="64" viewBox="0 0 65 64" fill="none" xmlns="http://www.w3.org/2000/svg">
<path fill-rule="evenodd" clip-rule="evenodd" d="M32.5269 0C14.5404 0 0 14.6476 0 32.7686C0 47.2537 9.31651 59.515 22.241 63.8547C23.8569 64.1809 24.4488 63.1496 24.4488 62.2821C24.4488 61.5224 24.3955 58.9185 24.3955 56.2053C15.3473 58.1588 13.4631 52.2991 13.4631 52.2991C12.009 48.5014 9.85447 47.5253 9.85447 47.5253C6.89301 45.5179 10.0702 45.5179 10.0702 45.5179C13.3552 45.735 15.079 48.8815 15.079 48.8815C17.9865 53.8724 22.6717 52.4622 24.5566 51.594C24.8256 49.4781 25.6878 48.0133 26.6033 47.1997C19.3867 46.4401 11.7939 43.6191 11.7939 31.0322C11.7939 27.4515 13.0856 24.522 15.1323 22.2436C14.8093 21.43 13.6782 18.0658 15.4558 13.563C15.4558 13.563 18.2022 12.6948 24.3948 16.9266C27.0461 16.2093 29.7803 15.8444 32.5269 15.8413C35.2733 15.8413 38.073 16.2215 40.6583 16.9266C46.8515 12.6948 49.5979 13.563 49.5979 13.563C51.3756 18.0658 50.2438 21.43 49.9209 22.2436C52.0215 24.522 53.2598 27.4515 53.2598 31.0322C53.2598 43.6191 45.6671 46.3855 38.3966 47.1997C39.5817 48.2304 40.6044 50.1832 40.6044 53.2758C40.6044 57.6701 40.5511 61.1968 40.5511 62.2814C40.5511 63.1496 41.1436 64.1809 42.7589 63.8553C55.6833 59.5143 64.9998 47.2537 64.9998 32.7686C65.0531 14.6476 50.4595 0 32.5269 0Z" fill="#FFF6F1"/>
</svg>
