<svg width="64" height="65" viewBox="0 0 64 65" fill="none" xmlns="http://www.w3.org/2000/svg">
<path d="M32 5.85254C40.55 5.85254 41.5625 5.89062 44.925 6.04297C48.05 6.18262 49.7375 6.71582 50.8625 7.16016C52.35 7.74414 53.425 8.45508 54.5375 9.58496C55.6625 10.7275 56.35 11.8066 56.925 13.3174C57.3625 14.46 57.8875 16.1865 58.025 19.3477C58.175 22.7754 58.2125 23.8037 58.2125 32.4746C58.2125 41.1582 58.175 42.1865 58.025 45.6016C57.8875 48.7754 57.3625 50.4893 56.925 51.6318C56.35 53.1426 55.65 54.2344 54.5375 55.3643C53.4125 56.5068 52.35 57.2051 50.8625 57.7891C49.7375 58.2334 48.0375 58.7666 44.925 58.9063C41.55 59.0586 40.5375 59.0967 32 59.0967C23.45 59.0967 22.4375 59.0586 19.075 58.9063C15.95 58.7666 14.2625 58.2334 13.1375 57.7891C11.65 57.2051 10.575 56.4941 9.4625 55.3643C8.3375 54.2217 7.65 53.1426 7.075 51.6318C6.6375 50.4893 6.1125 48.7627 5.975 45.6016C5.825 42.1738 5.7875 41.1455 5.7875 32.4746C5.7875 23.791 5.825 22.7627 5.975 19.3477C6.1125 16.1738 6.6375 14.46 7.075 13.3174C7.65 11.8066 8.35 10.7148 9.4625 9.58496C10.5875 8.44238 11.65 7.74414 13.1375 7.16016C14.2625 6.71582 15.9625 6.18262 19.075 6.04297C22.4375 5.89062 23.45 5.85254 32 5.85254ZM32 0C23.3125 0 22.225 0.0380859 18.8125 0.19043C15.4125 0.342773 13.075 0.901367 11.05 1.70117C8.9375 2.53906 7.15 3.64355 5.375 5.45898C3.5875 7.26172 2.5 9.07715 1.675 11.21C0.8875 13.2793 0.3375 15.6406 0.1875 19.0938C0.0375 22.5723 0 23.6768 0 32.5C0 41.3232 0.0375 42.4277 0.1875 45.8936C0.3375 49.3467 0.8875 51.7207 1.675 53.7773C2.5 55.9229 3.5875 57.7383 5.375 59.541C7.15 61.3438 8.9375 62.4609 11.0375 63.2861C13.075 64.0859 15.4 64.6445 18.8 64.7969C22.2125 64.9492 23.3 64.9873 31.9875 64.9873C40.675 64.9873 41.7625 64.9492 45.175 64.7969C48.575 64.6445 50.9125 64.0859 52.9375 63.2861C55.0375 62.4609 56.825 61.3438 58.6 59.541C60.375 57.7383 61.475 55.9229 62.2875 53.79C63.075 51.7207 63.625 49.3594 63.775 45.9063C63.925 42.4404 63.9625 41.3359 63.9625 32.5127C63.9625 23.6895 63.925 22.585 63.775 19.1191C63.625 15.666 63.075 13.292 62.2875 11.2354C61.5 9.07715 60.4125 7.26172 58.625 5.45898C56.85 3.65625 55.0625 2.53906 52.9625 1.71387C50.925 0.914062 48.6 0.355469 45.2 0.203125C41.775 0.038086 40.6875 0 32 0Z" fill="#FFF6F1"/>
<path d="M32 15.8057C22.925 15.8057 15.5625 23.2832 15.5625 32.5C15.5625 41.7168 22.925 49.1943 32 49.1943C41.075 49.1943 48.4375 41.7168 48.4375 32.5C48.4375 23.2832 41.075 15.8057 32 15.8057ZM32 43.3291C26.1125 43.3291 21.3375 38.4795 21.3375 32.5C21.3375 26.5205 26.1125 21.6709 32 21.6709C37.8875 21.6709 42.6625 26.5205 42.6625 32.5C42.6625 38.4795 37.8875 43.3291 32 43.3291Z" fill="#FFF6F1"/>
<path d="M52.925 15.1454C52.925 17.3036 51.2 19.0429 49.0875 19.0429C46.9625 19.0429 45.25 17.2909 45.25 15.1454C45.25 12.9872 46.975 11.2479 49.0875 11.2479C51.2 11.2479 52.925 12.9999 52.925 15.1454Z" fill="#FFF6F1"/>
</svg>
