<svg width="657" height="120" viewBox="0 0 657 120" fill="none" xmlns="http://www.w3.org/2000/svg">
<path d="M0 60C0 26.8629 26.8629 0 60 0H597C630.137 0 657 26.8629 657 60C657 93.1371 630.137 120 597 120H60C26.8629 120 0 93.1371 0 60Z" fill="#FFF6F1"/>
<path d="M78.0371 48.125V42.625H106.662V48.125H95.4121V77H89.2871V48.125H78.0371Z" fill="#0C4857"/>
<path d="M110.273 77V53H116.273V77H110.273ZM110.586 47.8125C111.336 48.5625 112.232 48.9375 113.273 48.9375C114.357 48.9375 115.253 48.5625 115.961 47.8125C116.711 47.0625 117.086 46.1667 117.086 45.125C117.086 44.0417 116.711 43.1458 115.961 42.4375C115.253 41.6875 114.357 41.3125 113.273 41.3125C112.232 41.3125 111.336 41.6875 110.586 42.4375C109.836 43.1458 109.461 44.0417 109.461 45.125C109.461 46.1667 109.836 47.0625 110.586 47.8125Z" fill="#0C4857"/>
<path d="M129.07 71.9375C129.487 72.5625 130.216 72.875 131.258 72.875C132.091 72.875 133.049 72.7292 134.133 72.4375V76.375C132.424 77.1667 130.633 77.5625 128.758 77.5625C124.674 77.5625 122.633 75.3125 122.633 70.8125V42.625H128.508V69.0625C128.508 70.3125 128.695 71.2708 129.07 71.9375Z" fill="#0C4857"/>
<path d="M137.492 53H141.742L142.492 54.75C142.742 54.6667 143.263 54.4583 144.055 54.125C144.846 53.7917 145.784 53.4792 146.867 53.1875C147.951 52.8542 149.096 52.6875 150.305 52.6875C153.013 52.6875 155.076 53.5 156.492 55.125C159.742 53.5 162.659 52.6875 165.242 52.6875C168.659 52.6875 170.867 53.7083 171.867 55.75C172.909 57.7917 173.43 60.3333 173.43 63.375V77H167.492V62.625C167.492 61.375 167.221 60.25 166.68 59.25C166.138 58.25 165.138 57.75 163.68 57.75C162.93 57.75 162.138 57.875 161.305 58.125C160.471 58.3333 159.409 58.7083 158.117 59.25C158.409 60.6667 158.555 62.125 158.555 63.625V77H152.555V62.625C152.555 61.375 152.263 60.25 151.68 59.25C151.138 58.25 150.138 57.75 148.68 57.75C148.096 57.75 147.409 57.8542 146.617 58.0625C145.867 58.2292 144.805 58.5625 143.43 59.0625V77H137.492V53Z" fill="#0C4857"/>
<path d="M183.74 54.1875C185.449 53.1458 187.282 52.625 189.24 52.625C192.865 52.625 195.636 53.75 197.553 56C199.511 58.2083 200.49 61.25 200.49 65.125V67.4375H184.178C184.344 69.4792 185.053 70.8958 186.303 71.6875C187.553 72.4792 189.324 72.875 191.615 72.875C194.032 72.875 196.24 72.625 198.24 72.125L199.303 76.1875C196.594 77.1458 193.761 77.625 190.803 77.625C186.678 77.625 183.532 76.4792 181.365 74.1875C179.199 71.8958 178.115 68.875 178.115 65.125C178.115 62.625 178.636 60.4375 179.678 58.5625C180.719 56.6458 182.074 55.1875 183.74 54.1875ZM193.115 58.875C192.157 57.8333 190.907 57.3125 189.365 57.3125C188.115 57.3125 186.969 57.8333 185.928 58.875C184.928 59.9167 184.386 61.375 184.303 63.25H194.553C194.553 61.3333 194.074 59.875 193.115 58.875Z" fill="#0C4857"/>
<path d="M212.029 71.9375C212.446 72.5625 213.175 72.875 214.217 72.875C215.05 72.875 216.008 72.7292 217.092 72.4375V76.375C215.383 77.1667 213.592 77.5625 211.717 77.5625C207.633 77.5625 205.592 75.3125 205.592 70.8125V42.625H211.467V69.0625C211.467 70.3125 211.654 71.2708 212.029 71.9375Z" fill="#0C4857"/>
<path d="M236.764 53.625V42.625H242.764V77H238.451L238.014 75.6875C235.889 76.9375 233.743 77.5625 231.576 77.5625C227.785 77.5625 224.785 76.4375 222.576 74.1875C220.41 71.9375 219.326 68.8958 219.326 65.0625C219.326 62.1875 219.93 59.8125 221.139 57.9375C222.389 56.0625 223.91 54.7083 225.701 53.875C227.493 53.0417 229.285 52.625 231.076 52.625C233.368 52.625 235.264 52.9583 236.764 53.625ZM236.764 58.125C235.514 57.5833 234.076 57.3125 232.451 57.3125C227.826 57.3125 225.514 60 225.514 65.375C225.514 68.0417 226.16 69.9583 227.451 71.125C228.743 72.2917 230.472 72.875 232.639 72.875C234.18 72.875 235.555 72.4792 236.764 71.6875V58.125Z" fill="#0C4857"/>
<path d="M279.098 53.625V42.625H285.098V77H280.785L280.348 75.6875C278.223 76.9375 276.077 77.5625 273.91 77.5625C270.118 77.5625 267.118 76.4375 264.91 74.1875C262.743 71.9375 261.66 68.8958 261.66 65.0625C261.66 62.1875 262.264 59.8125 263.473 57.9375C264.723 56.0625 266.243 54.7083 268.035 53.875C269.827 53.0417 271.618 52.625 273.41 52.625C275.702 52.625 277.598 52.9583 279.098 53.625ZM279.098 58.125C277.848 57.5833 276.41 57.3125 274.785 57.3125C270.16 57.3125 267.848 60 267.848 65.375C267.848 68.0417 268.493 69.9583 269.785 71.125C271.077 72.2917 272.806 72.875 274.973 72.875C276.514 72.875 277.889 72.4792 279.098 71.6875V58.125Z" fill="#0C4857"/>
<path d="M291.475 77V53H297.475V77H291.475ZM291.787 47.8125C292.537 48.5625 293.433 48.9375 294.475 48.9375C295.558 48.9375 296.454 48.5625 297.162 47.8125C297.912 47.0625 298.287 46.1667 298.287 45.125C298.287 44.0417 297.912 43.1458 297.162 42.4375C296.454 41.6875 295.558 41.3125 294.475 41.3125C293.433 41.3125 292.537 41.6875 291.787 42.4375C291.037 43.1458 290.662 44.0417 290.662 45.125C290.662 46.1667 291.037 47.0625 291.787 47.8125Z" fill="#0C4857"/>
<path d="M303.459 53H307.709L308.459 54.75C311.292 53.375 314.063 52.6875 316.771 52.6875C319.313 52.6875 321.209 53.25 322.459 54.375C323.751 55.5 324.563 56.8125 324.896 58.3125C325.271 59.8125 325.459 61.5 325.459 63.375V77H319.521V62.625C319.521 61.375 319.209 60.25 318.584 59.25C317.959 58.25 316.834 57.75 315.209 57.75C313.751 57.75 311.813 58.1875 309.396 59.0625V77H303.459V53Z" fill="#0C4857"/>
<path d="M345.061 53H349.311L350.061 54.75C352.269 53.3333 354.623 52.625 357.123 52.625C358.665 52.625 360.123 52.9375 361.498 53.5625L360.311 59L360.061 59.0625C358.644 58.2292 356.936 57.8125 354.936 57.8125C353.561 57.8125 352.248 58.0417 350.998 58.5V77H345.061V53Z" fill="#0C4857"/>
<path d="M369.482 54.1875C371.191 53.1458 373.024 52.625 374.982 52.625C378.607 52.625 381.378 53.75 383.295 56C385.253 58.2083 386.232 61.25 386.232 65.125V67.4375H369.92C370.087 69.4792 370.795 70.8958 372.045 71.6875C373.295 72.4792 375.066 72.875 377.357 72.875C379.774 72.875 381.982 72.625 383.982 72.125L385.045 76.1875C382.337 77.1458 379.503 77.625 376.545 77.625C372.42 77.625 369.274 76.4792 367.107 74.1875C364.941 71.8958 363.857 68.875 363.857 65.125C363.857 62.625 364.378 60.4375 365.42 58.5625C366.462 56.6458 367.816 55.1875 369.482 54.1875ZM378.857 58.875C377.899 57.8333 376.649 57.3125 375.107 57.3125C373.857 57.3125 372.712 57.8333 371.67 58.875C370.67 59.9167 370.128 61.375 370.045 63.25H380.295C380.295 61.3333 379.816 59.875 378.857 58.875Z" fill="#0C4857"/>
<path d="M399.271 77.5625C396.188 77.5625 393.084 76.8333 389.959 75.375L391.646 70.6875C393.063 71.1875 394.501 71.6042 395.959 71.9375C397.417 72.2708 398.626 72.4375 399.584 72.4375C401.334 72.4375 402.563 72.25 403.271 71.875C403.98 71.5 404.334 70.9167 404.334 70.125C404.334 69.5833 404.001 69.1458 403.334 68.8125C402.667 68.4792 401.563 68.0625 400.021 67.5625C398.188 67.0208 396.646 66.4792 395.396 65.9375C394.146 65.3542 393.063 64.5208 392.146 63.4375C391.23 62.3125 390.771 60.8958 390.771 59.1875C390.771 57.5208 391.459 56.0208 392.834 54.6875C394.209 53.3125 396.917 52.625 400.959 52.625C402.251 52.625 403.626 52.7708 405.084 53.0625C406.584 53.3542 407.855 53.6667 408.896 54L407.396 58.625C404.813 57.875 402.688 57.5 401.021 57.5C399.188 57.5 397.959 57.6667 397.334 58C396.709 58.3333 396.396 58.8125 396.396 59.4375C396.396 60.1042 396.771 60.6458 397.521 61.0625C398.313 61.4792 399.542 61.9375 401.209 62.4375C403.042 62.9792 404.542 63.5208 405.709 64.0625C406.917 64.6042 407.938 65.375 408.771 66.375C409.646 67.375 410.084 68.6458 410.084 70.1875C410.084 72.0625 409.271 73.7708 407.646 75.3125C406.063 76.8125 403.271 77.5625 399.271 77.5625Z" fill="#0C4857"/>
<path d="M426.35 72.6875C427.558 72.6875 429.1 72.4375 430.975 71.9375L431.787 76.1875C430.329 76.6042 429.079 76.9375 428.037 77.1875C427.037 77.4375 426.037 77.5625 425.037 77.5625C421.579 77.5625 419.266 76.8333 418.1 75.375C416.975 73.9167 416.412 71.8958 416.412 69.3125V57.6875H412.412V53H416.412V46.125H422.412V53H430.725V57.6875H422.412V69.1875C422.412 71.5208 423.725 72.6875 426.35 72.6875Z" fill="#0C4857"/>
<path d="M436.477 54.25C439.727 53.1667 442.393 52.625 444.477 52.625C448.518 52.625 451.331 53.4583 452.914 55.125C454.539 56.7917 455.352 59.1667 455.352 62.25V77H450.602L449.914 75.3125C448.039 76.8125 445.706 77.5625 442.914 77.5625C440.331 77.5625 438.268 76.8958 436.727 75.5625C435.185 74.2292 434.414 72.5208 434.414 70.4375C434.414 68.1042 435.268 66.2917 436.977 65C438.727 63.6667 441.206 62.9167 444.414 62.75L449.102 62.5C449.102 60.4167 448.727 59 447.977 58.25C447.227 57.5 445.747 57.125 443.539 57.125C441.664 57.125 439.622 57.5417 437.414 58.375L436.477 54.25ZM448.227 72.3125C448.768 72.0208 449.143 71.8125 449.352 71.6875V66.5625L445.102 66.875C441.977 67.0417 440.414 68.0833 440.414 70C440.414 70.9583 440.768 71.7083 441.477 72.25C442.185 72.7917 443.164 73.0625 444.414 73.0625C445.247 73.0625 445.956 73 446.539 72.875C447.122 72.75 447.685 72.5625 448.227 72.3125Z" fill="#0C4857"/>
<path d="M482.465 77.0625H478.34L477.59 75.3125C476.007 76.0625 474.652 76.625 473.527 77C472.444 77.375 471.194 77.5625 469.777 77.5625C466.152 77.5625 463.777 76.5208 462.652 74.4375C461.569 72.3125 461.027 69.7292 461.027 66.6875V53H466.965V67.5C466.965 68.7917 467.277 69.9375 467.902 70.9375C468.527 71.9375 469.673 72.4375 471.34 72.4375C473.173 72.4375 474.923 71.9583 476.59 71V53H482.465V77.0625Z" fill="#0C4857"/>
<path d="M488.469 53H492.719L493.469 54.75C495.677 53.3333 498.031 52.625 500.531 52.625C502.073 52.625 503.531 52.9375 504.906 53.5625L503.719 59L503.469 59.0625C502.052 58.2292 500.344 57.8125 498.344 57.8125C496.969 57.8125 495.656 58.0417 494.406 58.5V77H488.469V53Z" fill="#0C4857"/>
<path d="M509.328 54.25C512.578 53.1667 515.245 52.625 517.328 52.625C521.37 52.625 524.182 53.4583 525.766 55.125C527.391 56.7917 528.203 59.1667 528.203 62.25V77H523.453L522.766 75.3125C520.891 76.8125 518.557 77.5625 515.766 77.5625C513.182 77.5625 511.12 76.8958 509.578 75.5625C508.036 74.2292 507.266 72.5208 507.266 70.4375C507.266 68.1042 508.12 66.2917 509.828 65C511.578 63.6667 514.057 62.9167 517.266 62.75L521.953 62.5C521.953 60.4167 521.578 59 520.828 58.25C520.078 57.5 518.599 57.125 516.391 57.125C514.516 57.125 512.474 57.5417 510.266 58.375L509.328 54.25ZM521.078 72.3125C521.62 72.0208 521.995 71.8125 522.203 71.6875V66.5625L517.953 66.875C514.828 67.0417 513.266 68.0833 513.266 70C513.266 70.9583 513.62 71.7083 514.328 72.25C515.036 72.7917 516.016 73.0625 517.266 73.0625C518.099 73.0625 518.807 73 519.391 72.875C519.974 72.75 520.536 72.5625 521.078 72.3125Z" fill="#0C4857"/>
<path d="M533.879 53H538.129L538.879 54.75C541.712 53.375 544.483 52.6875 547.191 52.6875C549.733 52.6875 551.629 53.25 552.879 54.375C554.171 55.5 554.983 56.8125 555.316 58.3125C555.691 59.8125 555.879 61.5 555.879 63.375V77H549.941V62.625C549.941 61.375 549.629 60.25 549.004 59.25C548.379 58.25 547.254 57.75 545.629 57.75C544.171 57.75 542.233 58.1875 539.816 59.0625V77H533.879V53Z" fill="#0C4857"/>
<path d="M573.273 72.6875C574.482 72.6875 576.023 72.4375 577.898 71.9375L578.711 76.1875C577.253 76.6042 576.003 76.9375 574.961 77.1875C573.961 77.4375 572.961 77.5625 571.961 77.5625C568.503 77.5625 566.19 76.8333 565.023 75.375C563.898 73.9167 563.336 71.8958 563.336 69.3125V57.6875H559.336V53H563.336V46.125H569.336V53H577.648V57.6875H569.336V69.1875C569.336 71.5208 570.648 72.6875 573.273 72.6875Z" fill="#0C4857"/>
</svg>
