<svg width="371" height="120" viewBox="0 0 371 120" fill="none" xmlns="http://www.w3.org/2000/svg">
<path d="M0 60C0 26.8629 26.8629 0 60 0H311C344.137 0 371 26.8629 371 60C371 93.1371 344.137 120 311 120H60C26.8629 120 0 93.1371 0 60Z" fill="#FFF6F1" fill-opacity="0.1"/>
<path d="M80.3555 77V42.625H86.4805V71.4375H102.855V77H80.3555Z" fill="#FFF6F1"/>
<path d="M124.166 55.3125C126.374 53.5208 128.645 52.625 130.979 52.625C134.562 52.625 137.208 53.7292 138.916 55.9375C140.666 58.1458 141.541 61.2083 141.541 65.125V67.4375H125.854C126.02 69.4792 126.645 70.8958 127.729 71.6875C128.854 72.4792 130.562 72.875 132.854 72.875C135.229 72.875 137.416 72.625 139.416 72.125L140.479 76.1875C137.812 77.1458 135.166 77.625 132.541 77.625C128.583 77.625 125.645 76.6042 123.729 74.5625C120.52 76.5625 117.416 77.5625 114.416 77.5625C111.833 77.5625 109.77 76.8958 108.229 75.5625C106.687 74.2292 105.916 72.5208 105.916 70.4375C105.916 68.1042 106.77 66.2917 108.479 65C110.229 63.6667 112.708 62.9167 115.916 62.75L120.604 62.5C120.604 60.4167 120.229 59 119.479 58.25C118.729 57.5 117.249 57.125 115.041 57.125C113.166 57.125 111.124 57.5417 108.916 58.375L107.979 54.25C111.229 53.1667 113.895 52.625 115.979 52.625C118.104 52.625 119.749 52.8542 120.916 53.3125C122.124 53.7708 123.208 54.4375 124.166 55.3125ZM134.479 58.8125C133.687 57.8125 132.562 57.3125 131.104 57.3125C129.812 57.3125 128.645 57.8333 127.604 58.875C126.604 59.9167 126.062 61.375 125.979 63.25H135.729C135.729 61.2917 135.312 59.8125 134.479 58.8125ZM120.916 71.6875V66.5625L116.604 66.875C113.479 67.0417 111.916 68.0833 111.916 70C111.916 70.9583 112.27 71.7083 112.979 72.25C113.687 72.7917 114.666 73.0625 115.916 73.0625C117.041 73.0625 117.979 72.9583 118.729 72.75C119.52 72.5417 120.249 72.1875 120.916 71.6875Z" fill="#FFF6F1"/>
<path d="M154.611 77.5625C151.528 77.5625 148.424 76.8333 145.299 75.375L146.986 70.6875C148.403 71.1875 149.84 71.6042 151.299 71.9375C152.757 72.2708 153.965 72.4375 154.924 72.4375C156.674 72.4375 157.903 72.25 158.611 71.875C159.32 71.5 159.674 70.9167 159.674 70.125C159.674 69.5833 159.34 69.1458 158.674 68.8125C158.007 68.4792 156.903 68.0625 155.361 67.5625C153.528 67.0208 151.986 66.4792 150.736 65.9375C149.486 65.3542 148.403 64.5208 147.486 63.4375C146.57 62.3125 146.111 60.8958 146.111 59.1875C146.111 57.5208 146.799 56.0208 148.174 54.6875C149.549 53.3125 152.257 52.625 156.299 52.625C157.59 52.625 158.965 52.7708 160.424 53.0625C161.924 53.3542 163.195 53.6667 164.236 54L162.736 58.625C160.153 57.875 158.028 57.5 156.361 57.5C154.528 57.5 153.299 57.6667 152.674 58C152.049 58.3333 151.736 58.8125 151.736 59.4375C151.736 60.1042 152.111 60.6458 152.861 61.0625C153.653 61.4792 154.882 61.9375 156.549 62.4375C158.382 62.9792 159.882 63.5208 161.049 64.0625C162.257 64.6042 163.278 65.375 164.111 66.375C164.986 67.375 165.424 68.6458 165.424 70.1875C165.424 72.0625 164.611 73.7708 162.986 75.3125C161.403 76.8125 158.611 77.5625 154.611 77.5625Z" fill="#FFF6F1"/>
<path d="M183.896 53H188.146L188.896 54.75C189.146 54.6667 189.667 54.4583 190.459 54.125C191.251 53.7917 192.188 53.4792 193.271 53.1875C194.355 52.8542 195.501 52.6875 196.709 52.6875C199.417 52.6875 201.48 53.5 202.896 55.125C206.146 53.5 209.063 52.6875 211.646 52.6875C215.063 52.6875 217.271 53.7083 218.271 55.75C219.313 57.7917 219.834 60.3333 219.834 63.375V77H213.896V62.625C213.896 61.375 213.626 60.25 213.084 59.25C212.542 58.25 211.542 57.75 210.084 57.75C209.334 57.75 208.542 57.875 207.709 58.125C206.876 58.3333 205.813 58.7083 204.521 59.25C204.813 60.6667 204.959 62.125 204.959 63.625V77H198.959V62.625C198.959 61.375 198.667 60.25 198.084 59.25C197.542 58.25 196.542 57.75 195.084 57.75C194.501 57.75 193.813 57.8542 193.021 58.0625C192.271 58.2292 191.209 58.5625 189.834 59.0625V77H183.896V53Z" fill="#FFF6F1"/>
<path d="M230.145 54.1875C231.853 53.1458 233.686 52.625 235.645 52.625C239.27 52.625 242.04 53.75 243.957 56C245.915 58.2083 246.895 61.25 246.895 65.125V67.4375H230.582C230.749 69.4792 231.457 70.8958 232.707 71.6875C233.957 72.4792 235.728 72.875 238.02 72.875C240.436 72.875 242.645 72.625 244.645 72.125L245.707 76.1875C242.999 77.1458 240.165 77.625 237.207 77.625C233.082 77.625 229.936 76.4792 227.77 74.1875C225.603 71.8958 224.52 68.875 224.52 65.125C224.52 62.625 225.04 60.4375 226.082 58.5625C227.124 56.6458 228.478 55.1875 230.145 54.1875ZM239.52 58.875C238.561 57.8333 237.311 57.3125 235.77 57.3125C234.52 57.3125 233.374 57.8333 232.332 58.875C231.332 59.9167 230.79 61.375 230.707 63.25H240.957C240.957 61.3333 240.478 59.875 239.52 58.875Z" fill="#FFF6F1"/>
<path d="M251.621 53H255.871L256.621 54.75C258.829 53.3333 261.184 52.625 263.684 52.625C265.225 52.625 266.684 52.9375 268.059 53.5625L266.871 59L266.621 59.0625C265.204 58.2292 263.496 57.8125 261.496 57.8125C260.121 57.8125 258.809 58.0417 257.559 58.5V77H251.621V53Z" fill="#FFF6F1"/>
<path d="M276.043 54.1875C277.751 53.1458 279.585 52.625 281.543 52.625C285.168 52.625 287.939 53.75 289.855 56C291.814 58.2083 292.793 61.25 292.793 65.125V67.4375H276.48C276.647 69.4792 277.355 70.8958 278.605 71.6875C279.855 72.4792 281.626 72.875 283.918 72.875C286.335 72.875 288.543 72.625 290.543 72.125L291.605 76.1875C288.897 77.1458 286.064 77.625 283.105 77.625C278.98 77.625 275.835 76.4792 273.668 74.1875C271.501 71.8958 270.418 68.875 270.418 65.125C270.418 62.625 270.939 60.4375 271.98 58.5625C273.022 56.6458 274.376 55.1875 276.043 54.1875ZM285.418 58.875C284.46 57.8333 283.21 57.3125 281.668 57.3125C280.418 57.3125 279.272 57.8333 278.23 58.875C277.23 59.9167 276.689 61.375 276.605 63.25H286.855C286.855 61.3333 286.376 59.875 285.418 58.875Z" fill="#FFF6F1"/>
</svg>
