<svg width="741" height="604" viewBox="0 0 741 604" fill="none" xmlns="http://www.w3.org/2000/svg">
<path d="M0 63C0 28.206 28.2061 0 63 0H678C712.794 0 741 28.2061 741 63V541C741 575.794 712.794 604 678 604H63C28.2061 604 0 575.794 0 541V63Z" fill="#FFF6F1" fill-opacity="0.75"/>
<path d="M251.144 298.35H231.794V310.575H248.819V317.325H231.794V333H224.444V291.75H251.144V298.35Z" fill="#0C4857"/>
<path d="M277.544 306.975C280.194 304.825 282.919 303.75 285.719 303.75C290.019 303.75 293.194 305.075 295.244 307.725C297.344 310.375 298.394 314.05 298.394 318.75V321.525H279.569C279.769 323.975 280.519 325.675 281.819 326.625C283.169 327.575 285.219 328.05 287.969 328.05C290.819 328.05 293.444 327.75 295.844 327.15L297.119 332.025C293.919 333.175 290.744 333.75 287.594 333.75C282.844 333.75 279.319 332.525 277.019 330.075C273.169 332.475 269.444 333.675 265.844 333.675C262.744 333.675 260.269 332.875 258.419 331.275C256.569 329.675 255.644 327.625 255.644 325.125C255.644 322.325 256.669 320.15 258.719 318.6C260.819 317 263.794 316.1 267.644 315.9L273.269 315.6C273.269 313.1 272.819 311.4 271.919 310.5C271.019 309.6 269.244 309.15 266.594 309.15C264.344 309.15 261.894 309.65 259.244 310.65L258.119 305.7C262.019 304.4 265.219 303.75 267.719 303.75C270.269 303.75 272.244 304.025 273.644 304.575C275.094 305.125 276.394 305.925 277.544 306.975ZM289.919 311.175C288.969 309.975 287.619 309.375 285.869 309.375C284.319 309.375 282.919 310 281.669 311.25C280.469 312.5 279.819 314.25 279.719 316.5H291.419C291.419 314.15 290.919 312.375 289.919 311.175ZM273.644 326.625V320.475L268.469 320.85C264.719 321.05 262.844 322.3 262.844 324.6C262.844 325.75 263.269 326.65 264.119 327.3C264.969 327.95 266.144 328.275 267.644 328.275C268.994 328.275 270.119 328.15 271.019 327.9C271.969 327.65 272.844 327.225 273.644 326.625Z" fill="#0C4857"/>
<path d="M312.278 326.925C312.778 327.675 313.653 328.05 314.903 328.05C315.903 328.05 317.053 327.875 318.353 327.525V332.25C316.303 333.2 314.153 333.675 311.903 333.675C307.003 333.675 304.553 330.975 304.553 325.575V291.75H311.603V323.475C311.603 324.975 311.828 326.125 312.278 326.925Z" fill="#0C4857"/>
<path d="M330.559 326.925C331.059 327.675 331.934 328.05 333.184 328.05C334.184 328.05 335.334 327.875 336.634 327.525V332.25C334.584 333.2 332.434 333.675 330.184 333.675C325.284 333.675 322.834 330.975 322.834 325.575V291.75H329.884V323.475C329.884 324.975 330.109 326.125 330.559 326.925Z" fill="#0C4857"/>
<path d="M346.066 305.625C348.116 304.375 350.316 303.75 352.666 303.75C357.016 303.75 360.341 305.1 362.641 307.8C364.991 310.45 366.166 314.1 366.166 318.75V321.525H346.591C346.791 323.975 347.641 325.675 349.141 326.625C350.641 327.575 352.766 328.05 355.516 328.05C358.416 328.05 361.066 327.75 363.466 327.15L364.741 332.025C361.491 333.175 358.091 333.75 354.541 333.75C349.591 333.75 345.816 332.375 343.216 329.625C340.616 326.875 339.316 323.25 339.316 318.75C339.316 315.75 339.941 313.125 341.191 310.875C342.441 308.575 344.066 306.825 346.066 305.625ZM357.316 311.25C356.166 310 354.666 309.375 352.816 309.375C351.316 309.375 349.941 310 348.691 311.25C347.491 312.5 346.841 314.25 346.741 316.5H359.041C359.041 314.2 358.466 312.45 357.316 311.25Z" fill="#0C4857"/>
<path d="M381.812 333.675C378.112 333.675 374.388 332.8 370.638 331.05L372.663 325.425C374.363 326.025 376.087 326.525 377.837 326.925C379.587 327.325 381.038 327.525 382.188 327.525C384.288 327.525 385.762 327.3 386.612 326.85C387.462 326.4 387.888 325.7 387.888 324.75C387.888 324.1 387.487 323.575 386.688 323.175C385.887 322.775 384.562 322.275 382.712 321.675C380.512 321.025 378.663 320.375 377.163 319.725C375.663 319.025 374.363 318.025 373.263 316.725C372.163 315.375 371.612 313.675 371.612 311.625C371.612 309.625 372.437 307.825 374.087 306.225C375.737 304.575 378.987 303.75 383.837 303.75C385.387 303.75 387.038 303.925 388.788 304.275C390.588 304.625 392.112 305 393.362 305.4L391.562 310.95C388.463 310.05 385.913 309.6 383.913 309.6C381.713 309.6 380.237 309.8 379.487 310.2C378.737 310.6 378.362 311.175 378.362 311.925C378.362 312.725 378.812 313.375 379.712 313.875C380.662 314.375 382.138 314.925 384.138 315.525C386.338 316.175 388.138 316.825 389.538 317.475C390.988 318.125 392.212 319.05 393.212 320.25C394.262 321.45 394.788 322.975 394.788 324.825C394.788 327.075 393.812 329.125 391.862 330.975C389.962 332.775 386.613 333.675 381.812 333.675Z" fill="#0C4857"/>
<path d="M410.406 333.675C406.706 333.675 402.981 332.8 399.231 331.05L401.256 325.425C402.956 326.025 404.681 326.525 406.431 326.925C408.181 327.325 409.631 327.525 410.781 327.525C412.881 327.525 414.356 327.3 415.206 326.85C416.056 326.4 416.481 325.7 416.481 324.75C416.481 324.1 416.081 323.575 415.281 323.175C414.481 322.775 413.156 322.275 411.306 321.675C409.106 321.025 407.256 320.375 405.756 319.725C404.256 319.025 402.956 318.025 401.856 316.725C400.756 315.375 400.206 313.675 400.206 311.625C400.206 309.625 401.031 307.825 402.681 306.225C404.331 304.575 407.581 303.75 412.431 303.75C413.981 303.75 415.631 303.925 417.381 304.275C419.181 304.625 420.706 305 421.956 305.4L420.156 310.95C417.056 310.05 414.506 309.6 412.506 309.6C410.306 309.6 408.831 309.8 408.081 310.2C407.331 310.6 406.956 311.175 406.956 311.925C406.956 312.725 407.406 313.375 408.306 313.875C409.256 314.375 410.731 314.925 412.731 315.525C414.931 316.175 416.731 316.825 418.131 317.475C419.581 318.125 420.806 319.05 421.806 320.25C422.856 321.45 423.381 322.975 423.381 324.825C423.381 327.075 422.406 329.125 420.456 330.975C418.556 332.775 415.206 333.675 410.406 333.675Z" fill="#0C4857"/>
<path d="M429.475 291.75H436.675V333H429.475V291.75ZM437.425 317.175L448.3 303.825H457L445.9 317.175L457.525 333H448.825L437.425 317.175Z" fill="#0C4857"/>
<path d="M462.787 305.7C466.687 304.4 469.887 303.75 472.387 303.75C477.237 303.75 480.612 304.75 482.512 306.75C484.462 308.75 485.437 311.6 485.437 315.3V333H479.737L478.912 330.975C476.662 332.775 473.862 333.675 470.512 333.675C467.412 333.675 464.937 332.875 463.087 331.275C461.237 329.675 460.312 327.625 460.312 325.125C460.312 322.325 461.337 320.15 463.387 318.6C465.487 317 468.462 316.1 472.312 315.9L477.937 315.6C477.937 313.1 477.487 311.4 476.587 310.5C475.687 309.6 473.912 309.15 471.262 309.15C469.012 309.15 466.562 309.65 463.912 310.65L462.787 305.7ZM476.887 327.375C477.537 327.025 477.987 326.775 478.237 326.625V320.475L473.137 320.85C469.387 321.05 467.512 322.3 467.512 324.6C467.512 325.75 467.937 326.65 468.787 327.3C469.637 327.95 470.812 328.275 472.312 328.275C473.312 328.275 474.162 328.2 474.862 328.05C475.562 327.9 476.237 327.675 476.887 327.375Z" fill="#0C4857"/>
<path d="M492.698 333V291.75H499.898V304.95C501.698 304.15 503.973 303.75 506.723 303.75C509.023 303.75 511.223 304.25 513.323 305.25C515.473 306.25 517.248 307.875 518.648 310.125C520.048 312.325 520.748 315.175 520.748 318.675C520.748 323.325 519.448 327 516.848 329.7C514.298 332.35 510.698 333.675 506.048 333.675C503.498 333.675 500.948 332.925 498.398 331.425L497.798 333H492.698ZM513.398 319.05C513.398 312.6 510.623 309.375 505.073 309.375C503.123 309.375 501.398 309.7 499.898 310.35V326.625C501.298 327.575 502.948 328.05 504.848 328.05C507.398 328.05 509.448 327.35 510.998 325.95C512.598 324.5 513.398 322.2 513.398 319.05Z" fill="#0C4857"/>
<path d="M84.9754 412H80.9291L71.5691 385.188H75.4204L83.0741 408.636L90.8254 385.188H94.3354L84.9754 412Z" fill="#0C4857"/>
<path d="M99.218 389.672C98.633 389.672 98.1455 389.477 97.7555 389.087C97.3655 388.665 97.1705 388.178 97.1705 387.625C97.1705 387.105 97.3655 386.65 97.7555 386.26C98.1455 385.838 98.633 385.626 99.218 385.626C99.7705 385.626 100.242 385.838 100.632 386.26C101.022 386.65 101.217 387.105 101.217 387.625C101.217 388.178 101.022 388.665 100.632 389.087C100.274 389.477 99.803 389.672 99.218 389.672ZM100.778 412H97.6092V393.28H100.778V412Z" fill="#0C4857"/>
<path d="M117.185 412V386.065H120.354V393.767C121.622 393.182 123.133 392.89 124.888 392.89C127.52 392.89 129.665 393.67 131.323 395.23C133.045 396.953 133.907 399.487 133.907 402.835C133.907 405.727 133.159 408.051 131.664 409.806C130.202 411.529 128.089 412.39 125.327 412.39C123.507 412.39 121.735 411.821 120.013 410.684L119.428 412H117.185ZM124.547 409.709C126.627 409.709 128.154 409.14 129.129 408.003C130.104 406.865 130.592 405.078 130.592 402.64C130.592 400.463 130.072 398.724 129.032 397.424C128.024 396.124 126.513 395.474 124.498 395.474C122.97 395.474 121.589 395.717 120.354 396.205V408.587C121.102 408.977 121.768 409.27 122.353 409.465C122.97 409.627 123.702 409.709 124.547 409.709Z" fill="#0C4857"/>
<path d="M146.585 393.036C147.3 393.036 147.868 393.085 148.291 393.182C148.746 393.247 149.185 393.378 149.607 393.573L148.486 396.4C147.641 396.01 146.715 395.815 145.707 395.815C144.342 395.815 142.993 396.27 141.661 397.18V412H138.492V393.28H140.783L141.466 394.889C143.091 393.654 144.797 393.036 146.585 393.036Z" fill="#0C4857"/>
<path d="M154.481 389.672C153.896 389.672 153.408 389.477 153.018 389.087C152.628 388.665 152.433 388.178 152.433 387.625C152.433 387.105 152.628 386.65 153.018 386.26C153.408 385.838 153.896 385.626 154.481 385.626C155.033 385.626 155.504 385.838 155.894 386.26C156.284 386.65 156.479 387.105 156.479 387.625C156.479 388.178 156.284 388.665 155.894 389.087C155.537 389.477 155.066 389.672 154.481 389.672ZM156.041 412H152.872V393.28H156.041V412Z" fill="#0C4857"/>
<path d="M173.993 400.105C173.993 398.513 173.684 397.375 173.067 396.693C172.482 396.01 171.442 395.669 169.947 395.669C168.354 395.669 166.632 396.107 164.779 396.985V412H161.61V393.28H163.804L164.487 394.84C166.729 393.605 168.923 392.987 171.068 392.987C173.05 392.987 174.562 393.556 175.602 394.694C176.642 395.799 177.162 397.343 177.162 399.325V412H173.993V400.105Z" fill="#0C4857"/>
<path d="M195.07 411.122C193.445 411.967 191.803 412.39 190.146 412.39C187.156 412.39 184.865 411.236 183.272 408.929C182.135 407.239 181.566 405.256 181.566 402.981C181.566 400.674 182.053 398.724 183.028 397.131C184.036 395.506 185.417 394.336 187.172 393.621C187.985 393.231 189.041 393.036 190.341 393.036C191.868 393.036 193.331 393.361 194.728 394.011L195.655 394.45L195.996 393.28H198.287V412.878C198.287 414.6 198.092 415.981 197.702 417.021C197.312 418.061 196.646 419.02 195.703 419.897C194.923 420.645 193.948 421.214 192.778 421.604C191.641 422.026 190.357 422.237 188.927 422.237C188.017 422.237 187.026 422.124 185.953 421.896C184.913 421.669 184.003 421.376 183.223 421.019L184.052 418.776C185.905 419.426 187.383 419.751 188.488 419.751C190.438 419.751 191.966 419.28 193.071 418.337C194.176 417.395 194.826 416.062 195.021 414.34C195.053 413.982 195.07 413.072 195.07 411.61V411.122ZM190.877 409.806C192.502 409.806 193.9 409.465 195.07 408.783V396.546C193.607 395.896 192.161 395.571 190.731 395.571C188.781 395.571 187.302 396.205 186.295 397.473C185.287 398.74 184.783 400.43 184.783 402.543C184.783 404.07 185.076 405.419 185.661 406.589C186.246 407.759 187.042 408.604 188.05 409.124C188.862 409.579 189.805 409.806 190.877 409.806Z" fill="#0C4857"/>
<path d="M211.355 393.036C213.825 393.036 215.726 393.784 217.059 395.279C218.391 396.741 219.058 398.821 219.058 401.519V403.225L218.863 403.615H206.041C206.041 405.207 206.643 406.686 207.845 408.051C208.983 409.189 210.754 409.758 213.159 409.758C214.751 409.758 216.263 409.514 217.693 409.026L218.278 411.366C216.295 412.049 214.296 412.39 212.281 412.39C209.259 412.39 206.951 411.578 205.359 409.953C203.766 408.328 202.97 406.004 202.97 402.981C202.97 400.121 203.669 397.765 205.066 395.913C206.561 393.995 208.658 393.036 211.355 393.036ZM215.84 401.08C215.84 399.455 215.483 398.122 214.768 397.082C214.085 396.042 213.061 395.522 211.696 395.522C209.974 395.522 208.658 396.042 207.748 397.082C206.838 398.122 206.285 399.455 206.09 401.08H215.84Z" fill="#0C4857"/>
<path d="M231.631 393.036C232.346 393.036 232.914 393.085 233.337 393.182C233.792 393.247 234.231 393.378 234.653 393.573L233.532 396.4C232.687 396.01 231.761 395.815 230.753 395.815C229.388 395.815 228.039 396.27 226.707 397.18V412H223.538V393.28H225.829L226.512 394.889C228.137 393.654 229.843 393.036 231.631 393.036Z" fill="#0C4857"/>
<path d="M256.653 393.036C257.368 393.036 257.937 393.085 258.359 393.182C258.814 393.247 259.253 393.378 259.676 393.573L258.554 396.4C257.709 396.01 256.783 395.815 255.776 395.815C254.411 395.815 253.062 396.27 251.729 397.18V412H248.561V393.28H250.852L251.534 394.889C253.159 393.654 254.866 393.036 256.653 393.036Z" fill="#0C4857"/>
<path d="M270.35 393.036C272.82 393.036 274.722 393.784 276.054 395.279C277.387 396.741 278.053 398.821 278.053 401.519V403.225L277.858 403.615H265.037C265.037 405.207 265.638 406.686 266.84 408.051C267.978 409.189 269.749 409.758 272.154 409.758C273.747 409.758 275.258 409.514 276.688 409.026L277.273 411.366C275.29 412.049 273.292 412.39 271.277 412.39C268.254 412.39 265.947 411.578 264.354 409.953C262.762 408.328 261.965 406.004 261.965 402.981C261.965 400.121 262.664 397.765 264.062 395.913C265.557 393.995 267.653 393.036 270.35 393.036ZM274.835 401.08C274.835 399.455 274.478 398.122 273.763 397.082C273.08 396.042 272.057 395.522 270.692 395.522C268.969 395.522 267.653 396.042 266.743 397.082C265.833 398.122 265.28 399.455 265.085 401.08H274.835Z" fill="#0C4857"/>
<path d="M288.432 409.758C289.569 409.758 290.528 409.546 291.308 409.124C292.121 408.669 292.527 408.019 292.527 407.174C292.527 406.491 292.234 405.955 291.649 405.565C291.064 405.175 289.829 404.59 287.944 403.81L286.092 403.079C285.279 402.689 284.613 402.347 284.093 402.055C283.573 401.73 283.102 401.259 282.679 400.641C282.257 399.991 282.046 399.179 282.046 398.204C282.046 396.449 282.761 395.149 284.191 394.304C285.653 393.459 287.441 393.036 289.553 393.036C291.341 393.036 293.128 393.443 294.916 394.255L294.136 396.595C292.673 395.978 291.259 395.669 289.894 395.669C288.497 395.669 287.359 395.88 286.482 396.302C285.637 396.692 285.214 397.261 285.214 398.009C285.214 398.756 285.507 399.341 286.092 399.764C286.709 400.186 287.749 400.674 289.212 401.226L290.821 401.86C292.608 402.607 293.859 403.388 294.574 404.2C295.289 405.013 295.647 406.085 295.647 407.418C295.647 408.783 295.013 409.969 293.746 410.976C292.478 411.951 290.788 412.439 288.676 412.439C286.271 412.439 283.898 411.967 281.558 411.025L282.436 408.636C284.548 409.384 286.547 409.758 288.432 409.758Z" fill="#0C4857"/>
<path d="M307.021 412.39C305.136 412.39 303.787 411.886 302.975 410.879C302.195 409.839 301.805 408.279 301.805 406.199V395.913H298.636V393.28H301.805V388.698L304.973 388.454V393.28H311.116V395.913H304.973V406.004C304.973 407.304 305.168 408.246 305.558 408.831C305.981 409.416 306.777 409.709 307.947 409.709C309.052 409.709 310.043 409.611 310.921 409.416L311.457 411.561C309.995 412.114 308.516 412.39 307.021 412.39Z" fill="#0C4857"/>
<path d="M321.104 395.766C320.421 395.766 319.592 395.848 318.617 396.01C317.675 396.14 316.83 396.319 316.082 396.546L315.449 394.206C317.626 393.459 319.657 393.085 321.542 393.085C323.655 393.085 325.264 393.41 326.369 394.06C327.344 394.775 328.01 395.539 328.367 396.351C328.757 397.164 328.952 398.35 328.952 399.91V412H326.564L325.881 410.245C324.029 411.74 322.127 412.487 320.177 412.487C318.487 412.487 317.057 412 315.887 411.025C314.75 410.05 314.181 408.815 314.181 407.32C314.181 405.858 314.62 404.655 315.497 403.712C316.407 402.737 317.512 402.088 318.812 401.763C320.47 401.34 322.794 401.096 325.784 401.031V400.885C325.784 399.553 325.654 398.577 325.394 397.96C324.874 396.497 323.444 395.766 321.104 395.766ZM320.616 409.953C321.689 409.953 322.631 409.774 323.444 409.416C324.256 409.026 325.036 408.49 325.784 407.807V403.323C323.541 403.355 321.884 403.485 320.811 403.712C319.609 403.972 318.715 404.363 318.13 404.883C317.545 405.37 317.252 406.069 317.252 406.979C317.252 407.921 317.577 408.652 318.227 409.172C318.91 409.692 319.706 409.953 320.616 409.953Z" fill="#0C4857"/>
<path d="M337.385 405.321C337.385 406.914 337.693 408.051 338.311 408.734C338.928 409.416 339.985 409.758 341.48 409.758C343.007 409.758 344.713 409.319 346.598 408.441V393.28H349.767V412H347.573L346.891 410.635C344.518 411.87 342.325 412.487 340.31 412.487C338.36 412.487 336.848 411.919 335.776 410.781C334.736 409.644 334.216 408.084 334.216 406.101V393.28H337.385V405.321Z" fill="#0C4857"/>
<path d="M363.256 393.036C363.971 393.036 364.539 393.085 364.962 393.182C365.417 393.247 365.856 393.378 366.278 393.573L365.157 396.4C364.312 396.01 363.386 395.815 362.378 395.815C361.013 395.815 359.664 396.27 358.332 397.18V412H355.163V393.28H357.454L358.137 394.889C359.762 393.654 361.468 393.036 363.256 393.036Z" fill="#0C4857"/>
<path d="M375.49 395.766C374.808 395.766 373.979 395.848 373.004 396.01C372.062 396.14 371.217 396.319 370.469 396.546L369.835 394.206C372.013 393.459 374.044 393.085 375.929 393.085C378.042 393.085 379.65 393.41 380.755 394.06C381.73 394.775 382.397 395.539 382.754 396.351C383.144 397.164 383.339 398.35 383.339 399.91V412H380.95L380.268 410.245C378.415 411.74 376.514 412.487 374.564 412.487C372.874 412.487 371.444 412 370.274 411.025C369.137 410.05 368.568 408.815 368.568 407.32C368.568 405.858 369.007 404.655 369.884 403.712C370.794 402.737 371.899 402.088 373.199 401.763C374.857 401.34 377.18 401.096 380.17 401.031V400.885C380.17 399.553 380.04 398.577 379.78 397.96C379.26 396.497 377.83 395.766 375.49 395.766ZM375.003 409.953C376.075 409.953 377.018 409.774 377.83 409.416C378.643 409.026 379.423 408.49 380.17 407.807V403.323C377.928 403.355 376.27 403.485 375.198 403.712C373.995 403.972 373.102 404.363 372.517 404.883C371.932 405.37 371.639 406.069 371.639 406.979C371.639 407.921 371.964 408.652 372.614 409.172C373.297 409.692 374.093 409.953 375.003 409.953Z" fill="#0C4857"/>
<path d="M400.985 400.105C400.985 398.513 400.676 397.375 400.059 396.693C399.474 396.01 398.434 395.669 396.939 395.669C395.346 395.669 393.624 396.107 391.771 396.985V412H388.603V393.28H390.796L391.479 394.84C393.721 393.605 395.915 392.987 398.06 392.987C400.043 392.987 401.554 393.556 402.594 394.694C403.634 395.799 404.154 397.343 404.154 399.325V412H400.985V400.105Z" fill="#0C4857"/>
<path d="M415.871 412.39C413.986 412.39 412.637 411.886 411.824 410.879C411.044 409.839 410.654 408.279 410.654 406.199V395.913H407.486V393.28H410.654V388.698L413.823 388.454V393.28H419.966V395.913H413.823V406.004C413.823 407.304 414.018 408.246 414.408 408.831C414.831 409.416 415.627 409.709 416.797 409.709C417.902 409.709 418.893 409.611 419.771 409.416L420.307 411.561C418.844 412.114 417.366 412.39 415.871 412.39Z" fill="#0C4857"/>
<path d="M431.416 393.036C433.886 393.036 435.787 393.784 437.119 395.279C438.452 396.741 439.118 398.821 439.118 401.519V403.225L438.923 403.615H426.102C426.102 405.207 426.703 406.686 427.906 408.051C429.043 409.189 430.814 409.758 433.219 409.758C434.812 409.758 436.323 409.514 437.753 409.026L438.338 411.366C436.356 412.049 434.357 412.39 432.342 412.39C429.319 412.39 427.012 411.578 425.419 409.953C423.827 408.328 423.031 406.004 423.031 402.981C423.031 400.121 423.729 397.765 425.127 395.913C426.622 393.995 428.718 393.036 431.416 393.036ZM435.901 401.08C435.901 399.455 435.543 398.122 434.828 397.082C434.146 396.042 433.122 395.522 431.757 395.522C430.034 395.522 428.718 396.042 427.808 397.082C426.898 398.122 426.346 399.455 426.151 401.08H435.901Z" fill="#0C4857"/>
<path d="M451.691 393.036C452.406 393.036 452.975 393.085 453.397 393.182C453.852 393.247 454.291 393.378 454.714 393.573L453.592 396.4C452.747 396.01 451.821 395.815 450.814 395.815C449.449 395.815 448.1 396.27 446.767 397.18V412H443.599V393.28H445.89L446.572 394.889C448.197 393.654 449.904 393.036 451.691 393.036Z" fill="#0C4857"/>
<path d="M476.714 412.439C473.886 412.439 471.676 411.561 470.084 409.806C468.524 408.051 467.744 405.695 467.744 402.737C467.744 399.747 468.54 397.391 470.132 395.669C471.757 393.914 474 393.036 476.86 393.036C479.72 393.036 481.93 393.897 483.49 395.62C485.05 397.342 485.83 399.699 485.83 402.689C485.83 405.614 485.017 407.97 483.392 409.758C481.767 411.545 479.541 412.439 476.714 412.439ZM476.86 395.522C475.007 395.522 473.561 396.205 472.521 397.57C471.514 398.935 471.01 400.657 471.01 402.737C471.01 404.817 471.514 406.524 472.521 407.856C473.561 409.189 475.007 409.855 476.86 409.855C478.68 409.855 480.094 409.189 481.101 407.856C482.109 406.491 482.612 404.785 482.612 402.737C482.612 400.657 482.092 398.935 481.052 397.57C480.045 396.205 478.647 395.522 476.86 395.522Z" fill="#0C4857"/>
<path d="M503.033 411.122C501.408 411.967 499.766 412.39 498.109 412.39C495.119 412.39 492.828 411.236 491.235 408.929C490.098 407.239 489.529 405.256 489.529 402.981C489.529 400.674 490.016 398.724 490.991 397.131C491.999 395.506 493.38 394.336 495.135 393.621C495.948 393.231 497.004 393.036 498.304 393.036C499.831 393.036 501.294 393.361 502.691 394.011L503.618 394.45L503.959 393.28H506.25V412.878C506.25 414.6 506.055 415.981 505.665 417.021C505.275 418.061 504.609 419.02 503.666 419.897C502.886 420.645 501.911 421.214 500.741 421.604C499.604 422.026 498.32 422.237 496.89 422.237C495.98 422.237 494.989 422.124 493.916 421.896C492.876 421.669 491.966 421.376 491.186 421.019L492.015 418.776C493.868 419.426 495.346 419.751 496.451 419.751C498.401 419.751 499.929 419.28 501.034 418.337C502.139 417.395 502.789 416.062 502.984 414.34C503.016 413.982 503.033 413.072 503.033 411.61V411.122ZM498.84 409.806C500.465 409.806 501.863 409.465 503.033 408.783V396.546C501.57 395.896 500.124 395.571 498.694 395.571C496.744 395.571 495.265 396.205 494.258 397.473C493.25 398.74 492.746 400.43 492.746 402.543C492.746 404.07 493.039 405.419 493.624 406.589C494.209 407.759 495.005 408.604 496.013 409.124C496.825 409.579 497.768 409.806 498.84 409.806Z" fill="#0C4857"/>
<path d="M535.08 400.008C535.08 398.415 534.771 397.261 534.153 396.546C533.536 395.831 532.463 395.474 530.936 395.474C529.506 395.474 527.832 395.929 525.915 396.839V412H522.746V386.065H525.915V394.499C528.092 393.361 530.172 392.793 532.155 392.793C534.105 392.793 535.616 393.377 536.688 394.547C537.761 395.685 538.297 397.261 538.297 399.276V412H535.08V400.008Z" fill="#0C4857"/>
<path d="M546.716 393.28V414.438C546.716 415.705 546.667 416.583 546.569 417.07C546.472 417.558 546.244 418.191 545.887 418.971C545.172 420.466 543.791 421.523 541.743 422.14L540.573 419.849C542.621 418.874 543.644 417.265 543.644 415.022V393.28H546.716ZM545.107 389.283C544.554 389.283 544.067 389.088 543.644 388.698C543.254 388.275 543.059 387.787 543.059 387.235C543.059 386.682 543.254 386.211 543.644 385.821C544.067 385.399 544.554 385.188 545.107 385.188C545.659 385.188 546.131 385.399 546.521 385.821C546.943 386.211 547.154 386.682 547.154 387.235C547.154 387.787 546.943 388.275 546.521 388.698C546.131 389.088 545.659 389.283 545.107 389.283Z" fill="#0C4857"/>
<path d="M559.765 393.036C562.235 393.036 564.137 393.784 565.469 395.279C566.802 396.741 567.468 398.821 567.468 401.519V403.225L567.273 403.615H554.452C554.452 405.207 555.053 406.686 556.255 408.051C557.393 409.189 559.164 409.758 561.569 409.758C563.162 409.758 564.673 409.514 566.103 409.026L566.688 411.366C564.705 412.049 562.707 412.39 560.692 412.39C557.669 412.39 555.362 411.578 553.769 409.953C552.177 408.328 551.38 406.004 551.38 402.981C551.38 400.121 552.079 397.765 553.477 395.913C554.972 393.995 557.068 393.036 559.765 393.036ZM564.25 401.08C564.25 399.455 563.893 398.122 563.178 397.082C562.495 396.042 561.472 395.522 560.107 395.522C558.384 395.522 557.068 396.042 556.158 397.082C555.248 398.122 554.695 399.455 554.5 401.08H564.25Z" fill="#0C4857"/>
<path d="M594.325 400.105C594.325 397.05 593.106 395.522 590.668 395.522C589.466 395.522 587.971 396.075 586.183 397.18C586.281 397.537 586.33 398.253 586.33 399.325V412H583.161V400.105C583.161 397.05 581.926 395.522 579.456 395.522C578.286 395.522 576.84 395.994 575.117 396.936V412H571.948V393.28H574.142L574.825 394.84C575.93 394.092 576.953 393.572 577.896 393.28C578.643 393.085 579.504 392.987 580.479 392.987C581.552 392.987 582.495 393.199 583.307 393.621C584.152 394.044 584.834 394.629 585.354 395.376C586.427 394.596 587.451 394.011 588.426 393.621C589.401 393.199 590.473 392.987 591.643 392.987C593.561 392.987 595.023 393.572 596.031 394.742C597.071 395.88 597.591 397.408 597.591 399.325V412H594.325V400.105Z" fill="#0C4857"/>
<path d="M608.432 409.514C608.919 409.514 609.472 409.416 610.089 409.221L610.674 411.513C610.577 411.545 610.187 411.708 609.504 412C608.822 412.292 607.944 412.439 606.872 412.439C605.669 412.439 604.71 412.033 603.995 411.22C603.28 410.375 602.907 409.286 602.874 407.954V386.016H605.945V406.832C605.945 407.71 606.092 408.376 606.384 408.831C606.677 409.286 607.359 409.514 608.432 409.514Z" fill="#0C4857"/>
<path d="M621.902 412.439C619.757 412.439 617.839 411.821 616.149 410.586L614.102 412.585L612.298 410.927L614.492 408.685C613.517 407.157 613.029 405.175 613.029 402.737C613.029 399.747 613.809 397.391 615.369 395.669C616.962 393.914 619.172 393.036 621.999 393.036C624.339 393.036 626.306 393.654 627.898 394.889L629.897 392.841L631.701 394.694L629.604 396.839C630.514 398.366 630.969 400.316 630.969 402.689C630.969 405.646 630.157 408.019 628.532 409.806C626.939 411.561 624.729 412.439 621.902 412.439ZM621.999 395.522C620.179 395.522 618.749 396.205 617.709 397.57C616.702 398.935 616.198 400.657 616.198 402.737C616.198 404.07 616.409 405.256 616.832 406.296L625.851 397.034C624.843 396.026 623.559 395.522 621.999 395.522ZM627.801 402.737C627.801 401.405 627.589 400.268 627.167 399.325L618.246 408.441C619.253 409.384 620.504 409.855 621.999 409.855C623.852 409.855 625.282 409.189 626.289 407.856C627.297 406.524 627.801 404.817 627.801 402.737Z" fill="#0C4857"/>
<path d="M641.755 409.758C642.893 409.758 643.851 409.546 644.631 409.124C645.444 408.669 645.85 408.019 645.85 407.174C645.85 406.491 645.558 405.955 644.973 405.565C644.388 405.175 643.153 404.59 641.268 403.81L639.415 403.079C638.603 402.689 637.936 402.347 637.416 402.055C636.896 401.73 636.425 401.259 636.003 400.641C635.58 399.991 635.369 399.179 635.369 398.204C635.369 396.449 636.084 395.149 637.514 394.304C638.976 393.459 640.764 393.036 642.876 393.036C644.664 393.036 646.451 393.443 648.239 394.255L647.459 396.595C645.996 395.978 644.583 395.669 643.218 395.669C641.82 395.669 640.683 395.88 639.805 396.302C638.96 396.692 638.538 397.261 638.538 398.009C638.538 398.756 638.83 399.341 639.415 399.764C640.033 400.186 641.073 400.674 642.535 401.226L644.144 401.86C645.931 402.607 647.183 403.388 647.898 404.2C648.613 405.013 648.97 406.085 648.97 407.418C648.97 408.783 648.336 409.969 647.069 410.976C645.801 411.951 644.111 412.439 641.999 412.439C639.594 412.439 637.221 411.967 634.881 411.025L635.759 408.636C637.871 409.384 639.87 409.758 641.755 409.758Z" fill="#0C4857"/>
<path d="M661.417 393.036C663.887 393.036 665.788 393.784 667.12 395.279C668.453 396.741 669.119 398.821 669.119 401.519V403.225L668.924 403.615H656.103C656.103 405.207 656.704 406.686 657.907 408.051C659.044 409.189 660.815 409.758 663.22 409.758C664.813 409.758 666.324 409.514 667.754 409.026L668.339 411.366C666.357 412.049 664.358 412.39 662.343 412.39C659.32 412.39 657.013 411.578 655.42 409.953C653.828 408.328 653.032 406.004 653.032 402.981C653.032 400.121 653.73 397.765 655.128 395.913C656.623 393.995 658.719 393.036 661.417 393.036ZM665.902 401.08C665.902 399.455 665.544 398.122 664.829 397.082C664.147 396.042 663.123 395.522 661.758 395.522C660.035 395.522 658.719 396.042 657.809 397.082C656.899 398.122 656.347 399.455 656.152 401.08H665.902Z" fill="#0C4857"/>
<path d="M165.186 452.758C166.323 452.758 167.282 452.546 168.062 452.124C168.875 451.669 169.281 451.019 169.281 450.174C169.281 449.491 168.988 448.955 168.403 448.565C167.818 448.175 166.583 447.59 164.698 446.81L162.846 446.079C162.033 445.689 161.367 445.347 160.847 445.055C160.327 444.73 159.856 444.259 159.433 443.641C159.011 442.991 158.8 442.179 158.8 441.204C158.8 439.449 159.515 438.149 160.945 437.304C162.407 436.459 164.195 436.036 166.307 436.036C168.095 436.036 169.882 436.443 171.67 437.255L170.89 439.595C169.427 438.978 168.013 438.669 166.648 438.669C165.251 438.669 164.113 438.88 163.236 439.302C162.391 439.692 161.968 440.261 161.968 441.009C161.968 441.756 162.261 442.341 162.846 442.764C163.463 443.186 164.503 443.674 165.966 444.226L167.575 444.86C169.362 445.607 170.613 446.388 171.328 447.2C172.043 448.013 172.401 449.085 172.401 450.418C172.401 451.783 171.767 452.969 170.5 453.976C169.232 454.951 167.542 455.439 165.43 455.439C163.025 455.439 160.652 454.967 158.312 454.025L159.19 451.636C161.302 452.384 163.301 452.758 165.186 452.758Z" fill="#0C4857"/>
<path d="M183.385 438.766C182.702 438.766 181.874 438.848 180.899 439.01C179.956 439.14 179.111 439.319 178.364 439.546L177.73 437.206C179.907 436.459 181.939 436.085 183.824 436.085C185.936 436.085 187.545 436.41 188.65 437.06C189.625 437.775 190.291 438.539 190.649 439.351C191.039 440.164 191.234 441.35 191.234 442.91V455H188.845L188.162 453.245C186.31 454.74 184.409 455.487 182.459 455.487C180.769 455.487 179.339 455 178.169 454.025C177.031 453.05 176.462 451.815 176.462 450.32C176.462 448.858 176.901 447.655 177.779 446.712C178.689 445.737 179.794 445.088 181.094 444.763C182.751 444.34 185.075 444.096 188.065 444.031V443.885C188.065 442.553 187.935 441.577 187.675 440.96C187.155 439.497 185.725 438.766 183.385 438.766ZM182.897 452.953C183.97 452.953 184.912 452.774 185.725 452.416C186.537 452.026 187.317 451.49 188.065 450.807V446.323C185.822 446.355 184.165 446.485 183.092 446.712C181.89 446.972 180.996 447.363 180.411 447.883C179.826 448.37 179.534 449.069 179.534 449.979C179.534 450.921 179.859 451.652 180.509 452.172C181.191 452.692 181.987 452.953 182.897 452.953Z" fill="#0C4857"/>
<path d="M218.873 443.105C218.873 440.05 217.655 438.522 215.217 438.522C214.015 438.522 212.52 439.075 210.732 440.18C210.83 440.537 210.878 441.253 210.878 442.325V455H207.71V443.105C207.71 440.05 206.475 438.522 204.005 438.522C202.835 438.522 201.388 438.994 199.666 439.936V455H196.497V436.28H198.691L199.373 437.84C200.478 437.092 201.502 436.572 202.445 436.28C203.192 436.085 204.053 435.987 205.028 435.987C206.101 435.987 207.043 436.199 207.856 436.621C208.701 437.044 209.383 437.629 209.903 438.376C210.976 437.596 212 437.011 212.975 436.621C213.95 436.199 215.022 435.987 216.192 435.987C218.11 435.987 219.572 436.572 220.58 437.742C221.62 438.88 222.14 440.408 222.14 442.325V455H218.873V443.105Z" fill="#0C4857"/>
<path d="M249.799 443.105C249.799 440.05 248.58 438.522 246.143 438.522C244.94 438.522 243.445 439.075 241.658 440.18C241.755 440.537 241.804 441.253 241.804 442.325V455H238.635V443.105C238.635 440.05 237.4 438.522 234.93 438.522C233.76 438.522 232.314 438.994 230.592 439.936V455H227.423V436.28H229.617L230.299 437.84C231.404 437.092 232.428 436.572 233.37 436.28C234.118 436.085 234.979 435.987 235.954 435.987C237.027 435.987 237.969 436.199 238.782 436.621C239.627 437.044 240.309 437.629 240.829 438.376C241.902 437.596 242.925 437.011 243.9 436.621C244.875 436.199 245.948 435.987 247.118 435.987C249.035 435.987 250.498 436.572 251.505 437.742C252.545 438.88 253.065 440.408 253.065 442.325V455H249.799V443.105Z" fill="#0C4857"/>
<path d="M265.856 436.036C268.326 436.036 270.227 436.784 271.56 438.279C272.892 439.741 273.559 441.821 273.559 444.519V446.225L273.364 446.615H260.542C260.542 448.207 261.144 449.686 262.346 451.051C263.484 452.189 265.255 452.758 267.66 452.758C269.252 452.758 270.764 452.514 272.194 452.026L272.779 454.366C270.796 455.049 268.797 455.39 266.782 455.39C263.76 455.39 261.452 454.578 259.86 452.953C258.267 451.328 257.471 449.004 257.471 445.981C257.471 443.121 258.17 440.765 259.567 438.913C261.062 436.995 263.159 436.036 265.856 436.036ZM270.341 444.08C270.341 442.455 269.984 441.122 269.269 440.082C268.586 439.042 267.562 438.522 266.197 438.522C264.475 438.522 263.159 439.042 262.249 440.082C261.339 441.122 260.786 442.455 260.591 444.08H270.341Z" fill="#0C4857"/>
<path d="M290.422 443.105C290.422 441.513 290.113 440.375 289.495 439.693C288.91 439.01 287.87 438.669 286.375 438.669C284.783 438.669 283.06 439.107 281.208 439.985V455H278.039V436.28H280.233L280.915 437.84C283.158 436.605 285.352 435.987 287.497 435.987C289.479 435.987 290.99 436.556 292.03 437.694C293.07 438.799 293.59 440.343 293.59 442.325V455H290.422V443.105Z" fill="#0C4857"/>
<path d="M311.319 432.672C310.734 432.672 310.246 432.477 309.856 432.087C309.466 431.665 309.271 431.178 309.271 430.625C309.271 430.105 309.466 429.65 309.856 429.26C310.246 428.838 310.734 428.626 311.319 428.626C311.871 428.626 312.342 428.838 312.732 429.26C313.122 429.65 313.317 430.105 313.317 430.625C313.317 431.178 313.122 431.665 312.732 432.087C312.375 432.477 311.904 432.672 311.319 432.672ZM312.879 455H309.71V436.28H312.879V455Z" fill="#0C4857"/>
<path d="M336.696 436.036C339.166 436.036 341.067 436.784 342.4 438.279C343.732 439.741 344.398 441.821 344.398 444.519V446.225L344.203 446.615H331.382C331.382 448.207 331.984 449.686 333.186 451.051C334.324 452.189 336.095 452.758 338.5 452.758C340.092 452.758 341.604 452.514 343.034 452.026L343.618 454.366C341.636 455.049 339.637 455.39 337.622 455.39C334.6 455.39 332.292 454.578 330.7 452.953C329.107 451.328 328.311 449.004 328.311 445.981C328.311 443.121 329.01 440.765 330.407 438.913C331.902 436.995 333.998 436.036 336.696 436.036ZM341.181 444.08C341.181 442.455 340.823 441.122 340.108 440.082C339.426 439.042 338.402 438.522 337.037 438.522C335.315 438.522 333.999 439.042 333.089 440.082C332.179 441.122 331.626 442.455 331.431 444.08H341.181Z" fill="#0C4857"/>
<path d="M361.261 443.105C361.261 441.513 360.953 440.375 360.335 439.693C359.75 439.01 358.71 438.669 357.215 438.669C355.623 438.669 353.9 439.107 352.048 439.985V455H348.879V436.28H351.073L351.755 437.84C353.998 436.605 356.191 435.987 358.336 435.987C360.319 435.987 361.83 436.556 362.87 437.694C363.91 438.799 364.43 440.343 364.43 442.325V455H361.261V443.105Z" fill="#0C4857"/>
<path d="M402.828 443.105C402.828 440.05 401.61 438.522 399.172 438.522C397.97 438.522 396.475 439.075 394.687 440.18C394.785 440.537 394.833 441.253 394.833 442.325V455H391.665V443.105C391.665 440.05 390.43 438.522 387.96 438.522C386.79 438.522 385.343 438.994 383.621 439.936V455H380.452V436.28H382.646L383.328 437.84C384.433 437.092 385.457 436.572 386.4 436.28C387.147 436.085 388.008 435.987 388.983 435.987C390.056 435.987 390.998 436.199 391.811 436.621C392.656 437.044 393.338 437.629 393.858 438.376C394.931 437.596 395.955 437.011 396.93 436.621C397.905 436.199 398.977 435.987 400.147 435.987C402.065 435.987 403.527 436.572 404.535 437.742C405.575 438.88 406.095 440.408 406.095 442.325V455H402.828V443.105Z" fill="#0C4857"/>
<path d="M418.885 436.036C421.355 436.036 423.257 436.784 424.589 438.279C425.922 439.741 426.588 441.821 426.588 444.519V446.225L426.393 446.615H413.572C413.572 448.207 414.173 449.686 415.375 451.051C416.513 452.189 418.284 452.758 420.689 452.758C422.282 452.758 423.793 452.514 425.223 452.026L425.808 454.366C423.825 455.049 421.827 455.39 419.812 455.39C416.789 455.39 414.482 454.578 412.889 452.953C411.297 451.328 410.5 449.004 410.5 445.981C410.5 443.121 411.199 440.765 412.597 438.913C414.092 436.995 416.188 436.036 418.885 436.036ZM423.37 444.08C423.37 442.455 423.013 441.122 422.298 440.082C421.615 439.042 420.592 438.522 419.227 438.522C417.504 438.522 416.188 439.042 415.278 440.082C414.368 441.122 413.815 442.455 413.62 444.08H423.37Z" fill="#0C4857"/>
<path d="M443.451 443.105C443.451 441.513 443.142 440.375 442.525 439.693C441.94 439.01 440.9 438.669 439.405 438.669C437.812 438.669 436.09 439.107 434.237 439.985V455H431.068V436.28H433.262L433.945 437.84C436.187 436.605 438.381 435.987 440.526 435.987C442.508 435.987 444.02 436.556 445.06 437.694C446.1 438.799 446.62 440.343 446.62 442.325V455H443.451V443.105Z" fill="#0C4857"/>
<path d="M453.608 432.672C453.023 432.672 452.535 432.477 452.145 432.087C451.755 431.665 451.56 431.178 451.56 430.625C451.56 430.105 451.755 429.65 452.145 429.26C452.535 428.838 453.023 428.626 453.608 428.626C454.16 428.626 454.631 428.838 455.021 429.26C455.411 429.65 455.606 430.105 455.606 430.625C455.606 431.178 455.411 431.665 455.021 432.087C454.664 432.477 454.193 432.672 453.608 432.672ZM455.168 455H451.999V436.28H455.168V455Z" fill="#0C4857"/>
<path d="M473.12 443.105C473.12 441.513 472.811 440.375 472.194 439.693C471.609 439.01 470.569 438.669 469.074 438.669C467.481 438.669 465.759 439.107 463.906 439.985V455H460.737V436.28H462.931L463.614 437.84C465.856 436.605 468.05 435.987 470.195 435.987C472.177 435.987 473.689 436.556 474.729 437.694C475.769 438.799 476.289 440.343 476.289 442.325V455H473.12V443.105Z" fill="#0C4857"/>
<path d="M494.197 454.122C492.572 454.967 490.93 455.39 489.273 455.39C486.283 455.39 483.992 454.236 482.399 451.929C481.262 450.239 480.693 448.256 480.693 445.981C480.693 443.674 481.18 441.724 482.155 440.131C483.163 438.506 484.544 437.336 486.299 436.621C487.112 436.231 488.168 436.036 489.468 436.036C490.995 436.036 492.458 436.361 493.855 437.011L494.782 437.45L495.123 436.28H497.414V455.878C497.414 457.6 497.219 458.981 496.829 460.021C496.439 461.061 495.773 462.02 494.83 462.897C494.05 463.645 493.075 464.214 491.905 464.604C490.768 465.026 489.484 465.237 488.054 465.237C487.144 465.237 486.153 465.124 485.08 464.896C484.04 464.669 483.13 464.376 482.35 464.019L483.179 461.776C485.032 462.426 486.51 462.751 487.615 462.751C489.565 462.751 491.093 462.28 492.198 461.337C493.303 460.395 493.953 459.062 494.148 457.34C494.18 456.982 494.197 456.072 494.197 454.61V454.122ZM490.004 452.806C491.629 452.806 493.027 452.465 494.197 451.783V439.546C492.734 438.896 491.288 438.571 489.858 438.571C487.908 438.571 486.429 439.205 485.422 440.473C484.414 441.74 483.91 443.43 483.91 445.543C483.91 447.07 484.203 448.419 484.788 449.589C485.373 450.759 486.169 451.604 487.177 452.124C487.989 452.579 488.932 452.806 490.004 452.806Z" fill="#0C4857"/>
<path d="M508.873 452.758C510.011 452.758 510.97 452.546 511.75 452.124C512.562 451.669 512.968 451.019 512.968 450.174C512.968 449.491 512.676 448.955 512.091 448.565C511.506 448.175 510.271 447.59 508.386 446.81L506.533 446.079C505.721 445.689 505.055 445.347 504.535 445.055C504.015 444.73 503.543 444.259 503.121 443.641C502.698 442.991 502.487 442.179 502.487 441.204C502.487 439.449 503.202 438.149 504.632 437.304C506.095 436.459 507.882 436.036 509.995 436.036C511.782 436.036 513.57 436.443 515.357 437.255L514.577 439.595C513.115 438.978 511.701 438.669 510.336 438.669C508.938 438.669 507.801 438.88 506.923 439.302C506.078 439.692 505.656 440.261 505.656 441.009C505.656 441.756 505.948 442.341 506.533 442.764C507.151 443.186 508.191 443.674 509.653 444.226L511.262 444.86C513.05 445.607 514.301 446.388 515.016 447.2C515.731 448.013 516.088 449.085 516.088 450.418C516.088 451.783 515.455 452.969 514.187 453.976C512.92 454.951 511.23 455.439 509.117 455.439C506.712 455.439 504.34 454.967 502 454.025L502.877 451.636C504.99 452.384 506.988 452.758 508.873 452.758Z" fill="#0C4857"/>
<path d="M529.559 430.479C528.486 430.479 527.592 430.739 526.877 431.259C526.195 431.779 525.789 432.445 525.659 433.258C525.594 433.648 525.561 434.086 525.561 434.574V436.28H531.752V438.766H525.61V455H522.441V438.766H519.662V436.28H522.344V434.379C522.344 432.786 522.555 431.616 522.977 430.869C524.05 428.951 525.919 427.992 528.584 427.992C529.916 427.992 531.427 428.236 533.117 428.724L532.581 431.064C531.184 430.674 530.176 430.479 529.559 430.479Z" fill="#0C4857"/>
<path d="M538.25 448.321C538.25 449.914 538.559 451.051 539.176 451.734C539.794 452.416 540.85 452.758 542.345 452.758C543.872 452.758 545.579 452.319 547.464 451.441V436.28H550.632V455H548.439L547.756 453.635C545.384 454.87 543.19 455.487 541.175 455.487C539.225 455.487 537.714 454.919 536.641 453.781C535.601 452.644 535.081 451.084 535.081 449.101V436.28H538.25V448.321Z" fill="#0C4857"/>
<path d="M561.586 452.514C562.073 452.514 562.626 452.416 563.243 452.221L563.828 454.513C563.731 454.545 563.341 454.708 562.658 455C561.976 455.292 561.098 455.439 560.026 455.439C558.823 455.439 557.865 455.033 557.15 454.22C556.435 453.375 556.061 452.286 556.028 450.954V429.016H559.1V449.832C559.1 450.71 559.246 451.376 559.538 451.831C559.831 452.286 560.513 452.514 561.586 452.514Z" fill="#0C4857"/>
<path d="M574.569 455.39C571.774 455.39 569.629 454.529 568.134 452.806C566.639 451.051 565.891 448.727 565.891 445.835C565.891 442.65 566.785 440.164 568.572 438.376C570.295 436.719 572.44 435.89 575.007 435.89C576.73 435.89 578.192 436.182 579.395 436.767V429.065H582.71V455H580.37L579.834 453.684C578.079 454.821 576.324 455.39 574.569 455.39ZM575.202 452.709C576.08 452.709 576.811 452.627 577.396 452.465C578.014 452.27 578.68 451.977 579.395 451.587V439.205C578.192 438.717 576.811 438.474 575.251 438.474C573.236 438.474 571.709 439.124 570.669 440.424C569.661 441.724 569.157 443.463 569.157 445.64C569.157 447.785 569.661 449.507 570.669 450.807C571.709 452.075 573.22 452.709 575.202 452.709Z" fill="#0C4857"/>
<path d="M281.505 473.479C280.432 473.479 279.539 473.739 278.824 474.259C278.141 474.779 277.735 475.445 277.605 476.258C277.54 476.648 277.507 477.086 277.507 477.574V479.28H283.699V481.766H277.556V498H274.387V481.766H271.609V479.28H274.29V477.379C274.29 475.786 274.501 474.616 274.924 473.869C275.996 471.951 277.865 470.992 280.53 470.992C281.862 470.992 283.374 471.236 285.064 471.724L284.527 474.064C283.13 473.674 282.122 473.479 281.505 473.479Z" fill="#0C4857"/>
<path d="M295.12 498.439C292.292 498.439 290.082 497.561 288.49 495.806C286.93 494.051 286.15 491.695 286.15 488.737C286.15 485.747 286.946 483.391 288.539 481.669C290.164 479.914 292.406 479.036 295.266 479.036C298.126 479.036 300.336 479.897 301.896 481.62C303.456 483.342 304.236 485.699 304.236 488.689C304.236 491.614 303.424 493.97 301.799 495.758C300.174 497.545 297.947 498.439 295.12 498.439ZM295.266 481.522C293.414 481.522 291.967 482.205 290.927 483.57C289.92 484.935 289.416 486.657 289.416 488.737C289.416 490.817 289.92 492.524 290.927 493.856C291.967 495.189 293.414 495.855 295.266 495.855C297.086 495.855 298.5 495.189 299.507 493.856C300.515 492.491 301.019 490.785 301.019 488.737C301.019 486.657 300.499 484.935 299.459 483.57C298.451 482.205 297.054 481.522 295.266 481.522Z" fill="#0C4857"/>
<path d="M316.905 479.036C317.62 479.036 318.189 479.085 318.611 479.182C319.066 479.247 319.505 479.378 319.928 479.573L318.806 482.4C317.961 482.01 317.035 481.815 316.028 481.815C314.663 481.815 313.314 482.27 311.981 483.18V498H308.813V479.28H311.104L311.786 480.889C313.411 479.654 315.118 479.036 316.905 479.036Z" fill="#0C4857"/>
<path d="M323.192 498V472.065H326.361V479.767C327.628 479.182 329.14 478.89 330.895 478.89C333.527 478.89 335.672 479.67 337.33 481.23C339.052 482.953 339.913 485.487 339.913 488.835C339.913 491.727 339.166 494.051 337.671 495.806C336.208 497.529 334.096 498.39 331.333 498.39C329.513 498.39 327.742 497.821 326.02 496.684L325.435 498H323.192ZM330.553 495.709C332.633 495.709 334.161 495.14 335.136 494.003C336.111 492.865 336.599 491.078 336.599 488.64C336.599 486.463 336.078 484.724 335.038 483.424C334.031 482.124 332.52 481.474 330.505 481.474C328.977 481.474 327.596 481.717 326.361 482.205V494.587C327.108 494.977 327.775 495.27 328.36 495.465C328.977 495.627 329.708 495.709 330.553 495.709Z" fill="#0C4857"/>
<path d="M346.205 475.672C345.62 475.672 345.133 475.477 344.743 475.087C344.353 474.665 344.158 474.178 344.158 473.625C344.158 473.105 344.353 472.65 344.743 472.26C345.133 471.838 345.62 471.626 346.205 471.626C346.758 471.626 347.229 471.838 347.619 472.26C348.009 472.65 348.204 473.105 348.204 473.625C348.204 474.178 348.009 474.665 347.619 475.087C347.262 475.477 346.79 475.672 346.205 475.672ZM347.765 498H344.597V479.28H347.765V498Z" fill="#0C4857"/>
<path d="M365.717 486.105C365.717 484.513 365.409 483.375 364.791 482.693C364.206 482.01 363.166 481.669 361.671 481.669C360.079 481.669 358.356 482.107 356.504 482.985V498H353.335V479.28H355.529L356.211 480.84C358.454 479.605 360.647 478.987 362.792 478.987C364.775 478.987 366.286 479.556 367.326 480.694C368.366 481.799 368.886 483.343 368.886 485.325V498H365.717V486.105Z" fill="#0C4857"/>
<path d="M381.968 498.39C379.173 498.39 377.028 497.529 375.533 495.806C374.038 494.051 373.29 491.727 373.29 488.835C373.29 485.65 374.184 483.164 375.972 481.376C377.694 479.719 379.839 478.89 382.407 478.89C384.129 478.89 385.592 479.182 386.794 479.767V472.065H390.109V498H387.769L387.233 496.684C385.478 497.821 383.723 498.39 381.968 498.39ZM382.602 495.709C383.479 495.709 384.211 495.627 384.796 495.465C385.413 495.27 386.079 494.977 386.794 494.587V482.205C385.592 481.717 384.21 481.474 382.65 481.474C380.635 481.474 379.108 482.124 378.068 483.424C377.06 484.724 376.557 486.463 376.557 488.64C376.557 490.785 377.06 492.507 378.068 493.807C379.108 495.075 380.619 495.709 382.602 495.709Z" fill="#0C4857"/>
<path d="M403.08 479.036C405.55 479.036 407.451 479.784 408.784 481.279C410.116 482.741 410.782 484.821 410.782 487.519V489.225L410.587 489.615H397.766C397.766 491.207 398.367 492.686 399.57 494.051C400.707 495.189 402.479 495.758 404.884 495.758C406.476 495.758 407.987 495.514 409.417 495.026L410.002 497.366C408.02 498.049 406.021 498.39 404.006 498.39C400.984 498.39 398.676 497.578 397.084 495.953C395.491 494.328 394.695 492.004 394.695 488.981C394.695 486.121 395.394 483.765 396.791 481.913C398.286 479.995 400.382 479.036 403.08 479.036ZM407.565 487.08C407.565 485.455 407.207 484.122 406.492 483.082C405.81 482.042 404.786 481.522 403.421 481.522C401.699 481.522 400.382 482.042 399.472 483.082C398.562 484.122 398.01 485.455 397.815 487.08H407.565Z" fill="#0C4857"/>
<path d="M420.82 495.514C421.308 495.514 421.86 495.416 422.478 495.221L423.063 497.513C422.965 497.545 422.575 497.708 421.893 498C421.21 498.292 420.333 498.439 419.26 498.439C418.058 498.439 417.099 498.033 416.384 497.22C415.669 496.375 415.295 495.286 415.263 493.954V472.016H418.334V492.832C418.334 493.71 418.48 494.376 418.773 494.831C419.065 495.286 419.748 495.514 420.82 495.514Z" fill="#0C4857"/>
<path d="M431.902 495.758C433.039 495.758 433.998 495.546 434.778 495.124C435.59 494.669 435.997 494.019 435.997 493.174C435.997 492.491 435.704 491.955 435.119 491.565C434.534 491.175 433.299 490.59 431.414 489.81L429.562 489.079C428.749 488.689 428.083 488.347 427.563 488.055C427.043 487.73 426.572 487.259 426.149 486.641C425.727 485.991 425.515 485.179 425.515 484.204C425.515 482.449 426.23 481.149 427.66 480.304C429.123 479.459 430.91 479.036 433.023 479.036C434.81 479.036 436.598 479.443 438.385 480.255L437.605 482.595C436.143 481.978 434.729 481.669 433.364 481.669C431.967 481.669 430.829 481.88 429.952 482.302C429.107 482.692 428.684 483.261 428.684 484.009C428.684 484.756 428.977 485.341 429.562 485.764C430.179 486.186 431.219 486.674 432.682 487.226L434.29 487.86C436.078 488.607 437.329 489.388 438.044 490.2C438.759 491.013 439.117 492.085 439.117 493.418C439.117 494.783 438.483 495.969 437.215 496.976C435.948 497.951 434.258 498.439 432.145 498.439C429.74 498.439 427.368 497.967 425.028 497.025L425.905 494.636C428.018 495.384 430.017 495.758 431.902 495.758Z" fill="#0C4857"/>
<path d="M451.563 479.036C454.033 479.036 455.934 479.784 457.267 481.279C458.599 482.741 459.266 484.821 459.266 487.519V489.225L459.071 489.615H446.249C446.249 491.207 446.851 492.686 448.053 494.051C449.191 495.189 450.962 495.758 453.367 495.758C454.959 495.758 456.471 495.514 457.901 495.026L458.486 497.366C456.503 498.049 454.504 498.39 452.489 498.39C449.467 498.39 447.159 497.578 445.567 495.953C443.974 494.328 443.178 492.004 443.178 488.981C443.178 486.121 443.877 483.765 445.274 481.913C446.769 479.995 448.866 479.036 451.563 479.036ZM456.048 487.08C456.048 485.455 455.691 484.122 454.976 483.082C454.293 482.042 453.269 481.522 451.904 481.522C450.182 481.522 448.866 482.042 447.956 483.082C447.046 484.122 446.493 485.455 446.298 487.08H456.048Z" fill="#0C4857"/>
<path d="M466.379 498.195C465.729 498.195 465.192 497.984 464.77 497.561C464.38 497.139 464.185 496.619 464.185 496.001C464.185 495.384 464.38 494.864 464.77 494.441C465.192 494.019 465.729 493.807 466.379 493.807C467.029 493.807 467.549 494.019 467.939 494.441C468.361 494.864 468.572 495.384 468.572 496.001C468.572 496.619 468.361 497.139 467.939 497.561C467.549 497.984 467.029 498.195 466.379 498.195Z" fill="#0C4857"/>
<path d="M279.333 233.667V210.333C279.333 205.611 280.549 201.271 282.979 197.312C285.41 193.354 288.639 190.333 292.667 188.25C301.278 183.944 310.028 180.715 318.917 178.562C327.806 176.41 336.833 175.333 346 175.333C355.167 175.333 364.194 176.41 373.083 178.562C381.972 180.715 390.722 183.944 399.333 188.25C403.361 190.333 406.59 193.354 409.021 197.312C411.451 201.271 412.667 205.611 412.667 210.333V233.667H279.333ZM429.333 233.667V208.667C429.333 202.556 427.632 196.688 424.229 191.062C420.826 185.438 416 180.611 409.75 176.583C416.833 177.417 423.5 178.84 429.75 180.854C436 182.868 441.833 185.333 447.25 188.25C452.25 191.028 456.069 194.118 458.708 197.521C461.347 200.924 462.667 204.639 462.667 208.667V233.667H429.333ZM346 167C336.833 167 328.986 163.736 322.458 157.208C315.931 150.681 312.667 142.833 312.667 133.667C312.667 124.5 315.931 116.653 322.458 110.125C328.986 103.597 336.833 100.333 346 100.333C355.167 100.333 363.014 103.597 369.542 110.125C376.069 116.653 379.333 124.5 379.333 133.667C379.333 142.833 376.069 150.681 369.542 157.208C363.014 163.736 355.167 167 346 167ZM429.333 133.667C429.333 142.833 426.069 150.681 419.542 157.208C413.014 163.736 405.167 167 396 167C394.472 167 392.528 166.826 390.167 166.479C387.806 166.132 385.861 165.75 384.333 165.333C388.083 160.889 390.965 155.958 392.979 150.542C394.993 145.125 396 139.5 396 133.667C396 127.833 394.993 122.208 392.979 116.792C390.965 111.375 388.083 106.444 384.333 102C386.278 101.306 388.222 100.854 390.167 100.646C392.111 100.437 394.056 100.333 396 100.333C405.167 100.333 413.014 103.597 419.542 110.125C426.069 116.653 429.333 124.5 429.333 133.667ZM296 217H396V210.333C396 208.806 395.618 207.417 394.854 206.167C394.09 204.917 393.083 203.944 391.833 203.25C384.333 199.5 376.764 196.688 369.125 194.812C361.486 192.938 353.778 192 346 192C338.222 192 330.514 192.938 322.875 194.812C315.236 196.688 307.667 199.5 300.167 203.25C298.917 203.944 297.91 204.917 297.146 206.167C296.382 207.417 296 208.806 296 210.333V217ZM346 150.333C350.583 150.333 354.507 148.701 357.771 145.438C361.035 142.174 362.667 138.25 362.667 133.667C362.667 129.083 361.035 125.16 357.771 121.896C354.507 118.632 350.583 117 346 117C341.417 117 337.493 118.632 334.229 121.896C330.965 125.16 329.333 129.083 329.333 133.667C329.333 138.25 330.965 142.174 334.229 145.438C337.493 148.701 341.417 150.333 346 150.333Z" fill="#0C4857"/>
</svg>
