<svg width="609" height="271" viewBox="0 0 609 271" fill="none" xmlns="http://www.w3.org/2000/svg">
<path d="M0 63C0 28.2061 28.2061 0 63 0H546C580.794 0 609 28.2061 609 63V207.048C609 241.842 580.794 270.048 546 270.048H63C28.2061 270.048 0 241.842 0 207.048V63Z" fill="#FFF6F1" fill-opacity="0.1"/>
<path d="M97.1883 76.3775H71.7108V92.4737H94.127V101.361H71.7108V122H62.0333V67.6875H97.1883V76.3775Z" fill="white"/>
<path d="M105.088 122V84.08H114.568V122H105.088ZM105.582 75.8838C106.767 77.0688 108.182 77.6613 109.828 77.6613C111.54 77.6613 112.955 77.0688 114.075 75.8838C115.26 74.6988 115.852 73.2833 115.852 71.6375C115.852 69.9258 115.26 68.5104 114.075 67.3913C112.955 66.2062 111.54 65.6137 109.828 65.6137C108.182 65.6137 106.767 66.2062 105.582 67.3913C104.397 68.5104 103.805 69.9258 103.805 71.6375C103.805 73.2833 104.397 74.6988 105.582 75.8838Z" fill="white"/>
<path d="M124.024 84.08H130.739L131.924 86.845C136.4 84.6725 140.778 83.5863 145.057 83.5863C149.073 83.5863 152.069 84.475 154.044 86.2525C156.084 88.03 157.368 90.1037 157.895 92.4737C158.487 94.8437 158.784 97.51 158.784 100.472V122H149.402V99.2875C149.402 97.3125 148.909 95.535 147.921 93.955C146.934 92.375 145.156 91.585 142.589 91.585C140.284 91.585 137.223 92.2763 133.405 93.6588V122H124.024V84.08Z" fill="white"/>
<path d="M193.772 85.0675V67.6875H203.252V122H196.438L195.747 119.926C192.389 121.901 188.999 122.889 185.576 122.889C179.585 122.889 174.845 121.111 171.356 117.556C167.932 114.001 166.221 109.195 166.221 103.139C166.221 98.5962 167.175 94.8437 169.084 91.8812C171.059 88.9187 173.462 86.7792 176.293 85.4625C179.124 84.1458 181.955 83.4875 184.786 83.4875C188.407 83.4875 191.402 84.0142 193.772 85.0675ZM193.772 92.1775C191.797 91.3217 189.526 90.8938 186.958 90.8938C179.651 90.8938 175.997 95.14 175.997 103.632C175.997 107.846 177.017 110.874 179.058 112.717C181.099 114.561 183.831 115.482 187.254 115.482C189.69 115.482 191.863 114.857 193.772 113.606V92.1775Z" fill="white"/>
<path d="M241.996 85.9563C244.695 84.3104 247.592 83.4875 250.686 83.4875C256.413 83.4875 260.791 85.265 263.82 88.82C266.914 92.3092 268.461 97.115 268.461 103.238V106.891H242.687C242.95 110.117 244.07 112.355 246.045 113.606C248.02 114.857 250.818 115.482 254.438 115.482C258.257 115.482 261.746 115.088 264.906 114.298L266.585 120.716C262.305 122.23 257.829 122.988 253.155 122.988C246.637 122.988 241.667 121.177 238.243 117.556C234.82 113.935 233.108 109.163 233.108 103.238C233.108 99.2875 233.931 95.8313 235.577 92.8688C237.223 89.8404 239.363 87.5363 241.996 85.9563ZM256.808 93.3625C255.294 91.7167 253.319 90.8938 250.883 90.8938C248.908 90.8938 247.098 91.7167 245.452 93.3625C243.872 95.0083 243.016 97.3125 242.885 100.275H259.08C259.08 97.2467 258.323 94.9425 256.808 93.3625Z" fill="white"/>
<path d="M294.198 115.186C296.107 115.186 298.543 114.791 301.505 114.001L302.789 120.716C300.485 121.375 298.51 121.901 296.864 122.296C295.284 122.691 293.704 122.889 292.124 122.889C286.66 122.889 283.006 121.737 281.163 119.433C279.385 117.128 278.496 113.935 278.496 109.854V91.4863H272.176V84.08H278.496V73.2175H287.976V84.08H301.11V91.4863H287.976V109.656C287.976 113.343 290.05 115.186 294.198 115.186Z" fill="white"/>
<path d="M330.473 84.08H337.188L338.373 86.845C338.768 86.7133 339.591 86.3842 340.842 85.8575C342.092 85.3308 343.574 84.8371 345.285 84.3763C346.997 83.8496 348.807 83.5863 350.717 83.5863C354.996 83.5863 358.254 84.87 360.493 87.4375C365.628 84.87 370.236 83.5863 374.318 83.5863C379.716 83.5863 383.205 85.1992 384.785 88.425C386.431 91.6508 387.254 95.6667 387.254 100.472V122H377.873V99.2875C377.873 97.3125 377.445 95.535 376.589 93.955C375.733 92.375 374.153 91.585 371.849 91.585C370.664 91.585 369.413 91.7825 368.097 92.1775C366.78 92.5067 365.101 93.0992 363.06 93.955C363.521 96.1933 363.752 98.4975 363.752 100.868V122H354.272V99.2875C354.272 97.3125 353.811 95.535 352.889 93.955C352.033 92.375 350.453 91.585 348.149 91.585C347.227 91.585 346.141 91.7496 344.89 92.0788C343.705 92.3421 342.027 92.8688 339.854 93.6588V122H330.473V84.08Z" fill="white"/>
<path d="M397.916 86.055C403.051 84.3433 407.264 83.4875 410.556 83.4875C416.942 83.4875 421.386 84.8042 423.887 87.4375C426.455 90.0708 427.738 93.8233 427.738 98.695V122H420.233L419.147 119.334C416.185 121.704 412.498 122.889 408.087 122.889C404.006 122.889 400.747 121.835 398.311 119.729C395.875 117.622 394.657 114.923 394.657 111.631C394.657 107.945 396.007 105.081 398.706 103.04C401.471 100.933 405.388 99.7483 410.457 99.485L417.863 99.09C417.863 95.7983 417.271 93.56 416.086 92.375C414.901 91.19 412.564 90.5975 409.075 90.5975C406.112 90.5975 402.886 91.2558 399.397 92.5725L397.916 86.055ZM416.481 114.594C417.337 114.133 417.929 113.804 418.258 113.606V105.509L411.543 106.003C406.606 106.266 404.137 107.912 404.137 110.94C404.137 112.454 404.697 113.639 405.816 114.495C406.935 115.351 408.482 115.779 410.457 115.779C411.774 115.779 412.893 115.68 413.815 115.482C414.736 115.285 415.625 114.989 416.481 114.594ZM418.555 63.145C420.464 65.0542 421.418 67.4571 421.418 70.3538C421.418 73.1188 420.464 75.5217 418.555 77.5625C416.646 79.5375 414.308 80.525 411.543 80.525C408.778 80.525 406.408 79.5375 404.433 77.5625C402.524 75.5217 401.57 73.1188 401.57 70.3538C401.57 67.5229 402.524 65.1529 404.433 63.2438C406.343 61.2688 408.713 60.2812 411.543 60.2812C414.374 60.2812 416.711 61.2358 418.555 63.145ZM414.21 67.5888C413.486 66.7988 412.597 66.4038 411.543 66.4038C410.424 66.4038 409.503 66.7988 408.778 67.5888C408.054 68.3788 407.692 69.3004 407.692 70.3538C407.692 71.4071 408.054 72.3288 408.778 73.1188C409.503 73.9088 410.424 74.3037 411.543 74.3037C412.597 74.3037 413.486 73.9088 414.21 73.1188C414.934 72.3288 415.296 71.4071 415.296 70.3538C415.296 69.3004 414.934 68.3788 414.21 67.5888Z" fill="white"/>
<path d="M447.47 114.001C448.128 114.989 449.28 115.482 450.926 115.482C452.243 115.482 453.757 115.252 455.469 114.791V121.012C452.77 122.263 449.939 122.889 446.976 122.889C440.525 122.889 437.299 119.334 437.299 112.224V67.6875H446.581V109.459C446.581 111.434 446.877 112.948 447.47 114.001Z" fill="white"/>
<path d="M479.045 115.186C480.954 115.186 483.39 114.791 486.353 114.001L487.637 120.716C485.332 121.375 483.357 121.901 481.712 122.296C480.132 122.691 478.551 122.889 476.971 122.889C471.507 122.889 467.854 121.737 466.01 119.433C464.233 117.128 463.344 113.935 463.344 109.854V91.4863H457.024V84.08H463.344V73.2175H472.824V84.08H485.958V91.4863H472.824V109.656C472.824 113.343 474.898 115.186 479.045 115.186Z" fill="white"/>
<path d="M493.762 122V84.08H503.242V122H493.762ZM494.256 75.8838C495.441 77.0688 496.856 77.6613 498.502 77.6613C500.214 77.6613 501.629 77.0688 502.748 75.8838C503.933 74.6988 504.526 73.2833 504.526 71.6375C504.526 69.9258 503.933 68.5104 502.748 67.3913C501.629 66.2062 500.214 65.6137 498.502 65.6137C496.856 65.6137 495.441 66.2062 494.256 67.3913C493.071 68.5104 492.478 69.9258 492.478 71.6375C492.478 73.2833 493.071 74.6988 494.256 75.8838Z" fill="white"/>
<path d="M538.471 85.0675V67.6875H547.951V122H541.137L540.446 119.926C537.089 121.901 533.698 122.889 530.275 122.889C524.284 122.889 519.544 121.111 516.055 117.556C512.632 114.001 510.92 109.195 510.92 103.139C510.92 98.5962 511.874 94.8437 513.784 91.8812C515.759 88.9187 518.162 86.7792 520.992 85.4625C523.823 84.1458 526.654 83.4875 529.485 83.4875C533.106 83.4875 536.101 84.0142 538.471 85.0675ZM538.471 92.1775C536.496 91.3217 534.225 90.8938 531.657 90.8938C524.35 90.8938 520.696 95.14 520.696 103.632C520.696 107.846 521.717 110.874 523.757 112.717C525.798 114.561 528.53 115.482 531.954 115.482C534.39 115.482 536.562 114.857 538.471 113.606V92.1775Z" fill="white"/>
<path d="M174.942 162.08H181.657L182.842 164.845C187.318 162.673 191.696 161.586 195.975 161.586C199.991 161.586 202.987 162.475 204.962 164.253C207.002 166.03 208.286 168.104 208.813 170.474C209.405 172.844 209.702 175.51 209.702 178.473V200H200.32V177.288C200.32 175.313 199.827 173.535 198.839 171.955C197.852 170.375 196.074 169.585 193.507 169.585C191.202 169.585 188.141 170.276 184.323 171.659V200H174.942V162.08Z" fill="white"/>
<path d="M245.974 165.734C249.463 162.903 253.051 161.488 256.737 161.488C262.399 161.488 266.579 163.232 269.279 166.721C272.044 170.21 273.426 175.049 273.426 181.238V184.891H248.64C248.903 188.117 249.891 190.355 251.602 191.606C253.38 192.857 256.079 193.482 259.7 193.482C263.452 193.482 266.909 193.088 270.069 192.298L271.747 198.716C267.534 200.23 263.354 200.988 259.206 200.988C252.952 200.988 248.311 199.375 245.282 196.149C240.213 199.309 235.309 200.889 230.569 200.889C226.487 200.889 223.228 199.835 220.792 197.729C218.357 195.622 217.139 192.923 217.139 189.631C217.139 185.945 218.488 183.081 221.187 181.04C223.952 178.933 227.869 177.748 232.939 177.485L240.345 177.09C240.345 173.798 239.752 171.56 238.567 170.375C237.382 169.19 235.045 168.598 231.556 168.598C228.594 168.598 225.368 169.256 221.879 170.572L220.397 164.055C225.532 162.343 229.746 161.488 233.037 161.488C236.395 161.488 238.995 161.85 240.839 162.574C242.748 163.298 244.459 164.351 245.974 165.734ZM262.267 171.264C261.017 169.684 259.239 168.894 256.935 168.894C254.894 168.894 253.051 169.717 251.405 171.363C249.825 173.008 248.969 175.312 248.837 178.275H264.242C264.242 175.181 263.584 172.844 262.267 171.264ZM240.839 191.606V183.509L234.025 184.003C229.087 184.266 226.619 185.912 226.619 188.94C226.619 190.454 227.178 191.639 228.297 192.495C229.417 193.351 230.964 193.779 232.939 193.779C234.716 193.779 236.197 193.614 237.382 193.285C238.633 192.956 239.785 192.396 240.839 191.606Z" fill="white"/>
<path d="M280.943 162.08H287.659L288.844 164.845C292.333 162.607 296.052 161.488 300.002 161.488C302.438 161.488 304.742 161.981 306.915 162.969L305.038 171.56L304.643 171.659C302.405 170.342 299.706 169.684 296.546 169.684C294.373 169.684 292.3 170.046 290.325 170.77V200H280.943V162.08Z" fill="white"/>
<path d="M359.95 163.068V145.688H369.43V200H362.616L361.925 197.926C358.567 199.901 355.177 200.889 351.753 200.889C345.763 200.889 341.023 199.111 337.533 195.556C334.11 192.001 332.398 187.195 332.398 181.139C332.398 176.596 333.353 172.844 335.262 169.881C337.237 166.919 339.64 164.779 342.471 163.463C345.302 162.146 348.133 161.488 350.963 161.488C354.584 161.488 357.58 162.014 359.95 163.068ZM359.95 170.178C357.975 169.322 355.703 168.894 353.136 168.894C345.828 168.894 342.175 173.14 342.175 181.633C342.175 185.846 343.195 188.874 345.236 190.717C347.277 192.561 350.009 193.482 353.432 193.482C355.868 193.482 358.041 192.857 359.95 191.606V170.178Z" fill="white"/>
<path d="M379.505 200V162.08H388.985V200H379.505ZM379.999 153.884C381.184 155.069 382.599 155.661 384.245 155.661C385.957 155.661 387.372 155.069 388.492 153.884C389.677 152.699 390.269 151.283 390.269 149.637C390.269 147.926 389.677 146.51 388.492 145.391C387.372 144.206 385.957 143.614 384.245 143.614C382.599 143.614 381.184 144.206 379.999 145.391C378.814 146.51 378.221 147.926 378.221 149.637C378.221 151.283 378.814 152.699 379.999 153.884Z" fill="white"/>
<path d="M423.326 206.814C423.984 204.839 424.313 202.271 424.313 199.111V198.914C422.799 199.572 421.416 200.066 420.166 200.395C418.981 200.724 417.598 200.889 416.018 200.889C410.027 200.889 405.287 199.111 401.798 195.556C398.375 192.001 396.663 187.195 396.663 181.139C396.663 176.399 397.618 172.58 399.527 169.684C401.436 166.721 403.74 164.615 406.439 163.364C409.204 162.113 411.969 161.488 414.734 161.488C418.684 161.488 422.503 162.508 426.189 164.549L427.078 162.08H433.694V200.889C433.694 206.221 432.114 210.83 428.954 214.714C425.794 218.664 420.528 220.639 413.154 220.639C408.612 220.639 404.234 219.816 400.021 218.17L398.539 217.577L401.107 210.665L402.687 211.159C406.373 212.475 409.533 213.134 412.167 213.134C415.524 213.134 418.059 212.574 419.771 211.455C421.548 210.336 422.733 208.789 423.326 206.814ZM424.214 170.375C422.108 169.453 419.836 168.993 417.401 168.993C410.093 168.993 406.439 173.206 406.439 181.633C406.439 185.846 407.46 188.874 409.501 190.717C411.541 192.561 414.273 193.482 417.697 193.482C420.133 193.482 422.305 192.857 424.214 191.606V170.375Z" fill="white"/>
</svg>
