<svg width="741" height="604" viewBox="0 0 741 604" fill="none" xmlns="http://www.w3.org/2000/svg">
<path d="M0 63C0 28.206 28.2061 0 63 0H678C712.794 0 741 28.2061 741 63V541C741 575.794 712.794 604 678 604H63C28.2061 604 0 575.794 0 541V63Z" fill="#FFF6F1" fill-opacity="0.75"/>
<path d="M168.233 333V291.75H182.258C187.608 291.75 191.308 292.875 193.358 295.125C195.458 297.325 196.508 299.775 196.508 302.475C196.508 306.375 194.708 309.425 191.108 311.625C193.858 312.175 195.983 313.425 197.483 315.375C199.033 317.325 199.808 319.45 199.808 321.75C199.808 324.8 198.433 327.45 195.683 329.7C192.983 331.9 188.183 333 181.283 333H168.233ZM187.508 299.475C186.258 298.575 184.058 298.125 180.908 298.125H175.583V308.7H180.908C183.908 308.7 186.058 308.275 187.358 307.425C188.708 306.575 189.383 305.25 189.383 303.45C189.383 301.7 188.758 300.375 187.508 299.475ZM189.608 316.425C187.708 315.375 184.633 314.85 180.383 314.85L175.583 314.925V326.55H180.383C184.533 326.55 187.583 326.15 189.533 325.35C191.533 324.55 192.533 323.075 192.533 320.925C192.533 318.925 191.558 317.425 189.608 316.425Z" fill="#0C4857"/>
<path d="M226.196 306.975C228.846 304.825 231.571 303.75 234.371 303.75C238.671 303.75 241.846 305.075 243.896 307.725C245.996 310.375 247.046 314.05 247.046 318.75V321.525H228.221C228.421 323.975 229.171 325.675 230.471 326.625C231.821 327.575 233.871 328.05 236.621 328.05C239.471 328.05 242.096 327.75 244.496 327.15L245.771 332.025C242.571 333.175 239.396 333.75 236.246 333.75C231.496 333.75 227.971 332.525 225.671 330.075C221.821 332.475 218.096 333.675 214.496 333.675C211.396 333.675 208.921 332.875 207.071 331.275C205.221 329.675 204.296 327.625 204.296 325.125C204.296 322.325 205.321 320.15 207.371 318.6C209.471 317 212.446 316.1 216.296 315.9L221.921 315.6C221.921 313.1 221.471 311.4 220.571 310.5C219.671 309.6 217.896 309.15 215.246 309.15C212.996 309.15 210.546 309.65 207.896 310.65L206.771 305.7C210.671 304.4 213.871 303.75 216.371 303.75C218.921 303.75 220.896 304.025 222.296 304.575C223.746 305.125 225.046 305.925 226.196 306.975ZM238.571 311.175C237.621 309.975 236.271 309.375 234.521 309.375C232.971 309.375 231.571 310 230.321 311.25C229.121 312.5 228.471 314.25 228.371 316.5H240.071C240.071 314.15 239.571 312.375 238.571 311.175ZM222.296 326.625V320.475L217.121 320.85C213.371 321.05 211.496 322.3 211.496 324.6C211.496 325.75 211.921 326.65 212.771 327.3C213.621 327.95 214.796 328.275 216.296 328.275C217.646 328.275 218.771 328.15 219.671 327.9C220.621 327.65 221.496 327.225 222.296 326.625Z" fill="#0C4857"/>
<path d="M252.755 304.2H257.855L258.755 306.3C261.405 304.6 264.23 303.75 267.23 303.75C269.08 303.75 270.83 304.125 272.48 304.875L271.055 311.4L270.755 311.475C269.055 310.475 267.005 309.975 264.605 309.975C262.955 309.975 261.38 310.25 259.88 310.8V333H252.755V304.2Z" fill="#0C4857"/>
<path d="M282.062 305.625C284.112 304.375 286.312 303.75 288.662 303.75C293.012 303.75 296.337 305.1 298.637 307.8C300.987 310.45 302.162 314.1 302.162 318.75V321.525H282.587C282.787 323.975 283.637 325.675 285.137 326.625C286.637 327.575 288.762 328.05 291.512 328.05C294.412 328.05 297.062 327.75 299.462 327.15L300.737 332.025C297.487 333.175 294.087 333.75 290.537 333.75C285.587 333.75 281.812 332.375 279.212 329.625C276.612 326.875 275.312 323.25 275.312 318.75C275.312 315.75 275.937 313.125 277.187 310.875C278.437 308.575 280.062 306.825 282.062 305.625ZM293.312 311.25C292.162 310 290.662 309.375 288.812 309.375C287.312 309.375 285.937 310 284.687 311.25C283.487 312.5 282.837 314.25 282.737 316.5H295.037C295.037 314.2 294.462 312.45 293.312 311.25Z" fill="#0C4857"/>
<path d="M327.409 304.95V291.75H334.609V333H329.434L328.909 331.425C326.359 332.925 323.784 333.675 321.184 333.675C316.634 333.675 313.034 332.325 310.384 329.625C307.784 326.925 306.484 323.275 306.484 318.675C306.484 315.225 307.209 312.375 308.659 310.125C310.159 307.875 311.984 306.25 314.134 305.25C316.284 304.25 318.434 303.75 320.584 303.75C323.334 303.75 325.609 304.15 327.409 304.95ZM327.409 310.35C325.909 309.7 324.184 309.375 322.234 309.375C316.684 309.375 313.909 312.6 313.909 319.05C313.909 322.25 314.684 324.55 316.234 325.95C317.784 327.35 319.859 328.05 322.459 328.05C324.309 328.05 325.959 327.575 327.409 326.625V310.35Z" fill="#0C4857"/>
<path d="M351.486 333.225L338.586 304.2H346.761L355.386 326.325L363.111 304.2H370.611L352.986 348.45H344.961L351.486 333.225Z" fill="#0C4857"/>
<path d="M393.648 338.175C394.148 336.675 394.398 334.725 394.398 332.325V332.175C393.248 332.675 392.198 333.05 391.248 333.3C390.348 333.55 389.298 333.675 388.098 333.675C383.548 333.675 379.948 332.325 377.298 329.625C374.698 326.925 373.398 323.275 373.398 318.675C373.398 315.075 374.123 312.175 375.573 309.975C377.023 307.725 378.773 306.125 380.823 305.175C382.923 304.225 385.023 303.75 387.123 303.75C390.123 303.75 393.023 304.525 395.823 306.075L396.498 304.2H401.523V333.675C401.523 337.725 400.323 341.225 397.923 344.175C395.523 347.175 391.523 348.675 385.923 348.675C382.473 348.675 379.148 348.05 375.948 346.8L374.823 346.35L376.773 341.1L377.973 341.475C380.773 342.475 383.173 342.975 385.173 342.975C387.723 342.975 389.648 342.55 390.948 341.7C392.298 340.85 393.198 339.675 393.648 338.175ZM394.323 310.5C392.723 309.8 390.998 309.45 389.148 309.45C383.598 309.45 380.823 312.65 380.823 319.05C380.823 322.25 381.598 324.55 383.148 325.95C384.698 327.35 386.773 328.05 389.373 328.05C391.223 328.05 392.873 327.575 394.323 326.625V310.5Z" fill="#0C4857"/>
<path d="M422.724 327.825C424.174 327.825 426.024 327.525 428.274 326.925L429.249 332.025C427.499 332.525 425.999 332.925 424.749 333.225C423.549 333.525 422.349 333.675 421.149 333.675C416.999 333.675 414.224 332.8 412.824 331.05C411.474 329.3 410.799 326.875 410.799 323.775V309.825H405.999V304.2H410.799V295.95H417.999V304.2H427.974V309.825H417.999V323.625C417.999 326.425 419.574 327.825 422.724 327.825Z" fill="#0C4857"/>
<path d="M433.902 333V304.2H441.102V333H433.902ZM434.277 297.975C435.177 298.875 436.252 299.325 437.502 299.325C438.802 299.325 439.877 298.875 440.727 297.975C441.627 297.075 442.077 296 442.077 294.75C442.077 293.45 441.627 292.375 440.727 291.525C439.877 290.625 438.802 290.175 437.502 290.175C436.252 290.175 435.177 290.625 434.277 291.525C433.377 292.375 432.927 293.45 432.927 294.75C432.927 296 433.377 297.075 434.277 297.975Z" fill="#0C4857"/>
<path d="M467.183 338.175C467.683 336.675 467.933 334.725 467.933 332.325V332.175C466.783 332.675 465.733 333.05 464.783 333.3C463.883 333.55 462.833 333.675 461.633 333.675C457.083 333.675 453.483 332.325 450.833 329.625C448.233 326.925 446.933 323.275 446.933 318.675C446.933 315.075 447.658 312.175 449.108 309.975C450.558 307.725 452.308 306.125 454.358 305.175C456.458 304.225 458.558 303.75 460.658 303.75C463.658 303.75 466.558 304.525 469.358 306.075L470.033 304.2H475.058V333.675C475.058 337.725 473.858 341.225 471.458 344.175C469.058 347.175 465.058 348.675 459.458 348.675C456.008 348.675 452.683 348.05 449.483 346.8L448.358 346.35L450.308 341.1L451.508 341.475C454.308 342.475 456.708 342.975 458.708 342.975C461.258 342.975 463.183 342.55 464.483 341.7C465.833 340.85 466.733 339.675 467.183 338.175ZM467.858 310.5C466.258 309.8 464.533 309.45 462.683 309.45C457.133 309.45 454.358 312.65 454.358 319.05C454.358 322.25 455.133 324.55 456.683 325.95C458.233 327.35 460.308 328.05 462.908 328.05C464.758 328.05 466.408 327.575 467.858 326.625V310.5Z" fill="#0C4857"/>
<path d="M500.984 311.475C500.284 310.375 498.909 309.825 496.859 309.825C495.009 309.825 492.734 310.35 490.034 311.4V333H482.834V291.75H490.034V305.7C493.034 304.45 495.934 303.825 498.734 303.825C503.034 303.825 505.859 305.05 507.209 307.5C508.559 309.95 509.234 313 509.234 316.65V333H502.034V315.675C502.034 313.925 501.684 312.525 500.984 311.475Z" fill="#0C4857"/>
<path d="M521.476 305.625C523.526 304.375 525.726 303.75 528.076 303.75C532.426 303.75 535.751 305.1 538.051 307.8C540.401 310.45 541.576 314.1 541.576 318.75V321.525H522.001C522.201 323.975 523.051 325.675 524.551 326.625C526.051 327.575 528.176 328.05 530.926 328.05C533.826 328.05 536.476 327.75 538.876 327.15L540.151 332.025C536.901 333.175 533.501 333.75 529.951 333.75C525.001 333.75 521.226 332.375 518.626 329.625C516.026 326.875 514.726 323.25 514.726 318.75C514.726 315.75 515.351 313.125 516.601 310.875C517.851 308.575 519.476 306.825 521.476 305.625ZM532.726 311.25C531.576 310 530.076 309.375 528.226 309.375C526.726 309.375 525.351 310 524.101 311.25C522.901 312.5 522.251 314.25 522.151 316.5H534.451C534.451 314.2 533.876 312.45 532.726 311.25Z" fill="#0C4857"/>
<path d="M566.823 304.95V291.75H574.023V333H568.848L568.323 331.425C565.773 332.925 563.198 333.675 560.598 333.675C556.048 333.675 552.448 332.325 549.798 329.625C547.198 326.925 545.898 323.275 545.898 318.675C545.898 315.225 546.623 312.375 548.073 310.125C549.573 307.875 551.398 306.25 553.548 305.25C555.698 304.25 557.848 303.75 559.998 303.75C562.748 303.75 565.023 304.15 566.823 304.95ZM566.823 310.35C565.323 309.7 563.598 309.375 561.648 309.375C556.098 309.375 553.323 312.6 553.323 319.05C553.323 322.25 554.098 324.55 555.648 325.95C557.198 327.35 559.273 328.05 561.873 328.05C563.723 328.05 565.373 327.575 566.823 326.625V310.35Z" fill="#0C4857"/>
<path d="M79.0721 412H75.0258L65.6658 385.188H69.5171L77.1708 408.636L84.9221 385.188H88.4321L79.0721 412Z" fill="#0C4857"/>
<path d="M93.3147 389.672C92.7297 389.672 92.2422 389.477 91.8522 389.087C91.4622 388.665 91.2672 388.178 91.2672 387.625C91.2672 387.105 91.4622 386.65 91.8522 386.26C92.2422 385.838 92.7297 385.626 93.3147 385.626C93.8672 385.626 94.3384 385.838 94.7284 386.26C95.1184 386.65 95.3134 387.105 95.3134 387.625C95.3134 388.178 95.1184 388.665 94.7284 389.087C94.3709 389.477 93.8997 389.672 93.3147 389.672ZM94.8747 412H91.7059V393.28H94.8747V412Z" fill="#0C4857"/>
<path d="M111.282 412V386.065H114.451V393.767C115.718 393.182 117.23 392.89 118.985 392.89C121.617 392.89 123.762 393.67 125.42 395.23C127.142 396.953 128.003 399.487 128.003 402.835C128.003 405.727 127.256 408.051 125.761 409.806C124.298 411.529 122.186 412.39 119.423 412.39C117.603 412.39 115.832 411.821 114.11 410.684L113.525 412H111.282ZM118.643 409.709C120.723 409.709 122.251 409.14 123.226 408.003C124.201 406.865 124.688 405.078 124.688 402.64C124.688 400.463 124.168 398.724 123.128 397.424C122.121 396.124 120.61 395.474 118.595 395.474C117.067 395.474 115.686 395.717 114.451 396.205V408.587C115.198 408.977 115.865 409.27 116.45 409.465C117.067 409.627 117.798 409.709 118.643 409.709Z" fill="#0C4857"/>
<path d="M140.096 393.036C142.566 393.036 144.468 393.784 145.8 395.279C147.133 396.741 147.799 398.821 147.799 401.519V403.225L147.604 403.615H134.783C134.783 405.207 135.384 406.686 136.586 408.051C137.724 409.189 139.495 409.758 141.9 409.758C143.493 409.758 145.004 409.514 146.434 409.026L147.019 411.366C145.036 412.049 143.038 412.39 141.023 412.39C138 412.39 135.693 411.578 134.1 409.953C132.508 408.328 131.711 406.004 131.711 402.981C131.711 400.121 132.41 397.765 133.808 395.913C135.303 393.995 137.399 393.036 140.096 393.036ZM144.581 401.08C144.581 399.455 144.224 398.122 143.509 397.082C142.826 396.042 141.803 395.522 140.438 395.522C138.715 395.522 137.399 396.042 136.489 397.082C135.579 398.122 135.026 399.455 134.831 401.08H144.581Z" fill="#0C4857"/>
<path d="M155.643 412H152.474V386.065H155.643V412ZM159.738 401.665L168.318 412H164.418L155.984 401.665L164.174 393.28H167.879L159.738 401.665Z" fill="#0C4857"/>
<path d="M190.353 393.036C192.791 393.036 194.676 393.784 196.008 395.279C197.341 396.741 198.007 398.821 198.007 401.519V403.225L197.763 403.615H185.381C185.381 405.207 185.982 406.686 187.184 408.051C187.769 408.636 188.452 409.075 189.232 409.367C190.012 409.627 190.987 409.758 192.157 409.758C193.717 409.758 195.228 409.514 196.691 409.026L197.276 411.366C195.228 412.049 193.229 412.39 191.279 412.39C187.802 412.39 185.397 411.317 184.064 409.172C182.407 411.382 180.018 412.487 176.898 412.487C175.208 412.487 173.778 412 172.608 411.025C171.471 410.05 170.902 408.815 170.902 407.32C170.902 405.858 171.324 404.671 172.169 403.761C173.047 402.819 174.136 402.185 175.436 401.86C177.548 401.307 179.904 401.031 182.504 401.031V400.885C182.504 399.553 182.374 398.577 182.114 397.96C181.594 396.497 180.164 395.766 177.824 395.766C177.142 395.766 176.313 395.848 175.338 396.01C174.396 396.14 173.551 396.319 172.803 396.546L172.169 394.206C174.347 393.459 176.378 393.085 178.263 393.085C180.376 393.085 181.984 393.41 183.089 394.06C183.837 394.612 184.341 395.181 184.601 395.766C185.413 394.824 186.258 394.141 187.136 393.719C188.046 393.264 189.118 393.036 190.353 393.036ZM194.838 401.08C194.838 399.455 194.481 398.122 193.766 397.082C193.083 396.042 192.043 395.522 190.646 395.522C187.656 395.522 185.917 397.375 185.429 401.08H194.838ZM177.337 409.953C178.409 409.953 179.352 409.774 180.164 409.416C180.977 409.026 181.757 408.49 182.504 407.807V403.323C180.782 403.355 179.384 403.42 178.312 403.517C177.239 403.615 176.248 403.94 175.338 404.492C174.428 405.012 173.973 405.841 173.973 406.979C173.973 407.889 174.249 408.62 174.802 409.172C175.354 409.692 176.199 409.953 177.337 409.953Z" fill="#0C4857"/>
<path d="M224.815 400.105C224.815 397.05 223.596 395.522 221.158 395.522C219.956 395.522 218.461 396.075 216.673 397.18C216.771 397.537 216.82 398.253 216.82 399.325V412H213.651V400.105C213.651 397.05 212.416 395.522 209.946 395.522C208.776 395.522 207.33 395.994 205.607 396.936V412H202.438V393.28H204.632L205.315 394.84C206.42 394.092 207.444 393.572 208.386 393.28C209.134 393.085 209.995 392.987 210.97 392.987C212.042 392.987 212.985 393.199 213.797 393.621C214.642 394.044 215.325 394.629 215.845 395.376C216.917 394.596 217.941 394.011 218.916 393.621C219.891 393.199 220.963 392.987 222.133 392.987C224.051 392.987 225.513 393.572 226.521 394.742C227.561 395.88 228.081 397.408 228.081 399.325V412H224.815V400.105Z" fill="#0C4857"/>
<path d="M233.462 393.28H235.704L236.338 394.694C237.931 393.589 239.686 393.036 241.603 393.036C243.423 393.036 244.967 393.426 246.234 394.206C248.932 395.896 250.281 398.643 250.281 402.445C250.281 405.695 249.371 408.198 247.551 409.953C245.763 411.643 243.634 412.487 241.164 412.487C239.572 412.487 238.061 412.179 236.631 411.561V422.14H233.462V393.28ZM240.823 395.669C239.913 395.669 239.149 395.75 238.532 395.913C237.947 396.075 237.313 396.368 236.631 396.79V409.075C237.898 409.66 239.279 409.953 240.774 409.953C242.724 409.953 244.236 409.286 245.308 407.954C246.381 406.621 246.917 404.899 246.917 402.786C246.917 400.609 246.397 398.886 245.357 397.619C244.317 396.319 242.806 395.669 240.823 395.669Z" fill="#0C4857"/>
<path d="M262.314 393.036C264.784 393.036 266.685 393.784 268.018 395.279C269.35 396.741 270.017 398.821 270.017 401.519V403.225L269.822 403.615H257C257 405.207 257.602 406.686 258.804 408.051C259.942 409.189 261.713 409.758 264.118 409.758C265.71 409.758 267.222 409.514 268.652 409.026L269.237 411.366C267.254 412.049 265.255 412.39 263.24 412.39C260.218 412.39 257.91 411.578 256.318 409.953C254.725 408.328 253.929 406.004 253.929 402.981C253.929 400.121 254.628 397.765 256.025 395.913C257.52 393.995 259.617 393.036 262.314 393.036ZM266.799 401.08C266.799 399.455 266.442 398.122 265.727 397.082C265.044 396.042 264.02 395.522 262.655 395.522C260.933 395.522 259.617 396.042 258.707 397.082C257.797 398.122 257.244 399.455 257.049 401.08H266.799Z" fill="#0C4857"/>
<path d="M282.59 393.036C283.305 393.036 283.873 393.085 284.296 393.182C284.751 393.247 285.19 393.378 285.612 393.573L284.491 396.4C283.646 396.01 282.72 395.815 281.712 395.815C280.347 395.815 278.998 396.27 277.666 397.18V412H274.497V393.28H276.788L277.471 394.889C279.096 393.654 280.802 393.036 282.59 393.036Z" fill="#0C4857"/>
<path d="M321.896 400.105C321.896 397.05 320.677 395.522 318.24 395.522C317.037 395.522 315.542 396.075 313.755 397.18C313.852 397.537 313.901 398.253 313.901 399.325V412H310.732V400.105C310.732 397.05 309.497 395.522 307.027 395.522C305.857 395.522 304.411 395.994 302.688 396.936V412H299.52V393.28H301.713L302.396 394.84C303.501 394.092 304.525 393.572 305.467 393.28C306.215 393.085 307.076 392.987 308.051 392.987C309.123 392.987 310.066 393.199 310.878 393.621C311.723 394.044 312.406 394.629 312.926 395.376C313.998 394.596 315.022 394.011 315.997 393.621C316.972 393.199 318.045 392.987 319.215 392.987C321.132 392.987 322.595 393.572 323.602 394.742C324.642 395.88 325.162 397.408 325.162 399.325V412H321.896V400.105Z" fill="#0C4857"/>
<path d="M336.49 395.766C335.808 395.766 334.979 395.848 334.004 396.01C333.062 396.14 332.217 396.319 331.469 396.546L330.835 394.206C333.013 393.459 335.044 393.085 336.929 393.085C339.042 393.085 340.65 393.41 341.755 394.06C342.73 394.775 343.397 395.539 343.754 396.351C344.144 397.164 344.339 398.35 344.339 399.91V412H341.95L341.268 410.245C339.415 411.74 337.514 412.487 335.564 412.487C333.874 412.487 332.444 412 331.274 411.025C330.137 410.05 329.568 408.815 329.568 407.32C329.568 405.858 330.007 404.655 330.884 403.712C331.794 402.737 332.899 402.088 334.199 401.763C335.857 401.34 338.18 401.096 341.17 401.031V400.885C341.17 399.553 341.04 398.577 340.78 397.96C340.26 396.497 338.83 395.766 336.49 395.766ZM336.003 409.953C337.075 409.953 338.018 409.774 338.83 409.416C339.643 409.026 340.423 408.49 341.17 407.807V403.323C338.928 403.355 337.27 403.485 336.198 403.712C334.995 403.972 334.102 404.363 333.517 404.883C332.932 405.37 332.639 406.069 332.639 406.979C332.639 407.921 332.964 408.652 333.614 409.172C334.297 409.692 335.093 409.953 336.003 409.953Z" fill="#0C4857"/>
<path d="M357.403 412.39C354.608 412.39 352.463 411.529 350.968 409.806C349.473 408.051 348.725 405.727 348.725 402.835C348.725 399.65 349.619 397.164 351.406 395.376C353.129 393.719 355.274 392.89 357.841 392.89C359.564 392.89 361.026 393.182 362.229 393.767V386.065H365.544V412H363.204L362.668 410.684C360.913 411.821 359.158 412.39 357.403 412.39ZM358.036 409.709C358.914 409.709 359.645 409.627 360.23 409.465C360.848 409.27 361.514 408.977 362.229 408.587V396.205C361.026 395.717 359.645 395.474 358.085 395.474C356.07 395.474 354.543 396.124 353.503 397.424C352.495 398.724 351.991 400.463 351.991 402.64C351.991 404.785 352.495 406.507 353.503 407.807C354.543 409.075 356.054 409.709 358.036 409.709Z" fill="#0C4857"/>
<path d="M376.906 409.758C378.043 409.758 379.002 409.546 379.782 409.124C380.594 408.669 381.001 408.019 381.001 407.174C381.001 406.491 380.708 405.955 380.123 405.565C379.538 405.175 378.303 404.59 376.418 403.81L374.566 403.079C373.753 402.689 373.087 402.347 372.567 402.055C372.047 401.73 371.576 401.259 371.153 400.641C370.731 399.991 370.519 399.179 370.519 398.204C370.519 396.449 371.234 395.149 372.664 394.304C374.127 393.459 375.914 393.036 378.027 393.036C379.814 393.036 381.602 393.443 383.389 394.255L382.609 396.595C381.147 395.978 379.733 395.669 378.368 395.669C376.971 395.669 375.833 395.88 374.956 396.302C374.111 396.692 373.688 397.261 373.688 398.009C373.688 398.756 373.981 399.341 374.566 399.764C375.183 400.186 376.223 400.674 377.686 401.226L379.294 401.86C381.082 402.607 382.333 403.388 383.048 404.2C383.763 405.013 384.121 406.085 384.121 407.418C384.121 408.783 383.487 409.969 382.219 410.976C380.952 411.951 379.262 412.439 377.149 412.439C374.744 412.439 372.372 411.967 370.032 411.025L370.909 408.636C373.022 409.384 375.021 409.758 376.906 409.758Z" fill="#0C4857"/>
<path d="M389.157 393.28H391.4L392.033 394.694C393.626 393.589 395.381 393.036 397.298 393.036C399.118 393.036 400.662 393.426 401.93 394.206C404.627 395.896 405.976 398.643 405.976 402.445C405.976 405.695 405.066 408.198 403.246 409.953C401.458 411.643 399.33 412.487 396.86 412.487C395.267 412.487 393.756 412.179 392.326 411.561V422.14H389.157V393.28ZM396.518 395.669C395.608 395.669 394.845 395.75 394.227 395.913C393.642 396.075 393.008 396.368 392.326 396.79V409.075C393.593 409.66 394.975 409.953 396.47 409.953C398.42 409.953 399.931 409.286 401.003 407.954C402.076 406.621 402.612 404.899 402.612 402.786C402.612 400.609 402.092 398.886 401.052 397.619C400.012 396.319 398.501 395.669 396.518 395.669Z" fill="#0C4857"/>
<path d="M412.208 389.672C411.623 389.672 411.136 389.477 410.746 389.087C410.356 388.665 410.161 388.178 410.161 387.625C410.161 387.105 410.356 386.65 410.746 386.26C411.136 385.838 411.623 385.626 412.208 385.626C412.761 385.626 413.232 385.838 413.622 386.26C414.012 386.65 414.207 387.105 414.207 387.625C414.207 388.178 414.012 388.665 413.622 389.087C413.264 389.477 412.793 389.672 412.208 389.672ZM413.768 412H410.599V393.28H413.768V412Z" fill="#0C4857"/>
<path d="M424.895 409.514C425.383 409.514 425.935 409.416 426.553 409.221L427.138 411.513C427.04 411.545 426.65 411.708 425.968 412C425.285 412.292 424.408 412.439 423.335 412.439C422.133 412.439 421.174 412.033 420.459 411.22C419.744 410.375 419.37 409.286 419.338 407.954V386.016H422.409V406.832C422.409 407.71 422.555 408.376 422.848 408.831C423.14 409.286 423.823 409.514 424.895 409.514Z" fill="#0C4857"/>
<path d="M437.878 412.39C435.083 412.39 432.938 411.529 431.443 409.806C429.948 408.051 429.201 405.727 429.201 402.835C429.201 399.65 430.094 397.164 431.882 395.376C433.604 393.719 435.749 392.89 438.317 392.89C440.039 392.89 441.502 393.182 442.704 393.767V386.065H446.019V412H443.679L443.143 410.684C441.388 411.821 439.633 412.39 437.878 412.39ZM438.512 409.709C439.389 409.709 440.121 409.627 440.706 409.465C441.323 409.27 441.989 408.977 442.704 408.587V396.205C441.502 395.717 440.121 395.474 438.561 395.474C436.546 395.474 435.018 396.124 433.978 397.424C432.971 398.724 432.467 400.463 432.467 402.64C432.467 404.785 432.971 406.507 433.978 407.807C435.018 409.075 436.529 409.709 438.512 409.709Z" fill="#0C4857"/>
<path d="M470.315 412.439C467.488 412.439 465.278 411.561 463.685 409.806C462.125 408.051 461.345 405.695 461.345 402.737C461.345 399.747 462.141 397.391 463.734 395.669C465.359 393.914 467.601 393.036 470.461 393.036C473.321 393.036 475.531 393.897 477.091 395.62C478.651 397.342 479.431 399.699 479.431 402.689C479.431 405.614 478.619 407.97 476.994 409.758C475.369 411.545 473.143 412.439 470.315 412.439ZM470.461 395.522C468.609 395.522 467.163 396.205 466.123 397.57C465.115 398.935 464.611 400.657 464.611 402.737C464.611 404.817 465.115 406.524 466.123 407.856C467.163 409.189 468.609 409.855 470.461 409.855C472.281 409.855 473.695 409.189 474.703 407.856C475.71 406.491 476.214 404.785 476.214 402.737C476.214 400.657 475.694 398.935 474.654 397.57C473.646 396.205 472.249 395.522 470.461 395.522Z" fill="#0C4857"/>
<path d="M496.634 411.122C495.009 411.967 493.368 412.39 491.71 412.39C488.72 412.39 486.429 411.236 484.837 408.929C483.699 407.239 483.13 405.256 483.13 402.981C483.13 400.674 483.618 398.724 484.593 397.131C485.6 395.506 486.982 394.336 488.737 393.621C489.549 393.231 490.605 393.036 491.905 393.036C493.433 393.036 494.895 393.361 496.293 394.011L497.219 394.45L497.56 393.28H499.852V412.878C499.852 414.6 499.657 415.981 499.267 417.021C498.877 418.061 498.21 419.02 497.268 419.897C496.488 420.645 495.513 421.214 494.343 421.604C493.205 422.026 491.922 422.237 490.492 422.237C489.582 422.237 488.59 422.124 487.518 421.896C486.478 421.669 485.568 421.376 484.788 421.019L485.617 418.776C487.469 419.426 488.948 419.751 490.053 419.751C492.003 419.751 493.53 419.28 494.635 418.337C495.74 417.395 496.39 416.062 496.585 414.34C496.618 413.982 496.634 413.072 496.634 411.61V411.122ZM492.442 409.806C494.067 409.806 495.464 409.465 496.634 408.783V396.546C495.172 395.896 493.725 395.571 492.295 395.571C490.345 395.571 488.867 396.205 487.859 397.473C486.852 398.74 486.348 400.43 486.348 402.543C486.348 404.07 486.64 405.419 487.225 406.589C487.81 407.759 488.607 408.604 489.614 409.124C490.427 409.579 491.369 409.806 492.442 409.806Z" fill="#0C4857"/>
<path d="M522.051 409.758C523.189 409.758 524.147 409.546 524.927 409.124C525.74 408.669 526.146 408.019 526.146 407.174C526.146 406.491 525.854 405.955 525.269 405.565C524.684 405.175 523.449 404.59 521.564 403.81L519.711 403.079C518.899 402.689 518.232 402.347 517.712 402.055C517.192 401.73 516.721 401.259 516.299 400.641C515.876 399.991 515.665 399.179 515.665 398.204C515.665 396.449 516.38 395.149 517.81 394.304C519.272 393.459 521.06 393.036 523.172 393.036C524.96 393.036 526.747 393.443 528.535 394.255L527.755 396.595C526.292 395.978 524.879 395.669 523.514 395.669C522.116 395.669 520.979 395.88 520.101 396.302C519.256 396.692 518.834 397.261 518.834 398.009C518.834 398.756 519.126 399.341 519.711 399.764C520.329 400.186 521.369 400.674 522.831 401.226L524.44 401.86C526.227 402.607 527.479 403.388 528.194 404.2C528.909 405.013 529.266 406.085 529.266 407.418C529.266 408.783 528.632 409.969 527.365 410.976C526.097 411.951 524.407 412.439 522.295 412.439C519.89 412.439 517.517 411.967 515.177 411.025L516.055 408.636C518.167 409.384 520.166 409.758 522.051 409.758Z" fill="#0C4857"/>
<path d="M537.569 412H534.4V386.065H537.569V412ZM541.664 401.665L550.244 412H546.344L537.91 401.665L546.1 393.28H549.805L541.664 401.665Z" fill="#0C4857"/>
<path d="M559.75 395.766C559.068 395.766 558.239 395.848 557.264 396.01C556.321 396.14 555.476 396.319 554.729 396.546L554.095 394.206C556.273 393.459 558.304 393.085 560.189 393.085C562.301 393.085 563.91 393.41 565.015 394.06C565.99 394.775 566.656 395.539 567.014 396.351C567.404 397.164 567.599 398.35 567.599 399.91V412H565.21L564.528 410.245C562.675 411.74 560.774 412.487 558.824 412.487C557.134 412.487 555.704 412 554.534 411.025C553.396 410.05 552.828 408.815 552.828 407.32C552.828 405.858 553.266 404.655 554.144 403.712C555.054 402.737 556.159 402.088 557.459 401.763C559.116 401.34 561.44 401.096 564.43 401.031V400.885C564.43 399.553 564.3 398.577 564.04 397.96C563.52 396.497 562.09 395.766 559.75 395.766ZM559.263 409.953C560.335 409.953 561.278 409.774 562.09 409.416C562.903 409.026 563.683 408.49 564.43 407.807V403.323C562.188 403.355 560.53 403.485 559.458 403.712C558.255 403.972 557.361 404.363 556.776 404.883C556.191 405.37 555.899 406.069 555.899 406.979C555.899 407.921 556.224 408.652 556.874 409.172C557.556 409.692 558.353 409.953 559.263 409.953Z" fill="#0C4857"/>
<path d="M572.96 412V386.065H576.129V393.767C577.396 393.182 578.907 392.89 580.662 392.89C583.295 392.89 585.44 393.67 587.097 395.23C588.82 396.953 589.681 399.487 589.681 402.835C589.681 405.727 588.934 408.051 587.439 409.806C585.976 411.529 583.864 412.39 581.101 412.39C579.281 412.39 577.51 411.821 575.787 410.684L575.202 412H572.96ZM580.321 409.709C582.401 409.709 583.929 409.14 584.904 408.003C585.879 406.865 586.366 405.078 586.366 402.64C586.366 400.463 585.846 398.724 584.806 397.424C583.799 396.124 582.287 395.474 580.272 395.474C578.745 395.474 577.364 395.717 576.129 396.205V408.587C576.876 408.977 577.542 409.27 578.127 409.465C578.745 409.627 579.476 409.709 580.321 409.709Z" fill="#0C4857"/>
<path d="M601.774 393.036C604.244 393.036 606.145 393.784 607.478 395.279C608.81 396.741 609.477 398.821 609.477 401.519V403.225L609.282 403.615H596.46C596.46 405.207 597.062 406.686 598.264 408.051C599.402 409.189 601.173 409.758 603.578 409.758C605.17 409.758 606.682 409.514 608.112 409.026L608.697 411.366C606.714 412.049 604.715 412.39 602.7 412.39C599.678 412.39 597.37 411.578 595.778 409.953C594.185 408.328 593.389 406.004 593.389 402.981C593.389 400.121 594.088 397.765 595.485 395.913C596.98 393.995 599.077 393.036 601.774 393.036ZM606.259 401.08C606.259 399.455 605.902 398.122 605.187 397.082C604.504 396.042 603.48 395.522 602.115 395.522C600.393 395.522 599.077 396.042 598.167 397.082C597.257 398.122 596.704 399.455 596.509 401.08H606.259Z" fill="#0C4857"/>
<path d="M622.05 393.036C622.765 393.036 623.333 393.085 623.756 393.182C624.211 393.247 624.65 393.378 625.072 393.573L623.951 396.4C623.106 396.01 622.18 395.815 621.172 395.815C619.807 395.815 618.458 396.27 617.126 397.18V412H613.957V393.28H616.248L616.931 394.889C618.556 393.654 620.262 393.036 622.05 393.036Z" fill="#0C4857"/>
<path d="M646.487 393.036C648.957 393.036 650.858 393.784 652.191 395.279C653.523 396.741 654.19 398.821 654.19 401.519V403.225L653.995 403.615H641.173C641.173 405.207 641.774 406.686 642.977 408.051C644.114 409.189 645.886 409.758 648.291 409.758C649.883 409.758 651.395 409.514 652.825 409.026L653.409 411.366C651.427 412.049 649.428 412.39 647.413 412.39C644.391 412.39 642.083 411.578 640.491 409.953C638.898 408.328 638.102 406.004 638.102 402.981C638.102 400.121 638.801 397.765 640.198 395.913C641.693 393.995 643.789 393.036 646.487 393.036ZM650.972 401.08C650.972 399.455 650.615 398.122 649.9 397.082C649.217 396.042 648.193 395.522 646.828 395.522C645.106 395.522 643.79 396.042 642.88 397.082C641.97 398.122 641.417 399.455 641.222 401.08H650.972Z" fill="#0C4857"/>
<path d="M671.052 400.105C671.052 398.513 670.744 397.375 670.126 396.693C669.541 396.01 668.501 395.669 667.006 395.669C665.414 395.669 663.691 396.107 661.839 396.985V412H658.67V393.28H660.864L661.546 394.84C663.789 393.605 665.982 392.987 668.127 392.987C670.11 392.987 671.621 393.556 672.661 394.694C673.701 395.799 674.221 397.343 674.221 399.325V412H671.052V400.105Z" fill="#0C4857"/>
<path d="M179.054 443.105C179.054 440.05 177.836 438.522 175.398 438.522C174.196 438.522 172.701 439.075 170.913 440.18C171.011 440.537 171.059 441.253 171.059 442.325V455H167.891V443.105C167.891 440.05 166.656 438.522 164.186 438.522C163.016 438.522 161.569 438.994 159.847 439.936V455H156.678V436.28H158.872L159.554 437.84C160.659 437.092 161.683 436.572 162.626 436.28C163.373 436.085 164.234 435.987 165.209 435.987C166.282 435.987 167.224 436.199 168.037 436.621C168.882 437.044 169.564 437.629 170.084 438.376C171.157 437.596 172.181 437.011 173.156 436.621C174.131 436.199 175.203 435.987 176.373 435.987C178.291 435.987 179.753 436.572 180.761 437.742C181.801 438.88 182.321 440.408 182.321 442.325V455H179.054V443.105Z" fill="#0C4857"/>
<path d="M195.112 436.036C197.582 436.036 199.483 436.784 200.815 438.279C202.148 439.741 202.814 441.821 202.814 444.519V446.225L202.619 446.615H189.798C189.798 448.207 190.399 449.686 191.602 451.051C192.739 452.189 194.51 452.758 196.915 452.758C198.508 452.758 200.019 452.514 201.449 452.026L202.034 454.366C200.052 455.049 198.053 455.39 196.038 455.39C193.015 455.39 190.708 454.578 189.115 452.953C187.523 451.328 186.727 449.004 186.727 445.981C186.727 443.121 187.425 440.765 188.823 438.913C190.318 436.995 192.414 436.036 195.112 436.036ZM199.597 444.08C199.597 442.455 199.239 441.122 198.524 440.082C197.842 439.042 196.818 438.522 195.453 438.522C193.73 438.522 192.414 439.042 191.504 440.082C190.594 441.122 190.042 442.455 189.847 444.08H199.597Z" fill="#0C4857"/>
<path d="M215.387 436.036C216.102 436.036 216.671 436.085 217.093 436.182C217.548 436.247 217.987 436.378 218.409 436.573L217.288 439.4C216.443 439.01 215.517 438.815 214.509 438.815C213.144 438.815 211.796 439.27 210.463 440.18V455H207.294V436.28H209.586L210.268 437.889C211.893 436.654 213.599 436.036 215.387 436.036Z" fill="#0C4857"/>
<path d="M229.084 436.036C231.554 436.036 233.455 436.784 234.788 438.279C236.12 439.741 236.787 441.821 236.787 444.519V446.225L236.592 446.615H223.77C223.77 448.207 224.372 449.686 225.574 451.051C226.712 452.189 228.483 452.758 230.888 452.758C232.48 452.758 233.992 452.514 235.422 452.026L236.007 454.366C234.024 455.049 232.025 455.39 230.01 455.39C226.988 455.39 224.68 454.578 223.088 452.953C221.495 451.328 220.699 449.004 220.699 445.981C220.699 443.121 221.398 440.765 222.795 438.913C224.29 436.995 226.387 436.036 229.084 436.036ZM233.569 444.08C233.569 442.455 233.212 441.122 232.497 440.082C231.814 439.042 230.79 438.522 229.425 438.522C227.703 438.522 226.387 439.042 225.477 440.082C224.567 441.122 224.014 442.455 223.819 444.08H233.569Z" fill="#0C4857"/>
<path d="M252.105 455V429.065H255.274V436.767C256.541 436.182 258.052 435.89 259.807 435.89C262.44 435.89 264.585 436.67 266.242 438.23C267.965 439.953 268.826 442.487 268.826 445.835C268.826 448.727 268.079 451.051 266.584 452.806C265.121 454.529 263.009 455.39 260.246 455.39C258.426 455.39 256.655 454.821 254.932 453.684L254.347 455H252.105ZM259.466 452.709C261.546 452.709 263.074 452.14 264.049 451.003C265.024 449.865 265.511 448.078 265.511 445.64C265.511 443.463 264.991 441.724 263.951 440.424C262.944 439.124 261.432 438.474 259.417 438.474C257.89 438.474 256.509 438.717 255.274 439.205V451.587C256.021 451.977 256.687 452.27 257.272 452.465C257.89 452.627 258.621 452.709 259.466 452.709Z" fill="#0C4857"/>
<path d="M291.985 436.036C294.423 436.036 296.308 436.784 297.64 438.279C298.973 439.741 299.639 441.821 299.639 444.519V446.225L299.395 446.615H287.013C287.013 448.207 287.614 449.686 288.817 451.051C289.402 451.636 290.084 452.075 290.864 452.367C291.644 452.627 292.619 452.758 293.789 452.758C295.349 452.758 296.86 452.514 298.323 452.026L298.908 454.366C296.86 455.049 294.862 455.39 292.912 455.39C289.434 455.39 287.029 454.317 285.697 452.172C284.039 454.382 281.65 455.487 278.53 455.487C276.84 455.487 275.41 455 274.24 454.025C273.103 453.05 272.534 451.815 272.534 450.32C272.534 448.858 272.957 447.671 273.802 446.761C274.679 445.819 275.768 445.185 277.068 444.86C279.18 444.307 281.537 444.031 284.137 444.031V443.885C284.137 442.553 284.007 441.577 283.747 440.96C283.227 439.497 281.797 438.766 279.457 438.766C278.774 438.766 277.945 438.848 276.97 439.01C276.028 439.14 275.183 439.319 274.435 439.546L273.802 437.206C275.979 436.459 278.01 436.085 279.895 436.085C282.008 436.085 283.617 436.41 284.722 437.06C285.469 437.612 285.973 438.181 286.233 438.766C287.045 437.824 287.89 437.141 288.768 436.719C289.678 436.264 290.75 436.036 291.985 436.036ZM296.47 444.08C296.47 442.455 296.113 441.122 295.398 440.082C294.715 439.042 293.675 438.522 292.278 438.522C289.288 438.522 287.549 440.375 287.062 444.08H296.47ZM278.969 452.953C280.042 452.953 280.984 452.774 281.797 452.416C282.609 452.026 283.389 451.49 284.137 450.807V446.323C282.414 446.355 281.017 446.42 279.944 446.517C278.872 446.615 277.88 446.94 276.97 447.492C276.06 448.012 275.605 448.841 275.605 449.979C275.605 450.889 275.882 451.62 276.434 452.172C276.987 452.692 277.832 452.953 278.969 452.953Z" fill="#0C4857"/>
<path d="M312.163 436.036C312.878 436.036 313.447 436.085 313.87 436.182C314.325 436.247 314.763 436.378 315.186 436.573L314.065 439.4C313.22 439.01 312.293 438.815 311.286 438.815C309.921 438.815 308.572 439.27 307.24 440.18V455H304.071V436.28H306.362L307.045 437.889C308.67 436.654 310.376 436.036 312.163 436.036Z" fill="#0C4857"/>
<path d="M325.861 436.036C328.331 436.036 330.232 436.784 331.564 438.279C332.897 439.741 333.563 441.821 333.563 444.519V446.225L333.368 446.615H320.547C320.547 448.207 321.148 449.686 322.351 451.051C323.488 452.189 325.259 452.758 327.664 452.758C329.257 452.758 330.768 452.514 332.198 452.026L332.783 454.366C330.801 455.049 328.802 455.39 326.787 455.39C323.764 455.39 321.457 454.578 319.864 452.953C318.272 451.328 317.476 449.004 317.476 445.981C317.476 443.121 318.174 440.765 319.572 438.913C321.067 436.995 323.163 436.036 325.861 436.036ZM330.346 444.08C330.346 442.455 329.988 441.122 329.273 440.082C328.591 439.042 327.567 438.522 326.202 438.522C324.479 438.522 323.163 439.042 322.253 440.082C321.343 441.122 320.791 442.455 320.596 444.08H330.346Z" fill="#0C4857"/>
<path d="M345.843 455.39C343.048 455.39 340.903 454.529 339.408 452.806C337.913 451.051 337.166 448.727 337.166 445.835C337.166 442.65 338.06 440.164 339.847 438.376C341.57 436.719 343.715 435.89 346.282 435.89C348.005 435.89 349.467 436.182 350.67 436.767V429.065H353.985V455H351.645L351.108 453.684C349.353 454.821 347.598 455.39 345.843 455.39ZM346.477 452.709C347.355 452.709 348.086 452.627 348.671 452.465C349.288 452.27 349.955 451.977 350.67 451.587V439.205C349.467 438.717 348.086 438.474 346.526 438.474C344.511 438.474 342.983 439.124 341.943 440.424C340.936 441.724 340.432 443.463 340.432 445.64C340.432 447.785 340.936 449.507 341.943 450.807C342.983 452.075 344.495 452.709 346.477 452.709Z" fill="#0C4857"/>
<path d="M364.957 465.043H361.69L365.298 455.975L357.79 436.28H361.105L366.858 451.783L372.61 436.28H375.633L364.957 465.043Z" fill="#0C4857"/>
<path d="M392.145 454.122C390.52 454.967 388.879 455.39 387.222 455.39C384.232 455.39 381.94 454.236 380.348 451.929C379.21 450.239 378.642 448.256 378.642 445.981C378.642 443.674 379.129 441.724 380.104 440.131C381.112 438.506 382.493 437.336 384.248 436.621C385.06 436.231 386.117 436.036 387.417 436.036C388.944 436.036 390.407 436.361 391.804 437.011L392.73 437.45L393.072 436.28H395.363V455.878C395.363 457.6 395.168 458.981 394.778 460.021C394.388 461.061 393.722 462.02 392.779 462.897C391.999 463.645 391.024 464.214 389.854 464.604C388.717 465.026 387.433 465.237 386.003 465.237C385.093 465.237 384.102 465.124 383.029 464.896C381.989 464.669 381.079 464.376 380.299 464.019L381.128 461.776C382.98 462.426 384.459 462.751 385.564 462.751C387.514 462.751 389.042 462.28 390.147 461.337C391.252 460.395 391.902 459.062 392.097 457.34C392.129 456.982 392.145 456.072 392.145 454.61V454.122ZM387.953 452.806C389.578 452.806 390.975 452.465 392.145 451.783V439.546C390.683 438.896 389.237 438.571 387.807 438.571C385.857 438.571 384.378 439.205 383.37 440.473C382.363 441.74 381.859 443.43 381.859 445.543C381.859 447.07 382.152 448.419 382.737 449.589C383.322 450.759 384.118 451.604 385.125 452.124C385.938 452.579 386.88 452.806 387.953 452.806Z" fill="#0C4857"/>
<path d="M407.358 455.39C405.473 455.39 404.125 454.886 403.312 453.879C402.532 452.839 402.142 451.279 402.142 449.199V438.913H398.973V436.28H402.142V431.698L405.311 431.454V436.28H411.453V438.913H405.311V449.004C405.311 450.304 405.506 451.246 405.896 451.831C406.318 452.416 407.115 452.709 408.285 452.709C409.39 452.709 410.381 452.611 411.258 452.416L411.795 454.561C410.332 455.114 408.853 455.39 407.358 455.39Z" fill="#0C4857"/>
<path d="M417.102 432.672C416.517 432.672 416.03 432.477 415.64 432.087C415.25 431.665 415.055 431.178 415.055 430.625C415.055 430.105 415.25 429.65 415.64 429.26C416.03 428.838 416.517 428.626 417.102 428.626C417.655 428.626 418.126 428.838 418.516 429.26C418.906 429.65 419.101 430.105 419.101 430.625C419.101 431.178 418.906 431.665 418.516 432.087C418.159 432.477 417.687 432.672 417.102 432.672ZM418.662 455H415.494V436.28H418.662V455Z" fill="#0C4857"/>
<path d="M436.858 454.122C435.233 454.967 433.592 455.39 431.934 455.39C428.944 455.39 426.653 454.236 425.061 451.929C423.923 450.239 423.354 448.256 423.354 445.981C423.354 443.674 423.842 441.724 424.817 440.131C425.824 438.506 427.206 437.336 428.961 436.621C429.773 436.231 430.829 436.036 432.129 436.036C433.657 436.036 435.119 436.361 436.517 437.011L437.443 437.45L437.784 436.28H440.076V455.878C440.076 457.6 439.881 458.981 439.491 460.021C439.101 461.061 438.434 462.02 437.492 462.897C436.712 463.645 435.737 464.214 434.567 464.604C433.429 465.026 432.146 465.237 430.716 465.237C429.806 465.237 428.814 465.124 427.742 464.896C426.702 464.669 425.792 464.376 425.012 464.019L425.841 461.776C427.693 462.426 429.172 462.751 430.277 462.751C432.227 462.751 433.754 462.28 434.859 461.337C435.964 460.395 436.614 459.062 436.809 457.34C436.842 456.982 436.858 456.072 436.858 454.61V454.122ZM432.666 452.806C434.291 452.806 435.688 452.465 436.858 451.783V439.546C435.396 438.896 433.949 438.571 432.519 438.571C430.569 438.571 429.091 439.205 428.083 440.473C427.076 441.74 426.572 443.43 426.572 445.543C426.572 447.07 426.864 448.419 427.449 449.589C428.034 450.759 428.831 451.604 429.838 452.124C430.651 452.579 431.593 452.806 432.666 452.806Z" fill="#0C4857"/>
<path d="M464.908 430.479C463.835 430.479 462.941 430.739 462.226 431.259C461.544 431.779 461.138 432.445 461.008 433.258C460.943 433.648 460.91 434.086 460.91 434.574V436.28H467.101V438.766H460.959V455H457.79V438.766H455.011V436.28H457.693V434.379C457.693 432.786 457.904 431.616 458.326 430.869C459.399 428.951 461.268 427.992 463.933 427.992C465.265 427.992 466.776 428.236 468.466 428.724L467.93 431.064C466.533 430.674 465.525 430.479 464.908 430.479Z" fill="#0C4857"/>
<path d="M478.523 436.036C479.238 436.036 479.806 436.085 480.229 436.182C480.684 436.247 481.123 436.378 481.545 436.573L480.424 439.4C479.579 439.01 478.653 438.815 477.645 438.815C476.28 438.815 474.931 439.27 473.599 440.18V455H470.43V436.28H472.721L473.404 437.889C475.029 436.654 476.735 436.036 478.523 436.036Z" fill="#0C4857"/>
<path d="M492.22 436.036C494.69 436.036 496.591 436.784 497.924 438.279C499.256 439.741 499.922 441.821 499.922 444.519V446.225L499.727 446.615H486.906C486.906 448.207 487.507 449.686 488.71 451.051C489.847 452.189 491.619 452.758 494.024 452.758C495.616 452.758 497.127 452.514 498.557 452.026L499.142 454.366C497.16 455.049 495.161 455.39 493.146 455.39C490.124 455.39 487.816 454.578 486.224 452.953C484.631 451.328 483.835 449.004 483.835 445.981C483.835 443.121 484.534 440.765 485.931 438.913C487.426 436.995 489.522 436.036 492.22 436.036ZM496.705 444.08C496.705 442.455 496.347 441.122 495.632 440.082C494.95 439.042 493.926 438.522 492.561 438.522C490.839 438.522 489.522 439.042 488.612 440.082C487.702 441.122 487.15 442.455 486.955 444.08H496.705Z" fill="#0C4857"/>
<path d="M526.779 443.105C526.779 440.05 525.56 438.522 523.123 438.522C521.92 438.522 520.425 439.075 518.638 440.18C518.735 440.537 518.784 441.253 518.784 442.325V455H515.615V443.105C515.615 440.05 514.38 438.522 511.91 438.522C510.74 438.522 509.294 438.994 507.572 439.936V455H504.403V436.28H506.597L507.279 437.84C508.384 437.092 509.408 436.572 510.35 436.28C511.098 436.085 511.959 435.987 512.934 435.987C514.007 435.987 514.949 436.199 515.762 436.621C516.607 437.044 517.289 437.629 517.809 438.376C518.882 437.596 519.905 437.011 520.88 436.621C521.855 436.199 522.928 435.987 524.098 435.987C526.015 435.987 527.478 436.572 528.485 437.742C529.525 438.88 530.045 440.408 530.045 442.325V455H526.779V443.105Z" fill="#0C4857"/>
<path d="M541.764 455.39C539.879 455.39 538.53 454.886 537.717 453.879C536.937 452.839 536.547 451.279 536.547 449.199V438.913H533.379V436.28H536.547V431.698L539.716 431.454V436.28H545.859V438.913H539.716V449.004C539.716 450.304 539.911 451.246 540.301 451.831C540.724 452.416 541.52 452.709 542.69 452.709C543.795 452.709 544.786 452.611 545.664 452.416L546.2 454.561C544.737 455.114 543.259 455.39 541.764 455.39Z" fill="#0C4857"/>
<path d="M551.508 432.672C550.923 432.672 550.435 432.477 550.045 432.087C549.655 431.665 549.46 431.178 549.46 430.625C549.46 430.105 549.655 429.65 550.045 429.26C550.435 428.838 550.923 428.626 551.508 428.626C552.06 428.626 552.531 428.838 552.921 429.26C553.311 429.65 553.506 430.105 553.506 430.625C553.506 431.178 553.311 431.665 552.921 432.087C552.564 432.477 552.093 432.672 551.508 432.672ZM553.068 455H549.899V436.28H553.068V455Z" fill="#0C4857"/>
<path d="M566.437 455.39C563.642 455.39 561.497 454.529 560.002 452.806C558.507 451.051 557.76 448.727 557.76 445.835C557.76 442.65 558.653 440.164 560.441 438.376C562.163 436.719 564.308 435.89 566.876 435.89C568.598 435.89 570.061 436.182 571.263 436.767V429.065H574.578V455H572.238L571.702 453.684C569.947 454.821 568.192 455.39 566.437 455.39ZM567.071 452.709C567.948 452.709 568.68 452.627 569.265 452.465C569.882 452.27 570.548 451.977 571.263 451.587V439.205C570.061 438.717 568.68 438.474 567.12 438.474C565.105 438.474 563.577 439.124 562.537 440.424C561.53 441.724 561.026 443.463 561.026 445.64C561.026 447.785 561.53 449.507 562.537 450.807C563.577 452.075 565.088 452.709 567.071 452.709Z" fill="#0C4857"/>
<path d="M582.674 455.195C582.024 455.195 581.488 454.984 581.065 454.561C580.675 454.139 580.48 453.619 580.48 453.001C580.48 452.384 580.675 451.864 581.065 451.441C581.488 451.019 582.024 450.807 582.674 450.807C583.324 450.807 583.844 451.019 584.234 451.441C584.657 451.864 584.868 452.384 584.868 453.001C584.868 453.619 584.657 454.139 584.234 454.561C583.844 454.984 583.324 455.195 582.674 455.195Z" fill="#0C4857"/>
<path d="M379.333 242V175.542C388.222 175.542 396.764 173.84 404.958 170.438C413.153 167.035 420.375 162.208 426.625 155.958C432.875 149.708 437.667 142.486 441 134.292C444.333 126.097 446 117.556 446 108.667V92H429.333C420.583 92 412.111 93.7014 403.917 97.1042C395.722 100.507 388.5 105.333 382.25 111.583C377.944 115.889 374.368 120.611 371.521 125.75C368.674 130.889 366.486 136.375 364.958 142.208C364.264 141.236 363.5 140.299 362.667 139.396C361.833 138.493 360.931 137.556 359.958 136.583C353.708 130.333 346.486 125.507 338.292 122.104C330.097 118.701 321.556 117 312.667 117H296V133.667C296 142.556 297.701 151.097 301.104 159.292C304.507 167.486 309.333 174.708 315.583 180.958C321.833 187.208 329.021 192 337.146 195.333C345.271 198.667 353.778 200.333 362.667 200.333V242H379.333ZM379.333 158.667C379.333 152 380.618 145.646 383.188 139.604C385.757 133.562 389.403 128.181 394.125 123.458C398.847 118.736 404.229 115.09 410.271 112.521C416.313 109.951 422.667 108.667 429.333 108.667C429.333 115.333 428.083 121.722 425.583 127.833C423.083 133.944 419.472 139.361 414.75 144.083C410.028 148.806 404.611 152.417 398.5 154.917C392.389 157.417 386 158.667 379.333 158.667ZM362.667 183.667C356 183.667 349.646 182.417 343.604 179.917C337.563 177.417 332.181 173.806 327.458 169.083C322.736 164.361 319.09 158.944 316.521 152.833C313.951 146.722 312.667 140.333 312.667 133.667C319.333 133.667 325.722 134.951 331.833 137.521C337.944 140.09 343.361 143.736 348.083 148.458C352.806 153.181 356.417 158.562 358.917 164.604C361.417 170.646 362.667 177 362.667 183.667Z" fill="#0C4857"/>
</svg>
