<svg width="741" height="604" viewBox="0 0 741 604" fill="none" xmlns="http://www.w3.org/2000/svg">
<path d="M0 63C0 28.206 28.2061 0 63 0H678C712.794 0 741 28.2061 741 63V541C741 575.794 712.794 604 678 604H63C28.2061 604 0 575.794 0 541V63Z" fill="#FFF6F1" fill-opacity="0.75"/>
<path d="M240.107 333L225.032 291.75H233.357L244.832 325.125L255.257 291.75H263.132L248.882 333H240.107Z" fill="#0C4857"/>
<path d="M288.009 306.975C290.659 304.825 293.384 303.75 296.184 303.75C300.484 303.75 303.659 305.075 305.709 307.725C307.809 310.375 308.859 314.05 308.859 318.75V321.525H290.034C290.234 323.975 290.984 325.675 292.284 326.625C293.634 327.575 295.684 328.05 298.434 328.05C301.284 328.05 303.909 327.75 306.309 327.15L307.584 332.025C304.384 333.175 301.209 333.75 298.059 333.75C293.309 333.75 289.784 332.525 287.484 330.075C283.634 332.475 279.909 333.675 276.309 333.675C273.209 333.675 270.734 332.875 268.884 331.275C267.034 329.675 266.109 327.625 266.109 325.125C266.109 322.325 267.134 320.15 269.184 318.6C271.284 317 274.259 316.1 278.109 315.9L283.734 315.6C283.734 313.1 283.284 311.4 282.384 310.5C281.484 309.6 279.709 309.15 277.059 309.15C274.809 309.15 272.359 309.65 269.709 310.65L268.584 305.7C272.484 304.4 275.684 303.75 278.184 303.75C280.734 303.75 282.709 304.025 284.109 304.575C285.559 305.125 286.859 305.925 288.009 306.975ZM300.384 311.175C299.434 309.975 298.084 309.375 296.334 309.375C294.784 309.375 293.384 310 292.134 311.25C290.934 312.5 290.284 314.25 290.184 316.5H301.884C301.884 314.15 301.384 312.375 300.384 311.175ZM284.109 326.625V320.475L278.934 320.85C275.184 321.05 273.309 322.3 273.309 324.6C273.309 325.75 273.734 326.65 274.584 327.3C275.434 327.95 276.609 328.275 278.109 328.275C279.459 328.275 280.584 328.15 281.484 327.9C282.434 327.65 283.309 327.225 284.109 326.625Z" fill="#0C4857"/>
<path d="M314.568 304.2H319.668L320.568 306.3C323.218 304.6 326.043 303.75 329.043 303.75C330.893 303.75 332.643 304.125 334.293 304.875L332.868 311.4L332.568 311.475C330.868 310.475 328.818 309.975 326.418 309.975C324.768 309.975 323.193 310.25 321.693 310.8V333H314.568V304.2Z" fill="#0C4857"/>
<path d="M358.049 304.95V291.75H365.249V333H360.074L359.549 331.425C356.999 332.925 354.424 333.675 351.824 333.675C347.274 333.675 343.674 332.325 341.024 329.625C338.424 326.925 337.124 323.275 337.124 318.675C337.124 315.225 337.849 312.375 339.299 310.125C340.799 307.875 342.624 306.25 344.774 305.25C346.924 304.25 349.074 303.75 351.224 303.75C353.974 303.75 356.249 304.15 358.049 304.95ZM358.049 310.35C356.549 309.7 354.824 309.375 352.874 309.375C347.324 309.375 344.549 312.6 344.549 319.05C344.549 322.25 345.324 324.55 346.874 325.95C348.424 327.35 350.499 328.05 353.099 328.05C354.949 328.05 356.599 327.575 358.049 326.625V310.35Z" fill="#0C4857"/>
<path d="M372.902 333V304.2H380.102V333H372.902ZM373.277 297.975C374.177 298.875 375.252 299.325 376.502 299.325C377.802 299.325 378.877 298.875 379.727 297.975C380.627 297.075 381.077 296 381.077 294.75C381.077 293.45 380.627 292.375 379.727 291.525C378.877 290.625 377.802 290.175 376.502 290.175C375.252 290.175 374.177 290.625 373.277 291.525C372.377 292.375 371.927 293.45 371.927 294.75C371.927 296 372.377 297.075 373.277 297.975Z" fill="#0C4857"/>
<path d="M406.183 338.175C406.683 336.675 406.933 334.725 406.933 332.325V332.175C405.783 332.675 404.733 333.05 403.783 333.3C402.883 333.55 401.833 333.675 400.633 333.675C396.083 333.675 392.483 332.325 389.833 329.625C387.233 326.925 385.933 323.275 385.933 318.675C385.933 315.075 386.658 312.175 388.108 309.975C389.558 307.725 391.308 306.125 393.358 305.175C395.458 304.225 397.558 303.75 399.658 303.75C402.658 303.75 405.558 304.525 408.358 306.075L409.033 304.2H414.058V333.675C414.058 337.725 412.858 341.225 410.458 344.175C408.058 347.175 404.058 348.675 398.458 348.675C395.008 348.675 391.683 348.05 388.483 346.8L387.358 346.35L389.308 341.1L390.508 341.475C393.308 342.475 395.708 342.975 397.708 342.975C400.258 342.975 402.183 342.55 403.483 341.7C404.833 340.85 405.733 339.675 406.183 338.175ZM406.858 310.5C405.258 309.8 403.533 309.45 401.683 309.45C396.133 309.45 393.358 312.65 393.358 319.05C393.358 322.25 394.133 324.55 395.683 325.95C397.233 327.35 399.308 328.05 401.908 328.05C403.758 328.05 405.408 327.575 406.858 326.625V310.5Z" fill="#0C4857"/>
<path d="M439.984 311.475C439.284 310.375 437.909 309.825 435.859 309.825C434.009 309.825 431.734 310.35 429.034 311.4V333H421.834V291.75H429.034V305.7C432.034 304.45 434.934 303.825 437.734 303.825C442.034 303.825 444.859 305.05 446.209 307.5C447.559 309.95 448.234 313 448.234 316.65V333H441.034V315.675C441.034 313.925 440.684 312.525 439.984 311.475Z" fill="#0C4857"/>
<path d="M460.476 305.625C462.526 304.375 464.726 303.75 467.076 303.75C471.426 303.75 474.751 305.1 477.051 307.8C479.401 310.45 480.576 314.1 480.576 318.75V321.525H461.001C461.201 323.975 462.051 325.675 463.551 326.625C465.051 327.575 467.176 328.05 469.926 328.05C472.826 328.05 475.476 327.75 477.876 327.15L479.151 332.025C475.901 333.175 472.501 333.75 468.951 333.75C464.001 333.75 460.226 332.375 457.626 329.625C455.026 326.875 453.726 323.25 453.726 318.75C453.726 315.75 454.351 313.125 455.601 310.875C456.851 308.575 458.476 306.825 460.476 305.625ZM471.726 311.25C470.576 310 469.076 309.375 467.226 309.375C465.726 309.375 464.351 310 463.101 311.25C461.901 312.5 461.251 314.25 461.151 316.5H473.451C473.451 314.2 472.876 312.45 471.726 311.25Z" fill="#0C4857"/>
<path d="M505.823 304.95V291.75H513.023V333H507.848L507.323 331.425C504.773 332.925 502.198 333.675 499.598 333.675C495.048 333.675 491.448 332.325 488.798 329.625C486.198 326.925 484.898 323.275 484.898 318.675C484.898 315.225 485.623 312.375 487.073 310.125C488.573 307.875 490.398 306.25 492.548 305.25C494.698 304.25 496.848 303.75 498.998 303.75C501.748 303.75 504.023 304.15 505.823 304.95ZM505.823 310.35C504.323 309.7 502.598 309.375 500.648 309.375C495.098 309.375 492.323 312.6 492.323 319.05C492.323 322.25 493.098 324.55 494.648 325.95C496.198 327.35 498.273 328.05 500.873 328.05C502.723 328.05 504.373 327.575 505.823 326.625V310.35Z" fill="#0C4857"/>
<path d="M100.937 385.188H104.837L114.051 412H110.443L107.908 404.151H97.6709L95.1359 412H91.7722L100.937 385.188ZM98.5972 401.372H106.982L102.741 388.551L98.5972 401.372Z" fill="#0C4857"/>
<path d="M123.083 409.514C123.571 409.514 124.123 409.416 124.741 409.221L125.326 411.513C125.228 411.545 124.838 411.708 124.156 412C123.473 412.292 122.596 412.439 121.523 412.439C120.321 412.439 119.362 412.033 118.647 411.22C117.932 410.375 117.558 409.286 117.526 407.954V386.016H120.597V406.832C120.597 407.71 120.743 408.376 121.036 408.831C121.328 409.286 122.011 409.514 123.083 409.514Z" fill="#0C4857"/>
<path d="M133.824 409.514C134.311 409.514 134.864 409.416 135.481 409.221L136.066 411.513C135.969 411.545 135.579 411.708 134.896 412C134.214 412.292 133.336 412.439 132.264 412.439C131.061 412.439 130.102 412.033 129.387 411.22C128.672 410.375 128.299 409.286 128.266 407.954V386.016H131.337V406.832C131.337 407.71 131.484 408.376 131.776 408.831C132.069 409.286 132.751 409.514 133.824 409.514Z" fill="#0C4857"/>
<path d="M146.514 393.036C148.984 393.036 150.885 393.784 152.218 395.279C153.55 396.741 154.216 398.821 154.216 401.519V403.225L154.021 403.615H141.2C141.2 405.207 141.801 406.686 143.004 408.051C144.141 409.189 145.913 409.758 148.318 409.758C149.91 409.758 151.421 409.514 152.851 409.026L153.436 411.366C151.454 412.049 149.455 412.39 147.44 412.39C144.418 412.39 142.11 411.578 140.518 409.953C138.925 408.328 138.129 406.004 138.129 402.981C138.129 400.121 138.828 397.765 140.225 395.913C141.72 393.995 143.816 393.036 146.514 393.036ZM150.999 401.08C150.999 399.455 150.641 398.122 149.926 397.082C149.244 396.042 148.22 395.522 146.855 395.522C145.133 395.522 143.816 396.042 142.906 397.082C141.996 398.122 141.444 399.455 141.249 401.08H150.999Z" fill="#0C4857"/>
<path d="M177.968 387.479C176.896 387.479 176.002 387.739 175.287 388.259C174.605 388.779 174.198 389.445 174.068 390.258C174.003 390.648 173.971 391.086 173.971 391.574V393.28H180.162V395.766H174.02V412H170.851V395.766H168.072V393.28H170.753V391.379C170.753 389.786 170.965 388.616 171.387 387.869C172.46 385.951 174.328 384.992 176.993 384.992C178.326 384.992 179.837 385.236 181.527 385.724L180.991 388.064C179.593 387.674 178.586 387.479 177.968 387.479Z" fill="#0C4857"/>
<path d="M191.583 412.439C188.756 412.439 186.546 411.561 184.953 409.806C183.393 408.051 182.613 405.695 182.613 402.737C182.613 399.747 183.409 397.391 185.002 395.669C186.627 393.914 188.869 393.036 191.729 393.036C194.589 393.036 196.799 393.897 198.359 395.62C199.919 397.342 200.699 399.699 200.699 402.689C200.699 405.614 199.887 407.97 198.262 409.758C196.637 411.545 194.411 412.439 191.583 412.439ZM191.729 395.522C189.877 395.522 188.431 396.205 187.391 397.57C186.383 398.935 185.879 400.657 185.879 402.737C185.879 404.817 186.383 406.524 187.391 407.856C188.431 409.189 189.877 409.855 191.729 409.855C193.549 409.855 194.963 409.189 195.971 407.856C196.978 406.491 197.482 404.785 197.482 402.737C197.482 400.657 196.962 398.935 195.922 397.57C194.914 396.205 193.517 395.522 191.729 395.522Z" fill="#0C4857"/>
<path d="M213.368 393.036C214.083 393.036 214.652 393.085 215.075 393.182C215.53 393.247 215.968 393.378 216.391 393.573L215.27 396.4C214.425 396.01 213.498 395.815 212.491 395.815C211.126 395.815 209.777 396.27 208.445 397.18V412H205.276V393.28H207.567L208.25 394.889C209.875 393.654 211.581 393.036 213.368 393.036Z" fill="#0C4857"/>
<path d="M225.993 412.39C224.108 412.39 222.759 411.886 221.947 410.879C221.167 409.839 220.777 408.279 220.777 406.199V395.913H217.608V393.28H220.777V388.698L223.946 388.454V393.28H230.088V395.913H223.946V406.004C223.946 407.304 224.141 408.246 224.531 408.831C224.953 409.416 225.749 409.709 226.919 409.709C228.024 409.709 229.016 409.611 229.893 409.416L230.429 411.561C228.967 412.114 227.488 412.39 225.993 412.39Z" fill="#0C4857"/>
<path d="M237.248 393.28V414.438C237.248 415.705 237.2 416.583 237.102 417.07C237.005 417.558 236.777 418.191 236.42 418.971C235.705 420.466 234.323 421.523 232.276 422.14L231.106 419.849C233.153 418.874 234.177 417.265 234.177 415.022V393.28H237.248ZM235.64 389.283C235.087 389.283 234.6 389.088 234.177 388.698C233.787 388.275 233.592 387.787 233.592 387.235C233.592 386.682 233.787 386.211 234.177 385.821C234.6 385.399 235.087 385.188 235.64 385.188C236.192 385.188 236.663 385.399 237.053 385.821C237.476 386.211 237.687 386.682 237.687 387.235C237.687 387.787 237.476 388.275 237.053 388.698C236.663 389.088 236.192 389.283 235.64 389.283Z" fill="#0C4857"/>
<path d="M250.298 393.036C252.768 393.036 254.669 393.784 256.002 395.279C257.334 396.741 258.001 398.821 258.001 401.519V403.225L257.806 403.615H244.984C244.984 405.207 245.586 406.686 246.788 408.051C247.926 409.189 249.697 409.758 252.102 409.758C253.694 409.758 255.206 409.514 256.636 409.026L257.221 411.366C255.238 412.049 253.239 412.39 251.224 412.39C248.202 412.39 245.894 411.578 244.302 409.953C242.709 408.328 241.913 406.004 241.913 402.981C241.913 400.121 242.612 397.765 244.009 395.913C245.504 393.995 247.601 393.036 250.298 393.036ZM254.783 401.08C254.783 399.455 254.426 398.122 253.711 397.082C253.028 396.042 252.004 395.522 250.639 395.522C248.917 395.522 247.601 396.042 246.691 397.082C245.781 398.122 245.228 399.455 245.033 401.08H254.783Z" fill="#0C4857"/>
<path d="M274.863 400.105C274.863 398.513 274.555 397.375 273.937 396.693C273.352 396.01 272.312 395.669 270.817 395.669C269.225 395.669 267.502 396.107 265.65 396.985V412H262.481V393.28H264.675L265.357 394.84C267.6 393.605 269.793 392.987 271.938 392.987C273.921 392.987 275.432 393.556 276.472 394.694C277.512 395.799 278.032 397.343 278.032 399.325V412H274.863V400.105Z" fill="#0C4857"/>
<path d="M290.821 393.036C293.291 393.036 295.193 393.784 296.525 395.279C297.858 396.741 298.524 398.821 298.524 401.519V403.225L298.329 403.615H285.508C285.508 405.207 286.109 406.686 287.311 408.051C288.449 409.189 290.22 409.758 292.625 409.758C294.218 409.758 295.729 409.514 297.159 409.026L297.744 411.366C295.761 412.049 293.763 412.39 291.748 412.39C288.725 412.39 286.418 411.578 284.825 409.953C283.233 408.328 282.436 406.004 282.436 402.981C282.436 400.121 283.135 397.765 284.533 395.913C286.028 393.995 288.124 393.036 290.821 393.036ZM295.306 401.08C295.306 399.455 294.949 398.122 294.234 397.082C293.551 396.042 292.528 395.522 291.163 395.522C289.44 395.522 288.124 396.042 287.214 397.082C286.304 398.122 285.751 399.455 285.556 401.08H295.306Z" fill="#0C4857"/>
<path d="M311.097 393.036C311.812 393.036 312.381 393.085 312.803 393.182C313.258 393.247 313.697 393.378 314.119 393.573L312.998 396.4C312.153 396.01 311.227 395.815 310.219 395.815C308.854 395.815 307.506 396.27 306.173 397.18V412H303.004V393.28H305.296L305.978 394.889C307.603 393.654 309.309 393.036 311.097 393.036Z" fill="#0C4857"/>
<path d="M334.072 395.766C333.389 395.766 332.561 395.848 331.586 396.01C330.643 396.14 329.798 396.319 329.051 396.546L328.417 394.206C330.594 393.459 332.626 393.085 334.511 393.085C336.623 393.085 338.232 393.41 339.337 394.06C340.312 394.775 340.978 395.539 341.336 396.351C341.726 397.164 341.921 398.35 341.921 399.91V412H339.532L338.849 410.245C336.997 411.74 335.096 412.487 333.146 412.487C331.456 412.487 330.026 412 328.856 411.025C327.718 410.05 327.149 408.815 327.149 407.32C327.149 405.858 327.588 404.655 328.466 403.712C329.376 402.737 330.481 402.088 331.781 401.763C333.438 401.34 335.762 401.096 338.752 401.031V400.885C338.752 399.553 338.622 398.577 338.362 397.96C337.842 396.497 336.412 395.766 334.072 395.766ZM333.584 409.953C334.657 409.953 335.599 409.774 336.412 409.416C337.224 409.026 338.004 408.49 338.752 407.807V403.323C336.509 403.355 334.852 403.485 333.779 403.712C332.577 403.972 331.683 404.363 331.098 404.883C330.513 405.37 330.221 406.069 330.221 406.979C330.221 407.921 330.546 408.652 331.196 409.172C331.878 409.692 332.674 409.953 333.584 409.953Z" fill="#0C4857"/>
<path d="M354.984 412.39C352.189 412.39 350.044 411.529 348.549 409.806C347.054 408.051 346.307 405.727 346.307 402.835C346.307 399.65 347.2 397.164 348.988 395.376C350.71 393.719 352.855 392.89 355.423 392.89C357.145 392.89 358.608 393.182 359.81 393.767V386.065H363.125V412H360.785L360.249 410.684C358.494 411.821 356.739 412.39 354.984 412.39ZM355.618 409.709C356.495 409.709 357.227 409.627 357.812 409.465C358.429 409.27 359.095 408.977 359.81 408.587V396.205C358.608 395.717 357.227 395.474 355.667 395.474C353.652 395.474 352.124 396.124 351.084 397.424C350.077 398.724 349.573 400.463 349.573 402.64C349.573 404.785 350.077 406.507 351.084 407.807C352.124 409.075 353.635 409.709 355.618 409.709Z" fill="#0C4857"/>
<path d="M381.215 411.122C379.59 411.967 377.948 412.39 376.291 412.39C373.301 412.39 371.01 411.236 369.417 408.929C368.28 407.239 367.711 405.256 367.711 402.981C367.711 400.674 368.198 398.724 369.173 397.131C370.181 395.506 371.562 394.336 373.317 393.621C374.13 393.231 375.186 393.036 376.486 393.036C378.013 393.036 379.476 393.361 380.873 394.011L381.8 394.45L382.141 393.28H384.432V412.878C384.432 414.6 384.237 415.981 383.847 417.021C383.457 418.061 382.791 419.02 381.848 419.897C381.068 420.645 380.093 421.214 378.923 421.604C377.786 422.026 376.502 422.237 375.072 422.237C374.162 422.237 373.171 422.124 372.098 421.896C371.058 421.669 370.148 421.376 369.368 421.019L370.197 418.776C372.05 419.426 373.528 419.751 374.633 419.751C376.583 419.751 378.111 419.28 379.216 418.337C380.321 417.395 380.971 416.062 381.166 414.34C381.198 413.982 381.215 413.072 381.215 411.61V411.122ZM377.022 409.806C378.647 409.806 380.045 409.465 381.215 408.783V396.546C379.752 395.896 378.306 395.571 376.876 395.571C374.926 395.571 373.447 396.205 372.44 397.473C371.432 398.74 370.928 400.43 370.928 402.543C370.928 404.07 371.221 405.419 371.806 406.589C372.391 407.759 373.187 408.604 374.195 409.124C375.007 409.579 375.95 409.806 377.022 409.806Z" fill="#0C4857"/>
<path d="M396.038 395.766C395.355 395.766 394.526 395.848 393.551 396.01C392.609 396.14 391.764 396.319 391.016 396.546L390.383 394.206C392.56 393.459 394.591 393.085 396.476 393.085C398.589 393.085 400.198 393.41 401.303 394.06C402.278 394.775 402.944 395.539 403.301 396.351C403.691 397.164 403.886 398.35 403.886 399.91V412H401.498L400.815 410.245C398.963 411.74 397.061 412.487 395.111 412.487C393.421 412.487 391.991 412 390.821 411.025C389.684 410.05 389.115 408.815 389.115 407.32C389.115 405.858 389.554 404.655 390.431 403.712C391.341 402.737 392.446 402.088 393.746 401.763C395.404 401.34 397.728 401.096 400.718 401.031V400.885C400.718 399.553 400.588 398.577 400.328 397.96C399.808 396.497 398.378 395.766 396.038 395.766ZM395.55 409.953C396.623 409.953 397.565 409.774 398.378 409.416C399.19 409.026 399.97 408.49 400.718 407.807V403.323C398.475 403.355 396.818 403.485 395.745 403.712C394.543 403.972 393.649 404.363 393.064 404.883C392.479 405.37 392.186 406.069 392.186 406.979C392.186 407.921 392.511 408.652 393.161 409.172C393.844 409.692 394.64 409.953 395.55 409.953Z" fill="#0C4857"/>
<path d="M421.532 400.105C421.532 398.513 421.224 397.375 420.606 396.693C420.021 396.01 418.981 395.669 417.486 395.669C415.894 395.669 414.171 396.107 412.319 396.985V412H409.15V393.28H411.344L412.026 394.84C414.269 393.605 416.462 392.987 418.607 392.987C420.59 392.987 422.101 393.556 423.141 394.694C424.181 395.799 424.701 397.343 424.701 399.325V412H421.532V400.105Z" fill="#0C4857"/>
<path d="M442.609 411.122C440.984 411.967 439.343 412.39 437.685 412.39C434.695 412.39 432.404 411.236 430.812 408.929C429.674 407.239 429.105 405.256 429.105 402.981C429.105 400.674 429.593 398.724 430.568 397.131C431.575 395.506 432.957 394.336 434.712 393.621C435.524 393.231 436.58 393.036 437.88 393.036C439.408 393.036 440.87 393.361 442.268 394.011L443.194 394.45L443.535 393.28H445.827V412.878C445.827 414.6 445.632 415.981 445.242 417.021C444.852 418.061 444.185 419.02 443.243 419.897C442.463 420.645 441.488 421.214 440.318 421.604C439.18 422.026 437.897 422.237 436.467 422.237C435.557 422.237 434.565 422.124 433.493 421.896C432.453 421.669 431.543 421.376 430.763 421.019L431.592 418.776C433.444 419.426 434.923 419.751 436.028 419.751C437.978 419.751 439.505 419.28 440.61 418.337C441.715 417.395 442.365 416.062 442.56 414.34C442.593 413.982 442.609 413.072 442.609 411.61V411.122ZM438.417 409.806C440.042 409.806 441.439 409.465 442.609 408.783V396.546C441.147 395.896 439.7 395.571 438.27 395.571C436.32 395.571 434.842 396.205 433.834 397.473C432.827 398.74 432.323 400.43 432.323 402.543C432.323 404.07 432.615 405.419 433.2 406.589C433.785 407.759 434.582 408.604 435.589 409.124C436.402 409.579 437.344 409.806 438.417 409.806Z" fill="#0C4857"/>
<path d="M468.562 412.39C466.677 412.39 465.329 411.886 464.516 410.879C463.736 409.839 463.346 408.279 463.346 406.199V395.913H460.177V393.28H463.346V388.698L466.515 388.454V393.28H472.657V395.913H466.515V406.004C466.515 407.304 466.71 408.246 467.1 408.831C467.522 409.416 468.319 409.709 469.489 409.709C470.594 409.709 471.585 409.611 472.462 409.416L472.999 411.561C471.536 412.114 470.057 412.39 468.562 412.39Z" fill="#0C4857"/>
<path d="M478.306 389.672C477.721 389.672 477.234 389.477 476.844 389.087C476.454 388.665 476.259 388.178 476.259 387.625C476.259 387.105 476.454 386.65 476.844 386.26C477.234 385.838 477.721 385.626 478.306 385.626C478.859 385.626 479.33 385.838 479.72 386.26C480.11 386.65 480.305 387.105 480.305 387.625C480.305 388.178 480.11 388.665 479.72 389.087C479.363 389.477 478.891 389.672 478.306 389.672ZM479.866 412H476.698V393.28H479.866V412Z" fill="#0C4857"/>
<path d="M490.994 409.514C491.481 409.514 492.034 409.416 492.651 409.221L493.236 411.513C493.139 411.545 492.749 411.708 492.066 412C491.384 412.292 490.506 412.439 489.434 412.439C488.231 412.439 487.272 412.033 486.557 411.22C485.842 410.375 485.469 409.286 485.436 407.954V386.016H488.507V406.832C488.507 407.71 488.654 408.376 488.946 408.831C489.239 409.286 489.921 409.514 490.994 409.514Z" fill="#0C4857"/>
<path d="M519.543 411.122C517.918 411.967 516.277 412.39 514.619 412.39C511.629 412.39 509.338 411.236 507.745 408.929C506.608 407.239 506.039 405.256 506.039 402.981C506.039 400.674 506.527 398.724 507.502 397.131C508.509 395.506 509.89 394.336 511.645 393.621C512.458 393.231 513.514 393.036 514.814 393.036C516.342 393.036 517.804 393.361 519.202 394.011L520.128 394.45L520.469 393.28H522.76V412.878C522.76 414.6 522.565 415.981 522.175 417.021C521.785 418.061 521.119 419.02 520.177 419.897C519.397 420.645 518.422 421.214 517.252 421.604C516.114 422.026 514.83 422.237 513.4 422.237C512.49 422.237 511.499 422.124 510.427 421.896C509.387 421.669 508.477 421.376 507.697 421.019L508.525 418.776C510.378 419.426 511.857 419.751 512.962 419.751C514.912 419.751 516.439 419.28 517.544 418.337C518.649 417.395 519.299 416.062 519.494 414.34C519.527 413.982 519.543 413.072 519.543 411.61V411.122ZM515.35 409.806C516.975 409.806 518.373 409.465 519.543 408.783V396.546C518.08 395.896 516.634 395.571 515.204 395.571C513.254 395.571 511.775 396.205 510.768 397.473C509.76 398.74 509.257 400.43 509.257 402.543C509.257 404.07 509.549 405.419 510.134 406.589C510.719 407.759 511.515 408.604 512.523 409.124C513.335 409.579 514.278 409.806 515.35 409.806Z" fill="#0C4857"/>
<path d="M536.413 412.439C533.586 412.439 531.376 411.561 529.783 409.806C528.223 408.051 527.443 405.695 527.443 402.737C527.443 399.747 528.24 397.391 529.832 395.669C531.457 393.914 533.7 393.036 536.56 393.036C539.42 393.036 541.63 393.897 543.19 395.62C544.75 397.342 545.53 399.699 545.53 402.689C545.53 405.614 544.717 407.97 543.092 409.758C541.467 411.545 539.241 412.439 536.413 412.439ZM536.56 395.522C534.707 395.522 533.261 396.205 532.221 397.57C531.213 398.935 530.71 400.657 530.71 402.737C530.71 404.817 531.213 406.524 532.221 407.856C533.261 409.189 534.707 409.855 536.56 409.855C538.38 409.855 539.793 409.189 540.801 407.856C541.808 406.491 542.312 404.785 542.312 402.737C542.312 400.657 541.792 398.935 540.752 397.57C539.745 396.205 538.347 395.522 536.56 395.522Z" fill="#0C4857"/>
<path d="M557.906 412.39C555.111 412.39 552.966 411.529 551.471 409.806C549.976 408.051 549.228 405.727 549.228 402.835C549.228 399.65 550.122 397.164 551.91 395.376C553.632 393.719 555.777 392.89 558.345 392.89C560.067 392.89 561.53 393.182 562.732 393.767V386.065H566.047V412H563.707L563.171 410.684C561.416 411.821 559.661 412.39 557.906 412.39ZM558.54 409.709C559.417 409.709 560.148 409.627 560.733 409.465C561.351 409.27 562.017 408.977 562.732 408.587V396.205C561.53 395.717 560.149 395.474 558.589 395.474C556.574 395.474 555.046 396.124 554.006 397.424C552.998 398.724 552.495 400.463 552.495 402.64C552.495 404.785 552.998 406.507 554.006 407.807C555.046 409.075 556.557 409.709 558.54 409.709Z" fill="#0C4857"/>
<path d="M604.627 400.105C604.627 397.05 603.408 395.522 600.971 395.522C599.768 395.522 598.273 396.075 596.486 397.18C596.583 397.537 596.632 398.253 596.632 399.325V412H593.463V400.105C593.463 397.05 592.228 395.522 589.758 395.522C588.588 395.522 587.142 395.994 585.419 396.936V412H582.25V393.28H584.444L585.127 394.84C586.232 394.092 587.255 393.572 588.198 393.28C588.945 393.085 589.807 392.987 590.782 392.987C591.854 392.987 592.797 393.199 593.609 393.621C594.454 394.044 595.137 394.629 595.657 395.376C596.729 394.596 597.753 394.011 598.728 393.621C599.703 393.199 600.775 392.987 601.945 392.987C603.863 392.987 605.326 393.572 606.333 394.742C607.373 395.88 607.893 397.408 607.893 399.325V412H604.627V400.105Z" fill="#0C4857"/>
<path d="M619.221 395.766C618.539 395.766 617.71 395.848 616.735 396.01C615.793 396.14 614.948 396.319 614.2 396.546L613.566 394.206C615.744 393.459 617.775 393.085 619.66 393.085C621.773 393.085 623.381 393.41 624.486 394.06C625.461 394.775 626.128 395.539 626.485 396.351C626.875 397.164 627.07 398.35 627.07 399.91V412H624.681L623.999 410.245C622.146 411.74 620.245 412.487 618.295 412.487C616.605 412.487 615.175 412 614.005 411.025C612.868 410.05 612.299 408.815 612.299 407.32C612.299 405.858 612.738 404.655 613.615 403.712C614.525 402.737 615.63 402.088 616.93 401.763C618.588 401.34 620.911 401.096 623.901 401.031V400.885C623.901 399.553 623.771 398.577 623.511 397.96C622.991 396.497 621.561 395.766 619.221 395.766ZM618.734 409.953C619.806 409.953 620.749 409.774 621.561 409.416C622.374 409.026 623.154 408.49 623.901 407.807V403.323C621.659 403.355 620.001 403.485 618.929 403.712C617.726 403.972 616.833 404.363 616.248 404.883C615.663 405.37 615.37 406.069 615.37 406.979C615.37 407.921 615.695 408.652 616.345 409.172C617.028 409.692 617.824 409.953 618.734 409.953Z" fill="#0C4857"/>
<path d="M640.134 412.39C637.339 412.39 635.193 411.529 633.698 409.806C632.203 408.051 631.456 405.727 631.456 402.835C631.456 399.65 632.35 397.164 634.137 395.376C635.86 393.719 638.005 392.89 640.572 392.89C642.295 392.89 643.757 393.182 644.96 393.767V386.065H648.275V412H645.935L645.398 410.684C643.643 411.821 641.889 412.39 640.134 412.39ZM640.767 409.709C641.645 409.709 642.376 409.627 642.961 409.465C643.578 409.27 644.245 408.977 644.96 408.587V396.205C643.757 395.717 642.376 395.474 640.816 395.474C638.801 395.474 637.274 396.124 636.234 397.424C635.226 398.724 634.722 400.463 634.722 402.64C634.722 404.785 635.226 406.507 636.234 407.807C637.274 409.075 638.785 409.709 640.767 409.709Z" fill="#0C4857"/>
<path d="M260.273 443.105C260.273 440.05 259.054 438.522 256.617 438.522C255.414 438.522 253.919 439.075 252.132 440.18C252.229 440.537 252.278 441.253 252.278 442.325V455H249.109V443.105C249.109 440.05 247.874 438.522 245.404 438.522C244.234 438.522 242.788 438.994 241.065 439.936V455H237.896V436.28H240.09L240.773 437.84C241.878 437.092 242.902 436.572 243.844 436.28C244.592 436.085 245.453 435.987 246.428 435.987C247.5 435.987 248.443 436.199 249.255 436.621C250.1 437.044 250.783 437.629 251.303 438.376C252.375 437.596 253.399 437.011 254.374 436.621C255.349 436.199 256.421 435.987 257.591 435.987C259.509 435.987 260.972 436.572 261.979 437.742C263.019 438.88 263.539 440.408 263.539 442.325V455H260.273V443.105Z" fill="#0C4857"/>
<path d="M276.33 436.036C278.8 436.036 280.701 436.784 282.034 438.279C283.366 439.741 284.032 441.821 284.032 444.519V446.225L283.837 446.615H271.016C271.016 448.207 271.617 449.686 272.82 451.051C273.957 452.189 275.729 452.758 278.134 452.758C279.726 452.758 281.237 452.514 282.667 452.026L283.252 454.366C281.27 455.049 279.271 455.39 277.256 455.39C274.234 455.39 271.926 454.578 270.334 452.953C268.741 451.328 267.945 449.004 267.945 445.981C267.945 443.121 268.644 440.765 270.041 438.913C271.536 436.995 273.632 436.036 276.33 436.036ZM280.815 444.08C280.815 442.455 280.457 441.122 279.742 440.082C279.06 439.042 278.036 438.522 276.671 438.522C274.949 438.522 273.632 439.042 272.722 440.082C271.812 441.122 271.26 442.455 271.065 444.08H280.815Z" fill="#0C4857"/>
<path d="M296.313 455.39C293.518 455.39 291.373 454.529 289.878 452.806C288.383 451.051 287.635 448.727 287.635 445.835C287.635 442.65 288.529 440.164 290.316 438.376C292.039 436.719 294.184 435.89 296.751 435.89C298.474 435.89 299.936 436.182 301.139 436.767V429.065H304.454V455H302.114L301.578 453.684C299.823 454.821 298.068 455.39 296.313 455.39ZM296.946 452.709C297.824 452.709 298.555 452.627 299.14 452.465C299.758 452.27 300.424 451.977 301.139 451.587V439.205C299.936 438.717 298.555 438.474 296.995 438.474C294.98 438.474 293.453 439.124 292.413 440.424C291.405 441.724 290.901 443.463 290.901 445.64C290.901 447.785 291.405 449.507 292.413 450.807C293.453 452.075 294.964 452.709 296.946 452.709Z" fill="#0C4857"/>
<path d="M325.971 455L319 436.28H322.412L327.58 450.954L327.775 451.929L327.921 450.954L333.137 436.28H336.404L329.481 455H325.971Z" fill="#0C4857"/>
<path d="M358.769 436.036C361.207 436.036 363.092 436.784 364.424 438.279C365.757 439.741 366.423 441.821 366.423 444.519V446.225L366.179 446.615H353.797C353.797 448.207 354.398 449.686 355.6 451.051C356.185 451.636 356.868 452.075 357.648 452.367C358.428 452.627 359.403 452.758 360.573 452.758C362.133 452.758 363.644 452.514 365.107 452.026L365.692 454.366C363.644 455.049 361.645 455.39 359.695 455.39C356.218 455.39 353.813 454.317 352.48 452.172C350.823 454.382 348.434 455.487 345.314 455.487C343.624 455.487 342.194 455 341.024 454.025C339.887 453.05 339.318 451.815 339.318 450.32C339.318 448.858 339.74 447.671 340.585 446.761C341.463 445.819 342.552 445.185 343.852 444.86C345.964 444.307 348.32 444.031 350.92 444.031V443.885C350.92 442.553 350.79 441.577 350.53 440.96C350.01 439.497 348.58 438.766 346.24 438.766C345.558 438.766 344.729 438.848 343.754 439.01C342.812 439.14 341.967 439.319 341.219 439.546L340.585 437.206C342.763 436.459 344.794 436.085 346.679 436.085C348.792 436.085 350.4 436.41 351.505 437.06C352.253 437.612 352.757 438.181 353.017 438.766C353.829 437.824 354.674 437.141 355.552 436.719C356.462 436.264 357.534 436.036 358.769 436.036ZM363.254 444.08C363.254 442.455 362.897 441.122 362.182 440.082C361.499 439.042 360.459 438.522 359.062 438.522C356.072 438.522 354.333 440.375 353.845 444.08H363.254ZM345.753 452.953C346.825 452.953 347.768 452.774 348.58 452.416C349.393 452.026 350.173 451.49 350.92 450.807V446.323C349.198 446.355 347.8 446.42 346.728 446.517C345.655 446.615 344.664 446.94 343.754 447.492C342.844 448.012 342.389 448.841 342.389 449.979C342.389 450.889 342.665 451.62 343.218 452.172C343.77 452.692 344.615 452.953 345.753 452.953Z" fill="#0C4857"/>
<path d="M378.947 436.036C379.662 436.036 380.231 436.085 380.653 436.182C381.108 436.247 381.547 436.378 381.97 436.573L380.848 439.4C380.003 439.01 379.077 438.815 378.07 438.815C376.705 438.815 375.356 439.27 374.023 440.18V455H370.855V436.28H373.146L373.828 437.889C375.453 436.654 377.16 436.036 378.947 436.036Z" fill="#0C4857"/>
<path d="M392.937 455.39C390.142 455.39 387.997 454.529 386.502 452.806C385.007 451.051 384.259 448.727 384.259 445.835C384.259 442.65 385.153 440.164 386.94 438.376C388.663 436.719 390.808 435.89 393.375 435.89C395.098 435.89 396.561 436.182 397.763 436.767V429.065H401.078V455H398.738L398.202 453.684C396.447 454.821 394.692 455.39 392.937 455.39ZM393.57 452.709C394.448 452.709 395.179 452.627 395.764 452.465C396.382 452.27 397.048 451.977 397.763 451.587V439.205C396.561 438.717 395.179 438.474 393.619 438.474C391.604 438.474 390.077 439.124 389.037 440.424C388.029 441.724 387.525 443.463 387.525 445.64C387.525 447.785 388.029 449.507 389.037 450.807C390.077 452.075 391.588 452.709 393.57 452.709Z" fill="#0C4857"/>
<path d="M408.247 432.672C407.662 432.672 407.175 432.477 406.785 432.087C406.395 431.665 406.2 431.178 406.2 430.625C406.2 430.105 406.395 429.65 406.785 429.26C407.175 428.838 407.662 428.626 408.247 428.626C408.8 428.626 409.271 428.838 409.661 429.26C410.051 429.65 410.246 430.105 410.246 430.625C410.246 431.178 410.051 431.665 409.661 432.087C409.304 432.477 408.832 432.672 408.247 432.672ZM409.807 455H406.639V436.28H409.807V455Z" fill="#0C4857"/>
<path d="M428.003 454.122C426.378 454.967 424.737 455.39 423.079 455.39C420.089 455.39 417.798 454.236 416.206 451.929C415.068 450.239 414.499 448.256 414.499 445.981C414.499 443.674 414.987 441.724 415.962 440.131C416.969 438.506 418.351 437.336 420.106 436.621C420.918 436.231 421.974 436.036 423.274 436.036C424.802 436.036 426.264 436.361 427.662 437.011L428.588 437.45L428.929 436.28H431.221V455.878C431.221 457.6 431.026 458.981 430.636 460.021C430.246 461.061 429.579 462.02 428.637 462.897C427.857 463.645 426.882 464.214 425.712 464.604C424.574 465.026 423.291 465.237 421.861 465.237C420.951 465.237 419.959 465.124 418.887 464.896C417.847 464.669 416.937 464.376 416.157 464.019L416.986 461.776C418.838 462.426 420.317 462.751 421.422 462.751C423.372 462.751 424.899 462.28 426.004 461.337C427.109 460.395 427.759 459.062 427.954 457.34C427.987 456.982 428.003 456.072 428.003 454.61V454.122ZM423.811 452.806C425.436 452.806 426.833 452.465 428.003 451.783V439.546C426.541 438.896 425.094 438.571 423.664 438.571C421.714 438.571 420.236 439.205 419.228 440.473C418.221 441.74 417.717 443.43 417.717 445.543C417.717 447.07 418.009 448.419 418.594 449.589C419.179 450.759 419.976 451.604 420.983 452.124C421.796 452.579 422.738 452.806 423.811 452.806Z" fill="#0C4857"/>
<path d="M449.31 443.008C449.31 441.415 449.001 440.261 448.384 439.546C447.766 438.831 446.694 438.474 445.166 438.474C443.736 438.474 442.063 438.929 440.145 439.839V455H436.976V429.065H440.145V437.499C442.323 436.361 444.403 435.793 446.385 435.793C448.335 435.793 449.846 436.377 450.919 437.547C451.991 438.685 452.528 440.261 452.528 442.276V455H449.31V443.008Z" fill="#0C4857"/>
<path d="M465.236 436.036C467.706 436.036 469.607 436.784 470.94 438.279C472.272 439.741 472.939 441.821 472.939 444.519V446.225L472.744 446.615H459.922C459.922 448.207 460.524 449.686 461.726 451.051C462.864 452.189 464.635 452.758 467.04 452.758C468.632 452.758 470.144 452.514 471.574 452.026L472.159 454.366C470.176 455.049 468.177 455.39 466.162 455.39C463.14 455.39 460.832 454.578 459.24 452.953C457.647 451.328 456.851 449.004 456.851 445.981C456.851 443.121 457.55 440.765 458.947 438.913C460.442 436.995 462.539 436.036 465.236 436.036ZM469.721 444.08C469.721 442.455 469.364 441.122 468.649 440.082C467.966 439.042 466.942 438.522 465.577 438.522C463.855 438.522 462.539 439.042 461.629 440.082C460.719 441.122 460.166 442.455 459.971 444.08H469.721Z" fill="#0C4857"/>
<path d="M485.219 455.39C482.424 455.39 480.279 454.529 478.784 452.806C477.289 451.051 476.541 448.727 476.541 445.835C476.541 442.65 477.435 440.164 479.223 438.376C480.945 436.719 483.09 435.89 485.658 435.89C487.38 435.89 488.843 436.182 490.045 436.767V429.065H493.36V455H491.02L490.484 453.684C488.729 454.821 486.974 455.39 485.219 455.39ZM485.853 452.709C486.73 452.709 487.461 452.627 488.046 452.465C488.664 452.27 489.33 451.977 490.045 451.587V439.205C488.843 438.717 487.461 438.474 485.901 438.474C483.886 438.474 482.359 439.124 481.319 440.424C480.311 441.724 479.808 443.463 479.808 445.64C479.808 447.785 480.311 449.507 481.319 450.807C482.359 452.075 483.87 452.709 485.853 452.709Z" fill="#0C4857"/>
<path d="M501.456 455.195C500.806 455.195 500.27 454.984 499.847 454.561C499.457 454.139 499.262 453.619 499.262 453.001C499.262 452.384 499.457 451.864 499.847 451.441C500.27 451.019 500.806 450.807 501.456 450.807C502.106 450.807 502.626 451.019 503.016 451.441C503.438 451.864 503.65 452.384 503.65 453.001C503.65 453.619 503.438 454.139 503.016 454.561C502.626 454.984 502.106 455.195 501.456 455.195Z" fill="#0C4857"/>
<path d="M371 192C377.944 192 383.847 189.569 388.708 184.708C393.569 179.847 396 173.944 396 167C396 160.056 393.569 154.153 388.708 149.292C383.847 144.431 377.944 142 371 142C364.056 142 358.153 144.431 353.292 149.292C348.431 154.153 346 160.056 346 167C346 173.944 348.431 179.847 353.292 184.708C358.153 189.569 364.056 192 371 192ZM371 208.667C359.472 208.667 349.646 204.604 341.521 196.479C333.396 188.354 329.333 178.528 329.333 167C329.333 155.472 333.396 145.646 341.521 137.521C349.646 129.396 359.472 125.333 371 125.333C382.528 125.333 392.354 129.396 400.479 137.521C408.604 145.646 412.667 155.472 412.667 167C412.667 178.528 408.604 188.354 400.479 196.479C392.354 204.604 382.528 208.667 371 208.667ZM312.667 175.333H279.333V158.667H312.667V175.333ZM462.667 175.333H429.333V158.667H462.667V175.333ZM362.667 108.667V75.3333H379.333V108.667H362.667ZM362.667 258.667V225.333H379.333V258.667H362.667ZM324.333 131.583L303.292 111.375L315.167 99.0833L335.167 119.917L324.333 131.583ZM426.833 234.917L406.625 213.875L417.667 202.417L438.708 222.625L426.833 234.917ZM406.417 120.333L426.625 99.2917L438.917 111.167L418.083 131.167L406.417 120.333ZM303.083 222.833L324.125 202.625L335.583 213.667L315.375 234.708L303.083 222.833Z" fill="#0C4857"/>
</svg>
