<svg width="899" height="678" viewBox="0 0 899 678" fill="none" xmlns="http://www.w3.org/2000/svg">
<path d="M0 63C0 28.2061 28.2061 0 63 0H836C870.794 0 899 28.2061 899 63V615C899 649.794 870.794 678 836 678H63C28.206 678 0 649.794 0 615V63Z" fill="#FFF6F1" fill-opacity="0.1"/>
<path d="M58.4132 489H54.9482V460.125H59.8832L69.0707 477.608L78.5732 460.125H83.1407V489H79.6757V465.008L70.8032 480.705H67.2857L58.4132 465.008V489Z" fill="#FFF6F1"/>
<path d="M98.3591 489.473C95.3141 489.473 92.9341 488.528 91.2191 486.638C89.5391 484.748 88.6991 482.21 88.6991 479.025C88.6991 475.805 89.5566 473.268 91.2716 471.413C93.0216 469.523 95.4366 468.578 98.5166 468.578C101.597 468.578 103.977 469.505 105.657 471.36C107.337 473.215 108.177 475.753 108.177 478.973C108.177 482.123 107.302 484.66 105.552 486.585C103.802 488.51 101.404 489.473 98.3591 489.473ZM98.5166 471.255C96.5216 471.255 94.9641 471.99 93.8441 473.46C92.7591 474.93 92.2166 476.785 92.2166 479.025C92.2166 481.265 92.7591 483.103 93.8441 484.538C94.9641 485.973 96.5216 486.69 98.5166 486.69C100.477 486.69 101.999 485.973 103.084 484.538C104.169 483.068 104.712 481.23 104.712 479.025C104.712 476.785 104.152 474.93 103.032 473.46C101.947 471.99 100.442 471.255 98.5166 471.255Z" fill="#FFF6F1"/>
<path d="M121.505 489.42C118.495 489.42 116.185 488.493 114.575 486.638C112.965 484.748 112.16 482.245 112.16 479.13C112.16 475.7 113.123 473.023 115.048 471.098C116.903 469.313 119.213 468.42 121.978 468.42C123.833 468.42 125.408 468.735 126.703 469.365V461.07H130.273V489H127.753L127.175 487.582C125.285 488.807 123.395 489.42 121.505 489.42ZM122.188 486.533C123.133 486.533 123.92 486.445 124.55 486.27C125.215 486.06 125.933 485.745 126.703 485.325V471.99C125.408 471.465 123.92 471.203 122.24 471.203C120.07 471.203 118.425 471.902 117.305 473.302C116.22 474.702 115.678 476.575 115.678 478.92C115.678 481.23 116.22 483.085 117.305 484.485C118.425 485.85 120.053 486.533 122.188 486.533Z" fill="#FFF6F1"/>
<path d="M143.086 489.42C141.056 489.42 139.603 488.878 138.728 487.793C137.888 486.673 137.468 484.993 137.468 482.753V471.675H134.056V468.84H137.468V463.905L140.881 463.642V468.84H147.496V471.675H140.881V482.543C140.881 483.943 141.091 484.957 141.511 485.587C141.966 486.217 142.823 486.533 144.083 486.533C145.273 486.533 146.341 486.427 147.286 486.217L147.863 488.527C146.288 489.122 144.696 489.42 143.086 489.42Z" fill="#FFF6F1"/>
<path d="M158.252 471.517C157.517 471.517 156.624 471.605 155.574 471.78C154.559 471.92 153.649 472.113 152.844 472.358L152.162 469.837C154.507 469.032 156.694 468.63 158.724 468.63C160.999 468.63 162.732 468.98 163.922 469.68C164.972 470.45 165.689 471.272 166.074 472.147C166.494 473.022 166.704 474.3 166.704 475.98V489H164.132L163.397 487.11C161.402 488.72 159.354 489.525 157.254 489.525C155.434 489.525 153.894 489 152.634 487.95C151.409 486.9 150.797 485.57 150.797 483.96C150.797 482.385 151.269 481.09 152.214 480.075C153.194 479.025 154.384 478.325 155.784 477.975C157.569 477.52 160.072 477.257 163.292 477.188V477.03C163.292 475.595 163.152 474.545 162.872 473.88C162.312 472.305 160.772 471.517 158.252 471.517ZM157.727 486.795C158.882 486.795 159.897 486.602 160.772 486.217C161.647 485.797 162.487 485.22 163.292 484.485V479.655C160.877 479.69 159.092 479.83 157.937 480.075C156.642 480.355 155.679 480.775 155.049 481.335C154.419 481.86 154.104 482.612 154.104 483.592C154.104 484.607 154.454 485.395 155.154 485.955C155.889 486.515 156.747 486.795 157.727 486.795Z" fill="#FFF6F1"/>
<path d="M185.97 488.055C184.22 488.965 182.453 489.42 180.668 489.42C177.448 489.42 174.98 488.178 173.265 485.693C172.04 483.873 171.428 481.738 171.428 479.288C171.428 476.803 171.953 474.702 173.003 472.987C174.088 471.237 175.575 469.977 177.465 469.207C178.34 468.787 179.478 468.578 180.878 468.578C182.523 468.578 184.098 468.928 185.603 469.628L186.6 470.1L186.968 468.84H189.435V489.945C189.435 491.8 189.225 493.288 188.805 494.408C188.385 495.528 187.668 496.56 186.653 497.505C185.813 498.31 184.763 498.922 183.503 499.342C182.278 499.797 180.895 500.025 179.355 500.025C178.375 500.025 177.308 499.903 176.153 499.658C175.033 499.413 174.053 499.097 173.213 498.712L174.105 496.297C176.1 496.997 177.693 497.348 178.883 497.348C180.983 497.348 182.628 496.84 183.818 495.825C185.008 494.81 185.708 493.375 185.918 491.52C185.953 491.135 185.97 490.155 185.97 488.58V488.055ZM181.455 486.638C183.205 486.638 184.71 486.27 185.97 485.535V472.358C184.395 471.658 182.838 471.307 181.298 471.307C179.198 471.307 177.605 471.99 176.52 473.355C175.435 474.72 174.893 476.54 174.893 478.815C174.893 480.46 175.208 481.912 175.838 483.172C176.468 484.432 177.325 485.342 178.41 485.902C179.285 486.392 180.3 486.638 181.455 486.638Z" fill="#FFF6F1"/>
<path d="M203.508 468.578C206.168 468.578 208.216 469.382 209.651 470.992C211.086 472.567 211.803 474.807 211.803 477.712V479.55L211.593 479.97H197.786C197.786 481.685 198.433 483.277 199.728 484.747C200.953 485.972 202.861 486.585 205.451 486.585C207.166 486.585 208.793 486.322 210.333 485.797L210.963 488.318C208.828 489.053 206.676 489.42 204.506 489.42C201.251 489.42 198.766 488.545 197.051 486.795C195.336 485.045 194.478 482.543 194.478 479.288C194.478 476.208 195.231 473.67 196.736 471.675C198.346 469.61 200.603 468.578 203.508 468.578ZM208.338 477.24C208.338 475.49 207.953 474.055 207.183 472.935C206.448 471.815 205.346 471.255 203.876 471.255C202.021 471.255 200.603 471.815 199.623 472.935C198.643 474.055 198.048 475.49 197.838 477.24H208.338Z" fill="#FFF6F1"/>
<path d="M225.343 468.578C226.113 468.578 226.726 468.63 227.181 468.735C227.671 468.805 228.143 468.945 228.598 469.155L227.391 472.2C226.481 471.78 225.483 471.57 224.398 471.57C222.928 471.57 221.476 472.06 220.041 473.04V489H216.628V468.84H219.096L219.831 470.573C221.581 469.243 223.418 468.578 225.343 468.578Z" fill="#FFF6F1"/>
<path d="M240.094 468.578C242.754 468.578 244.802 469.382 246.237 470.992C247.672 472.567 248.389 474.807 248.389 477.712V479.55L248.179 479.97H234.372C234.372 481.685 235.019 483.277 236.314 484.747C237.539 485.972 239.447 486.585 242.037 486.585C243.752 486.585 245.379 486.322 246.919 485.797L247.549 488.318C245.414 489.053 243.262 489.42 241.092 489.42C237.837 489.42 235.352 488.545 233.637 486.795C231.922 485.045 231.064 482.543 231.064 479.288C231.064 476.208 231.817 473.67 233.322 471.675C234.932 469.61 237.189 468.578 240.094 468.578ZM244.924 477.24C244.924 475.49 244.539 474.055 243.769 472.935C243.034 471.815 241.932 471.255 240.462 471.255C238.607 471.255 237.189 471.815 236.209 472.935C235.229 474.055 234.634 475.49 234.424 477.24H244.924Z" fill="#FFF6F1"/>
<path d="M268.403 489H264.991V461.07H268.403V489ZM272.813 477.87L282.053 489H277.853L268.771 477.87L277.591 468.84H281.581L272.813 477.87Z" fill="#FFF6F1"/>
<path d="M292.291 471.517C291.556 471.517 290.663 471.605 289.613 471.78C288.598 471.92 287.688 472.113 286.883 472.358L286.201 469.837C288.546 469.032 290.733 468.63 292.763 468.63C295.038 468.63 296.771 468.98 297.961 469.68C299.011 470.45 299.728 471.272 300.113 472.147C300.533 473.022 300.743 474.3 300.743 475.98V489H298.171L297.436 487.11C295.441 488.72 293.393 489.525 291.293 489.525C289.473 489.525 287.933 489 286.673 487.95C285.448 486.9 284.836 485.57 284.836 483.96C284.836 482.385 285.308 481.09 286.253 480.075C287.233 479.025 288.423 478.325 289.823 477.975C291.608 477.52 294.111 477.257 297.331 477.188V477.03C297.331 475.595 297.191 474.545 296.911 473.88C296.351 472.305 294.811 471.517 292.291 471.517ZM291.766 486.795C292.921 486.795 293.936 486.602 294.811 486.217C295.686 485.797 296.526 485.22 297.331 484.485V479.655C294.916 479.69 293.131 479.83 291.976 480.075C290.681 480.355 289.718 480.775 289.088 481.335C288.458 481.86 288.143 482.612 288.143 483.592C288.143 484.607 288.493 485.395 289.193 485.955C289.928 486.515 290.786 486.795 291.766 486.795Z" fill="#FFF6F1"/>
<path d="M319.747 476.19C319.747 474.475 319.414 473.25 318.749 472.515C318.119 471.78 316.999 471.413 315.389 471.413C313.674 471.413 311.819 471.885 309.824 472.83V489H306.412V468.84H308.774L309.509 470.52C311.924 469.19 314.287 468.525 316.597 468.525C318.732 468.525 320.359 469.137 321.479 470.362C322.599 471.552 323.159 473.215 323.159 475.35V489H319.747V476.19Z" fill="#FFF6F1"/>
<path d="M349.601 462.592C348.446 462.592 347.484 462.872 346.714 463.432C345.979 463.992 345.541 464.71 345.401 465.585C345.331 466.005 345.296 466.478 345.296 467.003V468.84H351.964V471.517H345.349V489H341.936V471.517H338.944V468.84H341.831V466.793C341.831 465.078 342.059 463.818 342.514 463.013C343.669 460.948 345.681 459.915 348.551 459.915C349.986 459.915 351.614 460.178 353.434 460.703L352.856 463.223C351.351 462.803 350.266 462.592 349.601 462.592Z" fill="#FFF6F1"/>
<path d="M364.263 468.578C365.033 468.578 365.646 468.63 366.101 468.735C366.591 468.805 367.063 468.945 367.518 469.155L366.311 472.2C365.401 471.78 364.403 471.57 363.318 471.57C361.848 471.57 360.396 472.06 358.961 473.04V489H355.548V468.84H358.016L358.751 470.573C360.501 469.243 362.338 468.578 364.263 468.578Z" fill="#FFF6F1"/>
<path d="M372.767 464.955C372.137 464.955 371.612 464.745 371.192 464.325C370.772 463.87 370.562 463.345 370.562 462.75C370.562 462.19 370.772 461.7 371.192 461.28C371.612 460.825 372.137 460.598 372.767 460.598C373.362 460.598 373.869 460.825 374.289 461.28C374.709 461.7 374.919 462.19 374.919 462.75C374.919 463.345 374.709 463.87 374.289 464.325C373.904 464.745 373.397 464.955 372.767 464.955ZM374.447 489H371.034V468.84H374.447V489Z" fill="#FFF6F1"/>
<path d="M387.375 489.42C385.345 489.42 383.892 488.878 383.017 487.793C382.177 486.673 381.757 484.993 381.757 482.753V471.675H378.345V468.84H381.757V463.905L385.17 463.642V468.84H391.785V471.675H385.17V482.543C385.17 483.943 385.38 484.957 385.8 485.587C386.255 486.217 387.112 486.533 388.372 486.533C389.562 486.533 390.63 486.427 391.575 486.217L392.152 488.527C390.577 489.122 388.985 489.42 387.375 489.42Z" fill="#FFF6F1"/>
<path d="M414.527 489.42C412.497 489.42 411.045 488.878 410.17 487.793C409.33 486.673 408.91 484.993 408.91 482.753V471.675H405.497V468.84H408.91V463.905L412.322 463.642V468.84H418.937V471.675H412.322V482.543C412.322 483.943 412.532 484.957 412.952 485.587C413.407 486.217 414.265 486.533 415.525 486.533C416.715 486.533 417.782 486.427 418.727 486.217L419.305 488.527C417.73 489.122 416.137 489.42 414.527 489.42Z" fill="#FFF6F1"/>
<path d="M429.693 471.517C428.958 471.517 428.066 471.605 427.016 471.78C426.001 471.92 425.091 472.113 424.286 472.358L423.603 469.837C425.948 469.032 428.136 468.63 430.166 468.63C432.441 468.63 434.173 468.98 435.363 469.68C436.413 470.45 437.131 471.272 437.516 472.147C437.936 473.022 438.146 474.3 438.146 475.98V489H435.573L434.838 487.11C432.843 488.72 430.796 489.525 428.696 489.525C426.876 489.525 425.336 489 424.076 487.95C422.851 486.9 422.238 485.57 422.238 483.96C422.238 482.385 422.711 481.09 423.656 480.075C424.636 479.025 425.826 478.325 427.226 477.975C429.011 477.52 431.513 477.257 434.733 477.188V477.03C434.733 475.595 434.593 474.545 434.313 473.88C433.753 472.305 432.213 471.517 429.693 471.517ZM429.168 486.795C430.323 486.795 431.338 486.602 432.213 486.217C433.088 485.797 433.928 485.22 434.733 484.485V479.655C432.318 479.69 430.533 479.83 429.378 480.075C428.083 480.355 427.121 480.775 426.491 481.335C425.861 481.86 425.546 482.612 425.546 483.592C425.546 484.607 425.896 485.395 426.596 485.955C427.331 486.515 428.188 486.795 429.168 486.795Z" fill="#FFF6F1"/>
<path d="M457.412 488.055C455.662 488.965 453.894 489.42 452.109 489.42C448.889 489.42 446.422 488.178 444.707 485.693C443.482 483.873 442.869 481.738 442.869 479.288C442.869 476.803 443.394 474.702 444.444 472.987C445.529 471.237 447.017 469.977 448.907 469.207C449.782 468.787 450.919 468.578 452.319 468.578C453.964 468.578 455.539 468.928 457.044 469.628L458.042 470.1L458.409 468.84H460.877V489.945C460.877 491.8 460.667 493.288 460.247 494.408C459.827 495.528 459.109 496.56 458.094 497.505C457.254 498.31 456.204 498.922 454.944 499.342C453.719 499.797 452.337 500.025 450.797 500.025C449.817 500.025 448.749 499.903 447.594 499.658C446.474 499.413 445.494 499.097 444.654 498.712L445.547 496.297C447.542 496.997 449.134 497.348 450.324 497.348C452.424 497.348 454.069 496.84 455.259 495.825C456.449 494.81 457.149 493.375 457.359 491.52C457.394 491.135 457.412 490.155 457.412 488.58V488.055ZM452.897 486.638C454.647 486.638 456.152 486.27 457.412 485.535V472.358C455.837 471.658 454.279 471.307 452.739 471.307C450.639 471.307 449.047 471.99 447.962 473.355C446.877 474.72 446.334 476.54 446.334 478.815C446.334 480.46 446.649 481.912 447.279 483.172C447.909 484.432 448.767 485.342 449.852 485.902C450.727 486.392 451.742 486.638 452.897 486.638Z" fill="#FFF6F1"/>
<path d="M474.95 468.578C477.61 468.578 479.657 469.382 481.092 470.992C482.527 472.567 483.245 474.807 483.245 477.712V479.55L483.035 479.97H469.227C469.227 481.685 469.875 483.277 471.17 484.747C472.395 485.972 474.302 486.585 476.892 486.585C478.607 486.585 480.235 486.322 481.775 485.797L482.405 488.318C480.27 489.053 478.117 489.42 475.947 489.42C472.692 489.42 470.207 488.545 468.492 486.795C466.777 485.045 465.92 482.543 465.92 479.288C465.92 476.208 466.672 473.67 468.177 471.675C469.787 469.61 472.045 468.578 474.95 468.578ZM479.78 477.24C479.78 475.49 479.395 474.055 478.625 472.935C477.89 471.815 476.787 471.255 475.317 471.255C473.462 471.255 472.045 471.815 471.065 472.935C470.085 474.055 469.49 475.49 469.28 477.24H479.78Z" fill="#FFF6F1"/>
<path d="M523.734 476.19C523.734 472.9 522.421 471.255 519.796 471.255C518.501 471.255 516.891 471.85 514.966 473.04C515.071 473.425 515.124 474.195 515.124 475.35V489H511.711V476.19C511.711 472.9 510.381 471.255 507.721 471.255C506.461 471.255 504.904 471.762 503.049 472.777V489H499.636V468.84H501.999L502.734 470.52C503.924 469.715 505.026 469.155 506.041 468.84C506.846 468.63 507.774 468.525 508.824 468.525C509.979 468.525 510.994 468.752 511.869 469.207C512.779 469.662 513.514 470.293 514.074 471.098C515.229 470.258 516.331 469.627 517.381 469.207C518.431 468.752 519.586 468.525 520.846 468.525C522.911 468.525 524.486 469.155 525.571 470.415C526.691 471.64 527.251 473.285 527.251 475.35V489H523.734V476.19Z" fill="#FFF6F1"/>
<path d="M539.451 471.517C538.716 471.517 537.823 471.605 536.773 471.78C535.758 471.92 534.848 472.113 534.043 472.358L533.361 469.837C535.706 469.032 537.893 468.63 539.923 468.63C542.198 468.63 543.931 468.98 545.121 469.68C546.171 470.45 546.888 471.272 547.273 472.147C547.693 473.022 547.904 474.3 547.904 475.98V489H545.331L544.596 487.11C542.601 488.72 540.553 489.525 538.453 489.525C536.633 489.525 535.093 489 533.833 487.95C532.608 486.9 531.996 485.57 531.996 483.96C531.996 482.385 532.468 481.09 533.413 480.075C534.393 479.025 535.583 478.325 536.983 477.975C538.768 477.52 541.271 477.257 544.491 477.188V477.03C544.491 475.595 544.351 474.545 544.071 473.88C543.511 472.305 541.971 471.517 539.451 471.517ZM538.926 486.795C540.081 486.795 541.096 486.602 541.971 486.217C542.846 485.797 543.686 485.22 544.491 484.485V479.655C542.076 479.69 540.291 479.83 539.136 480.075C537.841 480.355 536.878 480.775 536.248 481.335C535.618 481.86 535.303 482.612 535.303 483.592C535.303 484.607 535.653 485.395 536.353 485.955C537.088 486.515 537.946 486.795 538.926 486.795Z" fill="#FFF6F1"/>
<path d="M561.972 489.42C558.962 489.42 556.652 488.493 555.042 486.638C553.432 484.748 552.627 482.245 552.627 479.13C552.627 475.7 553.589 473.023 555.514 471.098C557.369 469.313 559.679 468.42 562.444 468.42C564.299 468.42 565.874 468.735 567.169 469.365V461.07H570.739V489H568.219L567.642 487.582C565.752 488.807 563.862 489.42 561.972 489.42ZM562.654 486.533C563.599 486.533 564.387 486.445 565.017 486.27C565.682 486.06 566.399 485.745 567.169 485.325V471.99C565.874 471.465 564.387 471.203 562.707 471.203C560.537 471.203 558.892 471.902 557.772 473.302C556.687 474.702 556.144 476.575 556.144 478.92C556.144 481.23 556.687 483.085 557.772 484.485C558.892 485.85 560.519 486.533 562.654 486.533Z" fill="#FFF6F1"/>
<path d="M597.377 462.592C596.222 462.592 595.259 462.872 594.489 463.432C593.754 463.992 593.317 464.71 593.177 465.585C593.107 466.005 593.072 466.478 593.072 467.003V468.84H599.739V471.517H593.124V489H589.712V471.517H586.719V468.84H589.607V466.793C589.607 465.078 589.834 463.818 590.289 463.013C591.444 460.948 593.457 459.915 596.327 459.915C597.762 459.915 599.389 460.178 601.209 460.703L600.632 463.223C599.127 462.803 598.042 462.592 597.377 462.592Z" fill="#FFF6F1"/>
<path d="M612.039 468.578C612.809 468.578 613.421 468.63 613.876 468.735C614.366 468.805 614.839 468.945 615.294 469.155L614.086 472.2C613.176 471.78 612.179 471.57 611.094 471.57C609.624 471.57 608.171 472.06 606.736 473.04V489H603.324V468.84H605.791L606.526 470.573C608.276 469.243 610.114 468.578 612.039 468.578Z" fill="#FFF6F1"/>
<path d="M625.215 471.517C624.48 471.517 623.587 471.605 622.537 471.78C621.522 471.92 620.612 472.113 619.807 472.358L619.125 469.837C621.47 469.032 623.657 468.63 625.687 468.63C627.962 468.63 629.695 468.98 630.885 469.68C631.935 470.45 632.652 471.272 633.037 472.147C633.457 473.022 633.667 474.3 633.667 475.98V489H631.095L630.36 487.11C628.365 488.72 626.317 489.525 624.217 489.525C622.397 489.525 620.857 489 619.597 487.95C618.372 486.9 617.76 485.57 617.76 483.96C617.76 482.385 618.232 481.09 619.177 480.075C620.157 479.025 621.347 478.325 622.747 477.975C624.532 477.52 627.035 477.257 630.255 477.188V477.03C630.255 475.595 630.115 474.545 629.835 473.88C629.275 472.305 627.735 471.517 625.215 471.517ZM624.69 486.795C625.845 486.795 626.86 486.602 627.735 486.217C628.61 485.797 629.45 485.22 630.255 484.485V479.655C627.84 479.69 626.055 479.83 624.9 480.075C623.605 480.355 622.642 480.775 622.012 481.335C621.382 481.86 621.067 482.612 621.067 483.592C621.067 484.607 621.417 485.395 622.117 485.955C622.852 486.515 623.71 486.795 624.69 486.795Z" fill="#FFF6F1"/>
<path d="M651.007 489V461.07H654.419V469.365C655.784 468.735 657.412 468.42 659.302 468.42C662.137 468.42 664.447 469.26 666.232 470.94C668.087 472.795 669.014 475.525 669.014 479.13C669.014 482.245 668.209 484.748 666.599 486.638C665.024 488.493 662.749 489.42 659.774 489.42C657.814 489.42 655.907 488.807 654.052 487.582L653.422 489H651.007ZM658.934 486.533C661.174 486.533 662.819 485.92 663.869 484.695C664.919 483.47 665.444 481.545 665.444 478.92C665.444 476.575 664.884 474.702 663.764 473.302C662.679 471.902 661.052 471.203 658.882 471.203C657.237 471.203 655.749 471.465 654.419 471.99V485.325C655.224 485.745 655.942 486.06 656.572 486.27C657.237 486.445 658.024 486.533 658.934 486.533Z" fill="#FFF6F1"/>
<path d="M682.668 489.473C679.623 489.473 677.243 488.528 675.528 486.638C673.848 484.748 673.008 482.21 673.008 479.025C673.008 475.805 673.865 473.268 675.58 471.413C677.33 469.523 679.745 468.578 682.825 468.578C685.905 468.578 688.285 469.505 689.965 471.36C691.645 473.215 692.485 475.753 692.485 478.973C692.485 482.123 691.61 484.66 689.86 486.585C688.11 488.51 685.713 489.473 682.668 489.473ZM682.825 471.255C680.83 471.255 679.273 471.99 678.153 473.46C677.068 474.93 676.525 476.785 676.525 479.025C676.525 481.265 677.068 483.103 678.153 484.538C679.273 485.973 680.83 486.69 682.825 486.69C684.785 486.69 686.308 485.973 687.393 484.538C688.478 483.068 689.02 481.23 689.02 479.025C689.02 476.785 688.46 474.93 687.34 473.46C686.255 471.99 684.75 471.255 682.825 471.255Z" fill="#FFF6F1"/>
<path d="M701.036 489H697.624V461.07H701.036V489ZM705.446 477.87L714.686 489H710.486L701.404 477.87L710.224 468.84H714.214L705.446 477.87Z" fill="#FFF6F1"/>
<path d="M724.766 486.585C725.991 486.585 727.024 486.357 727.864 485.902C728.739 485.412 729.176 484.712 729.176 483.802C729.176 483.067 728.861 482.49 728.231 482.07C727.601 481.65 726.271 481.02 724.241 480.18L722.246 479.392C721.371 478.972 720.654 478.605 720.094 478.29C719.534 477.94 719.026 477.432 718.571 476.767C718.116 476.067 717.889 475.192 717.889 474.142C717.889 472.252 718.659 470.853 720.199 469.943C721.774 469.033 723.699 468.578 725.974 468.578C727.899 468.578 729.824 469.015 731.749 469.89L730.909 472.41C729.334 471.745 727.811 471.413 726.341 471.413C724.836 471.413 723.611 471.64 722.666 472.095C721.756 472.515 721.301 473.127 721.301 473.932C721.301 474.737 721.616 475.368 722.246 475.823C722.911 476.278 724.031 476.802 725.606 477.397L727.339 478.08C729.264 478.885 730.611 479.725 731.381 480.6C732.151 481.475 732.536 482.63 732.536 484.065C732.536 485.535 731.854 486.812 730.489 487.897C729.124 488.947 727.304 489.473 725.029 489.473C722.439 489.473 719.884 488.965 717.364 487.95L718.309 485.378C720.584 486.183 722.736 486.585 724.766 486.585Z" fill="#FFF6F1"/>
<path d="M745.94 468.578C748.6 468.578 750.648 469.382 752.083 470.992C753.518 472.567 754.235 474.807 754.235 477.712V479.55L754.025 479.97H740.218C740.218 481.685 740.865 483.277 742.16 484.747C743.385 485.972 745.293 486.585 747.883 486.585C749.598 486.585 751.225 486.322 752.765 485.797L753.395 488.318C751.26 489.053 749.108 489.42 746.938 489.42C743.683 489.42 741.198 488.545 739.483 486.795C737.768 485.045 736.91 482.543 736.91 479.288C736.91 476.208 737.663 473.67 739.168 471.675C740.778 469.61 743.035 468.578 745.94 468.578ZM750.77 477.24C750.77 475.49 750.385 474.055 749.615 472.935C748.88 471.815 747.778 471.255 746.308 471.255C744.453 471.255 743.035 471.815 742.055 472.935C741.075 474.055 740.48 475.49 740.27 477.24H750.77Z" fill="#FFF6F1"/>
<path d="M772.395 476.19C772.395 474.475 772.063 473.25 771.398 472.515C770.768 471.78 769.648 471.413 768.038 471.413C766.323 471.413 764.468 471.885 762.473 472.83V489H759.06V468.84H761.423L762.158 470.52C764.573 469.19 766.935 468.525 769.245 468.525C771.38 468.525 773.008 469.137 774.128 470.362C775.248 471.552 775.808 473.215 775.808 475.35V489H772.395V476.19Z" fill="#FFF6F1"/>
<path d="M806.397 476.19C806.397 474.475 806.065 473.25 805.4 472.515C804.77 471.78 803.65 471.413 802.04 471.413C800.325 471.413 798.47 471.885 796.475 472.83V489H793.062V468.84H795.425L796.16 470.52C798.575 469.19 800.937 468.525 803.247 468.525C805.382 468.525 807.01 469.137 808.13 470.362C809.25 471.552 809.81 473.215 809.81 475.35V489H806.397V476.19Z" fill="#FFF6F1"/>
<path d="M822.008 471.517C821.273 471.517 820.38 471.605 819.33 471.78C818.315 471.92 817.405 472.113 816.6 472.358L815.918 469.837C818.263 469.032 820.45 468.63 822.48 468.63C824.755 468.63 826.488 468.98 827.678 469.68C828.728 470.45 829.445 471.272 829.83 472.147C830.25 473.022 830.46 474.3 830.46 475.98V489H827.888L827.153 487.11C825.158 488.72 823.11 489.525 821.01 489.525C819.19 489.525 817.65 489 816.39 487.95C815.165 486.9 814.553 485.57 814.553 483.96C814.553 482.385 815.025 481.09 815.97 480.075C816.95 479.025 818.14 478.325 819.54 477.975C821.325 477.52 823.828 477.257 827.048 477.188V477.03C827.048 475.595 826.908 474.545 826.628 473.88C826.068 472.305 824.528 471.517 822.008 471.517ZM821.483 486.795C822.638 486.795 823.653 486.602 824.528 486.217C825.403 485.797 826.243 485.22 827.048 484.485V479.655C824.633 479.69 822.848 479.83 821.693 480.075C820.398 480.355 819.435 480.775 818.805 481.335C818.175 481.86 817.86 482.612 817.86 483.592C817.86 484.607 818.21 485.395 818.91 485.955C819.645 486.515 820.503 486.795 821.483 486.795ZM817.965 461.595C817.965 460.37 818.403 459.302 819.278 458.392C820.188 457.482 821.255 457.027 822.48 457.027C823.67 457.027 824.703 457.482 825.578 458.392C826.488 459.302 826.943 460.37 826.943 461.595C826.943 462.82 826.505 463.887 825.63 464.797C824.755 465.707 823.705 466.163 822.48 466.163C821.255 466.163 820.188 465.707 819.278 464.797C818.403 463.887 817.965 462.82 817.965 461.595ZM824.895 461.595C824.895 460.895 824.668 460.317 824.213 459.862C823.758 459.372 823.18 459.128 822.48 459.128C821.745 459.128 821.15 459.355 820.695 459.81C820.275 460.265 820.065 460.86 820.065 461.595C820.065 462.295 820.275 462.89 820.695 463.38C821.15 463.835 821.728 464.062 822.428 464.062C823.163 464.062 823.758 463.835 824.213 463.38C824.668 462.89 824.895 462.295 824.895 461.595Z" fill="#FFF6F1"/>
<path d="M844.844 468.578C845.614 468.578 846.226 468.63 846.681 468.735C847.171 468.805 847.643 468.945 848.098 469.155L846.891 472.2C845.981 471.78 844.983 471.57 843.898 471.57C842.428 471.57 840.976 472.06 839.541 473.04V489H836.128V468.84H838.596L839.331 470.573C841.081 469.243 842.919 468.578 844.844 468.578Z" fill="#FFF6F1"/>
<path d="M282.081 540.42C279.071 540.42 276.761 539.493 275.151 537.638C273.541 535.748 272.736 533.245 272.736 530.13C272.736 526.7 273.699 524.022 275.624 522.097C277.479 520.312 279.789 519.42 282.554 519.42C284.409 519.42 285.984 519.735 287.279 520.365V512.07H290.849V540H288.329L287.751 538.583C285.861 539.808 283.971 540.42 282.081 540.42ZM282.764 537.532C283.709 537.532 284.496 537.445 285.126 537.27C285.791 537.06 286.509 536.745 287.279 536.325V522.99C285.984 522.465 284.496 522.203 282.816 522.203C280.646 522.203 279.001 522.902 277.881 524.302C276.796 525.702 276.254 527.575 276.254 529.92C276.254 532.23 276.796 534.085 277.881 535.485C279.001 536.85 280.629 537.532 282.764 537.532Z" fill="#FFF6F1"/>
<path d="M304.817 519.578C307.477 519.578 309.525 520.382 310.96 521.992C312.395 523.567 313.112 525.808 313.112 528.713V530.55L312.902 530.97H299.094C299.094 532.685 299.742 534.277 301.037 535.747C302.262 536.972 304.169 537.585 306.759 537.585C308.474 537.585 310.102 537.322 311.642 536.797L312.272 539.318C310.137 540.053 307.984 540.42 305.814 540.42C302.559 540.42 300.074 539.545 298.359 537.795C296.644 536.045 295.787 533.542 295.787 530.287C295.787 527.207 296.539 524.67 298.044 522.675C299.654 520.61 301.912 519.578 304.817 519.578ZM309.647 528.24C309.647 526.49 309.262 525.055 308.492 523.935C307.757 522.815 306.654 522.255 305.184 522.255C303.329 522.255 301.912 522.815 300.932 523.935C299.952 525.055 299.357 526.49 299.147 528.24H309.647Z" fill="#FFF6F1"/>
<path d="M342.996 527.085C342.996 525.37 342.663 524.127 341.998 523.357C341.333 522.587 340.178 522.203 338.533 522.203C336.993 522.203 335.191 522.692 333.126 523.672V540H329.713V512.07H333.126V521.153C335.471 519.928 337.711 519.315 339.846 519.315C341.946 519.315 343.573 519.945 344.728 521.205C345.883 522.43 346.461 524.127 346.461 526.297V540H342.996V527.085Z" fill="#FFF6F1"/>
<path d="M358.572 522.518C357.837 522.518 356.945 522.605 355.895 522.78C354.88 522.92 353.97 523.112 353.165 523.357L352.482 520.838C354.827 520.033 357.015 519.63 359.045 519.63C361.32 519.63 363.052 519.98 364.242 520.68C365.292 521.45 366.01 522.273 366.395 523.148C366.815 524.023 367.025 525.3 367.025 526.98V540H364.452L363.717 538.11C361.722 539.72 359.675 540.525 357.575 540.525C355.755 540.525 354.215 540 352.955 538.95C351.73 537.9 351.117 536.57 351.117 534.96C351.117 533.385 351.59 532.09 352.535 531.075C353.515 530.025 354.705 529.325 356.105 528.975C357.89 528.52 360.392 528.257 363.612 528.188V528.03C363.612 526.595 363.472 525.545 363.192 524.88C362.632 523.305 361.092 522.518 358.572 522.518ZM358.047 537.795C359.202 537.795 360.217 537.603 361.092 537.218C361.967 536.798 362.807 536.22 363.612 535.485V530.655C361.197 530.69 359.412 530.83 358.257 531.075C356.962 531.355 356 531.775 355.37 532.335C354.74 532.86 354.425 533.613 354.425 534.593C354.425 535.608 354.775 536.395 355.475 536.955C356.21 537.515 357.067 537.795 358.047 537.795Z" fill="#FFF6F1"/>
<path d="M381.408 519.578C382.178 519.578 382.79 519.63 383.245 519.735C383.735 519.805 384.208 519.945 384.663 520.155L383.455 523.2C382.545 522.78 381.548 522.57 380.463 522.57C378.993 522.57 377.54 523.06 376.105 524.04V540H372.693V519.84H375.16L375.895 521.573C377.645 520.243 379.483 519.578 381.408 519.578Z" fill="#FFF6F1"/>
<path d="M399.745 540V512.07H403.158V520.365C404.523 519.735 406.15 519.42 408.04 519.42C410.875 519.42 413.185 520.26 414.97 521.94C416.825 523.795 417.753 526.525 417.753 530.13C417.753 533.245 416.948 535.748 415.338 537.638C413.763 539.493 411.488 540.42 408.513 540.42C406.553 540.42 404.645 539.808 402.79 538.583L402.16 540H399.745ZM407.673 537.532C409.913 537.532 411.558 536.92 412.608 535.695C413.658 534.47 414.183 532.545 414.183 529.92C414.183 527.575 413.623 525.702 412.503 524.302C411.418 522.902 409.79 522.203 407.62 522.203C405.975 522.203 404.488 522.465 403.158 522.99V536.325C403.963 536.745 404.68 537.06 405.31 537.27C405.975 537.445 406.763 537.532 407.673 537.532Z" fill="#FFF6F1"/>
<path d="M431.406 519.578C432.176 519.578 432.788 519.63 433.243 519.735C433.733 519.805 434.206 519.945 434.661 520.155L433.453 523.2C432.543 522.78 431.546 522.57 430.461 522.57C428.991 522.57 427.538 523.06 426.103 524.04V540H422.691V519.84H425.158L425.893 521.573C427.643 520.243 429.481 519.578 431.406 519.578Z" fill="#FFF6F1"/>
<path d="M441.484 532.807C441.484 534.522 441.817 535.747 442.482 536.482C443.147 537.217 444.284 537.585 445.894 537.585C447.539 537.585 449.377 537.112 451.407 536.167V519.84H454.819V540H452.457L451.722 538.53C449.167 539.86 446.804 540.525 444.634 540.525C442.534 540.525 440.907 539.913 439.752 538.688C438.632 537.463 438.072 535.783 438.072 533.648V519.84H441.484V532.807Z" fill="#FFF6F1"/>
<path d="M474.228 539.055C472.478 539.965 470.71 540.42 468.925 540.42C465.705 540.42 463.238 539.178 461.523 536.693C460.298 534.873 459.685 532.737 459.685 530.287C459.685 527.802 460.21 525.702 461.26 523.987C462.345 522.237 463.833 520.978 465.723 520.208C466.598 519.788 467.735 519.578 469.135 519.578C470.78 519.578 472.355 519.928 473.86 520.628L474.858 521.1L475.225 519.84H477.693V540.945C477.693 542.8 477.483 544.287 477.063 545.407C476.643 546.527 475.925 547.56 474.91 548.505C474.07 549.31 473.02 549.923 471.76 550.343C470.535 550.798 469.153 551.025 467.613 551.025C466.633 551.025 465.565 550.902 464.41 550.657C463.29 550.412 462.31 550.098 461.47 549.713L462.363 547.297C464.358 547.997 465.95 548.347 467.14 548.347C469.24 548.347 470.885 547.84 472.075 546.825C473.265 545.81 473.965 544.375 474.175 542.52C474.21 542.135 474.228 541.155 474.228 539.58V539.055ZM469.713 537.638C471.463 537.638 472.968 537.27 474.228 536.535V523.357C472.653 522.657 471.095 522.307 469.555 522.307C467.455 522.307 465.863 522.99 464.778 524.355C463.693 525.72 463.15 527.54 463.15 529.815C463.15 531.46 463.465 532.912 464.095 534.172C464.725 535.432 465.583 536.343 466.668 536.903C467.543 537.393 468.558 537.638 469.713 537.638Z" fill="#FFF6F1"/>
<path d="M504.435 513.593C503.28 513.593 502.318 513.872 501.548 514.432C500.813 514.992 500.375 515.71 500.235 516.585C500.165 517.005 500.13 517.478 500.13 518.003V519.84H506.798V522.518H500.183V540H496.77V522.518H493.778V519.84H496.665V517.792C496.665 516.077 496.893 514.818 497.348 514.013C498.503 511.948 500.515 510.915 503.385 510.915C504.82 510.915 506.448 511.178 508.268 511.703L507.69 514.222C506.185 513.802 505.1 513.593 504.435 513.593Z" fill="#FFF6F1"/>
<path d="M519.097 540.472C516.052 540.472 513.672 539.528 511.957 537.638C510.277 535.748 509.437 533.21 509.437 530.025C509.437 526.805 510.295 524.267 512.01 522.412C513.76 520.522 516.175 519.578 519.255 519.578C522.335 519.578 524.715 520.505 526.395 522.36C528.075 524.215 528.915 526.752 528.915 529.972C528.915 533.122 528.04 535.66 526.29 537.585C524.54 539.51 522.142 540.472 519.097 540.472ZM519.255 522.255C517.26 522.255 515.702 522.99 514.582 524.46C513.497 525.93 512.955 527.785 512.955 530.025C512.955 532.265 513.497 534.102 514.582 535.537C515.702 536.972 517.26 537.69 519.255 537.69C521.215 537.69 522.737 536.972 523.822 535.537C524.907 534.067 525.45 532.23 525.45 530.025C525.45 527.785 524.89 525.93 523.77 524.46C522.685 522.99 521.18 522.255 519.255 522.255Z" fill="#FFF6F1"/>
<path d="M542.558 519.578C543.328 519.578 543.941 519.63 544.396 519.735C544.886 519.805 545.358 519.945 545.813 520.155L544.606 523.2C543.696 522.78 542.698 522.57 541.613 522.57C540.143 522.57 538.691 523.06 537.256 524.04V540H533.843V519.84H536.311L537.046 521.573C538.796 520.243 540.633 519.578 542.558 519.578Z" fill="#FFF6F1"/>
<path d="M569.191 540.42C566.181 540.42 563.871 539.493 562.261 537.638C560.651 535.748 559.846 533.245 559.846 530.13C559.846 526.7 560.808 524.022 562.733 522.097C564.588 520.312 566.898 519.42 569.663 519.42C571.518 519.42 573.093 519.735 574.388 520.365V512.07H577.958V540H575.438L574.861 538.583C572.971 539.808 571.081 540.42 569.191 540.42ZM569.873 537.532C570.818 537.532 571.606 537.445 572.236 537.27C572.901 537.06 573.618 536.745 574.388 536.325V522.99C573.093 522.465 571.606 522.203 569.926 522.203C567.756 522.203 566.111 522.902 564.991 524.302C563.906 525.702 563.363 527.575 563.363 529.92C563.363 532.23 563.906 534.085 564.991 535.485C566.111 536.85 567.738 537.532 569.873 537.532Z" fill="#FFF6F1"/>
<path d="M591.926 519.578C594.586 519.578 596.634 520.382 598.069 521.992C599.504 523.567 600.221 525.808 600.221 528.713V530.55L600.011 530.97H586.204C586.204 532.685 586.851 534.277 588.146 535.747C589.371 536.972 591.279 537.585 593.869 537.585C595.584 537.585 597.211 537.322 598.751 536.797L599.381 539.318C597.246 540.053 595.094 540.42 592.924 540.42C589.669 540.42 587.184 539.545 585.469 537.795C583.754 536.045 582.896 533.542 582.896 530.287C582.896 527.207 583.649 524.67 585.154 522.675C586.764 520.61 589.021 519.578 591.926 519.578ZM596.756 528.24C596.756 526.49 596.371 525.055 595.601 523.935C594.866 522.815 593.764 522.255 592.294 522.255C590.439 522.255 589.021 522.815 588.041 523.935C587.061 525.055 586.466 526.49 586.256 528.24H596.756Z" fill="#FFF6F1"/>
<path d="M611.976 540.42C609.946 540.42 608.494 539.877 607.619 538.792C606.779 537.672 606.359 535.993 606.359 533.753V522.675H602.946V519.84H606.359V514.905L609.771 514.643V519.84H616.386V522.675H609.771V533.542C609.771 534.942 609.981 535.958 610.401 536.588C610.856 537.218 611.714 537.532 612.974 537.532C614.164 537.532 615.231 537.428 616.176 537.218L616.754 539.528C615.179 540.123 613.586 540.42 611.976 540.42Z" fill="#FFF6F1"/>
<path d="M623.467 540.21C622.767 540.21 622.19 539.983 621.735 539.528C621.315 539.073 621.105 538.512 621.105 537.847C621.105 537.182 621.315 536.622 621.735 536.167C622.19 535.712 622.767 535.485 623.467 535.485C624.167 535.485 624.727 535.712 625.147 536.167C625.602 536.622 625.83 537.182 625.83 537.847C625.83 538.512 625.602 539.073 625.147 539.528C624.727 539.983 624.167 540.21 623.467 540.21Z" fill="#FFF6F1"/>
<path d="M106.466 386.075V368.75H113.741V410H106.466V392.75H86.5164V410H79.1664V368.75H86.5164V386.075H106.466Z" fill="#FFF6F1"/>
<path d="M122.87 409.775V381.2H129.92V412.175C129.92 415.125 129.245 417.725 127.895 419.975C126.595 422.275 123.995 424.125 120.095 425.525L119.12 425.825L116.645 420.875L117.695 420.275C119.295 419.475 120.445 418.675 121.145 417.875C121.845 417.125 122.295 416.15 122.495 414.95C122.745 413.8 122.87 412.075 122.87 409.775ZM123.17 374.975C124.07 375.875 125.145 376.325 126.395 376.325C127.695 376.325 128.77 375.875 129.62 374.975C130.52 374.075 130.97 373 130.97 371.75C130.97 370.45 130.52 369.375 129.62 368.525C128.77 367.625 127.695 367.175 126.395 367.175C125.145 367.175 124.07 367.625 123.17 368.525C122.27 369.375 121.82 370.45 121.82 371.75C121.82 373 122.27 374.075 123.17 374.975Z" fill="#FFF6F1"/>
<path d="M157.579 383.975C160.229 381.825 162.954 380.75 165.754 380.75C170.054 380.75 173.229 382.075 175.279 384.725C177.379 387.375 178.429 391.05 178.429 395.75V398.525H159.604C159.804 400.975 160.554 402.675 161.854 403.625C163.204 404.575 165.254 405.05 168.004 405.05C170.854 405.05 173.479 404.75 175.879 404.15L177.154 409.025C173.954 410.175 170.779 410.75 167.629 410.75C162.879 410.75 159.354 409.525 157.054 407.075C153.204 409.475 149.479 410.675 145.879 410.675C142.779 410.675 140.304 409.875 138.454 408.275C136.604 406.675 135.679 404.625 135.679 402.125C135.679 399.325 136.704 397.15 138.754 395.6C140.854 394 143.829 393.1 147.679 392.9L153.304 392.6C153.304 390.1 152.854 388.4 151.954 387.5C151.054 386.6 149.279 386.15 146.629 386.15C144.379 386.15 141.929 386.65 139.279 387.65L138.154 382.7C142.054 381.4 145.254 380.75 147.754 380.75C150.304 380.75 152.279 381.025 153.679 381.575C155.129 382.125 156.429 382.925 157.579 383.975ZM169.954 388.175C169.004 386.975 167.654 386.375 165.904 386.375C164.354 386.375 162.954 387 161.704 388.25C160.504 389.5 159.854 391.25 159.754 393.5H171.454C171.454 391.15 170.954 389.375 169.954 388.175ZM153.679 403.625V397.475L148.504 397.85C144.754 398.05 142.879 399.3 142.879 401.6C142.879 402.75 143.304 403.65 144.154 404.3C145.004 404.95 146.179 405.275 147.679 405.275C149.029 405.275 150.154 405.15 151.054 404.9C152.004 404.65 152.879 404.225 153.679 403.625Z" fill="#FFF6F1"/>
<path d="M192.313 403.925C192.813 404.675 193.688 405.05 194.938 405.05C195.938 405.05 197.088 404.875 198.388 404.525V409.25C196.338 410.2 194.188 410.675 191.938 410.675C187.038 410.675 184.588 407.975 184.588 402.575V368.75H191.638V400.475C191.638 401.975 191.863 403.125 192.313 403.925Z" fill="#FFF6F1"/>
<path d="M202.72 381.2H207.745L208.57 383.075C211.37 381.525 214.22 380.75 217.12 380.75C219.22 380.75 221.32 381.225 223.42 382.175C225.52 383.125 227.27 384.725 228.67 386.975C230.12 389.175 230.845 392.075 230.845 395.675C230.845 400.325 229.545 404 226.945 406.7C224.395 409.35 220.795 410.675 216.145 410.675C214.995 410.675 213.945 410.55 212.995 410.3C212.095 410.05 211.07 409.675 209.92 409.175V425.45H202.72V381.2ZM223.495 396.05C223.495 389.65 220.72 386.45 215.17 386.45C213.32 386.45 211.595 386.8 209.995 387.5V403.625C211.445 404.575 213.095 405.05 214.945 405.05C217.495 405.05 219.545 404.35 221.095 402.95C222.695 401.5 223.495 399.2 223.495 396.05Z" fill="#FFF6F1"/>
<path d="M253.162 381.2H258.262L259.162 383.3C262.562 381.65 265.887 380.825 269.137 380.825C272.187 380.825 274.462 381.5 275.962 382.85C277.512 384.2 278.487 385.775 278.887 387.575C279.337 389.375 279.562 391.4 279.562 393.65V410H272.437V392.75C272.437 391.25 272.062 389.9 271.312 388.7C270.562 387.5 269.212 386.9 267.262 386.9C265.512 386.9 263.187 387.425 260.287 388.475V410H253.162V381.2Z" fill="#FFF6F1"/>
<path d="M287.685 382.7C291.585 381.4 294.785 380.75 297.285 380.75C302.135 380.75 305.51 381.75 307.41 383.75C309.36 385.75 310.335 388.6 310.335 392.3V410H304.635L303.81 407.975C301.56 409.775 298.76 410.675 295.41 410.675C292.31 410.675 289.835 409.875 287.985 408.275C286.135 406.675 285.21 404.625 285.21 402.125C285.21 399.325 286.235 397.15 288.285 395.6C290.385 394 293.36 393.1 297.21 392.9L302.835 392.6C302.835 390.1 302.385 388.4 301.485 387.5C300.585 386.6 298.81 386.15 296.16 386.15C293.91 386.15 291.46 386.65 288.81 387.65L287.685 382.7ZM301.785 404.375C302.435 404.025 302.885 403.775 303.135 403.625V397.475L298.035 397.85C294.285 398.05 292.41 399.3 292.41 401.6C292.41 402.75 292.835 403.65 293.685 404.3C294.535 404.95 295.71 405.275 297.21 405.275C298.21 405.275 299.06 405.2 299.76 405.05C300.46 404.9 301.135 404.675 301.785 404.375ZM303.36 365.3C304.81 366.75 305.535 368.575 305.535 370.775C305.535 372.875 304.81 374.7 303.36 376.25C301.91 377.75 300.135 378.5 298.035 378.5C295.935 378.5 294.135 377.75 292.635 376.25C291.185 374.7 290.46 372.875 290.46 370.775C290.46 368.625 291.185 366.825 292.635 365.375C294.085 363.875 295.885 363.125 298.035 363.125C300.185 363.125 301.96 363.85 303.36 365.3ZM300.06 368.675C299.51 368.075 298.835 367.775 298.035 367.775C297.185 367.775 296.485 368.075 295.935 368.675C295.385 369.275 295.11 369.975 295.11 370.775C295.11 371.575 295.385 372.275 295.935 372.875C296.485 373.475 297.185 373.775 298.035 373.775C298.835 373.775 299.51 373.475 300.06 372.875C300.61 372.275 300.885 371.575 300.885 370.775C300.885 369.975 300.61 369.275 300.06 368.675Z" fill="#FFF6F1"/>
<path d="M317.146 381.2H322.246L323.146 383.3C325.796 381.6 328.621 380.75 331.621 380.75C333.471 380.75 335.221 381.125 336.871 381.875L335.446 388.4L335.146 388.475C333.446 387.475 331.396 386.975 328.996 386.975C327.346 386.975 325.771 387.25 324.271 387.8V410H317.146V381.2Z" fill="#FFF6F1"/>
<path d="M377.151 381.95V368.75H384.351V410H379.176L378.651 408.425C376.101 409.925 373.526 410.675 370.926 410.675C366.376 410.675 362.776 409.325 360.126 406.625C357.526 403.925 356.226 400.275 356.226 395.675C356.226 392.225 356.951 389.375 358.401 387.125C359.901 384.875 361.726 383.25 363.876 382.25C366.026 381.25 368.176 380.75 370.326 380.75C373.076 380.75 375.351 381.15 377.151 381.95ZM377.151 387.35C375.651 386.7 373.926 386.375 371.976 386.375C366.426 386.375 363.651 389.6 363.651 396.05C363.651 399.25 364.426 401.55 365.976 402.95C367.526 404.35 369.601 405.05 372.201 405.05C374.051 405.05 375.701 404.575 377.151 403.625V387.35Z" fill="#FFF6F1"/>
<path d="M397.253 382.625C399.303 381.375 401.503 380.75 403.853 380.75C408.203 380.75 411.528 382.1 413.828 384.8C416.178 387.45 417.353 391.1 417.353 395.75V398.525H397.778C397.978 400.975 398.828 402.675 400.328 403.625C401.828 404.575 403.953 405.05 406.703 405.05C409.603 405.05 412.253 404.75 414.653 404.15L415.928 409.025C412.678 410.175 409.278 410.75 405.728 410.75C400.778 410.75 397.003 409.375 394.403 406.625C391.803 403.875 390.503 400.25 390.503 395.75C390.503 392.75 391.128 390.125 392.378 387.875C393.628 385.575 395.253 383.825 397.253 382.625ZM408.503 388.25C407.353 387 405.853 386.375 404.003 386.375C402.503 386.375 401.128 387 399.878 388.25C398.678 389.5 398.028 391.25 397.928 393.5H410.228C410.228 391.2 409.653 389.45 408.503 388.25Z" fill="#FFF6F1"/>
<path d="M436.9 404.825C438.35 404.825 440.2 404.525 442.45 403.925L443.425 409.025C441.675 409.525 440.175 409.925 438.925 410.225C437.725 410.525 436.525 410.675 435.325 410.675C431.175 410.675 428.4 409.8 427 408.05C425.65 406.3 424.975 403.875 424.975 400.775V386.825H420.175V381.2H424.975V372.95H432.175V381.2H442.15V386.825H432.175V400.625C432.175 403.425 433.75 404.825 436.9 404.825Z" fill="#FFF6F1"/>
<path d="M464.901 410V368.75H472.101V381.95C473.901 381.15 476.176 380.75 478.926 380.75C481.226 380.75 483.426 381.25 485.526 382.25C487.676 383.25 489.451 384.875 490.851 387.125C492.251 389.325 492.951 392.175 492.951 395.675C492.951 400.325 491.651 404 489.051 406.7C486.501 409.35 482.901 410.675 478.251 410.675C475.701 410.675 473.151 409.925 470.601 408.425L470.001 410H464.901ZM485.601 396.05C485.601 389.6 482.826 386.375 477.276 386.375C475.326 386.375 473.601 386.7 472.101 387.35V403.625C473.501 404.575 475.151 405.05 477.051 405.05C479.601 405.05 481.651 404.35 483.201 402.95C484.801 401.5 485.601 399.2 485.601 396.05Z" fill="#FFF6F1"/>
<path d="M504.128 382.625C506.178 381.375 508.378 380.75 510.728 380.75C515.078 380.75 518.403 382.1 520.703 384.8C523.053 387.45 524.228 391.1 524.228 395.75V398.525H504.653C504.853 400.975 505.703 402.675 507.203 403.625C508.703 404.575 510.828 405.05 513.578 405.05C516.478 405.05 519.128 404.75 521.528 404.15L522.803 409.025C519.553 410.175 516.153 410.75 512.603 410.75C507.653 410.75 503.878 409.375 501.278 406.625C498.678 403.875 497.378 400.25 497.378 395.75C497.378 392.75 498.003 390.125 499.253 387.875C500.503 385.575 502.128 383.825 504.128 382.625ZM515.378 388.25C514.228 387 512.728 386.375 510.878 386.375C509.378 386.375 508.003 387 506.753 388.25C505.553 389.5 504.903 391.25 504.803 393.5H517.103C517.103 391.2 516.528 389.45 515.378 388.25Z" fill="#FFF6F1"/>
<path d="M543.775 404.825C545.225 404.825 547.075 404.525 549.325 403.925L550.3 409.025C548.55 409.525 547.05 409.925 545.8 410.225C544.6 410.525 543.4 410.675 542.2 410.675C538.05 410.675 535.275 409.8 533.875 408.05C532.525 406.3 531.85 403.875 531.85 400.775V386.825H527.05V381.2H531.85V372.95H539.05V381.2H549.025V386.825H539.05V400.625C539.05 403.425 540.625 404.825 543.775 404.825Z" fill="#FFF6F1"/>
<path d="M564.177 410.225L551.277 381.2H559.452L568.077 403.325L575.802 381.2H583.302L565.677 425.45H557.652L564.177 410.225Z" fill="#FFF6F1"/>
<path d="M607.014 381.95V368.75H614.214V410H609.039L608.514 408.425C605.964 409.925 603.389 410.675 600.789 410.675C596.239 410.675 592.639 409.325 589.989 406.625C587.389 403.925 586.089 400.275 586.089 395.675C586.089 392.225 586.814 389.375 588.264 387.125C589.764 384.875 591.589 383.25 593.739 382.25C595.889 381.25 598.039 380.75 600.189 380.75C602.939 380.75 605.214 381.15 607.014 381.95ZM607.014 387.35C605.514 386.7 603.789 386.375 601.839 386.375C596.289 386.375 593.514 389.6 593.514 396.05C593.514 399.25 594.289 401.55 595.839 402.95C597.389 404.35 599.464 405.05 602.064 405.05C603.914 405.05 605.564 404.575 607.014 403.625V387.35Z" fill="#FFF6F1"/>
<path d="M627.116 382.625C629.166 381.375 631.366 380.75 633.716 380.75C638.066 380.75 641.391 382.1 643.691 384.8C646.041 387.45 647.216 391.1 647.216 395.75V398.525H627.641C627.841 400.975 628.691 402.675 630.191 403.625C631.691 404.575 633.816 405.05 636.566 405.05C639.466 405.05 642.116 404.75 644.516 404.15L645.791 409.025C642.541 410.175 639.141 410.75 635.591 410.75C630.641 410.75 626.866 409.375 624.266 406.625C621.666 403.875 620.366 400.25 620.366 395.75C620.366 392.75 620.991 390.125 622.241 387.875C623.491 385.575 625.116 383.825 627.116 382.625ZM638.366 388.25C637.216 387 635.716 386.375 633.866 386.375C632.366 386.375 630.991 387 629.741 388.25C628.541 389.5 627.891 391.25 627.791 393.5H640.091C640.091 391.2 639.516 389.45 638.366 388.25Z" fill="#FFF6F1"/>
<path d="M652.888 381.2H657.988L658.888 383.3C661.538 381.6 664.363 380.75 667.363 380.75C669.213 380.75 670.963 381.125 672.613 381.875L671.188 388.4L670.888 388.475C669.188 387.475 667.138 386.975 664.738 386.975C663.088 386.975 661.513 387.25 660.013 387.8V410H652.888V381.2Z" fill="#FFF6F1"/>
<path d="M693.318 381.2H698.418L699.318 383.3C699.618 383.2 700.243 382.95 701.193 382.55C702.143 382.15 703.268 381.775 704.568 381.425C705.868 381.025 707.243 380.825 708.693 380.825C711.943 380.825 714.418 381.8 716.118 383.75C720.018 381.8 723.518 380.825 726.618 380.825C730.718 380.825 733.368 382.05 734.568 384.5C735.818 386.95 736.443 390 736.443 393.65V410H729.318V392.75C729.318 391.25 728.993 389.9 728.343 388.7C727.693 387.5 726.493 386.9 724.743 386.9C723.843 386.9 722.893 387.05 721.893 387.35C720.893 387.6 719.618 388.05 718.068 388.7C718.418 390.4 718.593 392.15 718.593 393.95V410H711.393V392.75C711.393 391.25 711.043 389.9 710.343 388.7C709.693 387.5 708.493 386.9 706.743 386.9C706.043 386.9 705.218 387.025 704.268 387.275C703.368 387.475 702.093 387.875 700.443 388.475V410H693.318V381.2Z" fill="#FFF6F1"/>
<path d="M748.816 382.625C750.866 381.375 753.066 380.75 755.416 380.75C759.766 380.75 763.091 382.1 765.391 384.8C767.741 387.45 768.916 391.1 768.916 395.75V398.525H749.341C749.541 400.975 750.391 402.675 751.891 403.625C753.391 404.575 755.516 405.05 758.266 405.05C761.166 405.05 763.816 404.75 766.216 404.15L767.491 409.025C764.241 410.175 760.841 410.75 757.291 410.75C752.341 410.75 748.566 409.375 745.966 406.625C743.366 403.875 742.066 400.25 742.066 395.75C742.066 392.75 742.691 390.125 743.941 387.875C745.191 385.575 746.816 383.825 748.816 382.625ZM760.066 388.25C758.916 387 757.416 386.375 755.566 386.375C754.066 386.375 752.691 387 751.441 388.25C750.241 389.5 749.591 391.25 749.491 393.5H761.791C761.791 391.2 761.216 389.45 760.066 388.25Z" fill="#FFF6F1"/>
<path d="M784.562 410.675C780.862 410.675 777.138 409.8 773.388 408.05L775.412 402.425C777.112 403.025 778.838 403.525 780.588 403.925C782.338 404.325 783.788 404.525 784.938 404.525C787.038 404.525 788.512 404.3 789.362 403.85C790.212 403.4 790.638 402.7 790.638 401.75C790.638 401.1 790.237 400.575 789.438 400.175C788.637 399.775 787.313 399.275 785.463 398.675C783.263 398.025 781.412 397.375 779.912 396.725C778.412 396.025 777.113 395.025 776.013 393.725C774.913 392.375 774.362 390.675 774.362 388.625C774.362 386.625 775.188 384.825 776.838 383.225C778.488 381.575 781.738 380.75 786.588 380.75C788.138 380.75 789.787 380.925 791.537 381.275C793.337 381.625 794.862 382 796.112 382.4L794.312 387.95C791.213 387.05 788.662 386.6 786.662 386.6C784.462 386.6 782.987 386.8 782.237 387.2C781.487 387.6 781.112 388.175 781.112 388.925C781.112 389.725 781.563 390.375 782.463 390.875C783.413 391.375 784.888 391.925 786.888 392.525C789.088 393.175 790.887 393.825 792.287 394.475C793.737 395.125 794.963 396.05 795.963 397.25C797.013 398.45 797.537 399.975 797.537 401.825C797.537 404.075 796.562 406.125 794.612 407.975C792.712 409.775 789.363 410.675 784.562 410.675Z" fill="#FFF6F1"/>
<path d="M817.056 404.825C818.506 404.825 820.356 404.525 822.606 403.925L823.581 409.025C821.831 409.525 820.331 409.925 819.081 410.225C817.881 410.525 816.681 410.675 815.481 410.675C811.331 410.675 808.556 409.8 807.156 408.05C805.806 406.3 805.131 403.875 805.131 400.775V386.825H800.331V381.2H805.131V372.95H812.331V381.2H822.306V386.825H812.331V400.625C812.331 403.425 813.906 404.825 817.056 404.825Z" fill="#FFF6F1"/>
<path d="M835 103.5C835 129.734 813.734 151 787.5 151C761.266 151 740 129.734 740 103.5C740 77.2665 761.266 56 787.5 56C813.734 56 835 77.2665 835 103.5Z" fill="#FFF6F1" fill-opacity="0.1"/>
<path d="M786.573 85.3C790.073 85.3 792.823 86.175 794.823 87.925C796.873 89.625 797.898 91.975 797.898 94.975C797.898 96.825 797.423 98.475 796.473 99.925C795.523 101.375 794.298 102.5 792.798 103.3C794.848 103.95 796.448 104.95 797.598 106.3C798.798 107.6 799.398 109.4 799.398 111.7C799.398 114.95 798.273 117.45 796.023 119.2C793.773 120.9 790.798 121.75 787.098 121.75C784.898 121.75 782.848 121.5 780.948 121C779.098 120.5 777.148 119.775 775.098 118.825L777.198 113.05C779.398 114 781.148 114.7 782.448 115.15C783.748 115.55 785.123 115.75 786.573 115.75C790.873 115.75 793.023 114.325 793.023 111.475C793.023 109.625 792.273 108.325 790.773 107.575C789.273 106.775 786.823 106.375 783.423 106.375H782.823V100.675C786.123 100.675 788.373 100.2 789.573 99.25C790.823 98.3 791.448 97 791.448 95.35C791.448 93.95 790.948 92.95 789.948 92.35C788.998 91.75 787.873 91.45 786.573 91.45C784.423 91.45 781.498 92.275 777.798 93.925L775.473 88.15C779.523 86.25 783.223 85.3 786.573 85.3Z" fill="#FFF6F1"/>
<path d="M528 243C528 286.078 493.078 321 450 321C406.922 321 372 286.078 372 243C372 199.922 406.922 165 450 165C493.078 165 528 199.922 528 243Z" fill="#FFF6F1"/>
<path d="M450 292L434.76 278.383C429 273.207 424.06 268.589 419.94 264.528C415.82 260.467 412.42 256.644 409.74 253.061C407.06 249.478 405.1 246.014 403.86 242.669C402.62 239.325 402 235.821 402 232.158C402 224.673 404.52 218.442 409.56 213.465C414.6 208.488 420.88 206 428.4 206C432.56 206 436.52 206.876 440.28 208.628C444.04 210.38 447.28 212.848 450 216.033C452.72 212.848 455.96 210.38 459.72 208.628C463.48 206.876 467.44 206 471.6 206C478 206 483.82 208.13 489.06 212.39C494.3 216.65 497.24 222.483 497.88 229.889H488.04C487.48 224.633 485.36 220.931 481.68 218.781C478 216.631 474.64 215.556 471.6 215.556C467.52 215.556 464 216.65 461.04 218.84C458.08 221.03 455.32 223.917 452.76 227.5H447.24C444.76 223.917 441.94 221.03 438.78 218.84C435.62 216.65 432.16 215.556 428.4 215.556C423.84 215.556 419.9 217.128 416.58 220.274C413.26 223.419 411.6 227.381 411.6 232.158C411.6 234.786 412.16 237.454 413.28 240.161C414.4 242.869 416.4 245.994 419.28 249.538C422.16 253.081 426.08 257.222 431.04 261.96C436 266.698 442.32 272.411 450 279.1L457.32 272.769C461.16 269.425 465.34 265.643 469.86 261.422C474.38 257.202 478.2 253.061 481.32 249H470.76V239.444H498V266.439H488.4V255.569C485.12 259.71 481.16 263.931 476.52 268.231C471.88 272.531 467.6 276.432 463.68 279.936L450 292Z" fill="#0C4857"/>
</svg>
