<svg width="899" height="678" viewBox="0 0 899 678" fill="none" xmlns="http://www.w3.org/2000/svg">
<path d="M0 63C0 28.2061 28.2061 0 63 0H836C870.794 0 899 28.2061 899 63V615C899 649.794 870.794 678 836 678H63C28.206 678 0 649.794 0 615V63Z" fill="#FFF6F1" fill-opacity="0.1"/>
<path d="M835 103.5C835 129.734 813.734 151 787.5 151C761.266 151 740 129.734 740 103.5C740 77.2665 761.266 56 787.5 56C813.734 56 835 77.2665 835 103.5Z" fill="#FFF6F1" fill-opacity="0.1"/>
<path d="M797.846 115.75V121H778.571V115.75H785.021V91.75L779.321 94.075L777.146 89.125L784.422 86.05H791.696V115.75H797.846Z" fill="#FFF6F1"/>
<path d="M93.9027 410V368.75H107.403C118.703 368.75 124.353 372.8 124.353 380.9C124.353 386.75 121.303 390.7 115.203 392.75L125.553 410H117.228L107.778 393.95C107.028 394 105.953 394.025 104.553 394.025C103.853 394.025 102.753 393.975 101.253 393.875V410H93.9027ZM106.653 375.35H101.253V387.2C102.503 387.35 103.703 387.425 104.853 387.425C108.653 387.425 111.603 387.025 113.703 386.225C115.853 385.375 116.928 383.65 116.928 381.05C116.928 378.8 116.003 377.3 114.153 376.55C112.353 375.75 109.853 375.35 106.653 375.35Z" fill="#FFF6F1"/>
<path d="M136.306 382.625C138.356 381.375 140.556 380.75 142.906 380.75C147.256 380.75 150.581 382.1 152.881 384.8C155.231 387.45 156.406 391.1 156.406 395.75V398.525H136.831C137.031 400.975 137.881 402.675 139.381 403.625C140.881 404.575 143.006 405.05 145.756 405.05C148.656 405.05 151.306 404.75 153.706 404.15L154.981 409.025C151.731 410.175 148.331 410.75 144.781 410.75C139.831 410.75 136.056 409.375 133.456 406.625C130.856 403.875 129.556 400.25 129.556 395.75C129.556 392.75 130.181 390.125 131.431 387.875C132.681 385.575 134.306 383.825 136.306 382.625ZM147.556 388.25C146.406 387 144.906 386.375 143.056 386.375C141.556 386.375 140.181 387 138.931 388.25C137.731 389.5 137.081 391.25 136.981 393.5H149.281C149.281 391.2 148.706 389.45 147.556 388.25Z" fill="#FFF6F1"/>
<path d="M172.053 410.675C168.353 410.675 164.628 409.8 160.878 408.05L162.903 402.425C164.603 403.025 166.328 403.525 168.078 403.925C169.828 404.325 171.278 404.525 172.428 404.525C174.528 404.525 176.003 404.3 176.853 403.85C177.703 403.4 178.128 402.7 178.128 401.75C178.128 401.1 177.728 400.575 176.928 400.175C176.128 399.775 174.803 399.275 172.953 398.675C170.753 398.025 168.903 397.375 167.403 396.725C165.903 396.025 164.603 395.025 163.503 393.725C162.403 392.375 161.853 390.675 161.853 388.625C161.853 386.625 162.678 384.825 164.328 383.225C165.978 381.575 169.228 380.75 174.078 380.75C175.628 380.75 177.278 380.925 179.028 381.275C180.828 381.625 182.353 382 183.603 382.4L181.803 387.95C178.703 387.05 176.153 386.6 174.153 386.6C171.953 386.6 170.478 386.8 169.728 387.2C168.978 387.6 168.603 388.175 168.603 388.925C168.603 389.725 169.053 390.375 169.953 390.875C170.903 391.375 172.378 391.925 174.378 392.525C176.578 393.175 178.378 393.825 179.778 394.475C181.228 395.125 182.453 396.05 183.453 397.25C184.503 398.45 185.028 399.975 185.028 401.825C185.028 404.075 184.053 406.125 182.103 407.975C180.203 409.775 176.853 410.675 172.053 410.675Z" fill="#FFF6F1"/>
<path d="M204.546 404.825C205.996 404.825 207.846 404.525 210.096 403.925L211.071 409.025C209.321 409.525 207.821 409.925 206.571 410.225C205.371 410.525 204.171 410.675 202.971 410.675C198.821 410.675 196.046 409.8 194.646 408.05C193.296 406.3 192.621 403.875 192.621 400.775V386.825H187.821V381.2H192.621V372.95H199.821V381.2H209.796V386.825H199.821V400.625C199.821 403.425 201.396 404.825 204.546 404.825Z" fill="#FFF6F1"/>
<path d="M216.699 382.7C220.599 381.4 223.799 380.75 226.299 380.75C231.149 380.75 234.524 381.75 236.424 383.75C238.374 385.75 239.349 388.6 239.349 392.3V410H233.649L232.824 407.975C230.574 409.775 227.774 410.675 224.424 410.675C221.324 410.675 218.849 409.875 216.999 408.275C215.149 406.675 214.224 404.625 214.224 402.125C214.224 399.325 215.249 397.15 217.299 395.6C219.399 394 222.374 393.1 226.224 392.9L231.849 392.6C231.849 390.1 231.399 388.4 230.499 387.5C229.599 386.6 227.824 386.15 225.174 386.15C222.924 386.15 220.474 386.65 217.824 387.65L216.699 382.7ZM230.799 404.375C231.449 404.025 231.899 403.775 232.149 403.625V397.475L227.049 397.85C223.299 398.05 221.424 399.3 221.424 401.6C221.424 402.75 221.849 403.65 222.699 404.3C223.549 404.95 224.724 405.275 226.224 405.275C227.224 405.275 228.074 405.2 228.774 405.05C229.474 404.9 230.149 404.675 230.799 404.375Z" fill="#FFF6F1"/>
<path d="M271.885 410.075H266.935L266.035 407.975C264.135 408.875 262.51 409.55 261.16 410C259.86 410.45 258.36 410.675 256.66 410.675C252.31 410.675 249.46 409.425 248.11 406.925C246.81 404.375 246.16 401.275 246.16 397.625V381.2H253.285V398.6C253.285 400.15 253.66 401.525 254.41 402.725C255.16 403.925 256.535 404.525 258.535 404.525C260.735 404.525 262.835 403.95 264.835 402.8V381.2H271.885V410.075Z" fill="#FFF6F1"/>
<path d="M279.089 381.2H284.189L285.089 383.3C287.739 381.6 290.564 380.75 293.564 380.75C295.414 380.75 297.164 381.125 298.814 381.875L297.389 388.4L297.089 388.475C295.389 387.475 293.339 386.975 290.939 386.975C289.289 386.975 287.714 387.25 286.214 387.8V410H279.089V381.2Z" fill="#FFF6F1"/>
<path d="M304.121 382.7C308.021 381.4 311.221 380.75 313.721 380.75C318.571 380.75 321.946 381.75 323.846 383.75C325.796 385.75 326.771 388.6 326.771 392.3V410H321.071L320.246 407.975C317.996 409.775 315.196 410.675 311.846 410.675C308.746 410.675 306.271 409.875 304.421 408.275C302.571 406.675 301.646 404.625 301.646 402.125C301.646 399.325 302.671 397.15 304.721 395.6C306.821 394 309.796 393.1 313.646 392.9L319.271 392.6C319.271 390.1 318.821 388.4 317.921 387.5C317.021 386.6 315.246 386.15 312.596 386.15C310.346 386.15 307.896 386.65 305.246 387.65L304.121 382.7ZM318.221 404.375C318.871 404.025 319.321 403.775 319.571 403.625V397.475L314.471 397.85C310.721 398.05 308.846 399.3 308.846 401.6C308.846 402.75 309.271 403.65 310.121 404.3C310.971 404.95 312.146 405.275 313.646 405.275C314.646 405.275 315.496 405.2 316.196 405.05C316.896 404.9 317.571 404.675 318.221 404.375Z" fill="#FFF6F1"/>
<path d="M333.582 381.2H338.682L339.582 383.3C342.982 381.65 346.307 380.825 349.557 380.825C352.607 380.825 354.882 381.5 356.382 382.85C357.932 384.2 358.907 385.775 359.307 387.575C359.757 389.375 359.982 391.4 359.982 393.65V410H352.857V392.75C352.857 391.25 352.482 389.9 351.732 388.7C350.982 387.5 349.632 386.9 347.682 386.9C345.932 386.9 343.607 387.425 340.707 388.475V410H333.582V381.2Z" fill="#FFF6F1"/>
<path d="M380.855 404.825C382.305 404.825 384.155 404.525 386.405 403.925L387.38 409.025C385.63 409.525 384.13 409.925 382.88 410.225C381.68 410.525 380.48 410.675 379.28 410.675C375.13 410.675 372.355 409.8 370.955 408.05C369.605 406.3 368.93 403.875 368.93 400.775V386.825H364.13V381.2H368.93V372.95H376.13V381.2H386.105V386.825H376.13V400.625C376.13 403.425 377.705 404.825 380.855 404.825Z" fill="#FFF6F1"/>
<path d="M397.282 382.625C399.332 381.375 401.532 380.75 403.882 380.75C408.232 380.75 411.557 382.1 413.857 384.8C416.207 387.45 417.382 391.1 417.382 395.75V398.525H397.807C398.007 400.975 398.857 402.675 400.357 403.625C401.857 404.575 403.982 405.05 406.732 405.05C409.632 405.05 412.282 404.75 414.682 404.15L415.957 409.025C412.707 410.175 409.307 410.75 405.757 410.75C400.807 410.75 397.032 409.375 394.432 406.625C391.832 403.875 390.532 400.25 390.532 395.75C390.532 392.75 391.157 390.125 392.407 387.875C393.657 385.575 395.282 383.825 397.282 382.625ZM408.532 388.25C407.382 387 405.882 386.375 404.032 386.375C402.532 386.375 401.157 387 399.907 388.25C398.707 389.5 398.057 391.25 397.957 393.5H410.257C410.257 391.2 409.682 389.45 408.532 388.25Z" fill="#FFF6F1"/>
<path d="M423.054 381.2H428.154L429.054 383.3C432.454 381.65 435.779 380.825 439.029 380.825C442.079 380.825 444.354 381.5 445.854 382.85C447.404 384.2 448.379 385.775 448.779 387.575C449.229 389.375 449.454 391.4 449.454 393.65V410H442.329V392.75C442.329 391.25 441.954 389.9 441.204 388.7C440.454 387.5 439.104 386.9 437.154 386.9C435.404 386.9 433.079 387.425 430.179 388.475V410H423.054V381.2Z" fill="#FFF6F1"/>
<path d="M486.851 404.825C488.301 404.825 490.151 404.525 492.401 403.925L493.376 409.025C491.626 409.525 490.126 409.925 488.876 410.225C487.676 410.525 486.476 410.675 485.276 410.675C481.126 410.675 478.351 409.8 476.951 408.05C475.601 406.3 474.926 403.875 474.926 400.775V386.825H470.126V381.2H474.926V372.95H482.126V381.2H492.101V386.825H482.126V400.625C482.126 403.425 483.701 404.825 486.851 404.825Z" fill="#FFF6F1"/>
<path d="M498.029 410V381.2H505.229V410H498.029ZM498.404 374.975C499.304 375.875 500.379 376.325 501.629 376.325C502.929 376.325 504.004 375.875 504.854 374.975C505.754 374.075 506.204 373 506.204 371.75C506.204 370.45 505.754 369.375 504.854 368.525C504.004 367.625 502.929 367.175 501.629 367.175C500.379 367.175 499.304 367.625 498.404 368.525C497.504 369.375 497.054 370.45 497.054 371.75C497.054 373 497.504 374.075 498.404 374.975Z" fill="#FFF6F1"/>
<path d="M520.585 403.925C521.085 404.675 521.96 405.05 523.21 405.05C524.21 405.05 525.36 404.875 526.66 404.525V409.25C524.61 410.2 522.46 410.675 520.21 410.675C515.31 410.675 512.86 407.975 512.86 402.575V368.75H519.91V400.475C519.91 401.975 520.135 403.125 520.585 403.925Z" fill="#FFF6F1"/>
<path d="M530.691 381.2H535.791L536.691 383.3C536.991 383.2 537.616 382.95 538.566 382.55C539.516 382.15 540.641 381.775 541.941 381.425C543.241 381.025 544.616 380.825 546.066 380.825C549.316 380.825 551.791 381.8 553.491 383.75C557.391 381.8 560.891 380.825 563.991 380.825C568.091 380.825 570.741 382.05 571.941 384.5C573.191 386.95 573.816 390 573.816 393.65V410H566.691V392.75C566.691 391.25 566.366 389.9 565.716 388.7C565.066 387.5 563.866 386.9 562.116 386.9C561.216 386.9 560.266 387.05 559.266 387.35C558.266 387.6 556.991 388.05 555.441 388.7C555.791 390.4 555.966 392.15 555.966 393.95V410H548.766V392.75C548.766 391.25 548.416 389.9 547.716 388.7C547.066 387.5 545.866 386.9 544.116 386.9C543.416 386.9 542.591 387.025 541.641 387.275C540.741 387.475 539.466 387.875 537.816 388.475V410H530.691V381.2Z" fill="#FFF6F1"/>
<path d="M586.189 382.625C588.239 381.375 590.439 380.75 592.789 380.75C597.139 380.75 600.464 382.1 602.764 384.8C605.114 387.45 606.289 391.1 606.289 395.75V398.525H586.714C586.914 400.975 587.764 402.675 589.264 403.625C590.764 404.575 592.889 405.05 595.639 405.05C598.539 405.05 601.189 404.75 603.589 404.15L604.864 409.025C601.614 410.175 598.214 410.75 594.664 410.75C589.714 410.75 585.939 409.375 583.339 406.625C580.739 403.875 579.439 400.25 579.439 395.75C579.439 392.75 580.064 390.125 581.314 387.875C582.564 385.575 584.189 383.825 586.189 382.625ZM597.439 388.25C596.289 387 594.789 386.375 592.939 386.375C591.439 386.375 590.064 387 588.814 388.25C587.614 389.5 586.964 391.25 586.864 393.5H599.164C599.164 391.2 598.589 389.45 597.439 388.25Z" fill="#FFF6F1"/>
<path d="M620.136 403.925C620.636 404.675 621.511 405.05 622.761 405.05C623.761 405.05 624.911 404.875 626.211 404.525V409.25C624.161 410.2 622.011 410.675 619.761 410.675C614.861 410.675 612.411 407.975 612.411 402.575V368.75H619.461V400.475C619.461 401.975 619.686 403.125 620.136 403.925Z" fill="#FFF6F1"/>
<path d="M649.817 381.95V368.75H657.017V410H651.842L651.317 408.425C648.767 409.925 646.192 410.675 643.592 410.675C639.042 410.675 635.442 409.325 632.792 406.625C630.192 403.925 628.892 400.275 628.892 395.675C628.892 392.225 629.617 389.375 631.067 387.125C632.567 384.875 634.392 383.25 636.542 382.25C638.692 381.25 640.842 380.75 642.992 380.75C645.742 380.75 648.017 381.15 649.817 381.95ZM649.817 387.35C648.317 386.7 646.592 386.375 644.642 386.375C639.092 386.375 636.317 389.6 636.317 396.05C636.317 399.25 637.092 401.55 638.642 402.95C640.192 404.35 642.267 405.05 644.867 405.05C646.717 405.05 648.367 404.575 649.817 403.625V387.35Z" fill="#FFF6F1"/>
<path d="M669.919 382.625C671.969 381.375 674.169 380.75 676.519 380.75C680.869 380.75 684.194 382.1 686.494 384.8C688.844 387.45 690.019 391.1 690.019 395.75V398.525H670.444C670.644 400.975 671.494 402.675 672.994 403.625C674.494 404.575 676.619 405.05 679.369 405.05C682.269 405.05 684.919 404.75 687.319 404.15L688.594 409.025C685.344 410.175 681.944 410.75 678.394 410.75C673.444 410.75 669.669 409.375 667.069 406.625C664.469 403.875 663.169 400.25 663.169 395.75C663.169 392.75 663.794 390.125 665.044 387.875C666.294 385.575 667.919 383.825 669.919 382.625ZM681.169 388.25C680.019 387 678.519 386.375 676.669 386.375C675.169 386.375 673.794 387 672.544 388.25C671.344 389.5 670.694 391.25 670.594 393.5H682.894C682.894 391.2 682.319 389.45 681.169 388.25Z" fill="#FFF6F1"/>
<path d="M695.691 381.2H700.791L701.691 383.3C704.341 381.6 707.166 380.75 710.166 380.75C712.016 380.75 713.766 381.125 715.416 381.875L713.991 388.4L713.691 388.475C711.991 387.475 709.941 386.975 707.541 386.975C705.891 386.975 704.316 387.25 702.816 387.8V410H695.691V381.2Z" fill="#FFF6F1"/>
<path d="M746.096 410.675C742.396 410.675 738.671 409.8 734.921 408.05L736.946 402.425C738.646 403.025 740.371 403.525 742.121 403.925C743.871 404.325 745.321 404.525 746.471 404.525C748.571 404.525 750.046 404.3 750.896 403.85C751.746 403.4 752.171 402.7 752.171 401.75C752.171 401.1 751.771 400.575 750.971 400.175C750.171 399.775 748.846 399.275 746.996 398.675C744.796 398.025 742.946 397.375 741.446 396.725C739.946 396.025 738.646 395.025 737.546 393.725C736.446 392.375 735.896 390.675 735.896 388.625C735.896 386.625 736.721 384.825 738.371 383.225C740.021 381.575 743.271 380.75 748.121 380.75C749.671 380.75 751.321 380.925 753.071 381.275C754.871 381.625 756.396 382 757.646 382.4L755.846 387.95C752.746 387.05 750.196 386.6 748.196 386.6C745.996 386.6 744.521 386.8 743.771 387.2C743.021 387.6 742.646 388.175 742.646 388.925C742.646 389.725 743.096 390.375 743.996 390.875C744.946 391.375 746.421 391.925 748.421 392.525C750.621 393.175 752.421 393.825 753.821 394.475C755.271 395.125 756.496 396.05 757.496 397.25C758.546 398.45 759.071 399.975 759.071 401.825C759.071 404.075 758.096 406.125 756.146 407.975C754.246 409.775 750.896 410.675 746.096 410.675Z" fill="#FFF6F1"/>
<path d="M764.864 410V381.2H772.064V410H764.864ZM765.239 374.975C766.139 375.875 767.214 376.325 768.464 376.325C769.764 376.325 770.839 375.875 771.689 374.975C772.589 374.075 773.039 373 773.039 371.75C773.039 370.45 772.589 369.375 771.689 368.525C770.839 367.625 769.764 367.175 768.464 367.175C767.214 367.175 766.139 367.625 765.239 368.525C764.339 369.375 763.889 370.45 763.889 371.75C763.889 373 764.339 374.075 765.239 374.975Z" fill="#FFF6F1"/>
<path d="M798.146 415.175C798.646 413.675 798.896 411.725 798.896 409.325V409.175C797.746 409.675 796.696 410.05 795.746 410.3C794.846 410.55 793.796 410.675 792.596 410.675C788.046 410.675 784.446 409.325 781.796 406.625C779.196 403.925 777.896 400.275 777.896 395.675C777.896 392.075 778.621 389.175 780.071 386.975C781.521 384.725 783.271 383.125 785.321 382.175C787.421 381.225 789.521 380.75 791.621 380.75C794.621 380.75 797.521 381.525 800.321 383.075L800.996 381.2H806.021V410.675C806.021 414.725 804.821 418.225 802.421 421.175C800.021 424.175 796.021 425.675 790.421 425.675C786.971 425.675 783.646 425.05 780.446 423.8L779.321 423.35L781.271 418.1L782.471 418.475C785.271 419.475 787.671 419.975 789.671 419.975C792.221 419.975 794.146 419.55 795.446 418.7C796.796 417.85 797.696 416.675 798.146 415.175ZM798.821 387.5C797.221 386.8 795.496 386.45 793.646 386.45C788.096 386.45 785.321 389.65 785.321 396.05C785.321 399.25 786.096 401.55 787.646 402.95C789.196 404.35 791.271 405.05 793.871 405.05C795.721 405.05 797.371 404.575 798.821 403.625V387.5Z" fill="#FFF6F1"/>
<path d="M92.0566 487.267C90.0966 488.422 87.6641 489 84.7591 489H74.5741V460.125H84.7591C87.6291 460.125 90.0616 460.72 92.0566 461.91C94.0516 463.065 95.5916 464.675 96.6766 466.74C97.7966 469.05 98.3566 471.658 98.3566 474.562C98.3566 477.642 97.7966 480.232 96.6766 482.332C95.5916 484.467 94.0516 486.112 92.0566 487.267ZM84.4966 463.117H78.0391V485.955H84.4966C86.8416 485.955 88.7141 485.5 90.1141 484.59C91.5491 483.645 92.6691 482.332 93.4741 480.652C94.1741 479.217 94.5241 477.188 94.5241 474.562C94.5241 472.358 94.1216 470.363 93.3166 468.578C92.4066 466.793 91.3741 465.498 90.2191 464.693C88.7141 463.643 86.8066 463.117 84.4966 463.117Z" fill="#FFF6F1"/>
<path d="M107.744 489H104.332V460.125H107.744V489Z" fill="#FFF6F1"/>
<path d="M128.019 476.19C128.019 474.475 127.687 473.25 127.022 472.515C126.392 471.78 125.272 471.413 123.662 471.413C121.947 471.413 120.092 471.885 118.097 472.83V489H114.684V468.84H117.047L117.782 470.52C120.197 469.19 122.559 468.525 124.869 468.525C127.004 468.525 128.632 469.137 129.752 470.362C130.872 471.552 131.432 473.215 131.432 475.35V489H128.019V476.19Z" fill="#FFF6F1"/>
<path d="M157.401 468.578C158.171 468.578 158.784 468.63 159.239 468.735C159.729 468.805 160.201 468.945 160.656 469.155L159.449 472.2C158.539 471.78 157.541 471.57 156.456 471.57C154.986 471.57 153.534 472.06 152.099 473.04V489H148.686V468.84H151.154L151.889 470.573C153.639 469.243 155.476 468.578 157.401 468.578Z" fill="#FFF6F1"/>
<path d="M172.152 468.578C174.812 468.578 176.859 469.382 178.294 470.992C179.729 472.567 180.447 474.807 180.447 477.712V479.55L180.237 479.97H166.429C166.429 481.685 167.077 483.277 168.372 484.747C169.597 485.972 171.504 486.585 174.094 486.585C175.809 486.585 177.437 486.322 178.977 485.797L179.607 488.318C177.472 489.053 175.319 489.42 173.149 489.42C169.894 489.42 167.409 488.545 165.694 486.795C163.979 485.045 163.122 482.543 163.122 479.288C163.122 476.208 163.874 473.67 165.379 471.675C166.989 469.61 169.247 468.578 172.152 468.578ZM176.982 477.24C176.982 475.49 176.597 474.055 175.827 472.935C175.092 471.815 173.989 471.255 172.519 471.255C170.664 471.255 169.247 471.815 168.267 472.935C167.287 474.055 166.692 475.49 166.482 477.24H176.982Z" fill="#FFF6F1"/>
<path d="M191.625 486.585C192.85 486.585 193.882 486.357 194.722 485.902C195.597 485.412 196.035 484.712 196.035 483.802C196.035 483.067 195.72 482.49 195.09 482.07C194.46 481.65 193.13 481.02 191.1 480.18L189.105 479.392C188.23 478.972 187.512 478.605 186.952 478.29C186.392 477.94 185.885 477.432 185.43 476.767C184.975 476.067 184.747 475.192 184.747 474.142C184.747 472.252 185.517 470.853 187.057 469.943C188.632 469.033 190.557 468.578 192.832 468.578C194.757 468.578 196.682 469.015 198.607 469.89L197.767 472.41C196.192 471.745 194.67 471.413 193.2 471.413C191.695 471.413 190.47 471.64 189.525 472.095C188.615 472.515 188.16 473.127 188.16 473.932C188.16 474.737 188.475 475.368 189.105 475.823C189.77 476.278 190.89 476.802 192.465 477.397L194.197 478.08C196.122 478.885 197.47 479.725 198.24 480.6C199.01 481.475 199.395 482.63 199.395 484.065C199.395 485.535 198.712 486.812 197.347 487.897C195.982 488.947 194.162 489.473 191.887 489.473C189.297 489.473 186.742 488.965 184.222 487.95L185.167 485.378C187.442 486.183 189.595 486.585 191.625 486.585Z" fill="#FFF6F1"/>
<path d="M211.643 489.42C209.613 489.42 208.161 488.878 207.286 487.793C206.446 486.673 206.026 484.993 206.026 482.753V471.675H202.613V468.84H206.026V463.905L209.438 463.642V468.84H216.053V471.675H209.438V482.543C209.438 483.943 209.648 484.957 210.068 485.587C210.523 486.217 211.381 486.533 212.641 486.533C213.831 486.533 214.898 486.427 215.843 486.217L216.421 488.527C214.846 489.122 213.253 489.42 211.643 489.42Z" fill="#FFF6F1"/>
<path d="M226.809 471.517C226.074 471.517 225.182 471.605 224.132 471.78C223.117 471.92 222.207 472.113 221.402 472.358L220.719 469.837C223.064 469.032 225.252 468.63 227.282 468.63C229.557 468.63 231.289 468.98 232.479 469.68C233.529 470.45 234.247 471.272 234.632 472.147C235.052 473.022 235.262 474.3 235.262 475.98V489H232.689L231.954 487.11C229.959 488.72 227.912 489.525 225.812 489.525C223.992 489.525 222.452 489 221.192 487.95C219.967 486.9 219.354 485.57 219.354 483.96C219.354 482.385 219.827 481.09 220.772 480.075C221.752 479.025 222.942 478.325 224.342 477.975C226.127 477.52 228.629 477.257 231.849 477.188V477.03C231.849 475.595 231.709 474.545 231.429 473.88C230.869 472.305 229.329 471.517 226.809 471.517ZM226.284 486.795C227.439 486.795 228.454 486.602 229.329 486.217C230.204 485.797 231.044 485.22 231.849 484.485V479.655C229.434 479.69 227.649 479.83 226.494 480.075C225.199 480.355 224.237 480.775 223.607 481.335C222.977 481.86 222.662 482.612 222.662 483.592C222.662 484.607 223.012 485.395 223.712 485.955C224.447 486.515 225.304 486.795 226.284 486.795Z" fill="#FFF6F1"/>
<path d="M244.343 481.807C244.343 483.522 244.675 484.748 245.34 485.483C246.005 486.218 247.143 486.585 248.753 486.585C250.398 486.585 252.235 486.113 254.265 485.168V468.84H257.678V489H255.315L254.58 487.53C252.025 488.86 249.663 489.525 247.493 489.525C245.393 489.525 243.765 488.913 242.61 487.688C241.49 486.463 240.93 484.782 240.93 482.647V468.84H244.343V481.807Z" fill="#FFF6F1"/>
<path d="M272.204 468.578C272.974 468.578 273.586 468.63 274.041 468.735C274.531 468.805 275.004 468.945 275.459 469.155L274.251 472.2C273.341 471.78 272.344 471.57 271.259 471.57C269.789 471.57 268.336 472.06 266.901 473.04V489H263.489V468.84H265.956L266.691 470.573C268.441 469.243 270.279 468.578 272.204 468.578Z" fill="#FFF6F1"/>
<path d="M285.38 471.517C284.645 471.517 283.752 471.605 282.702 471.78C281.687 471.92 280.777 472.113 279.972 472.358L279.29 469.837C281.635 469.032 283.822 468.63 285.852 468.63C288.127 468.63 289.86 468.98 291.05 469.68C292.1 470.45 292.817 471.272 293.202 472.147C293.622 473.022 293.832 474.3 293.832 475.98V489H291.26L290.525 487.11C288.53 488.72 286.482 489.525 284.382 489.525C282.562 489.525 281.022 489 279.762 487.95C278.537 486.9 277.925 485.57 277.925 483.96C277.925 482.385 278.397 481.09 279.342 480.075C280.322 479.025 281.512 478.325 282.912 477.975C284.697 477.52 287.2 477.257 290.42 477.188V477.03C290.42 475.595 290.28 474.545 290 473.88C289.44 472.305 287.9 471.517 285.38 471.517ZM284.855 486.795C286.01 486.795 287.025 486.602 287.9 486.217C288.775 485.797 289.615 485.22 290.42 484.485V479.655C288.005 479.69 286.22 479.83 285.065 480.075C283.77 480.355 282.807 480.775 282.177 481.335C281.547 481.86 281.232 482.612 281.232 483.592C281.232 484.607 281.582 485.395 282.282 485.955C283.017 486.515 283.875 486.795 284.855 486.795Z" fill="#FFF6F1"/>
<path d="M312.836 476.19C312.836 474.475 312.503 473.25 311.838 472.515C311.208 471.78 310.088 471.413 308.478 471.413C306.763 471.413 304.908 471.885 302.913 472.83V489H299.501V468.84H301.863L302.598 470.52C305.013 469.19 307.376 468.525 309.686 468.525C311.821 468.525 313.448 469.137 314.568 470.362C315.688 471.552 316.248 473.215 316.248 475.35V489H312.836V476.19Z" fill="#FFF6F1"/>
<path d="M328.866 489.42C326.836 489.42 325.384 488.878 324.509 487.793C323.669 486.673 323.249 484.993 323.249 482.753V471.675H319.836V468.84H323.249V463.905L326.661 463.642V468.84H333.276V471.675H326.661V482.543C326.661 483.943 326.871 484.957 327.291 485.587C327.746 486.217 328.604 486.533 329.864 486.533C331.054 486.533 332.121 486.427 333.066 486.217L333.644 488.527C332.069 489.122 330.476 489.42 328.866 489.42Z" fill="#FFF6F1"/>
<path d="M373.186 476.19C373.186 472.9 371.873 471.255 369.248 471.255C367.953 471.255 366.343 471.85 364.418 473.04C364.523 473.425 364.576 474.195 364.576 475.35V489H361.163V476.19C361.163 472.9 359.833 471.255 357.173 471.255C355.913 471.255 354.356 471.762 352.501 472.777V489H349.088V468.84H351.451L352.186 470.52C353.376 469.715 354.478 469.155 355.493 468.84C356.298 468.63 357.226 468.525 358.276 468.525C359.431 468.525 360.446 468.752 361.321 469.207C362.231 469.662 362.966 470.293 363.526 471.098C364.681 470.258 365.783 469.627 366.833 469.207C367.883 468.752 369.038 468.525 370.298 468.525C372.363 468.525 373.938 469.155 375.023 470.415C376.143 471.64 376.703 473.285 376.703 475.35V489H373.186V476.19Z" fill="#FFF6F1"/>
<path d="M391.108 489.473C388.063 489.473 385.683 488.528 383.968 486.638C382.288 484.748 381.448 482.21 381.448 479.025C381.448 475.805 382.306 473.268 384.021 471.413C385.771 469.523 388.186 468.578 391.266 468.578C394.346 468.578 396.726 469.505 398.406 471.36C400.086 473.215 400.926 475.753 400.926 478.973C400.926 482.123 400.051 484.66 398.301 486.585C396.551 488.51 394.153 489.473 391.108 489.473ZM391.266 471.255C389.271 471.255 387.713 471.99 386.593 473.46C385.508 474.93 384.966 476.785 384.966 479.025C384.966 481.265 385.508 483.103 386.593 484.538C387.713 485.973 389.271 486.69 391.266 486.69C393.226 486.69 394.748 485.973 395.833 484.538C396.918 483.068 397.461 481.23 397.461 479.025C397.461 476.785 396.901 474.93 395.781 473.46C394.696 471.99 393.191 471.255 391.266 471.255Z" fill="#FFF6F1"/>
<path d="M414.254 489.42C411.244 489.42 408.934 488.493 407.324 486.638C405.714 484.748 404.909 482.245 404.909 479.13C404.909 475.7 405.872 473.023 407.797 471.098C409.652 469.313 411.962 468.42 414.727 468.42C416.582 468.42 418.157 468.735 419.452 469.365V461.07H423.022V489H420.502L419.924 487.582C418.034 488.807 416.144 489.42 414.254 489.42ZM414.937 486.533C415.882 486.533 416.669 486.445 417.299 486.27C417.964 486.06 418.682 485.745 419.452 485.325V471.99C418.157 471.465 416.669 471.203 414.989 471.203C412.819 471.203 411.174 471.902 410.054 473.302C408.969 474.702 408.427 476.575 408.427 478.92C408.427 481.23 408.969 483.085 410.054 484.485C411.174 485.85 412.802 486.533 414.937 486.533Z" fill="#FFF6F1"/>
<path d="M435.835 489.42C433.805 489.42 432.352 488.878 431.477 487.793C430.637 486.673 430.217 484.993 430.217 482.753V471.675H426.805V468.84H430.217V463.905L433.63 463.642V468.84H440.245V471.675H433.63V482.543C433.63 483.943 433.84 484.957 434.26 485.587C434.715 486.217 435.572 486.533 436.832 486.533C438.022 486.533 439.09 486.427 440.035 486.217L440.612 488.527C439.037 489.122 437.445 489.42 435.835 489.42Z" fill="#FFF6F1"/>
<path d="M451.001 471.517C450.266 471.517 449.373 471.605 448.323 471.78C447.308 471.92 446.398 472.113 445.593 472.358L444.911 469.837C447.256 469.032 449.443 468.63 451.473 468.63C453.748 468.63 455.481 468.98 456.671 469.68C457.721 470.45 458.438 471.272 458.823 472.147C459.243 473.022 459.453 474.3 459.453 475.98V489H456.881L456.146 487.11C454.151 488.72 452.103 489.525 450.003 489.525C448.183 489.525 446.643 489 445.383 487.95C444.158 486.9 443.546 485.57 443.546 483.96C443.546 482.385 444.018 481.09 444.963 480.075C445.943 479.025 447.133 478.325 448.533 477.975C450.318 477.52 452.821 477.257 456.041 477.188V477.03C456.041 475.595 455.901 474.545 455.621 473.88C455.061 472.305 453.521 471.517 451.001 471.517ZM450.476 486.795C451.631 486.795 452.646 486.602 453.521 486.217C454.396 485.797 455.236 485.22 456.041 484.485V479.655C453.626 479.69 451.841 479.83 450.686 480.075C449.391 480.355 448.428 480.775 447.798 481.335C447.168 481.86 446.853 482.612 446.853 483.592C446.853 484.607 447.203 485.395 447.903 485.955C448.638 486.515 449.496 486.795 450.476 486.795Z" fill="#FFF6F1"/>
<path d="M478.719 488.055C476.969 488.965 475.202 489.42 473.417 489.42C470.197 489.42 467.729 488.178 466.014 485.693C464.789 483.873 464.177 481.738 464.177 479.288C464.177 476.803 464.702 474.702 465.752 472.987C466.837 471.237 468.324 469.977 470.214 469.207C471.089 468.787 472.227 468.578 473.627 468.578C475.272 468.578 476.847 468.928 478.352 469.628L479.349 470.1L479.717 468.84H482.184V489.945C482.184 491.8 481.974 493.288 481.554 494.408C481.134 495.528 480.417 496.56 479.402 497.505C478.562 498.31 477.512 498.922 476.252 499.342C475.027 499.797 473.644 500.025 472.104 500.025C471.124 500.025 470.057 499.903 468.902 499.658C467.782 499.413 466.802 499.097 465.962 498.712L466.854 496.297C468.849 496.997 470.442 497.348 471.632 497.348C473.732 497.348 475.377 496.84 476.567 495.825C477.757 494.81 478.457 493.375 478.667 491.52C478.702 491.135 478.719 490.155 478.719 488.58V488.055ZM474.204 486.638C475.954 486.638 477.459 486.27 478.719 485.535V472.358C477.144 471.658 475.587 471.307 474.047 471.307C471.947 471.307 470.354 471.99 469.269 473.355C468.184 474.72 467.642 476.54 467.642 478.815C467.642 480.46 467.957 481.912 468.587 483.172C469.217 484.432 470.074 485.342 471.159 485.902C472.034 486.392 473.049 486.638 474.204 486.638Z" fill="#FFF6F1"/>
<path d="M496.257 468.578C498.917 468.578 500.965 469.382 502.4 470.992C503.835 472.567 504.552 474.807 504.552 477.712V479.55L504.342 479.97H490.535C490.535 481.685 491.182 483.277 492.477 484.747C493.702 485.972 495.61 486.585 498.2 486.585C499.915 486.585 501.542 486.322 503.082 485.797L503.712 488.318C501.577 489.053 499.425 489.42 497.255 489.42C494 489.42 491.515 488.545 489.8 486.795C488.085 485.045 487.227 482.543 487.227 479.288C487.227 476.208 487.98 473.67 489.485 471.675C491.095 469.61 493.352 468.578 496.257 468.578ZM501.087 477.24C501.087 475.49 500.702 474.055 499.932 472.935C499.197 471.815 498.095 471.255 496.625 471.255C494.77 471.255 493.352 471.815 492.372 472.935C491.392 474.055 490.797 475.49 490.587 477.24H501.087Z" fill="#FFF6F1"/>
<path d="M518.093 468.578C518.863 468.578 519.475 468.63 519.93 468.735C520.42 468.805 520.892 468.945 521.347 469.155L520.14 472.2C519.23 471.78 518.233 471.57 517.148 471.57C515.678 471.57 514.225 472.06 512.79 473.04V489H509.378V468.84H511.845L512.58 470.573C514.33 469.243 516.168 468.578 518.093 468.578Z" fill="#FFF6F1"/>
<path d="M544.41 468.578C547.07 468.578 549.117 469.382 550.552 470.992C551.987 472.567 552.705 474.807 552.705 477.712V479.55L552.495 479.97H538.687C538.687 481.685 539.335 483.277 540.63 484.747C541.855 485.972 543.762 486.585 546.352 486.585C548.067 486.585 549.695 486.322 551.235 485.797L551.865 488.318C549.73 489.053 547.577 489.42 545.407 489.42C542.152 489.42 539.667 488.545 537.952 486.795C536.237 485.045 535.38 482.543 535.38 479.288C535.38 476.208 536.132 473.67 537.637 471.675C539.247 469.61 541.505 468.578 544.41 468.578ZM549.24 477.24C549.24 475.49 548.855 474.055 548.085 472.935C547.35 471.815 546.247 471.255 544.777 471.255C542.922 471.255 541.505 471.815 540.525 472.935C539.545 474.055 538.95 475.49 538.74 477.24H549.24Z" fill="#FFF6F1"/>
<path d="M570.865 476.19C570.865 474.475 570.532 473.25 569.867 472.515C569.237 471.78 568.117 471.413 566.507 471.413C564.792 471.413 562.937 471.885 560.942 472.83V489H557.53V468.84H559.892L560.627 470.52C563.042 469.19 565.405 468.525 567.715 468.525C569.85 468.525 571.477 469.137 572.597 470.362C573.717 471.552 574.277 473.215 574.277 475.35V489H570.865V476.19Z" fill="#FFF6F1"/>
<path d="M608.909 460.125V463.065H595.574V472.568H607.702V475.56H595.574V489H592.109V460.125H608.909Z" fill="#FFF6F1"/>
<path d="M622.518 489.473C619.473 489.473 617.093 488.528 615.378 486.638C613.698 484.748 612.858 482.21 612.858 479.025C612.858 475.805 613.716 473.268 615.431 471.413C617.181 469.523 619.596 468.578 622.676 468.578C625.756 468.578 628.136 469.505 629.816 471.36C631.496 473.215 632.336 475.753 632.336 478.973C632.336 482.123 631.461 484.66 629.711 486.585C627.961 488.51 625.563 489.473 622.518 489.473ZM622.676 471.255C620.681 471.255 619.123 471.99 618.003 473.46C616.918 474.93 616.376 476.785 616.376 479.025C616.376 481.265 616.918 483.103 618.003 484.538C619.123 485.973 620.681 486.69 622.676 486.69C624.636 486.69 626.158 485.973 627.243 484.538C628.328 483.068 628.871 481.23 628.871 479.025C628.871 476.785 628.311 474.93 627.191 473.46C626.106 471.99 624.601 471.255 622.676 471.255Z" fill="#FFF6F1"/>
<path d="M645.979 489.473C642.934 489.473 640.554 488.528 638.839 486.638C637.159 484.748 636.319 482.21 636.319 479.025C636.319 475.805 637.177 473.268 638.892 471.413C640.642 469.523 643.057 468.578 646.137 468.578C649.217 468.578 651.597 469.505 653.277 471.36C654.957 473.215 655.797 475.753 655.797 478.973C655.797 482.123 654.922 484.66 653.172 486.585C651.422 488.51 649.024 489.473 645.979 489.473ZM646.137 471.255C644.142 471.255 642.584 471.99 641.464 473.46C640.379 474.93 639.837 476.785 639.837 479.025C639.837 481.265 640.379 483.103 641.464 484.538C642.584 485.973 644.142 486.69 646.137 486.69C648.097 486.69 649.619 485.973 650.704 484.538C651.789 483.068 652.332 481.23 652.332 479.025C652.332 476.785 651.772 474.93 650.652 473.46C649.567 471.99 648.062 471.255 646.137 471.255Z" fill="#FFF6F1"/>
<path d="M669.125 489.42C666.115 489.42 663.805 488.493 662.195 486.638C660.585 484.748 659.78 482.245 659.78 479.13C659.78 475.7 660.743 473.023 662.668 471.098C664.523 469.313 666.833 468.42 669.598 468.42C671.453 468.42 673.028 468.735 674.323 469.365V461.07H677.893V489H675.373L674.795 487.582C672.905 488.807 671.015 489.42 669.125 489.42ZM669.808 486.533C670.753 486.533 671.54 486.445 672.17 486.27C672.835 486.06 673.553 485.745 674.323 485.325V471.99C673.028 471.465 671.54 471.203 669.86 471.203C667.69 471.203 666.045 471.902 664.925 473.302C663.84 474.702 663.298 476.575 663.298 478.92C663.298 481.23 663.84 483.085 664.925 484.485C666.045 485.85 667.673 486.533 669.808 486.533Z" fill="#FFF6F1"/>
<path d="M701.521 470.573C700.856 471.693 699.928 472.55 698.738 473.145C700.488 473.425 701.941 474.195 703.096 475.455C704.321 476.855 704.933 478.448 704.933 480.233C704.933 481.388 704.741 482.507 704.356 483.592C703.971 484.677 703.341 485.605 702.466 486.375C701.486 487.215 700.243 487.863 698.738 488.318C697.233 488.773 695.571 489 693.751 489H684.353V460.125H694.538C697.128 460.125 699.106 460.737 700.471 461.962C701.836 463.152 702.518 464.833 702.518 467.003C702.518 468.263 702.186 469.453 701.521 470.573ZM691.703 472.147C696.708 472.147 699.211 470.502 699.211 467.212C699.211 465.742 698.703 464.693 697.688 464.062C696.708 463.433 695.273 463.117 693.383 463.117H687.818V472.147H691.703ZM699.316 484.695C700.751 483.785 701.468 482.402 701.468 480.547C701.468 478.412 700.523 476.908 698.633 476.033C697.198 475.368 695.273 475.035 692.858 475.035H687.818V485.955H694.276C696.411 485.955 698.091 485.535 699.316 484.695Z" fill="#FFF6F1"/>
<path d="M718.618 489.473C715.573 489.473 713.193 488.528 711.478 486.638C709.798 484.748 708.958 482.21 708.958 479.025C708.958 475.805 709.815 473.268 711.53 471.413C713.28 469.523 715.695 468.578 718.775 468.578C721.855 468.578 724.235 469.505 725.915 471.36C727.595 473.215 728.435 475.753 728.435 478.973C728.435 482.123 727.56 484.66 725.81 486.585C724.06 488.51 721.663 489.473 718.618 489.473ZM718.775 471.255C716.78 471.255 715.223 471.99 714.103 473.46C713.018 474.93 712.475 476.785 712.475 479.025C712.475 481.265 713.018 483.103 714.103 484.538C715.223 485.973 716.78 486.69 718.775 486.69C720.735 486.69 722.258 485.973 723.343 484.538C724.428 483.068 724.97 481.23 724.97 479.025C724.97 476.785 724.41 474.93 723.29 473.46C722.205 471.99 720.7 471.255 718.775 471.255Z" fill="#FFF6F1"/>
<path d="M736.986 489H733.574V461.07H736.986V489ZM741.396 477.87L750.636 489H746.436L737.354 477.87L746.174 468.84H750.164L741.396 477.87Z" fill="#FFF6F1"/>
<path d="M760.716 486.585C761.941 486.585 762.974 486.357 763.814 485.902C764.689 485.412 765.126 484.712 765.126 483.802C765.126 483.067 764.811 482.49 764.181 482.07C763.551 481.65 762.221 481.02 760.191 480.18L758.196 479.392C757.321 478.972 756.604 478.605 756.044 478.29C755.484 477.94 754.976 477.432 754.521 476.767C754.066 476.067 753.839 475.192 753.839 474.142C753.839 472.252 754.609 470.853 756.149 469.943C757.724 469.033 759.649 468.578 761.924 468.578C763.849 468.578 765.774 469.015 767.699 469.89L766.859 472.41C765.284 471.745 763.761 471.413 762.291 471.413C760.786 471.413 759.561 471.64 758.616 472.095C757.706 472.515 757.251 473.127 757.251 473.932C757.251 474.737 757.566 475.368 758.196 475.823C758.861 476.278 759.981 476.802 761.556 477.397L763.289 478.08C765.214 478.885 766.561 479.725 767.331 480.6C768.101 481.475 768.486 482.63 768.486 484.065C768.486 485.535 767.804 486.812 766.439 487.897C765.074 488.947 763.254 489.473 760.979 489.473C758.389 489.473 755.834 488.965 753.314 487.95L754.259 485.378C756.534 486.183 758.686 486.585 760.716 486.585Z" fill="#FFF6F1"/>
<path d="M794.087 489.473C791.042 489.473 788.662 488.528 786.947 486.638C785.267 484.748 784.427 482.21 784.427 479.025C784.427 475.805 785.284 473.268 786.999 471.413C788.749 469.523 791.164 468.578 794.244 468.578C797.324 468.578 799.704 469.505 801.384 471.36C803.064 473.215 803.904 475.753 803.904 478.973C803.904 482.123 803.029 484.66 801.279 486.585C799.529 488.51 797.132 489.473 794.087 489.473ZM794.244 471.255C792.249 471.255 790.692 471.99 789.572 473.46C788.487 474.93 787.944 476.785 787.944 479.025C787.944 481.265 788.487 483.103 789.572 484.538C790.692 485.973 792.249 486.69 794.244 486.69C796.204 486.69 797.727 485.973 798.812 484.538C799.897 483.068 800.439 481.23 800.439 479.025C800.439 476.785 799.879 474.93 798.759 473.46C797.674 471.99 796.169 471.255 794.244 471.255Z" fill="#FFF6F1"/>
<path d="M822.43 488.055C820.68 488.965 818.913 489.42 817.128 489.42C813.908 489.42 811.44 488.178 809.725 485.693C808.5 483.873 807.888 481.738 807.888 479.288C807.888 476.803 808.413 474.702 809.463 472.987C810.548 471.237 812.035 469.977 813.925 469.207C814.8 468.787 815.938 468.578 817.338 468.578C818.983 468.578 820.558 468.928 822.063 469.628L823.06 470.1L823.428 468.84H825.895V489.945C825.895 491.8 825.685 493.288 825.265 494.408C824.845 495.528 824.128 496.56 823.113 497.505C822.273 498.31 821.223 498.922 819.963 499.342C818.738 499.797 817.355 500.025 815.815 500.025C814.835 500.025 813.768 499.903 812.613 499.658C811.493 499.413 810.513 499.097 809.673 498.712L810.565 496.297C812.56 496.997 814.153 497.348 815.343 497.348C817.443 497.348 819.088 496.84 820.278 495.825C821.468 494.81 822.168 493.375 822.378 491.52C822.413 491.135 822.43 490.155 822.43 488.58V488.055ZM817.915 486.638C819.665 486.638 821.17 486.27 822.43 485.535V472.358C820.855 471.658 819.298 471.307 817.758 471.307C815.658 471.307 814.065 471.99 812.98 473.355C811.895 474.72 811.353 476.54 811.353 478.815C811.353 480.46 811.668 481.912 812.298 483.172C812.928 484.432 813.785 485.342 814.87 485.902C815.745 486.392 816.76 486.638 817.915 486.638Z" fill="#FFF6F1"/>
<path d="M192.876 537.585C194.101 537.585 195.133 537.358 195.973 536.903C196.848 536.413 197.286 535.712 197.286 534.802C197.286 534.067 196.971 533.49 196.34 533.07C195.711 532.65 194.381 532.02 192.351 531.18L190.356 530.393C189.481 529.973 188.763 529.605 188.203 529.29C187.643 528.94 187.136 528.433 186.681 527.768C186.226 527.068 185.998 526.193 185.998 525.143C185.998 523.253 186.768 521.853 188.308 520.943C189.883 520.033 191.808 519.578 194.083 519.578C196.008 519.578 197.933 520.015 199.858 520.89L199.018 523.41C197.443 522.745 195.921 522.412 194.451 522.412C192.946 522.412 191.721 522.64 190.776 523.095C189.866 523.515 189.411 524.127 189.411 524.932C189.411 525.737 189.726 526.368 190.356 526.823C191.021 527.278 192.141 527.803 193.716 528.398L195.448 529.08C197.373 529.885 198.721 530.725 199.491 531.6C200.261 532.475 200.646 533.63 200.646 535.065C200.646 536.535 199.963 537.813 198.598 538.898C197.233 539.948 195.413 540.472 193.138 540.472C190.548 540.472 187.993 539.965 185.473 538.95L186.418 536.378C188.693 537.183 190.846 537.585 192.876 537.585Z" fill="#FFF6F1"/>
<path d="M225.967 519.578C228.592 519.578 230.622 520.382 232.057 521.992C233.492 523.567 234.209 525.808 234.209 528.713V530.55L233.947 530.97H220.612C220.612 532.685 221.259 534.277 222.554 535.747C223.184 536.377 223.919 536.85 224.759 537.165C225.599 537.445 226.649 537.585 227.909 537.585C229.589 537.585 231.217 537.322 232.792 536.797L233.422 539.318C231.217 540.053 229.064 540.42 226.964 540.42C223.219 540.42 220.629 539.265 219.194 536.955C217.409 539.335 214.837 540.525 211.477 540.525C209.657 540.525 208.117 540 206.857 538.95C205.632 537.9 205.019 536.57 205.019 534.96C205.019 533.385 205.474 532.108 206.384 531.128C207.329 530.113 208.502 529.43 209.902 529.08C212.177 528.485 214.714 528.188 217.514 528.188V528.03C217.514 526.595 217.374 525.545 217.094 524.88C216.534 523.305 214.994 522.518 212.474 522.518C211.739 522.518 210.847 522.605 209.797 522.78C208.782 522.92 207.872 523.112 207.067 523.357L206.384 520.838C208.729 520.033 210.917 519.63 212.947 519.63C215.222 519.63 216.954 519.98 218.144 520.68C218.949 521.275 219.492 521.888 219.772 522.518C220.647 521.503 221.557 520.768 222.502 520.312C223.482 519.823 224.637 519.578 225.967 519.578ZM230.797 528.24C230.797 526.49 230.412 525.055 229.642 523.935C228.907 522.815 227.787 522.255 226.282 522.255C223.062 522.255 221.189 524.25 220.664 528.24H230.797ZM211.949 537.795C213.104 537.795 214.119 537.603 214.994 537.218C215.869 536.798 216.709 536.22 217.514 535.485V530.655C215.659 530.69 214.154 530.76 212.999 530.865C211.844 530.97 210.777 531.32 209.797 531.915C208.817 532.475 208.327 533.368 208.327 534.593C208.327 535.573 208.624 536.36 209.219 536.955C209.814 537.515 210.724 537.795 211.949 537.795Z" fill="#FFF6F1"/>
<path d="M245.912 540.42C243.882 540.42 242.429 539.877 241.554 538.792C240.714 537.672 240.294 535.993 240.294 533.753V522.675H236.882V519.84H240.294V514.905L243.707 514.643V519.84H250.322V522.675H243.707V533.542C243.707 534.942 243.917 535.958 244.337 536.588C244.792 537.218 245.649 537.532 246.909 537.532C248.099 537.532 249.167 537.428 250.112 537.218L250.689 539.528C249.114 540.123 247.522 540.42 245.912 540.42Z" fill="#FFF6F1"/>
<path d="M261.498 540.42C259.468 540.42 258.015 539.877 257.14 538.792C256.3 537.672 255.88 535.993 255.88 533.753V522.675H252.468V519.84H255.88V514.905L259.293 514.643V519.84H265.908V522.675H259.293V533.542C259.293 534.942 259.503 535.958 259.923 536.588C260.378 537.218 261.235 537.532 262.495 537.532C263.685 537.532 264.753 537.428 265.698 537.218L266.275 539.528C264.7 540.123 263.108 540.42 261.498 540.42Z" fill="#FFF6F1"/>
<path d="M278.239 519.578C280.899 519.578 282.946 520.382 284.381 521.992C285.816 523.567 286.534 525.808 286.534 528.713V530.55L286.324 530.97H272.516C272.516 532.685 273.164 534.277 274.459 535.747C275.684 536.972 277.591 537.585 280.181 537.585C281.896 537.585 283.524 537.322 285.064 536.797L285.694 539.318C283.559 540.053 281.406 540.42 279.236 540.42C275.981 540.42 273.496 539.545 271.781 537.795C270.066 536.045 269.209 533.542 269.209 530.287C269.209 527.207 269.961 524.67 271.466 522.675C273.076 520.61 275.334 519.578 278.239 519.578ZM283.069 528.24C283.069 526.49 282.684 525.055 281.914 523.935C281.179 522.815 280.076 522.255 278.606 522.255C276.751 522.255 275.334 522.815 274.354 523.935C273.374 525.055 272.779 526.49 272.569 528.24H283.069Z" fill="#FFF6F1"/>
<path d="M300.074 519.578C300.844 519.578 301.456 519.63 301.911 519.735C302.401 519.805 302.874 519.945 303.329 520.155L302.121 523.2C301.211 522.78 300.214 522.57 299.129 522.57C297.659 522.57 296.206 523.06 294.771 524.04V540H291.359V519.84H293.826L294.561 521.573C296.311 520.243 298.149 519.578 300.074 519.578Z" fill="#FFF6F1"/>
<path d="M326.706 540.42C323.696 540.42 321.386 539.493 319.776 537.638C318.166 535.748 317.361 533.245 317.361 530.13C317.361 526.7 318.324 524.022 320.249 522.097C322.104 520.312 324.414 519.42 327.179 519.42C329.034 519.42 330.609 519.735 331.904 520.365V512.07H335.474V540H332.954L332.376 538.583C330.486 539.808 328.596 540.42 326.706 540.42ZM327.389 537.532C328.334 537.532 329.121 537.445 329.751 537.27C330.416 537.06 331.134 536.745 331.904 536.325V522.99C330.609 522.465 329.121 522.203 327.441 522.203C325.271 522.203 323.626 522.902 322.506 524.302C321.421 525.702 320.879 527.575 320.879 529.92C320.879 532.23 321.421 534.085 322.506 535.485C323.626 536.85 325.254 537.532 327.389 537.532Z" fill="#FFF6F1"/>
<path d="M349.442 519.578C352.102 519.578 354.15 520.382 355.585 521.992C357.02 523.567 357.737 525.808 357.737 528.713V530.55L357.527 530.97H343.719C343.719 532.685 344.367 534.277 345.662 535.747C346.887 536.972 348.794 537.585 351.384 537.585C353.099 537.585 354.727 537.322 356.267 536.797L356.897 539.318C354.762 540.053 352.609 540.42 350.439 540.42C347.184 540.42 344.699 539.545 342.984 537.795C341.269 536.045 340.412 533.542 340.412 530.287C340.412 527.207 341.164 524.67 342.669 522.675C344.279 520.61 346.537 519.578 349.442 519.578ZM354.272 528.24C354.272 526.49 353.887 525.055 353.117 523.935C352.382 522.815 351.279 522.255 349.809 522.255C347.954 522.255 346.537 522.815 345.557 523.935C344.577 525.055 343.982 526.49 343.772 528.24H354.272Z" fill="#FFF6F1"/>
<path d="M375.897 527.19C375.897 525.475 375.565 524.25 374.9 523.515C374.27 522.78 373.15 522.412 371.54 522.412C369.825 522.412 367.97 522.885 365.975 523.83V540H362.562V519.84H364.925L365.66 521.52C368.075 520.19 370.437 519.525 372.747 519.525C374.882 519.525 376.51 520.137 377.63 521.362C378.75 522.552 379.31 524.215 379.31 526.35V540H375.897V527.19Z" fill="#FFF6F1"/>
<path d="M405.279 540.472C402.234 540.472 399.854 539.528 398.139 537.638C396.459 535.748 395.619 533.21 395.619 530.025C395.619 526.805 396.477 524.267 398.192 522.412C399.942 520.522 402.357 519.578 405.437 519.578C408.517 519.578 410.897 520.505 412.577 522.36C414.257 524.215 415.097 526.752 415.097 529.972C415.097 533.122 414.222 535.66 412.472 537.585C410.722 539.51 408.324 540.472 405.279 540.472ZM405.437 522.255C403.442 522.255 401.884 522.99 400.764 524.46C399.679 525.93 399.137 527.785 399.137 530.025C399.137 532.265 399.679 534.102 400.764 535.537C401.884 536.972 403.442 537.69 405.437 537.69C407.397 537.69 408.919 536.972 410.004 535.537C411.089 534.067 411.632 532.23 411.632 530.025C411.632 527.785 411.072 525.93 409.952 524.46C408.867 522.99 407.362 522.255 405.437 522.255Z" fill="#FFF6F1"/>
<path d="M420.13 519.84H422.545L423.227 521.362C424.942 520.172 426.832 519.578 428.897 519.578C430.857 519.578 432.52 519.998 433.885 520.838C436.79 522.658 438.242 525.615 438.242 529.71C438.242 533.21 437.262 535.905 435.302 537.795C433.377 539.615 431.085 540.525 428.425 540.525C426.71 540.525 425.082 540.193 423.542 539.528V550.92H420.13V519.84ZM428.057 522.412C427.077 522.412 426.255 522.5 425.59 522.675C424.96 522.85 424.277 523.165 423.542 523.62V536.85C424.907 537.48 426.395 537.795 428.005 537.795C430.105 537.795 431.732 537.078 432.887 535.643C434.042 534.208 434.62 532.353 434.62 530.078C434.62 527.733 434.06 525.878 432.94 524.513C431.82 523.113 430.192 522.412 428.057 522.412Z" fill="#FFF6F1"/>
<path d="M460.406 540L452.898 519.84H456.573L462.138 535.643L462.348 536.693L462.506 535.643L468.123 519.84H471.641L464.186 540H460.406Z" fill="#FFF6F1"/>
<path d="M483.809 519.578C486.469 519.578 488.517 520.382 489.952 521.992C491.387 523.567 492.104 525.808 492.104 528.713V530.55L491.894 530.97H478.087C478.087 532.685 478.734 534.277 480.029 535.747C481.254 536.972 483.162 537.585 485.752 537.585C487.467 537.585 489.094 537.322 490.634 536.797L491.264 539.318C489.129 540.053 486.977 540.42 484.807 540.42C481.552 540.42 479.067 539.545 477.352 537.795C475.637 536.045 474.779 533.542 474.779 530.287C474.779 527.207 475.532 524.67 477.037 522.675C478.647 520.61 480.904 519.578 483.809 519.578ZM488.639 528.24C488.639 526.49 488.254 525.055 487.484 523.935C486.749 522.815 485.647 522.255 484.177 522.255C482.322 522.255 480.904 522.815 479.924 523.935C478.944 525.055 478.349 526.49 478.139 528.24H488.639Z" fill="#FFF6F1"/>
<path d="M505.329 540.42C502.319 540.42 500.009 539.493 498.399 537.638C496.789 535.748 495.984 533.245 495.984 530.13C495.984 526.7 496.947 524.022 498.872 522.097C500.727 520.312 503.037 519.42 505.802 519.42C507.657 519.42 509.232 519.735 510.527 520.365V512.07H514.097V540H511.577L510.999 538.583C509.109 539.808 507.219 540.42 505.329 540.42ZM506.012 537.532C506.957 537.532 507.744 537.445 508.374 537.27C509.039 537.06 509.757 536.745 510.527 536.325V522.99C509.232 522.465 507.744 522.203 506.064 522.203C503.894 522.203 502.249 522.902 501.129 524.302C500.044 525.702 499.502 527.575 499.502 529.92C499.502 532.23 500.044 534.085 501.129 535.485C502.249 536.85 503.877 537.532 506.012 537.532Z" fill="#FFF6F1"/>
<path d="M533.384 515.955C532.754 515.955 532.229 515.745 531.809 515.325C531.389 514.87 531.179 514.345 531.179 513.75C531.179 513.19 531.389 512.7 531.809 512.28C532.229 511.825 532.754 511.598 533.384 511.598C533.979 511.598 534.486 511.825 534.906 512.28C535.326 512.7 535.536 513.19 535.536 513.75C535.536 514.345 535.326 514.87 534.906 515.325C534.521 515.745 534.014 515.955 533.384 515.955ZM535.064 540H531.651V519.84H535.064V540Z" fill="#FFF6F1"/>
<path d="M554.397 527.19C554.397 525.475 554.065 524.25 553.4 523.515C552.77 522.78 551.65 522.412 550.04 522.412C548.325 522.412 546.47 522.885 544.475 523.83V540H541.062V519.84H543.425L544.16 521.52C546.575 520.19 548.937 519.525 551.247 519.525C553.382 519.525 555.01 520.137 556.13 521.362C557.25 522.552 557.81 524.215 557.81 526.35V540H554.397V527.19Z" fill="#FFF6F1"/>
<path d="M571.898 540.42C568.888 540.42 566.578 539.493 564.968 537.638C563.358 535.748 562.553 533.245 562.553 530.13C562.553 526.7 563.515 524.022 565.44 522.097C567.295 520.312 569.605 519.42 572.37 519.42C574.225 519.42 575.8 519.735 577.095 520.365V512.07H580.665V540H578.145L577.568 538.583C575.678 539.808 573.788 540.42 571.898 540.42ZM572.58 537.532C573.525 537.532 574.313 537.445 574.943 537.27C575.608 537.06 576.325 536.745 577.095 536.325V522.99C575.8 522.465 574.313 522.203 572.633 522.203C570.463 522.203 568.818 522.902 567.698 524.302C566.613 525.702 566.07 527.575 566.07 529.92C566.07 532.23 566.613 534.085 567.698 535.485C568.818 536.85 570.445 537.532 572.58 537.532Z" fill="#FFF6F1"/>
<path d="M600.146 539.055C598.396 539.965 596.628 540.42 594.843 540.42C591.623 540.42 589.156 539.178 587.441 536.693C586.216 534.873 585.603 532.737 585.603 530.287C585.603 527.802 586.128 525.702 587.178 523.987C588.263 522.237 589.751 520.978 591.641 520.208C592.516 519.788 593.653 519.578 595.053 519.578C596.698 519.578 598.273 519.928 599.778 520.628L600.776 521.1L601.143 519.84H603.611V540.945C603.611 542.8 603.401 544.287 602.981 545.407C602.561 546.527 601.843 547.56 600.828 548.505C599.988 549.31 598.938 549.923 597.678 550.343C596.453 550.798 595.071 551.025 593.531 551.025C592.551 551.025 591.483 550.902 590.328 550.657C589.208 550.412 588.228 550.098 587.388 549.713L588.281 547.297C590.276 547.997 591.868 548.347 593.058 548.347C595.158 548.347 596.803 547.84 597.993 546.825C599.183 545.81 599.883 544.375 600.093 542.52C600.128 542.135 600.146 541.155 600.146 539.58V539.055ZM595.631 537.638C597.381 537.638 598.886 537.27 600.146 536.535V523.357C598.571 522.657 597.013 522.307 595.473 522.307C593.373 522.307 591.781 522.99 590.696 524.355C589.611 525.72 589.068 527.54 589.068 529.815C589.068 531.46 589.383 532.912 590.013 534.172C590.643 535.432 591.501 536.343 592.586 536.903C593.461 537.393 594.476 537.638 595.631 537.638Z" fill="#FFF6F1"/>
<path d="M616.109 522.518C615.374 522.518 614.482 522.605 613.432 522.78C612.417 522.92 611.507 523.112 610.702 523.357L610.019 520.838C612.364 520.033 614.552 519.63 616.582 519.63C618.857 519.63 620.589 519.98 621.779 520.68C622.829 521.45 623.547 522.273 623.932 523.148C624.352 524.023 624.562 525.3 624.562 526.98V540H621.989L621.254 538.11C619.259 539.72 617.212 540.525 615.112 540.525C613.292 540.525 611.752 540 610.492 538.95C609.267 537.9 608.654 536.57 608.654 534.96C608.654 533.385 609.127 532.09 610.072 531.075C611.052 530.025 612.242 529.325 613.642 528.975C615.427 528.52 617.929 528.257 621.149 528.188V528.03C621.149 526.595 621.009 525.545 620.729 524.88C620.169 523.305 618.629 522.518 616.109 522.518ZM615.584 537.795C616.739 537.795 617.754 537.603 618.629 537.218C619.504 536.798 620.344 536.22 621.149 535.485V530.655C618.734 530.69 616.949 530.83 615.794 531.075C614.499 531.355 613.537 531.775 612.907 532.335C612.277 532.86 611.962 533.613 611.962 534.593C611.962 535.608 612.312 536.395 613.012 536.955C613.747 537.515 614.604 537.795 615.584 537.795Z" fill="#FFF6F1"/>
<path d="M643.565 527.19C643.565 525.475 643.233 524.25 642.568 523.515C641.938 522.78 640.818 522.412 639.208 522.412C637.493 522.412 635.638 522.885 633.643 523.83V540H630.23V519.84H632.593L633.328 521.52C635.743 520.19 638.105 519.525 640.415 519.525C642.55 519.525 644.178 520.137 645.298 521.362C646.418 522.552 646.978 524.215 646.978 526.35V540H643.565V527.19Z" fill="#FFF6F1"/>
<path d="M666.263 539.055C664.513 539.965 662.746 540.42 660.961 540.42C657.741 540.42 655.273 539.178 653.558 536.693C652.333 534.873 651.721 532.737 651.721 530.287C651.721 527.802 652.246 525.702 653.296 523.987C654.381 522.237 655.868 520.978 657.758 520.208C658.633 519.788 659.771 519.578 661.171 519.578C662.816 519.578 664.391 519.928 665.896 520.628L666.893 521.1L667.261 519.84H669.728V540.945C669.728 542.8 669.518 544.287 669.098 545.407C668.678 546.527 667.961 547.56 666.946 548.505C666.106 549.31 665.056 549.923 663.796 550.343C662.571 550.798 661.188 551.025 659.648 551.025C658.668 551.025 657.601 550.902 656.446 550.657C655.326 550.412 654.346 550.098 653.506 549.713L654.398 547.297C656.393 547.997 657.986 548.347 659.176 548.347C661.276 548.347 662.921 547.84 664.111 546.825C665.301 545.81 666.001 544.375 666.211 542.52C666.246 542.135 666.263 541.155 666.263 539.58V539.055ZM661.748 537.638C663.498 537.638 665.003 537.27 666.263 536.535V523.357C664.688 522.657 663.131 522.307 661.591 522.307C659.491 522.307 657.898 522.99 656.813 524.355C655.728 525.72 655.186 527.54 655.186 529.815C655.186 531.46 655.501 532.912 656.131 534.172C656.761 535.432 657.618 536.343 658.703 536.903C659.578 537.393 660.593 537.638 661.748 537.638Z" fill="#FFF6F1"/>
<path d="M683.801 519.578C686.461 519.578 688.509 520.382 689.944 521.992C691.379 523.567 692.096 525.808 692.096 528.713V530.55L691.886 530.97H678.079C678.079 532.685 678.726 534.277 680.021 535.747C681.246 536.972 683.154 537.585 685.744 537.585C687.459 537.585 689.086 537.322 690.626 536.797L691.256 539.318C689.121 540.053 686.969 540.42 684.799 540.42C681.544 540.42 679.059 539.545 677.344 537.795C675.629 536.045 674.771 533.542 674.771 530.287C674.771 527.207 675.524 524.67 677.029 522.675C678.639 520.61 680.896 519.578 683.801 519.578ZM688.631 528.24C688.631 526.49 688.246 525.055 687.476 523.935C686.741 522.815 685.639 522.255 684.169 522.255C682.314 522.255 680.896 522.815 679.916 523.935C678.936 525.055 678.341 526.49 678.131 528.24H688.631Z" fill="#FFF6F1"/>
<path d="M710.256 527.19C710.256 525.475 709.924 524.25 709.259 523.515C708.629 522.78 707.509 522.412 705.899 522.412C704.184 522.412 702.329 522.885 700.334 523.83V540H696.921V519.84H699.284L700.019 521.52C702.434 520.19 704.796 519.525 707.106 519.525C709.241 519.525 710.869 520.137 711.989 521.362C713.109 522.552 713.669 524.215 713.669 526.35V540H710.256V527.19Z" fill="#FFF6F1"/>
<path d="M528 243C528 286.078 493.078 321 450 321C406.922 321 372 286.078 372 243C372 199.922 406.922 165 450 165C493.078 165 528 199.922 528 243Z" fill="#FFF6F1"/>
<path d="M409.389 292L402 284.611L456.097 230.514C454.514 226.819 454.294 222.641 455.438 217.979C456.581 213.317 459.088 209.139 462.958 205.444C467.62 200.782 472.81 198.056 478.528 197.264C484.245 196.472 488.907 197.88 492.514 201.486C496.12 205.093 497.528 209.755 496.736 215.472C495.944 221.19 493.218 226.38 488.556 231.042C484.861 234.912 480.683 237.419 476.021 238.562C471.359 239.706 467.181 239.486 463.486 237.903L456.889 244.5L497 284.611L489.611 292L449.5 252.153L409.389 292ZM424.958 246.875L409.125 231.042C404.375 226.292 402 220.618 402 214.021C402 207.424 404.375 201.75 409.125 197L441.847 229.986L424.958 246.875Z" fill="#0C4857"/>
</svg>
