<svg width="899" height="678" viewBox="0 0 899 678" fill="none" xmlns="http://www.w3.org/2000/svg">
<path d="M0 63C0 28.2061 28.2061 0 63 0H836C870.794 0 899 28.2061 899 63V615C899 649.794 870.794 678 836 678H63C28.206 678 0 649.794 0 615V63Z" fill="#FFF6F1" fill-opacity="0.1"/>
<path d="M835 103.5C835 129.734 813.734 151 787.5 151C761.266 151 740 129.734 740 103.5C740 77.2665 761.266 56 787.5 56C813.734 56 835 77.2665 835 103.5Z" fill="#FFF6F1" fill-opacity="0.1"/>
<path d="M775.23 89.125C777.33 87.975 779.255 87.075 781.005 86.425C782.805 85.725 784.905 85.375 787.305 85.375C790.605 85.375 793.355 86.325 795.555 88.225C797.805 90.125 798.93 92.75 798.93 96.1C798.93 98.75 798.305 101.075 797.055 103.075C795.855 105.025 793.855 107.425 791.055 110.275L785.73 115.225H799.305V121H776.055V115.675L778.755 113.2C783.055 109.45 786.03 106.65 787.68 104.8C789.68 102.5 790.955 100.8 791.505 99.7C792.105 98.6 792.405 97.4 792.405 96.1C792.405 94.75 791.93 93.7 790.98 92.95C790.03 92.15 788.58 91.75 786.63 91.75C785.13 91.75 783.755 92 782.505 92.5C781.305 92.95 780.28 93.425 779.43 93.925C778.58 94.425 777.98 94.75 777.63 94.9L775.23 89.125Z" fill="#FFF6F1"/>
<path d="M81.2039 489H64.7714V460.125H68.2364V485.955H81.2039V489Z" fill="#FFF6F1"/>
<path d="M105.196 468.578C107.821 468.578 109.851 469.382 111.286 470.992C112.721 472.567 113.439 474.807 113.439 477.712V479.55L113.176 479.97H99.8414C99.8414 481.685 100.489 483.277 101.784 484.747C102.414 485.377 103.149 485.85 103.989 486.165C104.829 486.445 105.879 486.585 107.139 486.585C108.819 486.585 110.446 486.322 112.021 485.797L112.651 488.318C110.446 489.053 108.294 489.42 106.194 489.42C102.449 489.42 99.8589 488.265 98.4239 485.955C96.6389 488.335 94.0664 489.525 90.7064 489.525C88.8864 489.525 87.3464 489 86.0864 487.95C84.8614 486.9 84.2489 485.57 84.2489 483.96C84.2489 482.385 84.7039 481.108 85.6139 480.128C86.5589 479.113 87.7314 478.43 89.1314 478.08C91.4064 477.485 93.9439 477.188 96.7439 477.188V477.03C96.7439 475.595 96.6039 474.545 96.3239 473.88C95.7639 472.305 94.2239 471.517 91.7039 471.517C90.9689 471.517 90.0764 471.605 89.0264 471.78C88.0114 471.92 87.1014 472.113 86.2964 472.358L85.6139 469.837C87.9589 469.032 90.1464 468.63 92.1764 468.63C94.4514 468.63 96.1839 468.98 97.3739 469.68C98.1789 470.275 98.7214 470.887 99.0014 471.517C99.8764 470.502 100.786 469.768 101.731 469.312C102.711 468.823 103.866 468.578 105.196 468.578ZM110.026 477.24C110.026 475.49 109.641 474.055 108.871 472.935C108.136 471.815 107.016 471.255 105.511 471.255C102.291 471.255 100.419 473.25 99.8939 477.24H110.026ZM91.1789 486.795C92.3339 486.795 93.3489 486.602 94.2239 486.217C95.0989 485.797 95.9389 485.22 96.7439 484.485V479.655C94.8889 479.69 93.3839 479.76 92.2289 479.865C91.0739 479.97 90.0064 480.32 89.0264 480.915C88.0464 481.475 87.5564 482.367 87.5564 483.592C87.5564 484.572 87.8539 485.36 88.4489 485.955C89.0439 486.515 89.9539 486.795 91.1789 486.795Z" fill="#FFF6F1"/>
<path d="M131.809 488.055C130.059 488.965 128.291 489.42 126.506 489.42C123.286 489.42 120.819 488.178 119.104 485.693C117.879 483.873 117.266 481.738 117.266 479.288C117.266 476.803 117.791 474.702 118.841 472.987C119.926 471.237 121.414 469.977 123.304 469.207C124.179 468.787 125.316 468.578 126.716 468.578C128.361 468.578 129.936 468.928 131.441 469.628L132.439 470.1L132.806 468.84H135.274V489.945C135.274 491.8 135.064 493.288 134.644 494.408C134.224 495.528 133.506 496.56 132.491 497.505C131.651 498.31 130.601 498.922 129.341 499.342C128.116 499.797 126.734 500.025 125.194 500.025C124.214 500.025 123.146 499.903 121.991 499.658C120.871 499.413 119.891 499.097 119.051 498.712L119.944 496.297C121.939 496.997 123.531 497.348 124.721 497.348C126.821 497.348 128.466 496.84 129.656 495.825C130.846 494.81 131.546 493.375 131.756 491.52C131.791 491.135 131.809 490.155 131.809 488.58V488.055ZM127.294 486.638C129.044 486.638 130.549 486.27 131.809 485.535V472.358C130.234 471.658 128.676 471.307 127.136 471.307C125.036 471.307 123.444 471.99 122.359 473.355C121.274 474.72 120.731 476.54 120.731 478.815C120.731 480.46 121.046 481.912 121.676 483.172C122.306 484.432 123.164 485.342 124.249 485.902C125.124 486.392 126.139 486.638 127.294 486.638Z" fill="#FFF6F1"/>
<path d="M161.544 489.473C158.499 489.473 156.119 488.528 154.404 486.638C152.724 484.748 151.884 482.21 151.884 479.025C151.884 475.805 152.741 473.268 154.456 471.413C156.206 469.523 158.621 468.578 161.701 468.578C164.781 468.578 167.161 469.505 168.841 471.36C170.521 473.215 171.361 475.753 171.361 478.973C171.361 482.123 170.486 484.66 168.736 486.585C166.986 488.51 164.589 489.473 161.544 489.473ZM161.701 471.255C159.706 471.255 158.149 471.99 157.029 473.46C155.944 474.93 155.401 476.785 155.401 479.025C155.401 481.265 155.944 483.103 157.029 484.538C158.149 485.973 159.706 486.69 161.701 486.69C163.661 486.69 165.184 485.973 166.269 484.538C167.354 483.068 167.896 481.23 167.896 479.025C167.896 476.785 167.336 474.93 166.216 473.46C165.131 471.99 163.626 471.255 161.701 471.255Z" fill="#FFF6F1"/>
<path d="M182.012 489L174.505 468.84H178.18L183.745 484.642L183.955 485.693L184.112 484.642L189.73 468.84H193.247L185.792 489H182.012Z" fill="#FFF6F1"/>
<path d="M205.416 468.578C208.076 468.578 210.123 469.382 211.558 470.992C212.993 472.567 213.711 474.807 213.711 477.712V479.55L213.501 479.97H199.693C199.693 481.685 200.341 483.277 201.636 484.747C202.861 485.972 204.768 486.585 207.358 486.585C209.073 486.585 210.701 486.322 212.241 485.797L212.871 488.318C210.736 489.053 208.583 489.42 206.413 489.42C203.158 489.42 200.673 488.545 198.958 486.795C197.243 485.045 196.386 482.543 196.386 479.288C196.386 476.208 197.138 473.67 198.643 471.675C200.253 469.61 202.511 468.578 205.416 468.578ZM210.246 477.24C210.246 475.49 209.861 474.055 209.091 472.935C208.356 471.815 207.253 471.255 205.783 471.255C203.928 471.255 202.511 471.815 201.531 472.935C200.551 474.055 199.956 475.49 199.746 477.24H210.246Z" fill="#FFF6F1"/>
<path d="M227.251 468.578C228.021 468.578 228.633 468.63 229.088 468.735C229.578 468.805 230.051 468.945 230.506 469.155L229.298 472.2C228.388 471.78 227.391 471.57 226.306 471.57C224.836 471.57 223.383 472.06 221.948 473.04V489H218.536V468.84H221.003L221.738 470.573C223.488 469.243 225.326 468.578 227.251 468.578Z" fill="#FFF6F1"/>
<path d="M240.269 486.585C241.494 486.585 242.527 486.357 243.367 485.902C244.242 485.412 244.679 484.712 244.679 483.802C244.679 483.067 244.364 482.49 243.734 482.07C243.104 481.65 241.774 481.02 239.744 480.18L237.749 479.392C236.874 478.972 236.157 478.605 235.597 478.29C235.037 477.94 234.529 477.432 234.074 476.767C233.619 476.067 233.392 475.192 233.392 474.142C233.392 472.252 234.162 470.853 235.702 469.943C237.277 469.033 239.202 468.578 241.477 468.578C243.402 468.578 245.327 469.015 247.252 469.89L246.412 472.41C244.837 471.745 243.314 471.413 241.844 471.413C240.339 471.413 239.114 471.64 238.169 472.095C237.259 472.515 236.804 473.127 236.804 473.932C236.804 474.737 237.119 475.368 237.749 475.823C238.414 476.278 239.534 476.802 241.109 477.397L242.842 478.08C244.767 478.885 246.114 479.725 246.884 480.6C247.654 481.475 248.039 482.63 248.039 484.065C248.039 485.535 247.357 486.812 245.992 487.897C244.627 488.947 242.807 489.473 240.532 489.473C237.942 489.473 235.387 488.965 232.867 487.95L233.812 485.378C236.087 486.183 238.239 486.585 240.269 486.585Z" fill="#FFF6F1"/>
<path d="M256.98 489H253.568V461.07H256.98V489ZM261.39 477.87L270.63 489H266.43L257.348 477.87L266.168 468.84H270.158L261.39 477.87Z" fill="#FFF6F1"/>
<path d="M277.77 481.807C277.77 483.522 278.103 484.748 278.768 485.483C279.433 486.218 280.57 486.585 282.18 486.585C283.825 486.585 285.663 486.113 287.693 485.168V468.84H291.105V489H288.743L288.008 487.53C285.453 488.86 283.09 489.525 280.92 489.525C278.82 489.525 277.193 488.913 276.038 487.688C274.918 486.463 274.358 484.782 274.358 482.647V468.84H277.77V481.807Z" fill="#FFF6F1"/>
<path d="M305.317 489.42C302.307 489.42 299.997 488.493 298.387 486.638C296.777 484.748 295.972 482.245 295.972 479.13C295.972 475.7 296.934 473.023 298.859 471.098C300.714 469.313 303.024 468.42 305.789 468.42C307.644 468.42 309.219 468.735 310.514 469.365V461.07H314.084V489H311.564L310.987 487.582C309.097 488.807 307.207 489.42 305.317 489.42ZM305.999 486.533C306.944 486.533 307.732 486.445 308.362 486.27C309.027 486.06 309.744 485.745 310.514 485.325V471.99C309.219 471.465 307.732 471.203 306.052 471.203C303.882 471.203 302.237 471.902 301.117 473.302C300.032 474.702 299.489 476.575 299.489 478.92C299.489 481.23 300.032 483.085 301.117 484.485C302.237 485.85 303.864 486.533 305.999 486.533Z" fill="#FFF6F1"/>
<path d="M326.32 486.585C327.545 486.585 328.577 486.357 329.417 485.902C330.292 485.412 330.73 484.712 330.73 483.802C330.73 483.067 330.415 482.49 329.785 482.07C329.155 481.65 327.825 481.02 325.795 480.18L323.8 479.392C322.925 478.972 322.207 478.605 321.647 478.29C321.087 477.94 320.58 477.432 320.125 476.767C319.67 476.067 319.442 475.192 319.442 474.142C319.442 472.252 320.212 470.853 321.752 469.943C323.327 469.033 325.252 468.578 327.527 468.578C329.452 468.578 331.377 469.015 333.302 469.89L332.462 472.41C330.887 471.745 329.365 471.413 327.895 471.413C326.39 471.413 325.165 471.64 324.22 472.095C323.31 472.515 322.855 473.127 322.855 473.932C322.855 474.737 323.17 475.368 323.8 475.823C324.465 476.278 325.585 476.802 327.16 477.397L328.892 478.08C330.817 478.885 332.165 479.725 332.935 480.6C333.705 481.475 334.09 482.63 334.09 484.065C334.09 485.535 333.407 486.812 332.042 487.897C330.677 488.947 328.857 489.473 326.582 489.473C323.992 489.473 321.437 488.965 318.917 487.95L319.862 485.378C322.137 486.183 324.29 486.585 326.32 486.585Z" fill="#FFF6F1"/>
<path d="M363.506 476.19C363.506 472.9 362.194 471.255 359.569 471.255C358.274 471.255 356.664 471.85 354.739 473.04C354.844 473.425 354.896 474.195 354.896 475.35V489H351.484V476.19C351.484 472.9 350.154 471.255 347.494 471.255C346.234 471.255 344.676 471.762 342.821 472.777V489H339.409V468.84H341.771L342.506 470.52C343.696 469.715 344.799 469.155 345.814 468.84C346.619 468.63 347.546 468.525 348.596 468.525C349.751 468.525 350.766 468.752 351.641 469.207C352.551 469.662 353.286 470.293 353.846 471.098C355.001 470.258 356.104 469.627 357.154 469.207C358.204 468.752 359.359 468.525 360.619 468.525C362.684 468.525 364.259 469.155 365.344 470.415C366.464 471.64 367.024 473.285 367.024 475.35V489H363.506V476.19Z" fill="#FFF6F1"/>
<path d="M379.223 471.517C378.488 471.517 377.596 471.605 376.546 471.78C375.531 471.92 374.621 472.113 373.816 472.358L373.133 469.837C375.478 469.032 377.666 468.63 379.696 468.63C381.971 468.63 383.703 468.98 384.893 469.68C385.943 470.45 386.661 471.272 387.046 472.147C387.466 473.022 387.676 474.3 387.676 475.98V489H385.103L384.368 487.11C382.373 488.72 380.326 489.525 378.226 489.525C376.406 489.525 374.866 489 373.606 487.95C372.381 486.9 371.768 485.57 371.768 483.96C371.768 482.385 372.241 481.09 373.186 480.075C374.166 479.025 375.356 478.325 376.756 477.975C378.541 477.52 381.043 477.257 384.263 477.188V477.03C384.263 475.595 384.123 474.545 383.843 473.88C383.283 472.305 381.743 471.517 379.223 471.517ZM378.698 486.795C379.853 486.795 380.868 486.602 381.743 486.217C382.618 485.797 383.458 485.22 384.263 484.485V479.655C381.848 479.69 380.063 479.83 378.908 480.075C377.613 480.355 376.651 480.775 376.021 481.335C375.391 481.86 375.076 482.612 375.076 483.592C375.076 484.607 375.426 485.395 376.126 485.955C376.861 486.515 377.718 486.795 378.698 486.795Z" fill="#FFF6F1"/>
<path d="M401.744 489.42C398.734 489.42 396.424 488.493 394.814 486.638C393.204 484.748 392.399 482.245 392.399 479.13C392.399 475.7 393.362 473.023 395.287 471.098C397.142 469.313 399.452 468.42 402.217 468.42C404.072 468.42 405.647 468.735 406.942 469.365V461.07H410.512V489H407.992L407.414 487.582C405.524 488.807 403.634 489.42 401.744 489.42ZM402.427 486.533C403.372 486.533 404.159 486.445 404.789 486.27C405.454 486.06 406.172 485.745 406.942 485.325V471.99C405.647 471.465 404.159 471.203 402.479 471.203C400.309 471.203 398.664 471.902 397.544 473.302C396.459 474.702 395.917 476.575 395.917 478.92C395.917 481.23 396.459 483.085 397.544 484.485C398.664 485.85 400.292 486.533 402.427 486.533Z" fill="#FFF6F1"/>
<path d="M429.799 464.955C429.169 464.955 428.644 464.745 428.224 464.325C427.804 463.87 427.594 463.345 427.594 462.75C427.594 462.19 427.804 461.7 428.224 461.28C428.644 460.825 429.169 460.598 429.799 460.598C430.394 460.598 430.901 460.825 431.321 461.28C431.741 461.7 431.951 462.19 431.951 462.75C431.951 463.345 431.741 463.87 431.321 464.325C430.936 464.745 430.429 464.955 429.799 464.955ZM431.479 489H428.066V468.84H431.479V489Z" fill="#FFF6F1"/>
<path d="M449.149 489V461.07H452.561V469.365C453.926 468.735 455.554 468.42 457.444 468.42C460.279 468.42 462.589 469.26 464.374 470.94C466.229 472.795 467.156 475.525 467.156 479.13C467.156 482.245 466.351 484.748 464.741 486.638C463.166 488.493 460.891 489.42 457.916 489.42C455.956 489.42 454.049 488.807 452.194 487.582L451.564 489H449.149ZM457.076 486.533C459.316 486.533 460.961 485.92 462.011 484.695C463.061 483.47 463.586 481.545 463.586 478.92C463.586 476.575 463.026 474.702 461.906 473.302C460.821 471.902 459.194 471.203 457.024 471.203C455.379 471.203 453.891 471.465 452.561 471.99V485.325C453.366 485.745 454.084 486.06 454.714 486.27C455.379 486.445 456.166 486.533 457.076 486.533Z" fill="#FFF6F1"/>
<path d="M480.809 489.473C477.764 489.473 475.384 488.528 473.669 486.638C471.989 484.748 471.149 482.21 471.149 479.025C471.149 475.805 472.007 473.268 473.722 471.413C475.472 469.523 477.887 468.578 480.967 468.578C484.047 468.578 486.427 469.505 488.107 471.36C489.787 473.215 490.627 475.753 490.627 478.973C490.627 482.123 489.752 484.66 488.002 486.585C486.252 488.51 483.854 489.473 480.809 489.473ZM480.967 471.255C478.972 471.255 477.414 471.99 476.294 473.46C475.209 474.93 474.667 476.785 474.667 479.025C474.667 481.265 475.209 483.103 476.294 484.538C477.414 485.973 478.972 486.69 480.967 486.69C482.927 486.69 484.449 485.973 485.534 484.538C486.619 483.068 487.162 481.23 487.162 479.025C487.162 476.785 486.602 474.93 485.482 473.46C484.397 471.99 482.892 471.255 480.967 471.255Z" fill="#FFF6F1"/>
<path d="M499.178 489H495.765V461.07H499.178V489ZM503.588 477.87L512.828 489H508.628L499.545 477.87L508.365 468.84H512.355L503.588 477.87Z" fill="#FFF6F1"/>
<path d="M522.908 486.585C524.133 486.585 525.165 486.357 526.005 485.902C526.88 485.412 527.318 484.712 527.318 483.802C527.318 483.067 527.003 482.49 526.373 482.07C525.743 481.65 524.413 481.02 522.383 480.18L520.388 479.392C519.513 478.972 518.795 478.605 518.235 478.29C517.675 477.94 517.168 477.432 516.713 476.767C516.258 476.067 516.03 475.192 516.03 474.142C516.03 472.252 516.8 470.853 518.34 469.943C519.915 469.033 521.84 468.578 524.115 468.578C526.04 468.578 527.965 469.015 529.89 469.89L529.05 472.41C527.475 471.745 525.953 471.413 524.483 471.413C522.978 471.413 521.753 471.64 520.808 472.095C519.898 472.515 519.443 473.127 519.443 473.932C519.443 474.737 519.758 475.368 520.388 475.823C521.053 476.278 522.173 476.802 523.748 477.397L525.48 478.08C527.405 478.885 528.753 479.725 529.523 480.6C530.293 481.475 530.678 482.63 530.678 484.065C530.678 485.535 529.995 486.812 528.63 487.897C527.265 488.947 525.445 489.473 523.17 489.473C520.58 489.473 518.025 488.965 515.505 487.95L516.45 485.378C518.725 486.183 520.878 486.585 522.908 486.585Z" fill="#FFF6F1"/>
<path d="M544.082 468.578C546.742 468.578 548.789 469.382 550.224 470.992C551.659 472.567 552.377 474.807 552.377 477.712V479.55L552.167 479.97H538.359C538.359 481.685 539.007 483.277 540.302 484.747C541.527 485.972 543.434 486.585 546.024 486.585C547.739 486.585 549.367 486.322 550.907 485.797L551.537 488.318C549.402 489.053 547.249 489.42 545.079 489.42C541.824 489.42 539.339 488.545 537.624 486.795C535.909 485.045 535.052 482.543 535.052 479.288C535.052 476.208 535.804 473.67 537.309 471.675C538.919 469.61 541.177 468.578 544.082 468.578ZM548.912 477.24C548.912 475.49 548.527 474.055 547.757 472.935C547.022 471.815 545.919 471.255 544.449 471.255C542.594 471.255 541.177 471.815 540.197 472.935C539.217 474.055 538.622 475.49 538.412 477.24H548.912Z" fill="#FFF6F1"/>
<path d="M570.537 476.19C570.537 474.475 570.204 473.25 569.539 472.515C568.909 471.78 567.789 471.413 566.179 471.413C564.464 471.413 562.609 471.885 560.614 472.83V489H557.202V468.84H559.564L560.299 470.52C562.714 469.19 565.077 468.525 567.387 468.525C569.522 468.525 571.149 469.137 572.269 470.362C573.389 471.552 573.949 473.215 573.949 475.35V489H570.537V476.19Z" fill="#FFF6F1"/>
<path d="M593.041 464.955C592.411 464.955 591.886 464.745 591.466 464.325C591.046 463.87 590.836 463.345 590.836 462.75C590.836 462.19 591.046 461.7 591.466 461.28C591.886 460.825 592.411 460.598 593.041 460.598C593.636 460.598 594.144 460.825 594.564 461.28C594.984 461.7 595.194 462.19 595.194 462.75C595.194 463.345 594.984 463.87 594.564 464.325C594.179 464.745 593.671 464.955 593.041 464.955ZM594.721 489H591.309V468.84H594.721V489Z" fill="#FFF6F1"/>
<path d="M618.638 486.585C619.863 486.585 620.896 486.357 621.736 485.902C622.611 485.412 623.048 484.712 623.048 483.802C623.048 483.067 622.733 482.49 622.103 482.07C621.473 481.65 620.143 481.02 618.113 480.18L616.118 479.392C615.243 478.972 614.526 478.605 613.966 478.29C613.406 477.94 612.898 477.432 612.443 476.767C611.988 476.067 611.761 475.192 611.761 474.142C611.761 472.252 612.531 470.853 614.071 469.943C615.646 469.033 617.571 468.578 619.846 468.578C621.771 468.578 623.696 469.015 625.621 469.89L624.781 472.41C623.206 471.745 621.683 471.413 620.213 471.413C618.708 471.413 617.483 471.64 616.538 472.095C615.628 472.515 615.173 473.127 615.173 473.932C615.173 474.737 615.488 475.368 616.118 475.823C616.783 476.278 617.903 476.802 619.478 477.397L621.211 478.08C623.136 478.885 624.483 479.725 625.253 480.6C626.023 481.475 626.408 482.63 626.408 484.065C626.408 485.535 625.726 486.812 624.361 487.897C622.996 488.947 621.176 489.473 618.901 489.473C616.311 489.473 613.756 488.965 611.236 487.95L612.181 485.378C614.456 486.183 616.608 486.585 618.638 486.585Z" fill="#FFF6F1"/>
<path d="M638.657 489.42C636.627 489.42 635.175 488.878 634.3 487.793C633.46 486.673 633.04 484.993 633.04 482.753V471.675H629.627V468.84H633.04V463.905L636.452 463.642V468.84H643.067V471.675H636.452V482.543C636.452 483.943 636.662 484.957 637.082 485.587C637.537 486.217 638.395 486.533 639.655 486.533C640.845 486.533 641.912 486.427 642.857 486.217L643.435 488.527C641.86 489.122 640.267 489.42 638.657 489.42Z" fill="#FFF6F1"/>
<path d="M655.398 468.578C658.058 468.578 660.106 469.382 661.541 470.992C662.976 472.567 663.693 474.807 663.693 477.712V479.55L663.483 479.97H649.676C649.676 481.685 650.323 483.277 651.618 484.747C652.843 485.972 654.751 486.585 657.341 486.585C659.056 486.585 660.683 486.322 662.223 485.797L662.853 488.318C660.718 489.053 658.566 489.42 656.396 489.42C653.141 489.42 650.656 488.545 648.941 486.795C647.226 485.045 646.368 482.543 646.368 479.288C646.368 476.208 647.121 473.67 648.626 471.675C650.236 469.61 652.493 468.578 655.398 468.578ZM660.228 477.24C660.228 475.49 659.843 474.055 659.073 472.935C658.338 471.815 657.236 471.255 655.766 471.255C653.911 471.255 652.493 471.815 651.513 472.935C650.533 474.055 649.938 475.49 649.728 477.24H660.228Z" fill="#FFF6F1"/>
<path d="M676.918 489.42C673.908 489.42 671.598 488.493 669.988 486.638C668.378 484.748 667.573 482.245 667.573 479.13C667.573 475.7 668.536 473.023 670.461 471.098C672.316 469.313 674.626 468.42 677.391 468.42C679.246 468.42 680.821 468.735 682.116 469.365V461.07H685.686V489H683.166L682.588 487.582C680.698 488.807 678.808 489.42 676.918 489.42ZM677.601 486.533C678.546 486.533 679.333 486.445 679.963 486.27C680.628 486.06 681.346 485.745 682.116 485.325V471.99C680.821 471.465 679.333 471.203 677.653 471.203C675.483 471.203 673.838 471.902 672.718 473.302C671.633 474.702 671.091 476.575 671.091 478.92C671.091 481.23 671.633 483.085 672.718 484.485C673.838 485.85 675.466 486.533 677.601 486.533Z" fill="#FFF6F1"/>
<path d="M699.654 468.578C702.314 468.578 704.361 469.382 705.796 470.992C707.231 472.567 707.949 474.807 707.949 477.712V479.55L707.739 479.97H693.931C693.931 481.685 694.579 483.277 695.874 484.747C697.099 485.972 699.006 486.585 701.596 486.585C703.311 486.585 704.939 486.322 706.479 485.797L707.109 488.318C704.974 489.053 702.821 489.42 700.651 489.42C697.396 489.42 694.911 488.545 693.196 486.795C691.481 485.045 690.624 482.543 690.624 479.288C690.624 476.208 691.376 473.67 692.881 471.675C694.491 469.61 696.749 468.578 699.654 468.578ZM704.484 477.24C704.484 475.49 704.099 474.055 703.329 472.935C702.594 471.815 701.491 471.255 700.021 471.255C698.166 471.255 696.749 471.815 695.769 472.935C694.789 474.055 694.194 475.49 693.984 477.24H704.484Z" fill="#FFF6F1"/>
<path d="M719.704 489.42C717.674 489.42 716.221 488.878 715.346 487.793C714.506 486.673 714.086 484.993 714.086 482.753V471.675H710.674V468.84H714.086V463.905L717.499 463.642V468.84H724.114V471.675H717.499V482.543C717.499 483.943 717.709 484.957 718.129 485.587C718.584 486.217 719.441 486.533 720.701 486.533C721.891 486.533 722.959 486.427 723.904 486.217L724.482 488.527C722.907 489.122 721.314 489.42 719.704 489.42Z" fill="#FFF6F1"/>
<path d="M749.114 462.592C747.959 462.592 746.996 462.872 746.226 463.432C745.491 463.992 745.054 464.71 744.914 465.585C744.844 466.005 744.809 466.478 744.809 467.003V468.84H751.476V471.517H744.861V489H741.449V471.517H738.456V468.84H741.344V466.793C741.344 465.078 741.571 463.818 742.026 463.013C743.181 460.948 745.194 459.915 748.064 459.915C749.499 459.915 751.126 460.178 752.946 460.703L752.369 463.223C750.864 462.803 749.779 462.592 749.114 462.592Z" fill="#FFF6F1"/>
<path d="M763.776 489.473C760.731 489.473 758.351 488.528 756.636 486.638C754.956 484.748 754.116 482.21 754.116 479.025C754.116 475.805 754.974 473.268 756.689 471.413C758.439 469.523 760.854 468.578 763.934 468.578C767.014 468.578 769.394 469.505 771.074 471.36C772.754 473.215 773.594 475.753 773.594 478.973C773.594 482.123 772.719 484.66 770.969 486.585C769.219 488.51 766.821 489.473 763.776 489.473ZM763.934 471.255C761.939 471.255 760.381 471.99 759.261 473.46C758.176 474.93 757.634 476.785 757.634 479.025C757.634 481.265 758.176 483.103 759.261 484.538C760.381 485.973 761.939 486.69 763.934 486.69C765.894 486.69 767.416 485.973 768.501 484.538C769.586 483.068 770.129 481.23 770.129 479.025C770.129 476.785 769.569 474.93 768.449 473.46C767.364 471.99 765.859 471.255 763.934 471.255Z" fill="#FFF6F1"/>
<path d="M787.237 468.578C788.007 468.578 788.62 468.63 789.075 468.735C789.565 468.805 790.037 468.945 790.492 469.155L789.285 472.2C788.375 471.78 787.377 471.57 786.292 471.57C784.822 471.57 783.37 472.06 781.935 473.04V489H778.522V468.84H780.99L781.725 470.573C783.475 469.243 785.312 468.578 787.237 468.578Z" fill="#FFF6F1"/>
<path d="M811.979 471.517C811.244 471.517 810.352 471.605 809.302 471.78C808.287 471.92 807.377 472.113 806.572 472.358L805.889 469.837C808.234 469.032 810.422 468.63 812.452 468.63C814.727 468.63 816.459 468.98 817.649 469.68C818.699 470.45 819.417 471.272 819.802 472.147C820.222 473.022 820.432 474.3 820.432 475.98V489H817.859L817.124 487.11C815.129 488.72 813.082 489.525 810.982 489.525C809.162 489.525 807.622 489 806.362 487.95C805.137 486.9 804.524 485.57 804.524 483.96C804.524 482.385 804.997 481.09 805.942 480.075C806.922 479.025 808.112 478.325 809.512 477.975C811.297 477.52 813.799 477.257 817.019 477.188V477.03C817.019 475.595 816.879 474.545 816.599 473.88C816.039 472.305 814.499 471.517 811.979 471.517ZM811.454 486.795C812.609 486.795 813.624 486.602 814.499 486.217C815.374 485.797 816.214 485.22 817.019 484.485V479.655C814.604 479.69 812.819 479.83 811.664 480.075C810.369 480.355 809.407 480.775 808.777 481.335C808.147 481.86 807.832 482.612 807.832 483.592C807.832 484.607 808.182 485.395 808.882 485.955C809.617 486.515 810.474 486.795 811.454 486.795Z" fill="#FFF6F1"/>
<path d="M833.03 489.42C831 489.42 829.548 488.878 828.673 487.793C827.833 486.673 827.413 484.993 827.413 482.753V471.675H824V468.84H827.413V463.905L830.825 463.642V468.84H837.44V471.675H830.825V482.543C830.825 483.943 831.035 484.957 831.455 485.587C831.91 486.217 832.768 486.533 834.028 486.533C835.218 486.533 836.285 486.427 837.23 486.217L837.808 488.527C836.233 489.122 834.64 489.42 833.03 489.42Z" fill="#FFF6F1"/>
<path d="M332.534 537.585C333.759 537.585 334.791 537.358 335.631 536.903C336.506 536.413 336.944 535.712 336.944 534.802C336.944 534.067 336.629 533.49 335.999 533.07C335.369 532.65 334.039 532.02 332.009 531.18L330.014 530.393C329.139 529.973 328.421 529.605 327.861 529.29C327.301 528.94 326.794 528.433 326.339 527.768C325.884 527.068 325.656 526.193 325.656 525.143C325.656 523.253 326.426 521.853 327.966 520.943C329.541 520.033 331.466 519.578 333.741 519.578C335.666 519.578 337.591 520.015 339.516 520.89L338.676 523.41C337.101 522.745 335.579 522.412 334.109 522.412C332.604 522.412 331.379 522.64 330.434 523.095C329.524 523.515 329.069 524.127 329.069 524.932C329.069 525.737 329.384 526.368 330.014 526.823C330.679 527.278 331.799 527.803 333.374 528.398L335.106 529.08C337.031 529.885 338.379 530.725 339.149 531.6C339.919 532.475 340.304 533.63 340.304 535.065C340.304 536.535 339.621 537.813 338.256 538.898C336.891 539.948 335.071 540.472 332.796 540.472C330.206 540.472 327.651 539.965 325.131 538.95L326.076 536.378C328.351 537.183 330.504 537.585 332.534 537.585Z" fill="#FFF6F1"/>
<path d="M369.72 527.19C369.72 523.9 368.408 522.255 365.783 522.255C364.488 522.255 362.878 522.85 360.953 524.04C361.058 524.425 361.11 525.195 361.11 526.35V540H357.698V527.19C357.698 523.9 356.368 522.255 353.708 522.255C352.448 522.255 350.89 522.763 349.035 523.778V540H345.623V519.84H347.985L348.72 521.52C349.91 520.715 351.013 520.155 352.028 519.84C352.833 519.63 353.76 519.525 354.81 519.525C355.965 519.525 356.98 519.753 357.855 520.208C358.765 520.663 359.5 521.292 360.06 522.097C361.215 521.257 362.318 520.628 363.368 520.208C364.418 519.753 365.573 519.525 366.833 519.525C368.898 519.525 370.473 520.155 371.558 521.415C372.678 522.64 373.238 524.285 373.238 526.35V540H369.72V527.19Z" fill="#FFF6F1"/>
<path d="M380.765 515.955C380.135 515.955 379.61 515.745 379.19 515.325C378.77 514.87 378.56 514.345 378.56 513.75C378.56 513.19 378.77 512.7 379.19 512.28C379.61 511.825 380.135 511.598 380.765 511.598C381.36 511.598 381.867 511.825 382.287 512.28C382.707 512.7 382.917 513.19 382.917 513.75C382.917 514.345 382.707 514.87 382.287 515.325C381.902 515.745 381.395 515.955 380.765 515.955ZM382.445 540H379.032V519.84H382.445V540Z" fill="#FFF6F1"/>
<path d="M396.843 540.42C393.833 540.42 391.523 539.493 389.913 537.638C388.303 535.748 387.498 533.245 387.498 530.13C387.498 526.7 388.46 524.022 390.385 522.097C392.24 520.312 394.55 519.42 397.315 519.42C399.17 519.42 400.745 519.735 402.04 520.365V512.07H405.61V540H403.09L402.513 538.583C400.623 539.808 398.733 540.42 396.843 540.42ZM397.525 537.532C398.47 537.532 399.258 537.445 399.888 537.27C400.553 537.06 401.27 536.745 402.04 536.325V522.99C400.745 522.465 399.258 522.203 397.578 522.203C395.408 522.203 393.763 522.902 392.643 524.302C391.558 525.702 391.015 527.575 391.015 529.92C391.015 532.23 391.558 534.085 392.643 535.485C393.763 536.85 395.39 537.532 397.525 537.532Z" fill="#FFF6F1"/>
<path d="M419.579 519.578C422.239 519.578 424.286 520.382 425.721 521.992C427.156 523.567 427.874 525.808 427.874 528.713V530.55L427.664 530.97H413.856C413.856 532.685 414.504 534.277 415.799 535.747C417.024 536.972 418.931 537.585 421.521 537.585C423.236 537.585 424.864 537.322 426.404 536.797L427.034 539.318C424.899 540.053 422.746 540.42 420.576 540.42C417.321 540.42 414.836 539.545 413.121 537.795C411.406 536.045 410.549 533.542 410.549 530.287C410.549 527.207 411.301 524.67 412.806 522.675C414.416 520.61 416.674 519.578 419.579 519.578ZM424.409 528.24C424.409 526.49 424.024 525.055 423.254 523.935C422.519 522.815 421.416 522.255 419.946 522.255C418.091 522.255 416.674 522.815 415.694 523.935C414.714 525.055 414.119 526.49 413.909 528.24H424.409Z" fill="#FFF6F1"/>
<path d="M452.665 540.42C449.655 540.42 447.345 539.493 445.735 537.638C444.125 535.748 443.32 533.245 443.32 530.13C443.32 526.7 444.283 524.022 446.208 522.097C448.063 520.312 450.373 519.42 453.138 519.42C454.993 519.42 456.568 519.735 457.863 520.365V512.07H461.433V540H458.913L458.335 538.583C456.445 539.808 454.555 540.42 452.665 540.42ZM453.348 537.532C454.293 537.532 455.08 537.445 455.71 537.27C456.375 537.06 457.093 536.745 457.863 536.325V522.99C456.568 522.465 455.08 522.203 453.4 522.203C451.23 522.203 449.585 522.902 448.465 524.302C447.38 525.702 446.838 527.575 446.838 529.92C446.838 532.23 447.38 534.085 448.465 535.485C449.585 536.85 451.213 537.532 453.348 537.532Z" fill="#FFF6F1"/>
<path d="M475.401 519.578C478.061 519.578 480.108 520.382 481.543 521.992C482.978 523.567 483.696 525.808 483.696 528.713V530.55L483.486 530.97H469.678C469.678 532.685 470.326 534.277 471.621 535.747C472.846 536.972 474.753 537.585 477.343 537.585C479.058 537.585 480.686 537.322 482.226 536.797L482.856 539.318C480.721 540.053 478.568 540.42 476.398 540.42C473.143 540.42 470.658 539.545 468.943 537.795C467.228 536.045 466.371 533.542 466.371 530.287C466.371 527.207 467.123 524.67 468.628 522.675C470.238 520.61 472.496 519.578 475.401 519.578ZM480.231 528.24C480.231 526.49 479.846 525.055 479.076 523.935C478.341 522.815 477.238 522.255 475.768 522.255C473.913 522.255 472.496 522.815 471.516 523.935C470.536 525.055 469.941 526.49 469.731 528.24H480.231Z" fill="#FFF6F1"/>
<path d="M501.856 527.19C501.856 525.475 501.524 524.25 500.859 523.515C500.229 522.78 499.109 522.412 497.499 522.412C495.784 522.412 493.929 522.885 491.934 523.83V540H488.521V519.84H490.884L491.619 521.52C494.034 520.19 496.396 519.525 498.706 519.525C500.841 519.525 502.469 520.137 503.589 521.362C504.709 522.552 505.269 524.215 505.269 526.35V540H501.856V527.19Z" fill="#FFF6F1"/>
<path d="M525.935 532.807C525.935 534.522 526.268 535.747 526.933 536.482C527.598 537.217 528.736 537.585 530.346 537.585C531.991 537.585 533.828 537.112 535.858 536.167V519.84H539.271V540H536.908L536.173 538.53C533.618 539.86 531.256 540.525 529.086 540.525C526.986 540.525 525.358 539.913 524.203 538.688C523.083 537.463 522.523 535.783 522.523 533.648V519.84H525.935V532.807Z" fill="#FFF6F1"/>
<path d="M553.482 540.42C550.472 540.42 548.162 539.493 546.552 537.638C544.942 535.748 544.137 533.245 544.137 530.13C544.137 526.7 545.099 524.022 547.024 522.097C548.879 520.312 551.189 519.42 553.954 519.42C555.809 519.42 557.384 519.735 558.679 520.365V512.07H562.249V540H559.729L559.152 538.583C557.262 539.808 555.372 540.42 553.482 540.42ZM554.164 537.532C555.109 537.532 555.897 537.445 556.527 537.27C557.192 537.06 557.909 536.745 558.679 536.325V522.99C557.384 522.465 555.897 522.203 554.217 522.203C552.047 522.203 550.402 522.902 549.282 524.302C548.197 525.702 547.654 527.575 547.654 529.92C547.654 532.23 548.197 534.085 549.282 535.485C550.402 536.85 552.029 537.532 554.164 537.532Z" fill="#FFF6F1"/>
<path d="M570.967 540.21C570.267 540.21 569.69 539.983 569.235 539.528C568.815 539.073 568.605 538.512 568.605 537.847C568.605 537.182 568.815 536.622 569.235 536.167C569.69 535.712 570.267 535.485 570.967 535.485C571.667 535.485 572.227 535.712 572.647 536.167C573.102 536.622 573.33 537.182 573.33 537.847C573.33 538.512 573.102 539.073 572.647 539.528C572.227 539.983 571.667 540.21 570.967 540.21Z" fill="#FFF6F1"/>
<path d="M316.101 375.35H296.751V387.575H313.776V394.325H296.751V410H289.401V368.75H316.101V375.35Z" fill="#FFF6F1"/>
<path d="M331.326 410.225L318.426 381.2H326.601L335.226 403.325L342.951 381.2H350.451L332.826 425.45H324.801L331.326 410.225Z" fill="#FFF6F1"/>
<path d="M362.763 403.925C363.263 404.675 364.138 405.05 365.388 405.05C366.388 405.05 367.537 404.875 368.837 404.525V409.25C366.787 410.2 364.638 410.675 362.388 410.675C357.488 410.675 355.038 407.975 355.038 402.575V368.75H362.087V400.475C362.087 401.975 362.313 403.125 362.763 403.925Z" fill="#FFF6F1"/>
<path d="M392.444 381.95V368.75H399.644V410H394.469L393.944 408.425C391.394 409.925 388.819 410.675 386.219 410.675C381.669 410.675 378.069 409.325 375.419 406.625C372.819 403.925 371.519 400.275 371.519 395.675C371.519 392.225 372.244 389.375 373.694 387.125C375.194 384.875 377.019 383.25 379.169 382.25C381.319 381.25 383.469 380.75 385.619 380.75C388.369 380.75 390.644 381.15 392.444 381.95ZM392.444 387.35C390.944 386.7 389.219 386.375 387.269 386.375C381.719 386.375 378.944 389.6 378.944 396.05C378.944 399.25 379.719 401.55 381.269 402.95C382.819 404.35 384.894 405.05 387.494 405.05C389.344 405.05 390.994 404.575 392.444 403.625V387.35Z" fill="#FFF6F1"/>
<path d="M424.12 410V368.75H431.32V381.95C433.12 381.15 435.395 380.75 438.145 380.75C440.445 380.75 442.645 381.25 444.745 382.25C446.895 383.25 448.67 384.875 450.07 387.125C451.47 389.325 452.17 392.175 452.17 395.675C452.17 400.325 450.87 404 448.27 406.7C445.72 409.35 442.12 410.675 437.47 410.675C434.92 410.675 432.37 409.925 429.82 408.425L429.22 410H424.12ZM444.82 396.05C444.82 389.6 442.045 386.375 436.495 386.375C434.545 386.375 432.82 386.7 431.32 387.35V403.625C432.72 404.575 434.37 405.05 436.27 405.05C438.82 405.05 440.87 404.35 442.42 402.95C444.02 401.5 444.82 399.2 444.82 396.05Z" fill="#FFF6F1"/>
<path d="M479.247 408.8C476.997 410.05 474.397 410.675 471.447 410.675C468.497 410.675 465.897 410.05 463.647 408.8C461.447 407.5 459.722 405.725 458.472 403.475C457.272 401.225 456.672 398.65 456.672 395.75C456.672 391.1 458.022 387.45 460.722 384.8C463.422 382.1 467.022 380.75 471.522 380.75C476.022 380.75 479.597 382.1 482.247 384.8C484.947 387.5 486.297 391.125 486.297 395.675C486.297 398.625 485.672 401.225 484.422 403.475C483.222 405.725 481.497 407.5 479.247 408.8ZM476.697 388.85C475.297 387.2 473.547 386.375 471.447 386.375C469.397 386.375 467.647 387.2 466.197 388.85C464.797 390.5 464.097 392.8 464.097 395.75C464.097 398.65 464.797 400.925 466.197 402.575C467.597 404.175 469.347 404.975 471.447 404.975C473.647 404.975 475.422 404.175 476.772 402.575C478.172 400.975 478.872 398.7 478.872 395.75C478.872 392.75 478.147 390.45 476.697 388.85Z" fill="#FFF6F1"/>
<path d="M492.498 368.75H499.698V410H492.498V368.75ZM500.448 394.175L511.323 380.825H520.023L508.923 394.175L520.548 410H511.848L500.448 394.175Z" fill="#FFF6F1"/>
<path d="M534.66 410.675C530.96 410.675 527.235 409.8 523.485 408.05L525.51 402.425C527.21 403.025 528.935 403.525 530.685 403.925C532.435 404.325 533.885 404.525 535.035 404.525C537.135 404.525 538.61 404.3 539.46 403.85C540.31 403.4 540.735 402.7 540.735 401.75C540.735 401.1 540.335 400.575 539.535 400.175C538.735 399.775 537.41 399.275 535.56 398.675C533.36 398.025 531.51 397.375 530.01 396.725C528.51 396.025 527.21 395.025 526.11 393.725C525.01 392.375 524.46 390.675 524.46 388.625C524.46 386.625 525.285 384.825 526.935 383.225C528.585 381.575 531.835 380.75 536.685 380.75C538.235 380.75 539.885 380.925 541.635 381.275C543.435 381.625 544.96 382 546.21 382.4L544.41 387.95C541.31 387.05 538.76 386.6 536.76 386.6C534.56 386.6 533.085 386.8 532.335 387.2C531.585 387.6 531.21 388.175 531.21 388.925C531.21 389.725 531.66 390.375 532.56 390.875C533.51 391.375 534.985 391.925 536.985 392.525C539.185 393.175 540.985 393.825 542.385 394.475C543.835 395.125 545.06 396.05 546.06 397.25C547.11 398.45 547.635 399.975 547.635 401.825C547.635 404.075 546.66 406.125 544.71 407.975C542.81 409.775 539.46 410.675 534.66 410.675Z" fill="#FFF6F1"/>
<path d="M558.679 382.625C560.729 381.375 562.929 380.75 565.279 380.75C569.629 380.75 572.954 382.1 575.254 384.8C577.604 387.45 578.779 391.1 578.779 395.75V398.525H559.204C559.404 400.975 560.254 402.675 561.754 403.625C563.254 404.575 565.379 405.05 568.129 405.05C571.029 405.05 573.679 404.75 576.079 404.15L577.354 409.025C574.104 410.175 570.704 410.75 567.154 410.75C562.204 410.75 558.429 409.375 555.829 406.625C553.229 403.875 551.929 400.25 551.929 395.75C551.929 392.75 552.554 390.125 553.804 387.875C555.054 385.575 556.679 383.825 558.679 382.625ZM569.929 388.25C568.779 387 567.279 386.375 565.429 386.375C563.929 386.375 562.554 387 561.304 388.25C560.104 389.5 559.454 391.25 559.354 393.5H571.654C571.654 391.2 571.079 389.45 569.929 388.25Z" fill="#FFF6F1"/>
<path d="M584.451 381.2H589.551L590.451 383.3C593.851 381.65 597.176 380.825 600.426 380.825C603.476 380.825 605.751 381.5 607.251 382.85C608.801 384.2 609.776 385.775 610.176 387.575C610.626 389.375 610.851 391.4 610.851 393.65V410H603.726V392.75C603.726 391.25 603.351 389.9 602.601 388.7C601.851 387.5 600.501 386.9 598.551 386.9C596.801 386.9 594.476 387.425 591.576 388.475V410H584.451V381.2Z" fill="#FFF6F1"/>
<path d="M528 252C528 295.078 493.078 330 450 330C406.922 330 372 295.078 372 252C372 208.922 406.922 174 450 174C493.078 174 528 208.922 528 252Z" fill="#FFF6F1"/>
<path d="M444.667 291.353V255.048L412.667 236.63V272.935L444.667 291.353ZM455.333 291.353L487.333 272.935V236.63L455.333 255.048V291.353ZM450 245.905L481.6 227.753L450 209.6L418.4 227.753L450 245.905ZM407.333 282.21C405.644 281.238 404.333 279.957 403.4 278.367C402.467 276.777 402 275.011 402 273.068V230.932C402 228.989 402.467 227.222 403.4 225.632C404.333 224.042 405.644 222.762 407.333 221.79L444.667 200.458C446.356 199.486 448.133 199 450 199C451.867 199 453.644 199.486 455.333 200.458L492.667 221.79C494.356 222.762 495.667 224.042 496.6 225.632C497.533 227.222 498 228.989 498 230.932V273.068C498 275.011 497.533 276.777 496.6 278.367C495.667 279.957 494.356 281.238 492.667 282.21L455.333 303.543C453.644 304.514 451.867 305 450 305C448.133 305 446.356 304.514 444.667 303.543L407.333 282.21Z" fill="#0C4857"/>
</svg>
