<svg width="449" height="214" viewBox="0 0 449 214" fill="none" xmlns="http://www.w3.org/2000/svg">
<path d="M0 49.9245C0 22.352 22.3193 0 49.8516 0H399.148C426.681 0 449 22.352 449 49.9245V164.076C449 191.648 426.681 214 399.148 214H49.8516C22.3193 214 0 191.648 0 164.076V49.9245Z" fill="#FFF6F1" fill-opacity="0.2"/>
<path d="M119.805 60.5255V53.6391H155.594V60.5255H141.528V96.6792H133.871V60.5255H119.805Z" fill="#FFF6F1"/>
<path d="M160.109 96.6792V66.6294H167.61V96.6792H160.109ZM160.499 60.1342C161.437 61.0733 162.557 61.5428 163.859 61.5428C165.214 61.5428 166.334 61.0733 167.219 60.1342C168.157 59.1952 168.626 58.0735 168.626 56.7693C168.626 55.4129 168.157 54.2912 167.219 53.4043C166.334 52.4653 165.214 51.9958 163.859 51.9958C162.557 51.9958 161.437 52.4653 160.499 53.4043C159.562 54.2912 159.093 55.4129 159.093 56.7693C159.093 58.0735 159.562 59.1952 160.499 60.1342Z" fill="#FFF6F1"/>
<path d="M183.609 90.3405C184.13 91.1231 185.042 91.5144 186.344 91.5144C187.386 91.5144 188.584 91.3318 189.939 90.9666V95.8966C187.803 96.8878 185.563 97.3835 183.219 97.3835C178.114 97.3835 175.561 94.5663 175.561 88.932V53.6391H182.906V86.7408C182.906 88.3059 183.141 89.5058 183.609 90.3405Z" fill="#FFF6F1"/>
<path d="M194.139 66.6294H199.452L200.39 68.8205C200.703 68.7162 201.354 68.4553 202.344 68.038C203.333 67.6206 204.505 67.2293 205.86 66.8641C207.214 66.4468 208.647 66.2381 210.158 66.2381C213.544 66.2381 216.122 67.2554 217.893 69.29C221.957 67.2554 225.603 66.2381 228.833 66.2381C233.105 66.2381 235.866 67.5163 237.116 70.0726C238.418 72.6289 239.07 75.8113 239.07 79.6196V96.6792H231.646V78.6806C231.646 77.1155 231.308 75.7069 230.63 74.4548C229.953 73.2028 228.703 72.5767 226.88 72.5767C225.942 72.5767 224.952 72.7332 223.91 73.0463C222.868 73.3071 221.54 73.7766 219.925 74.4548C220.29 76.2286 220.472 78.0546 220.472 79.9327V96.6792H212.971V78.6806C212.971 77.1155 212.606 75.7069 211.877 74.4548C211.199 73.2028 209.949 72.5767 208.126 72.5767C207.397 72.5767 206.537 72.7072 205.547 72.968C204.61 73.1767 203.281 73.594 201.562 74.2201V96.6792H194.139V66.6294Z" fill="#FFF6F1"/>
<path d="M251.96 68.1162C254.096 66.812 256.388 66.1599 258.837 66.1599C263.369 66.1599 266.833 67.5684 269.229 70.3856C271.678 73.1506 272.902 76.959 272.902 81.8108V84.7062H252.507C252.716 87.2625 253.601 89.0363 255.164 90.0275C256.727 91.0187 258.941 91.5144 261.806 91.5144C264.827 91.5144 267.588 91.2013 270.089 90.5753L271.417 95.6619C268.031 96.8618 264.489 97.4617 260.79 97.4617C255.633 97.4617 251.7 96.027 248.991 93.1577C246.282 90.2884 244.928 86.5061 244.928 81.8108C244.928 78.6806 245.579 75.9417 246.881 73.594C248.183 71.1942 249.876 69.3683 251.96 68.1162ZM263.681 73.9853C262.483 72.6811 260.92 72.029 258.993 72.029C257.43 72.029 255.997 72.6811 254.695 73.9853C253.445 75.2896 252.768 77.1155 252.663 79.4631H265.479C265.479 77.0633 264.879 75.2374 263.681 73.9853Z" fill="#FFF6F1"/>
<path d="M287.329 90.3405C287.849 91.1231 288.761 91.5144 290.063 91.5144C291.105 91.5144 292.303 91.3318 293.658 90.9666V95.8966C291.522 96.8878 289.282 97.3835 286.938 97.3835C281.833 97.3835 279.28 94.5663 279.28 88.932V53.6391H286.625V86.7408C286.625 88.3059 286.86 89.5058 287.329 90.3405Z" fill="#FFF6F1"/>
<path d="M318.253 67.4119V53.6391H325.754V96.6792H320.362L319.815 95.0358C317.159 96.6009 314.476 97.3835 311.767 97.3835C307.026 97.3835 303.276 95.9749 300.515 93.1577C297.806 90.3405 296.451 86.5321 296.451 81.7325C296.451 78.1328 297.207 75.1591 298.717 72.8115C300.28 70.4639 302.182 68.7683 304.422 67.7249C306.662 66.6815 308.902 66.1599 311.142 66.1599C314.007 66.1599 316.377 66.5772 318.253 67.4119ZM318.253 73.0463C316.69 72.3681 314.893 72.029 312.861 72.029C307.078 72.029 304.187 75.3939 304.187 82.1238C304.187 85.4627 304.995 87.8625 306.61 89.3232C308.225 90.784 310.386 91.5144 313.095 91.5144C315.023 91.5144 316.742 91.0187 318.253 90.0275V73.0463Z" fill="#FFF6F1"/>
<path d="M79.7669 128.441H85.0805L86.0182 130.632C88.7791 128.858 91.7224 127.971 94.848 127.971C96.7755 127.971 98.5988 128.362 100.318 129.145L98.8332 135.953L98.5206 136.031C96.7494 134.988 94.6136 134.466 92.1131 134.466C90.394 134.466 88.7531 134.753 87.1903 135.327V158.49H79.7669V128.441Z" fill="#FFF6F1"/>
<path d="M110.3 129.927C112.436 128.623 114.728 127.971 117.177 127.971C121.709 127.971 125.173 129.38 127.569 132.197C130.018 134.962 131.242 138.77 131.242 143.622V146.517H110.847C111.056 149.074 111.941 150.848 113.504 151.839C115.067 152.83 117.281 153.326 120.146 153.326C123.167 153.326 125.928 153.013 128.429 152.387L129.757 157.473C126.371 158.673 122.829 159.273 119.13 159.273C113.973 159.273 110.04 157.838 107.331 154.969C104.622 152.1 103.268 148.317 103.268 143.622C103.268 140.492 103.919 137.753 105.221 135.405C106.524 133.005 108.217 131.18 110.3 129.927ZM122.021 135.797C120.823 134.492 119.26 133.84 117.333 133.84C115.77 133.84 114.338 134.492 113.035 135.797C111.785 137.101 111.108 138.927 111.004 141.274H123.819C123.819 138.875 123.219 137.049 122.021 135.797Z" fill="#FFF6F1"/>
<path d="M147.544 159.195C143.689 159.195 139.808 158.282 135.901 156.456L138.011 150.587C139.782 151.213 141.579 151.734 143.403 152.152C145.226 152.569 146.736 152.778 147.935 152.778C150.123 152.778 151.659 152.543 152.545 152.074C153.431 151.604 153.873 150.874 153.873 149.882C153.873 149.204 153.457 148.656 152.623 148.239C151.79 147.822 150.409 147.3 148.482 146.674C146.19 145.996 144.262 145.318 142.699 144.639C141.136 143.909 139.782 142.866 138.636 141.509C137.49 140.101 136.917 138.327 136.917 136.188C136.917 134.101 137.776 132.223 139.495 130.554C141.215 128.832 144.601 127.971 149.654 127.971C151.269 127.971 152.988 128.154 154.811 128.519C156.686 128.884 158.275 129.275 159.578 129.693L157.702 135.484C154.472 134.545 151.816 134.075 149.732 134.075C147.44 134.075 145.903 134.284 145.122 134.701C144.34 135.118 143.949 135.718 143.949 136.501C143.949 137.336 144.418 138.014 145.356 138.536C146.346 139.057 147.883 139.631 149.966 140.257C152.258 140.935 154.134 141.614 155.592 142.292C157.103 142.97 158.379 143.935 159.421 145.187C160.515 146.439 161.062 148.03 161.062 149.961C161.062 152.308 160.046 154.447 158.015 156.378C156.035 158.256 152.545 159.195 147.544 159.195Z" fill="#FFF6F1"/>
<path d="M181.398 153.091C182.909 153.091 184.836 152.778 187.181 152.152L188.196 157.473C186.373 157.995 184.81 158.412 183.508 158.725C182.258 159.038 181.008 159.195 179.757 159.195C175.434 159.195 172.542 158.282 171.084 156.456C169.677 154.63 168.974 152.1 168.974 148.865V134.31H163.973V128.441H168.974V119.833H176.475V128.441H186.868V134.31H176.475V148.709C176.475 151.63 178.116 153.091 181.398 153.091Z" fill="#FFF6F1"/>
<path d="M194.059 130.006C198.123 128.649 201.457 127.971 204.061 127.971C209.114 127.971 212.631 129.015 214.61 131.101C216.642 133.188 217.658 136.162 217.658 140.022V158.49H211.719L210.86 156.378C208.515 158.256 205.598 159.195 202.108 159.195C198.878 159.195 196.299 158.36 194.372 156.691C192.445 155.021 191.481 152.882 191.481 150.274C191.481 147.352 192.549 145.083 194.685 143.466C196.872 141.796 199.972 140.857 203.983 140.648L209.844 140.335C209.844 137.727 209.375 135.953 208.437 135.014C207.5 134.075 205.65 133.605 202.889 133.605C200.545 133.605 197.993 134.127 195.232 135.171L194.059 130.006ZM208.75 152.621C209.427 152.256 209.896 151.995 210.156 151.839V145.422L204.843 145.813C200.936 146.022 198.982 147.326 198.982 149.726C198.982 150.926 199.425 151.865 200.311 152.543C201.196 153.221 202.42 153.56 203.983 153.56C205.025 153.56 205.911 153.482 206.64 153.326C207.369 153.169 208.073 152.934 208.75 152.621Z" fill="#FFF6F1"/>
<path d="M251.556 158.569H246.399L245.461 156.378C243.482 157.317 241.789 158.021 240.382 158.49C239.028 158.96 237.465 159.195 235.694 159.195C231.161 159.195 228.192 157.89 226.786 155.282C225.431 152.621 224.754 149.387 224.754 145.578V128.441H232.177V146.596C232.177 148.213 232.568 149.648 233.349 150.9C234.131 152.152 235.563 152.778 237.647 152.778C239.939 152.778 242.127 152.178 244.211 150.978V128.441H251.556V158.569Z" fill="#FFF6F1"/>
<path d="M259.062 128.441H264.376L265.314 130.632C268.075 128.858 271.018 127.971 274.144 127.971C276.071 127.971 277.894 128.362 279.613 129.145L278.129 135.953L277.816 136.031C276.045 134.988 273.909 134.466 271.409 134.466C269.69 134.466 268.049 134.753 266.486 135.327V158.49H259.062V128.441Z" fill="#FFF6F1"/>
<path d="M285.142 130.006C289.205 128.649 292.539 127.971 295.144 127.971C300.197 127.971 303.713 129.015 305.693 131.101C307.724 133.188 308.74 136.162 308.74 140.022V158.49H302.802L301.942 156.378C299.598 158.256 296.681 159.195 293.19 159.195C289.96 159.195 287.382 158.36 285.454 156.691C283.527 155.021 282.563 152.882 282.563 150.274C282.563 147.352 283.631 145.083 285.767 143.466C287.955 141.796 291.054 140.857 295.066 140.648L300.926 140.335C300.926 137.727 300.457 135.953 299.52 135.014C298.582 134.075 296.733 133.605 293.972 133.605C291.627 133.605 289.075 134.127 286.314 135.171L285.142 130.006ZM299.832 152.621C300.509 152.256 300.978 151.995 301.239 151.839V145.422L295.925 145.813C292.018 146.022 290.065 147.326 290.065 149.726C290.065 150.926 290.507 151.865 291.393 152.543C292.279 153.221 293.503 153.56 295.066 153.56C296.107 153.56 296.993 153.482 297.722 153.326C298.452 153.169 299.155 152.934 299.832 152.621Z" fill="#FFF6F1"/>
<path d="M315.836 128.441H321.15L322.088 130.632C325.63 128.91 329.094 128.049 332.48 128.049C335.658 128.049 338.028 128.754 339.591 130.162C341.206 131.571 342.222 133.214 342.638 135.092C343.107 136.97 343.342 139.083 343.342 141.431V158.49H335.918V140.492C335.918 138.927 335.528 137.518 334.746 136.266C333.965 135.014 332.558 134.388 330.527 134.388C328.703 134.388 326.281 134.936 323.26 136.031V158.49H315.836V128.441Z" fill="#FFF6F1"/>
<path d="M365.089 153.091C366.6 153.091 368.527 152.778 370.872 152.152L371.887 157.473C370.064 157.995 368.501 158.412 367.199 158.725C365.949 159.038 364.698 159.195 363.448 159.195C359.124 159.195 356.233 158.282 354.775 156.456C353.368 154.63 352.665 152.1 352.665 148.865V134.31H347.664V128.441H352.665V119.833H360.166V128.441H370.559V134.31H360.166V148.709C360.166 151.63 361.807 153.091 365.089 153.091Z" fill="#FFF6F1"/>
</svg>
