<svg width="65" height="46" viewBox="0 0 65 46" fill="none" xmlns="http://www.w3.org/2000/svg">
<path d="M64.3525 9.86426C64.3525 9.86426 63.7178 5.38281 61.7627 3.41504C59.2871 0.825196 56.5195 0.8125 55.25 0.660156C46.1602 -3.57628e-07 32.5127 0 32.5127 0H32.4873C32.4873 0 18.8398 -3.57628e-07 9.75 0.660156C8.48047 0.8125 5.71289 0.825196 3.2373 3.41504C1.28223 5.38281 0.660156 9.86426 0.660156 9.86426C0.660156 9.86426 0 15.1328 0 20.3887V25.3145C0 30.5703 0.647461 35.8389 0.647461 35.8389C0.647461 35.8389 1.28223 40.3203 3.22461 42.2881C5.70019 44.8779 8.9502 44.7891 10.3975 45.0684C15.6025 45.5635 32.5 45.7158 32.5 45.7158C32.5 45.7158 46.1602 45.6904 55.25 45.043C56.5195 44.8906 59.2871 44.8779 61.7627 42.2881C63.7178 40.3203 64.3525 35.8389 64.3525 35.8389C64.3525 35.8389 65 30.583 65 25.3145V20.3887C65 15.1328 64.3525 9.86426 64.3525 9.86426ZM25.7842 31.2939V13.0254L43.3418 22.1914L25.7842 31.2939Z" fill="#FFF6F1"/>
</svg>
