<svg width="408" height="163" viewBox="0 0 408 163" fill="none" xmlns="http://www.w3.org/2000/svg">
<path d="M0 63C0 28.2061 28.2061 0 63 0H345C379.794 0 408 28.2061 408 63V99.5156C408 134.31 379.794 162.516 345 162.516H63C28.2061 162.516 0 134.31 0 99.5156V63Z" fill="#FFF6F1" fill-opacity="0.2"/>
<path d="M99.7427 107V52.6875H118.11C125.286 52.6875 131.014 53.9713 135.293 56.5388C139.638 59.0404 142.699 62.2004 144.476 66.0187C146.254 69.8371 147.143 73.8858 147.143 78.165C147.143 84.6825 145.596 90.4429 142.501 95.4463C139.473 100.45 134.47 103.939 127.491 105.914C125.385 106.375 123.278 106.671 121.171 106.802C119.131 106.934 116.497 107 113.271 107H99.7427ZM132.429 66.0187C129.203 62.9246 124.496 61.3775 118.308 61.3775H109.42V98.2113H115.74C119.954 98.2113 123.739 97.6846 127.096 96.6312C130.454 95.5779 133.054 93.2408 134.898 89.62C135.556 88.6325 136.116 87.2829 136.576 85.5713C137.037 83.7937 137.268 81.7529 137.268 79.4488C137.268 73.5238 135.655 69.0471 132.429 66.0187Z" fill="#FFF6F1"/>
<path d="M183.76 105.42C180.798 107.066 177.375 107.889 173.49 107.889C169.606 107.889 166.183 107.066 163.22 105.42C160.324 103.708 158.053 101.371 156.407 98.4088C154.827 95.4463 154.037 92.0558 154.037 88.2375C154.037 82.115 155.814 77.3092 159.369 73.82C162.924 70.265 167.664 68.4875 173.589 68.4875C179.514 68.4875 184.221 70.265 187.71 73.82C191.265 77.375 193.043 82.1479 193.043 88.1387C193.043 92.0229 192.22 95.4463 190.574 98.4088C188.994 101.371 186.723 103.708 183.76 105.42ZM180.403 79.1525C178.56 76.98 176.255 75.8938 173.49 75.8938C170.791 75.8938 168.487 76.98 166.578 79.1525C164.735 81.325 163.813 84.3533 163.813 88.2375C163.813 92.0558 164.735 95.0512 166.578 97.2237C168.421 99.3304 170.725 100.384 173.49 100.384C176.387 100.384 178.724 99.3304 180.502 97.2237C182.345 95.1171 183.267 92.1217 183.267 88.2375C183.267 84.2875 182.312 81.2592 180.403 79.1525Z" fill="#FFF6F1"/>
<path d="M200.616 69.08H207.331L208.516 71.845C212.992 69.6725 217.37 68.5863 221.65 68.5863C225.665 68.5863 228.661 69.475 230.636 71.2525C232.677 73.03 233.96 75.1037 234.487 77.4737C235.08 79.8437 235.376 82.51 235.376 85.4725V107H225.995V84.2875C225.995 82.3125 225.501 80.535 224.513 78.955C223.526 77.375 221.748 76.585 219.181 76.585C216.877 76.585 213.815 77.2763 209.997 78.6588V107H200.616V69.08Z" fill="#FFF6F1"/>
<path d="M251.7 70.9563C254.4 69.3104 257.296 68.4875 260.39 68.4875C266.118 68.4875 270.496 70.265 273.524 73.82C276.618 77.3092 278.165 82.115 278.165 88.2375V91.8913H252.392C252.655 95.1171 253.774 97.3554 255.749 98.6062C257.724 99.8571 260.522 100.482 264.143 100.482C267.961 100.482 271.45 100.088 274.61 99.2975L276.289 105.716C272.01 107.23 267.533 107.988 262.859 107.988C256.342 107.988 251.371 106.177 247.948 102.556C244.525 98.9354 242.813 94.1625 242.813 88.2375C242.813 84.2875 243.636 80.8313 245.282 77.8688C246.928 74.8404 249.067 72.5363 251.7 70.9563ZM266.513 78.3625C264.999 76.7167 263.024 75.8938 260.588 75.8938C258.613 75.8938 256.803 76.7167 255.157 78.3625C253.577 80.0083 252.721 82.3125 252.589 85.275H268.784C268.784 82.2467 268.027 79.9425 266.513 78.3625ZM252.688 65.7225L247.652 59.8963L264.34 44.3925L270.759 51.7L252.688 65.7225Z" fill="#FFF6F1"/>
<path d="M285.633 69.08H292.348L293.533 71.845C297.023 69.6067 300.742 68.4875 304.692 68.4875C307.128 68.4875 309.432 68.9813 311.605 69.9688L309.728 78.56L309.333 78.6588C307.095 77.3421 304.396 76.6838 301.236 76.6838C299.063 76.6838 296.99 77.0458 295.015 77.77V107H285.633V69.08Z" fill="#FFF6F1"/>
</svg>
