<svg width="411" height="120" viewBox="0 0 411 120" fill="none" xmlns="http://www.w3.org/2000/svg">
<path d="M0 60C0 26.8629 26.8629 0 60 0H351C384.137 0 411 26.8629 411 60C411 93.1371 384.137 120 351 120H60C26.8629 120 0 93.1371 0 60Z" fill="#FFF6F1"/>
<path d="M83.1436 42.625H89.2686V77H83.1436V42.625ZM104.081 77L89.7686 59.25L103.456 42.625H110.331L96.7686 59.25L111.331 77H104.081Z" fill="#E05263"/>
<path d="M132.511 76C130.636 77.0417 128.469 77.5625 126.011 77.5625C123.552 77.5625 121.386 77.0417 119.511 76C117.677 74.9167 116.24 73.4375 115.198 71.5625C114.198 69.6875 113.698 67.5417 113.698 65.125C113.698 61.25 114.823 58.2083 117.073 56C119.323 53.75 122.323 52.625 126.073 52.625C129.823 52.625 132.802 53.75 135.011 56C137.261 58.25 138.386 61.2708 138.386 65.0625C138.386 67.5208 137.865 69.6875 136.823 71.5625C135.823 73.4375 134.386 74.9167 132.511 76ZM130.386 59.375C129.219 58 127.761 57.3125 126.011 57.3125C124.302 57.3125 122.844 58 121.636 59.375C120.469 60.75 119.886 62.6667 119.886 65.125C119.886 67.5417 120.469 69.4375 121.636 70.8125C122.802 72.1458 124.261 72.8125 126.011 72.8125C127.844 72.8125 129.323 72.1458 130.448 70.8125C131.615 69.4792 132.198 67.5833 132.198 65.125C132.198 62.625 131.594 60.7083 130.386 59.375Z" fill="#E05263"/>
<path d="M143.179 53H147.429L148.179 54.75C148.429 54.6667 148.95 54.4583 149.741 54.125C150.533 53.7917 151.47 53.4792 152.554 53.1875C153.637 52.8542 154.783 52.6875 155.991 52.6875C158.7 52.6875 160.762 53.5 162.179 55.125C165.429 53.5 168.345 52.6875 170.929 52.6875C174.345 52.6875 176.554 53.7083 177.554 55.75C178.595 57.7917 179.116 60.3333 179.116 63.375V77H173.179V62.625C173.179 61.375 172.908 60.25 172.366 59.25C171.825 58.25 170.825 57.75 169.366 57.75C168.616 57.75 167.825 57.875 166.991 58.125C166.158 58.3333 165.095 58.7083 163.804 59.25C164.095 60.6667 164.241 62.125 164.241 63.625V77H158.241V62.625C158.241 61.375 157.95 60.25 157.366 59.25C156.825 58.25 155.825 57.75 154.366 57.75C153.783 57.75 153.095 57.8542 152.304 58.0625C151.554 58.2292 150.491 58.5625 149.116 59.0625V77H143.179V53Z" fill="#E05263"/>
<path d="M198.821 77V53H204.821V77H198.821ZM199.134 47.8125C199.884 48.5625 200.78 48.9375 201.821 48.9375C202.905 48.9375 203.8 48.5625 204.509 47.8125C205.259 47.0625 205.634 46.1667 205.634 45.125C205.634 44.0417 205.259 43.1458 204.509 42.4375C203.8 41.6875 202.905 41.3125 201.821 41.3125C200.78 41.3125 199.884 41.6875 199.134 42.4375C198.384 43.1458 198.009 44.0417 198.009 45.125C198.009 46.1667 198.384 47.0625 199.134 47.8125Z" fill="#E05263"/>
<path d="M240.325 81.3125C240.742 80.0625 240.95 78.4375 240.95 76.4375V76.3125C239.992 76.7292 239.117 77.0417 238.325 77.25C237.575 77.4583 236.7 77.5625 235.7 77.5625C231.909 77.5625 228.909 76.4375 226.7 74.1875C224.534 71.9375 223.45 68.8958 223.45 65.0625C223.45 62.0625 224.054 59.6458 225.263 57.8125C226.471 55.9375 227.929 54.6042 229.638 53.8125C231.388 53.0208 233.138 52.625 234.888 52.625C237.388 52.625 239.804 53.2708 242.138 54.5625L242.7 53H246.888V77.5625C246.888 80.9375 245.888 83.8542 243.888 86.3125C241.888 88.8125 238.554 90.0625 233.888 90.0625C231.013 90.0625 228.242 89.5417 225.575 88.5L224.638 88.125L226.263 83.75L227.263 84.0625C229.596 84.8958 231.596 85.3125 233.263 85.3125C235.388 85.3125 236.992 84.9583 238.075 84.25C239.2 83.5417 239.95 82.5625 240.325 81.3125ZM240.888 58.25C239.554 57.6667 238.117 57.375 236.575 57.375C231.95 57.375 229.638 60.0417 229.638 65.375C229.638 68.0417 230.284 69.9583 231.575 71.125C232.867 72.2917 234.596 72.875 236.763 72.875C238.304 72.875 239.679 72.4792 240.888 71.6875V58.25Z" fill="#E05263"/>
<path d="M253.931 54.25C257.181 53.1667 259.847 52.625 261.931 52.625C265.972 52.625 268.785 53.4583 270.368 55.125C271.993 56.7917 272.806 59.1667 272.806 62.25V77H268.056L267.368 75.3125C265.493 76.8125 263.16 77.5625 260.368 77.5625C257.785 77.5625 255.722 76.8958 254.181 75.5625C252.639 74.2292 251.868 72.5208 251.868 70.4375C251.868 68.1042 252.722 66.2917 254.431 65C256.181 63.6667 258.66 62.9167 261.868 62.75L266.556 62.5C266.556 60.4167 266.181 59 265.431 58.25C264.681 57.5 263.201 57.125 260.993 57.125C259.118 57.125 257.076 57.5417 254.868 58.375L253.931 54.25ZM265.681 72.3125C266.222 72.0208 266.597 71.8125 266.806 71.6875V66.5625L262.556 66.875C259.431 67.0417 257.868 68.0833 257.868 70C257.868 70.9583 258.222 71.7083 258.931 72.25C259.639 72.7917 260.618 73.0625 261.868 73.0625C262.701 73.0625 263.41 73 263.993 72.875C264.576 72.75 265.139 72.5625 265.681 72.3125Z" fill="#E05263"/>
<path d="M278.481 53H282.731L283.481 54.75C286.315 53.375 289.086 52.6875 291.794 52.6875C294.336 52.6875 296.231 53.25 297.481 54.375C298.773 55.5 299.586 56.8125 299.919 58.3125C300.294 59.8125 300.481 61.5 300.481 63.375V77H294.544V62.625C294.544 61.375 294.231 60.25 293.606 59.25C292.981 58.25 291.856 57.75 290.231 57.75C288.773 57.75 286.836 58.1875 284.419 59.0625V77H278.481V53Z" fill="#E05263"/>
<path d="M322.063 81.3125C322.48 80.0625 322.688 78.4375 322.688 76.4375V76.3125C321.73 76.7292 320.855 77.0417 320.063 77.25C319.313 77.4583 318.438 77.5625 317.438 77.5625C313.647 77.5625 310.647 76.4375 308.438 74.1875C306.272 71.9375 305.188 68.8958 305.188 65.0625C305.188 62.0625 305.793 59.6458 307.001 57.8125C308.209 55.9375 309.668 54.6042 311.376 53.8125C313.126 53.0208 314.876 52.625 316.626 52.625C319.126 52.625 321.543 53.2708 323.876 54.5625L324.438 53H328.626V77.5625C328.626 80.9375 327.626 83.8542 325.626 86.3125C323.626 88.8125 320.293 90.0625 315.626 90.0625C312.751 90.0625 309.98 89.5417 307.313 88.5L306.376 88.125L308.001 83.75L309.001 84.0625C311.334 84.8958 313.334 85.3125 315.001 85.3125C317.126 85.3125 318.73 84.9583 319.813 84.25C320.938 83.5417 321.688 82.5625 322.063 81.3125ZM322.626 58.25C321.293 57.6667 319.855 57.375 318.313 57.375C313.688 57.375 311.376 60.0417 311.376 65.375C311.376 68.0417 312.022 69.9583 313.313 71.125C314.605 72.2917 316.334 72.875 318.501 72.875C320.043 72.875 321.418 72.4792 322.626 71.6875V58.25Z" fill="#E05263"/>
</svg>
