<?xml version='1.0' encoding='utf-8'?>
<svg xmlns="http://www.w3.org/2000/svg" width="337" height="444" viewBox="0 0 337 444" fill="none">
<path fill-rule="evenodd" clip-rule="evenodd" d="M150.858 168.358C133.712 168.982 93.247 172.103 68.5562 179.593C37.6927 188.955 37.0876 195.196 9.85521 236.39C-17.3772 277.585 20.143 281.954 23.1688 291.316C26.1946 306.92 24.9843 345.617 24.9843 358.1C24.9843 370.583 34.4025 388.06 49.7962 394.925C67.7089 402.915 124.635 428.214 150.858 439.864C156.507 442.985 172.039 447.354 188.984 439.864C205.928 432.375 262.612 404.288 288.836 391.18C296.501 387.436 311.953 375.701 312.437 358.724C312.921 341.748 312.639 309.208 312.437 295.061C312.235 293.813 314.616 289.568 325.751 282.578C339.669 273.84 340.427 255.459 329.382 239.511C305.175 204.559 300.939 187.707 264.024 179.593C255.913 177.81 220.452 169.606 172.039 167.109C169.013 130.909 171.192 73.112 235.581 51.6411C219.847 67.2449 180.511 95.3318 180.511 140.895C202.297 140.895 304.57 109.687 296.098 1.70882C257.972 -3.28441 167.803 -5.15692 155.7 113.432C136.94 59.1309 98.2093 31.044 43.7445 45.3995C43.7445 103.446 90.342 140.895 130.888 144.016C145.412 145.134 150.858 157.123 150.858 168.358ZM99.4196 388.06C39.5083 363.094 49.7961 361.221 49.7962 306.92C136.334 353.731 131.493 348.738 169.013 295.061V414.898C159.331 415.897 118.583 397.422 99.4196 388.06ZM196.851 291.316C178.091 266.35 200.482 265.695 207.139 262.605C219.242 256.987 247.685 242.632 268.26 232.021C291.256 220.163 284.769 222.063 300.939 242.632C319.094 265.726 306.991 266.766 300.939 269.471C292.265 273.84 268.018 286.198 240.423 300.678C205.928 318.779 215.611 316.282 196.851 291.316ZM36.4824 242.008C44.7238 228.276 43.7445 221.411 68.5562 232.021L130.888 262.605C153.158 272.591 144.771 277.585 136.94 291.316C122.416 316.781 124.836 315.304 109.102 306.92C96.9989 300.47 66.7315 285.374 43.7445 273.84C21.3533 262.605 32.3617 248.873 36.4824 242.008ZM150.858 242.632L78.2388 208.928C98.0882 195.402 138.15 192.057 155.7 192.076C155.095 215.793 155.7 217.042 169.013 217.042C174.722 217.042 173.855 208.928 173.855 192.076C225.657 194.572 251.517 204.351 257.973 208.928C237.599 216.626 213.795 228.901 180.511 242.632C166.17 248.549 155.296 246.169 150.858 242.632Z" fill="#727a43" />
</svg>