<svg width="609" height="163" viewBox="0 0 609 163" fill="none" xmlns="http://www.w3.org/2000/svg">
<path d="M0 63C0 28.2061 28.2061 0 63 0H546C580.794 0 609 28.2061 609 63V99.5156C609 134.31 580.794 162.516 546 162.516H63C28.2061 162.516 0 134.31 0 99.5156V63Z" fill="#FFF6F1" fill-opacity="0.1"/>
<path d="M103.814 107V52.6875H122.28C129.324 52.6875 134.196 54.1688 136.895 57.1313C139.66 60.0279 141.042 63.2538 141.042 66.8088C141.042 71.9438 138.672 75.9596 133.932 78.8563C137.553 79.5804 140.351 81.2263 142.326 83.7938C144.367 86.3613 145.387 89.1592 145.387 92.1875C145.387 96.2033 143.577 99.6925 139.956 102.655C136.401 105.552 130.081 107 120.996 107H103.814ZM129.192 62.8588C127.546 61.6738 124.65 61.0812 120.502 61.0812H113.491V75.005H120.502C124.452 75.005 127.283 74.4454 128.995 73.3262C130.772 72.2071 131.661 70.4625 131.661 68.0925C131.661 65.7883 130.838 64.0438 129.192 62.8588ZM131.957 85.1762C129.456 83.7937 125.407 83.1025 119.811 83.1025L113.491 83.2012V98.5075H119.811C125.275 98.5075 129.291 97.9808 131.859 96.9275C134.492 95.8742 135.809 93.9321 135.809 91.1012C135.809 88.4679 134.525 86.4929 131.957 85.1762Z" fill="white"/>
<path d="M163.838 99.0013C164.496 99.9888 165.649 100.482 167.294 100.482C168.611 100.482 170.125 100.252 171.837 99.7913V106.012C169.138 107.263 166.307 107.889 163.344 107.889C156.893 107.889 153.667 104.334 153.667 97.2237V52.6875H162.949V94.4587C162.949 96.4337 163.246 97.9479 163.838 99.0013Z" fill="white"/>
<path d="M177.342 107V69.08H186.822V107H177.342ZM177.836 60.8838C179.021 62.0688 180.436 62.6613 182.082 62.6613C183.794 62.6613 185.209 62.0688 186.328 60.8838C187.513 59.6988 188.106 58.2833 188.106 56.6375C188.106 54.9258 187.513 53.5104 186.328 52.3913C185.209 51.2063 183.794 50.6138 182.082 50.6138C180.436 50.6138 179.021 51.2063 177.836 52.3913C176.651 53.5104 176.058 54.9258 176.058 56.6375C176.058 58.2833 176.651 59.6988 177.836 60.8838Z" fill="white"/>
<path d="M221.162 69.08H231.037L216.916 107H207.337L192.722 69.08H203.289L212.275 97.0263L221.162 69.08Z" fill="white"/>
<path d="M255.938 69.08H262.258V66.1175C262.258 62.8258 263.311 59.6988 265.418 56.7363C267.59 53.7737 271.705 52.2925 277.762 52.2925C280.79 52.2925 284.016 52.7862 287.439 53.7738L288.822 54.2675L287.34 61.0812L285.76 60.5875C283.851 60.0608 281.909 59.7975 279.934 59.7975C277.367 59.7975 275.326 60.3242 273.812 61.3775C272.363 62.4308 271.639 63.9121 271.639 65.8213V69.08H285.76V76.4863H271.639V107H262.258V76.4863H255.938V69.08Z" fill="white"/>
<path d="M290.167 69.08H296.882L298.067 71.845C301.556 69.6067 305.276 68.4875 309.226 68.4875C311.662 68.4875 313.966 68.9813 316.138 69.9688L314.262 78.56L313.867 78.6588C311.629 77.3421 308.93 76.6838 305.77 76.6838C303.597 76.6838 301.523 77.0458 299.548 77.77V107H290.167V69.08Z" fill="white"/>
<path d="M321.841 107V69.08H331.321V107H321.841ZM322.335 60.8838C323.52 62.0688 324.935 62.6613 326.581 62.6613C328.293 62.6613 329.708 62.0688 330.827 60.8838C332.012 59.6988 332.605 58.2833 332.605 56.6375C332.605 54.9258 332.012 53.5104 330.827 52.3913C329.708 51.2063 328.293 50.6138 326.581 50.6138C324.935 50.6138 323.52 51.2063 322.335 52.3913C321.15 53.5104 320.557 54.9258 320.557 56.6375C320.557 58.2833 321.15 59.6988 322.335 60.8838Z" fill="white"/>
<path d="M365.661 69.08H375.536L361.415 107H351.837L337.221 69.08H347.788L356.774 97.0263L365.661 69.08Z" fill="white"/>
<path d="M381.94 107V69.08H391.42V107H381.94ZM382.434 60.8838C383.619 62.0688 385.034 62.6613 386.68 62.6613C388.391 62.6613 389.807 62.0688 390.926 60.8838C392.111 59.6988 392.704 58.2833 392.704 56.6375C392.704 54.9258 392.111 53.5104 390.926 52.3913C389.807 51.2063 388.391 50.6138 386.68 50.6138C385.034 50.6138 383.619 51.2063 382.434 52.3913C381.249 53.5104 380.656 54.9258 380.656 56.6375C380.656 58.2833 381.249 59.6988 382.434 60.8838Z" fill="white"/>
<path d="M411.639 99.0013C412.297 99.9888 413.449 100.482 415.095 100.482C416.412 100.482 417.926 100.252 419.638 99.7913V106.012C416.938 107.263 414.108 107.889 411.145 107.889C404.693 107.889 401.468 104.334 401.468 97.2237V52.6875H410.75V94.4587C410.75 96.4337 411.046 97.9479 411.639 99.0013Z" fill="white"/>
<path d="M435.709 99.0013C436.368 99.9888 437.52 100.482 439.165 100.482C440.482 100.482 441.996 100.252 443.708 99.7913V106.012C441.009 107.263 438.178 107.889 435.215 107.889C428.764 107.889 425.538 104.334 425.538 97.2237V52.6875H434.82V94.4587C434.82 96.4337 435.117 97.9479 435.709 99.0013Z" fill="white"/>
<path d="M449.213 107V69.08H458.693V107H449.213ZM449.707 60.8838C450.892 62.0688 452.307 62.6613 453.953 62.6613C455.665 62.6613 457.08 62.0688 458.2 60.8838C459.385 59.6988 459.977 58.2833 459.977 56.6375C459.977 54.9258 459.385 53.5104 458.2 52.3913C457.08 51.2063 455.665 50.6138 453.953 50.6138C452.307 50.6138 450.892 51.2063 449.707 52.3913C448.522 53.5104 447.93 54.9258 447.93 56.6375C447.93 58.2833 448.522 59.6988 449.707 60.8838Z" fill="white"/>
<path d="M493.034 113.814C493.692 111.839 494.021 109.271 494.021 106.111V105.914C492.507 106.572 491.124 107.066 489.874 107.395C488.689 107.724 487.306 107.889 485.726 107.889C479.735 107.889 474.995 106.111 471.506 102.556C468.083 99.0013 466.371 94.1954 466.371 88.1387C466.371 83.3987 467.326 79.5804 469.235 76.6838C471.144 73.7213 473.448 71.6146 476.147 70.3638C478.912 69.1129 481.677 68.4875 484.442 68.4875C488.392 68.4875 492.211 69.5079 495.897 71.5488L496.786 69.08H503.402V107.889C503.402 113.221 501.822 117.83 498.662 121.714C495.502 125.664 490.236 127.639 482.862 127.639C478.32 127.639 473.942 126.816 469.729 125.17L468.247 124.577L470.815 117.665L472.395 118.159C476.082 119.475 479.241 120.134 481.875 120.134C485.232 120.134 487.767 119.574 489.479 118.455C491.256 117.336 492.441 115.789 493.034 113.814ZM493.922 77.375C491.816 76.4533 489.544 75.9925 487.109 75.9925C479.801 75.9925 476.147 80.2058 476.147 88.6325C476.147 92.8458 477.168 95.8742 479.209 97.7175C481.249 99.5608 483.981 100.482 487.405 100.482C489.841 100.482 492.013 99.8571 493.922 98.6062V77.375Z" fill="white"/>
</svg>
